<?xml version="1.0" encoding="UTF-8" standalone="no"?>
<svg xmlns:xlink="http://www.w3.org/1999/xlink" height="29.75px" width="54.15px" xmlns="http://www.w3.org/2000/svg">
  <g transform="matrix(1.0, 0.0, 0.0, 1.0, 27.1, 14.45)">
    <path d="M18.75 -1.65 L11.1 -3.05 12.9 -7.35 5.25 -5.95 2.1 -10.05 -2.65 -6.45 -9.6 -8.75 -9.55 -4.35 -17.6 -3.95 -12.8 -0.35 -19.0 2.55 -11.2 3.9 -13.05 8.25 -5.45 6.8 -2.25 10.95 2.5 7.35 9.4 9.65 9.3 5.2 17.4 4.8 12.6 1.25 18.75 -1.65 M15.1 -11.9 L14.6 -8.15 21.3 -8.75 18.7 -5.25 25.4 -4.65 20.95 -1.8 27.05 -0.05 21.15 1.9 26.0 4.55 19.35 5.45 22.4 8.8 15.6 8.5 16.6 12.2 10.3 10.75 9.2 14.45 4.0 12.0 0.9 15.3 -2.65 12.1 -7.55 14.75 -9.1 11.1 -15.2 12.75 -14.7 9.0 -21.45 9.55 -18.75 6.15 -25.45 5.55 -21.05 2.7 -27.1 0.95 -23.85 -0.1 -23.75 -0.1 -21.3 -1.0 -25.1 -3.15 -25.9 -3.7 -18.9 -4.75 -19.5 -4.7 -22.45 -7.9 -15.65 -7.6 -16.7 -11.3 -10.35 -9.85 -9.25 -13.55 -4.1 -11.1 -0.95 -14.45 2.6 -11.25 7.45 -13.9 9.05 -10.25 15.1 -11.9" fill="url(#gradient0)" fill-rule="evenodd" stroke="none"/>
    <path d="M-15.85 -4.1 L-15.9 -4.7 Q-15.9 -6.4 -14.65 -7.85 -13.5 -9.1 -11.4 -10.2 L-11.3 -10.25 Q-6.7 -12.55 -0.2 -12.55 6.3 -12.55 10.9 -10.25 L11.05 -10.15 Q13.2 -9.1 14.3 -7.8 L14.75 -7.2 Q15.6 -5.95 15.6 -4.55 L15.55 -3.95 15.5 -4.35 14.8 -5.9 Q13.7 -7.55 11.0 -8.9 L9.0 -9.8 Q5.05 -11.2 -0.1 -11.2 -5.2 -11.2 -9.1 -9.85 L-11.2 -8.9 Q-15.4 -6.8 -15.75 -3.95 L-15.8 -4.4 -15.85 -4.1" fill="#898c72" fill-rule="evenodd" stroke="none"/>
    <path d="M14.75 -7.2 L14.3 -7.8 Q13.2 -9.1 11.05 -10.15 L10.9 -10.25 Q6.3 -12.55 -0.2 -12.55 -6.7 -12.55 -11.3 -10.25 L-11.4 -10.2 Q-13.5 -9.1 -14.65 -7.85 -15.9 -6.4 -15.9 -4.7 L-15.85 -4.1 -15.9 -3.5 Q-15.9 -2.1 -15.05 -0.9 -13.95 0.8 -11.2 2.15 -6.6 4.5 -0.1 4.5 6.4 4.5 11.0 2.15 15.6 -0.1 15.6 -3.35 L15.55 -3.95 15.6 -4.55 Q15.6 -5.95 14.75 -7.2 M-19.95 -5.65 L-19.9 -5.7 Q-18.8 -8.7 -14.45 -11.0 -8.55 -14.1 -0.2 -14.1 8.1 -14.1 14.0 -11.0 18.5 -8.65 19.6 -5.55 L19.7 -5.15 19.9 -3.5 19.8 -2.45 19.75 -2.0 Q18.85 1.4 14.0 3.95 8.1 7.05 -0.2 7.05 -8.55 7.05 -14.45 3.95 -19.25 1.4 -20.1 -1.95 L-20.2 -2.45 -20.3 -3.5 -19.95 -5.65 -20.3 -3.5 -20.2 -2.45 -20.1 -1.95 Q-19.25 1.4 -14.45 3.95 -8.55 7.05 -0.2 7.05 8.1 7.05 14.0 3.95 18.85 1.4 19.75 -2.0 L19.8 -2.45 19.9 -3.5 19.7 -5.15 Q20.5 -3.95 21.0 -2.0 L21.1 -1.5 Q20.45 2.5 14.9 5.4 8.65 8.75 -0.2 8.75 -9.1 8.75 -15.35 5.4 -20.8 2.5 -21.5 -1.4 L-21.1 -2.8 -19.95 -5.65" fill="#c9cca7" fill-rule="evenodd" stroke="none"/>
    <path d="M-15.75 -3.95 Q-15.4 -6.8 -11.2 -8.9 L-9.1 -9.85 Q-5.2 -11.2 -0.1 -11.2 5.05 -11.2 9.0 -9.8 L11.0 -8.9 Q13.7 -7.55 14.8 -5.9 L15.5 -4.35 15.55 -3.95 15.6 -3.35 Q15.6 -0.1 11.0 2.15 6.4 4.5 -0.1 4.5 -6.6 4.5 -11.2 2.15 -13.95 0.8 -15.05 -0.9 -15.8 -2.05 -15.8 -3.35 L-15.75 -3.95" fill="#585857" fill-rule="evenodd" stroke="none"/>
    <path d="M21.1 -1.5 L21.2 -0.35 Q21.2 4.35 14.9 7.65 8.65 11.0 -0.2 11.0 -9.1 11.0 -15.35 7.65 -21.6 4.35 -21.6 -0.35 L-21.5 -1.3 -21.5 -1.4 Q-20.8 2.5 -15.35 5.4 -9.1 8.75 -0.2 8.75 8.65 8.75 14.9 5.4 20.45 2.5 21.1 -1.5" fill="#8e9176" fill-rule="evenodd" stroke="none"/>
    <path d="M-15.85 -4.1 L-15.8 -4.4 -15.75 -3.95 -15.8 -3.35 Q-15.8 -2.05 -15.05 -0.9 -15.9 -2.1 -15.9 -3.5 L-15.85 -4.1" fill="#5a5b4b" fill-rule="evenodd" stroke="none"/>
    <path d="M14.75 -7.2 L14.3 -7.8 Q13.2 -9.1 11.05 -10.15 L10.9 -10.25 Q6.3 -12.55 -0.2 -12.55 -6.7 -12.55 -11.3 -10.25 L-11.4 -10.2 Q-13.5 -9.1 -14.65 -7.85 -15.9 -6.4 -15.9 -4.7 L-15.85 -4.1 -15.9 -3.5 Q-15.9 -2.1 -15.05 -0.9 -15.8 -2.05 -15.8 -3.35 L-15.75 -3.95 M15.55 -3.95 L15.6 -3.35 Q15.6 -0.1 11.0 2.15 6.4 4.5 -0.1 4.5 -6.6 4.5 -11.2 2.15 -13.95 0.8 -15.05 -0.9" fill="none" stroke="#000000" stroke-linecap="round" stroke-linejoin="round" stroke-opacity="0.24705882" stroke-width="0.1"/>
    <path d="M-19.95 -5.65 L-20.3 -3.5 -20.2 -2.45 -20.1 -1.95 Q-19.25 1.4 -14.45 3.95 -8.55 7.05 -0.2 7.05 8.1 7.05 14.0 3.95 18.85 1.4 19.75 -2.0 L19.8 -2.45 19.9 -3.5 19.7 -5.15" fill="none" stroke="#ffffff" stroke-linecap="round" stroke-linejoin="round" stroke-opacity="0.5019608" stroke-width="0.05"/>
    <path d="M19.7 -5.15 L19.6 -5.55 Q18.5 -8.65 14.0 -11.0 8.1 -14.1 -0.2 -14.1 -8.55 -14.1 -14.45 -11.0 -18.8 -8.7 -19.9 -5.7 L-19.95 -5.65 -21.1 -2.8 -21.5 -1.4 -21.5 -1.3 -21.6 -0.35 Q-21.6 4.35 -15.35 7.65 -9.1 11.0 -0.2 11.0 8.65 11.0 14.9 7.65 21.2 4.35 21.2 -0.35 L21.1 -1.5 21.0 -2.0 Q20.5 -3.95 19.7 -5.15" fill="none" stroke="#000000" stroke-linecap="round" stroke-linejoin="round" stroke-opacity="0.5019608" stroke-width="0.05"/>
    <path d="M-15.75 -2.7 L-13.55 -3.2 -13.75 -3.65 -13.75 -4.2 Q-13.75 -5.3 -11.8 -5.95 L-8.6 -6.45 Q-7.15 -6.4 -7.15 -5.5 -7.15 -4.95 -7.3 -4.85 -7.45 -4.7 -8.65 -4.5 L-8.65 -4.45 Q-8.05 -4.3 -7.2 -4.75 -6.4 -5.1 -6.45 -5.55 -6.5 -6.0 -7.3 -6.4 -8.1 -6.85 -9.15 -6.8 L-9.15 -7.7 Q-8.65 -8.4 -7.35 -8.75 L-4.6 -9.05 Q-2.3 -8.95 -2.3 -7.55 L-2.75 -6.9 -0.4 -6.55 Q0.9 -5.9 0.6 -5.25 L0.7 -5.25 Q0.85 -5.6 1.8 -5.95 L3.85 -6.1 Q1.8 -6.7 1.4 -6.95 1.05 -7.25 1.05 -8.1 1.05 -9.25 2.8 -9.65 L6.5 -9.85 Q8.3 -9.8 9.2 -9.35 10.25 -8.8 10.25 -7.7 10.25 -6.95 9.65 -6.6 L8.15 -6.3 7.15 -6.5 Q6.95 -6.3 7.4 -6.05 L8.6 -5.85 Q9.4 -5.8 9.65 -6.35 12.4 -5.75 12.7 -4.95 13.0 -4.2 12.5 -3.75 11.85 -3.2 11.05 -3.25 L10.8 -3.15 14.15 -3.05 15.55 -2.7 Q15.15 -0.8 13.1 0.8 12.15 1.45 10.85 2.1 L10.8 2.15 8.85 3.0 7.25 2.75 Q5.45 2.7 4.15 3.3 3.2 3.7 2.95 4.25 L0.85 4.4 1.05 3.65 0.95 3.1 Q2.55 3.05 3.7 2.5 L4.7 1.9 3.55 2.0 Q2.5 1.95 1.75 1.55 1.05 1.2 1.05 0.7 1.05 0.2 1.75 -0.15 L3.55 -0.4 4.35 -0.3 3.7 -0.75 1.85 -1.4 Q2.35 -1.7 2.35 -2.15 2.35 -2.75 1.45 -3.25 0.6 -3.7 -0.65 -3.75 L-2.8 -3.4 Q-3.65 -3.0 -3.65 -2.4 -3.65 -1.8 -2.8 -1.3 L-2.45 -1.15 -2.95 -1.0 Q-4.3 -0.35 -4.3 0.6 L-4.3 0.65 -4.85 0.55 -5.75 0.55 -5.65 0.35 -6.05 -0.15 -6.95 -0.35 -7.9 -0.2 -8.25 0.25 -7.9 0.7 -7.6 0.75 Q-8.4 0.9 -9.05 1.25 -10.15 1.75 -10.5 2.4 L-11.25 2.05 -11.8 1.75 -12.3 1.5 -14.05 0.2 Q-15.25 -0.9 -15.65 -2.15 L-15.75 -2.7 M8.2 -3.1 Q8.2 -3.5 7.6 -3.75 7.05 -4.1 6.25 -4.1 L4.9 -3.85 Q4.35 -3.65 4.35 -3.25 4.35 -2.85 4.9 -2.55 L6.25 -2.2 7.6 -2.45 Q8.2 -2.7 8.2 -3.1 M8.25 2.05 L7.95 1.7 7.3 1.5 6.6 1.65 6.35 2.0 6.6 2.3 7.3 2.45 7.95 2.35 8.25 2.05 M10.95 0.85 L10.45 0.3 9.35 0.05 8.2 0.2 7.75 0.75 8.2 1.3 9.35 1.6 10.45 1.4 10.95 0.85 M0.15 -2.1 L-0.3 -1.6 -1.35 -1.4 -2.4 -1.7 -2.85 -2.2 -2.4 -2.7 -1.35 -2.85 -0.3 -2.6 0.15 -2.1 M-9.6 2.8 L-9.75 2.3 Q-9.75 1.7 -8.9 1.3 L-6.75 1.0 Q-5.5 1.05 -4.65 1.45 -3.75 1.95 -3.75 2.55 -3.75 3.15 -4.65 3.55 L-5.85 3.9 Q-7.85 3.5 -9.6 2.8" fill="url(#gradient1)" fill-rule="evenodd" stroke="none"/>
    <path d="M-15.75 -2.7 L-13.55 -3.2 -13.75 -3.65 -13.75 -4.2 Q-13.75 -5.3 -11.8 -5.95 L-8.6 -6.45 Q-7.15 -6.4 -7.15 -5.5 -7.15 -4.95 -7.3 -4.85 -7.45 -4.7 -8.65 -4.5 L-8.65 -4.45 Q-8.05 -4.3 -7.2 -4.75 -6.4 -5.1 -6.45 -5.55 -6.5 -6.0 -7.3 -6.4 -8.1 -6.85 -9.15 -6.8 L-9.15 -7.7 Q-8.65 -8.4 -7.35 -8.75 L-4.6 -9.05 Q-2.3 -8.95 -2.3 -7.55 L-2.75 -6.9 -0.4 -6.55 Q0.9 -5.9 0.6 -5.25 L0.7 -5.25 Q0.85 -5.6 1.8 -5.95 L3.85 -6.1 Q1.8 -6.7 1.4 -6.95 1.05 -7.25 1.05 -8.1 1.05 -9.25 2.8 -9.65 L6.5 -9.85 Q8.3 -9.8 9.2 -9.35 10.25 -8.8 10.25 -7.7 10.25 -6.95 9.65 -6.6 L8.15 -6.3 7.15 -6.5 Q6.95 -6.3 7.4 -6.05 L8.6 -5.85 Q9.4 -5.8 9.65 -6.35 12.4 -5.75 12.7 -4.95 13.0 -4.2 12.5 -3.75 11.85 -3.2 11.05 -3.25 L10.8 -3.15 14.15 -3.05 15.55 -2.7 Q15.15 -0.8 13.1 0.8 12.15 1.45 10.85 2.1 L10.8 2.15 8.85 3.0 7.25 2.75 Q5.45 2.7 4.15 3.3 3.2 3.7 2.95 4.25 L0.85 4.4 1.05 3.65 0.95 3.1 Q2.55 3.05 3.7 2.5 L4.7 1.9 3.55 2.0 Q2.5 1.95 1.75 1.55 1.05 1.2 1.05 0.7 1.05 0.2 1.75 -0.15 L3.55 -0.4 4.35 -0.3 3.7 -0.75 1.85 -1.4 Q2.35 -1.7 2.35 -2.15 2.35 -2.75 1.45 -3.25 0.6 -3.7 -0.65 -3.75 L-2.8 -3.4 Q-3.65 -3.0 -3.65 -2.4 -3.65 -1.8 -2.8 -1.3 L-2.45 -1.15 -2.95 -1.0 Q-4.3 -0.35 -4.3 0.6 L-4.3 0.65 -4.85 0.55 -5.75 0.55 -5.65 0.35 -6.05 -0.15 -6.95 -0.35 -7.9 -0.2 -8.25 0.25 -7.9 0.7 -7.6 0.75 Q-8.4 0.9 -9.05 1.25 -10.15 1.75 -10.5 2.4 L-11.25 2.05 -11.8 1.75 -12.3 1.5 -14.05 0.2 Q-15.25 -0.9 -15.65 -2.15 L-15.75 -2.7 M10.95 0.85 L10.45 1.4 9.35 1.6 8.2 1.3 7.75 0.75 8.2 0.2 9.35 0.05 10.45 0.3 10.95 0.85 M8.25 2.05 L7.95 2.35 7.3 2.45 6.6 2.3 6.35 2.0 6.6 1.65 7.3 1.5 7.95 1.7 8.25 2.05 M0.15 -2.1 L-0.3 -1.6 -1.35 -1.4 -2.4 -1.7 -2.85 -2.2 -2.4 -2.7 -1.35 -2.85 -0.3 -2.6 0.15 -2.1 M-9.6 2.8 Q-7.85 3.5 -5.85 3.9 L-4.65 3.55 Q-3.75 3.15 -3.75 2.55 -3.75 1.95 -4.65 1.45 -5.5 1.05 -6.75 1.0 L-8.9 1.3 Q-9.75 1.7 -9.75 2.3 L-9.6 2.8" fill="none" stroke="#ffffff" stroke-linecap="round" stroke-linejoin="round" stroke-opacity="0.24705882" stroke-width="0.1"/>
  </g>
  <defs>
    <radialGradient cx="0" cy="0" gradientTransform="matrix(1.0E-4, -0.0148, 0.0305, 3.0E-4, 0.0, 0.0)" gradientUnits="userSpaceOnUse" id="gradient0" r="819.2" spreadMethod="pad">
      <stop offset="0.8" stop-color="#428415"/>
      <stop offset="0.9254901960784314" stop-color="#2ccb9a"/>
    </radialGradient>
    <radialGradient cx="0" cy="0" gradientTransform="matrix(0.0224, 0.0, 0.0, 0.014, -0.75, -0.15)" gradientUnits="userSpaceOnUse" id="gradient1" r="819.2" spreadMethod="pad">
      <stop offset="0.0" stop-color="#abffa2"/>
      <stop offset="1.0" stop-color="#00cc99"/>
    </radialGradient>
  </defs>
</svg>
