<?xml version="1.0" encoding="UTF-8" standalone="no"?>
<svg xmlns:xlink="http://www.w3.org/1999/xlink" height="29.75px" width="54.15px" xmlns="http://www.w3.org/2000/svg">
  <g transform="matrix(1.0, 0.0, 0.0, 1.0, 27.1, 14.85)">
    <path d="M15.1 -12.3 L14.6 -8.55 21.3 -9.15 18.7 -5.65 25.4 -5.05 20.95 -2.2 27.05 -0.45 21.15 1.5 26.0 4.15 19.35 5.05 22.4 8.4 15.6 8.1 16.6 11.8 10.3 10.35 9.2 14.05 4.0 11.6 0.9 14.9 -2.65 11.7 -7.55 14.35 -9.1 10.7 -15.2 12.35 -14.7 8.6 -21.45 9.15 -18.75 5.75 -25.45 5.15 -21.05 2.3 -27.1 0.55 -21.3 -1.4 -26.05 -4.1 -19.4 -4.95 -22.45 -8.3 -15.65 -8.0 -16.7 -11.7 -10.35 -10.25 -9.25 -13.95 -4.1 -11.5 -0.95 -14.85 2.6 -11.65 7.45 -14.3 9.05 -10.65 15.1 -12.3 M18.75 -2.05 L11.1 -3.45 12.9 -7.75 5.25 -6.35 2.1 -10.45 -2.65 -6.85 -9.6 -9.15 -9.55 -4.75 -17.6 -4.35 -12.8 -0.75 -19.0 2.15 -11.2 3.5 -13.05 7.85 -5.45 6.4 -2.25 10.55 2.5 6.95 9.4 9.25 9.3 4.8 17.4 4.4 12.6 0.85 18.75 -2.05" fill="#5e3820" fill-rule="evenodd" stroke="none"/>
    <path d="M-15.85 -4.5 L-15.9 -5.1 Q-15.9 -6.8 -14.65 -8.25 -13.5 -9.5 -11.4 -10.6 L-11.3 -10.65 Q-6.7 -12.95 -0.2 -12.95 6.3 -12.95 10.9 -10.65 L11.05 -10.55 Q13.2 -9.5 14.3 -8.2 15.5 -6.75 15.5 -5.1 L15.45 -4.5 Q15.1 -7.35 10.9 -9.45 L8.9 -10.35 Q4.95 -11.75 -0.2 -11.75 -5.3 -11.75 -9.2 -10.4 L-11.3 -9.45 Q-15.5 -7.35 -15.85 -4.5" fill="#898c72" fill-rule="evenodd" stroke="none"/>
    <path d="M15.45 -4.5 L15.5 -5.1 Q15.5 -6.75 14.3 -8.2 13.2 -9.5 11.05 -10.55 L10.9 -10.65 Q6.3 -12.95 -0.2 -12.95 -6.7 -12.95 -11.3 -10.65 L-11.4 -10.6 Q-13.5 -9.5 -14.65 -8.25 -15.9 -6.8 -15.9 -5.1 L-15.85 -4.5 -15.9 -3.9 Q-15.9 -0.65 -11.3 1.6 -6.7 3.95 -0.2 3.95 6.3 3.95 10.9 1.6 15.5 -0.65 15.5 -3.9 L15.45 -4.5 M-19.95 -6.05 L-19.9 -6.1 Q-18.8 -9.1 -14.45 -11.4 -8.55 -14.5 -0.2 -14.5 8.1 -14.5 14.0 -11.4 18.5 -9.05 19.6 -5.95 L19.7 -5.55 19.9 -3.9 19.8 -2.85 19.75 -2.4 Q18.85 1.0 14.0 3.55 8.1 6.65 -0.2 6.65 -8.55 6.65 -14.45 3.55 -19.25 1.0 -20.1 -2.35 L-20.2 -2.85 -20.3 -3.9 -19.95 -6.05 -20.3 -3.9 -20.2 -2.85 -20.1 -2.35 Q-19.25 1.0 -14.45 3.55 -8.55 6.65 -0.2 6.65 8.1 6.65 14.0 3.55 18.85 1.0 19.75 -2.4 L19.8 -2.85 19.9 -3.9 19.7 -5.55 Q20.5 -4.35 21.0 -2.4 L21.1 -1.9 Q20.45 2.1 14.9 5.0 8.65 8.35 -0.2 8.35 -9.1 8.35 -15.35 5.0 -20.8 2.1 -21.5 -1.8 L-21.1 -3.2 -19.95 -6.05" fill="#c9cca7" fill-rule="evenodd" stroke="none"/>
    <path d="M-15.85 -4.5 Q-15.5 -7.35 -11.3 -9.45 L-9.2 -10.4 Q-5.3 -11.75 -0.2 -11.75 4.95 -11.75 8.9 -10.35 L10.9 -9.45 Q15.1 -7.35 15.45 -4.5 L15.5 -3.9 Q15.5 -0.65 10.9 1.6 6.3 3.95 -0.2 3.95 -6.7 3.95 -11.3 1.6 -15.9 -0.65 -15.9 -3.9 L-15.85 -4.5" fill="#afb292" fill-rule="evenodd" stroke="none"/>
    <path d="M21.1 -1.9 L21.2 -0.75 Q21.2 3.95 14.9 7.25 8.65 10.6 -0.2 10.6 -9.1 10.6 -15.35 7.25 -21.6 3.95 -21.6 -0.75 L-21.5 -1.7 -21.5 -1.8 Q-20.8 2.1 -15.35 5.0 -9.1 8.35 -0.2 8.35 8.65 8.35 14.9 5.0 20.45 2.1 21.1 -1.9" fill="#8e9176" fill-rule="evenodd" stroke="none"/>
    <path d="M15.45 -4.5 L15.5 -5.1 Q15.5 -6.75 14.3 -8.2 13.2 -9.5 11.05 -10.55 L10.9 -10.65 Q6.3 -12.95 -0.2 -12.95 -6.7 -12.95 -11.3 -10.65 L-11.4 -10.6 Q-13.5 -9.5 -14.65 -8.25 -15.9 -6.8 -15.9 -5.1 L-15.85 -4.5 M19.7 -5.55 L19.6 -5.95 Q18.5 -9.05 14.0 -11.4 8.1 -14.5 -0.2 -14.5 -8.55 -14.5 -14.45 -11.4 -18.8 -9.1 -19.9 -6.1 L-19.95 -6.05 -21.1 -3.2 -21.5 -1.8 -21.5 -1.7 -21.6 -0.75 Q-21.6 3.95 -15.35 7.25 -9.1 10.6 -0.2 10.6 8.65 10.6 14.9 7.25 21.2 3.95 21.2 -0.75 L21.1 -1.9 21.0 -2.4 Q20.5 -4.35 19.7 -5.55" fill="none" stroke="#000000" stroke-linecap="round" stroke-linejoin="round" stroke-opacity="0.5019608" stroke-width="0.05"/>
    <path d="M-19.95 -6.05 L-20.3 -3.9 -20.2 -2.85 -20.1 -2.35 Q-19.25 1.0 -14.45 3.55 -8.55 6.65 -0.2 6.65 8.1 6.65 14.0 3.55 18.85 1.0 19.75 -2.4 L19.8 -2.85 19.9 -3.9 19.7 -5.55" fill="none" stroke="#ffffff" stroke-linecap="round" stroke-linejoin="round" stroke-opacity="0.5019608" stroke-width="0.05"/>
    <path d="M11.3 -9.3 L10.25 -7.3 8.9 -9.95 7.5 -7.3 6.1 -9.95 4.75 -7.3 3.35 -9.95 1.95 -7.3 0.6 -9.95 -0.8 -7.3 -2.2 -9.95 -3.55 -7.3 -4.95 -9.95 -6.35 -7.3 -7.75 -9.95 -9.1 -7.3 -10.45 -9.85 -9.2 -10.4 Q-5.25 -11.8 -0.15 -11.8 4.95 -11.8 8.9 -10.35 L10.9 -9.5 11.3 -9.3 M-10.55 -9.85 L-11.9 -7.3 -12.6 -8.75 -11.3 -9.5 -10.55 -9.85 M-12.55 0.9 L-11.9 -0.5 -10.6 1.95 -11.3 1.6 -11.85 1.3 -12.35 1.05 -12.55 0.9 M-10.4 2.05 L-9.1 -0.5 -7.75 2.15 -6.35 -0.5 -4.95 2.15 -3.55 -0.5 -2.2 2.15 -0.8 -0.5 0.6 2.15 1.95 -0.5 3.35 2.15 4.75 -0.5 6.1 2.15 7.5 -0.5 8.9 2.15 10.25 -0.5 11.25 1.45 10.9 1.6 10.8 1.65 10.75 1.7 Q6.2 3.95 -0.15 3.95 -6.1 3.95 -10.4 2.05 M12.3 0.85 L13.0 -0.5 13.35 0.15 13.05 0.35 12.3 0.85 M13.35 -7.95 L13.0 -7.3 12.25 -8.75 13.35 -7.95 M0.05 -6.5 L0.15 -6.5 1.55 -6.25 1.6 -6.25 2.2 -5.65 Q2.2 -5.25 1.6 -5.0 L1.55 -5.0 1.1 -4.8 1.0 -4.8 1.0 -4.7 2.5 -4.55 2.5 -4.15 2.5 -2.5 1.65 -2.5 1.25 -2.5 1.25 -3.65 1.0 -3.65 1.0 -1.35 1.0 -1.2 0.25 -1.2 0.2 -1.2 -0.05 -1.2 -0.15 -1.2 -0.85 -1.2 -0.85 -1.35 -0.85 -3.65 -1.25 -3.65 -1.25 -2.5 -1.6 -2.5 -2.35 -2.5 -2.35 -4.15 -2.35 -4.55 -0.85 -4.7 -0.85 -4.8 -1.4 -5.0 -1.55 -5.0 -1.6 -5.0 Q-2.15 -5.25 -2.15 -5.65 L-1.6 -6.25 -1.55 -6.25 -0.15 -6.5 0.05 -6.5 M6.25 -6.25 L6.3 -6.25 7.7 -6.5 7.9 -6.5 8.0 -6.5 9.4 -6.25 9.45 -6.25 10.05 -5.65 Q10.05 -5.25 9.45 -5.0 L9.4 -5.0 8.95 -4.8 8.85 -4.8 8.85 -4.7 10.35 -4.55 10.35 -4.15 10.35 -2.5 9.5 -2.5 9.1 -2.5 9.1 -3.65 8.85 -3.65 8.85 -1.35 8.85 -1.2 8.1 -1.2 8.05 -1.2 7.75 -1.2 7.7 -1.2 7.0 -1.2 7.0 -1.35 7.0 -3.65 6.6 -3.65 6.6 -2.5 6.25 -2.5 5.45 -2.5 5.45 -4.15 5.45 -4.55 7.0 -4.7 7.0 -4.8 6.4 -5.0 6.3 -5.0 6.25 -5.0 Q5.7 -5.25 5.7 -5.65 5.7 -6.0 6.25 -6.25 M-6.3 -6.25 L-6.25 -6.25 Q-5.6 -6.0 -5.6 -5.65 -5.6 -5.25 -6.25 -5.0 L-6.3 -5.0 -6.75 -4.8 -6.85 -4.8 -6.85 -4.7 -5.35 -4.55 -5.35 -4.15 -5.35 -2.5 -6.15 -2.5 -6.55 -2.5 -6.55 -3.65 -6.85 -3.65 -6.85 -1.35 -6.85 -1.2 -7.55 -1.2 -7.6 -1.2 -7.9 -1.2 -7.95 -1.2 -8.7 -1.2 -8.7 -1.35 -8.7 -3.65 -9.1 -3.65 -9.1 -2.5 -9.4 -2.5 -10.2 -2.5 -10.2 -4.15 -10.2 -4.55 -8.7 -4.7 -8.7 -4.8 -9.25 -5.0 -9.35 -5.0 -9.4 -5.0 Q-9.95 -5.25 -9.95 -5.65 L-9.4 -6.25 -9.35 -6.25 -7.95 -6.5 -7.8 -6.5 -7.7 -6.5 -6.3 -6.25" fill="#5f3921" fill-rule="evenodd" stroke="none"/>
    <path d="M11.3 -9.3 L10.25 -7.3 8.9 -9.95 7.5 -7.3 6.1 -9.95 4.75 -7.3 3.35 -9.95 1.95 -7.3 0.6 -9.95 -0.8 -7.3 -2.2 -9.95 -3.55 -7.3 -4.95 -9.95 -6.35 -7.3 -7.75 -9.95 -9.1 -7.3 -10.45 -9.85 M-10.4 2.05 L-9.1 -0.5 -7.75 2.15 -6.35 -0.5 -4.95 2.15 -3.55 -0.5 -2.2 2.15 -0.8 -0.5 0.6 2.15 1.95 -0.5 3.35 2.15 4.75 -0.5 6.1 2.15 7.5 -0.5 8.9 2.15 10.25 -0.5 11.25 1.45 M0.05 -6.5 L-0.15 -6.5 -1.55 -6.25 -1.6 -6.25 -2.15 -5.65 Q-2.15 -5.25 -1.6 -5.0 L-1.55 -5.0 -1.4 -5.0 -0.85 -4.8 -0.85 -4.7 -2.35 -4.55 -2.35 -4.15 -2.35 -2.5 -1.6 -2.5 -1.25 -2.5 -1.25 -3.65 -0.85 -3.65 -0.85 -1.35 -0.85 -1.2 -0.15 -1.2 -0.05 -1.2 0.2 -1.2 0.25 -1.2 1.0 -1.2 1.0 -1.35 1.0 -3.65 1.25 -3.65 1.25 -2.5 1.65 -2.5 2.5 -2.5 2.5 -4.15 2.5 -4.55 1.0 -4.7 1.0 -4.8 1.1 -4.8 1.55 -5.0 1.6 -5.0 Q2.2 -5.25 2.2 -5.65 L1.6 -6.25 1.55 -6.25 0.15 -6.5 0.05 -6.5 M-6.3 -6.25 L-7.7 -6.5 -7.8 -6.5 -7.95 -6.5 -9.35 -6.25 -9.4 -6.25 -9.95 -5.65 Q-9.95 -5.25 -9.4 -5.0 L-9.35 -5.0 -9.25 -5.0 -8.7 -4.8 -8.7 -4.7 -10.2 -4.55 -10.2 -4.15 -10.2 -2.5 -9.4 -2.5 -9.1 -2.5 -9.1 -3.65 -8.7 -3.65 -8.7 -1.35 -8.7 -1.2 -7.95 -1.2 -7.9 -1.2 -7.6 -1.2 -7.55 -1.2 -6.85 -1.2 -6.85 -1.35 -6.85 -3.65 -6.55 -3.65 -6.55 -2.5 -6.15 -2.5 -5.35 -2.5 -5.35 -4.15 -5.35 -4.55 -6.85 -4.7 -6.85 -4.8 -6.75 -4.8 -6.3 -5.0 -6.25 -5.0 Q-5.6 -5.25 -5.6 -5.65 -5.6 -6.0 -6.25 -6.25 L-6.3 -6.25" fill="none" stroke="#ffffff" stroke-linecap="round" stroke-linejoin="round" stroke-opacity="0.24705882" stroke-width="0.1"/>
    <path d="M-10.45 -9.85 L-10.55 -9.85 -11.3 -9.5 -12.6 -8.75 Q-15.5 -6.9 -15.85 -4.55 L-15.9 -3.95 Q-15.9 -1.9 -14.1 -0.25 L-12.55 0.9 -12.35 1.05 -11.85 1.3 -11.3 1.6 -10.6 1.95 -10.4 2.05 Q-6.1 3.95 -0.15 3.95 6.2 3.95 10.75 1.7 L10.8 1.65 10.9 1.6 11.25 1.45 12.3 0.85 13.05 0.35 13.35 0.15 Q15.55 -1.7 15.55 -3.95 L15.5 -4.55 Q15.25 -6.4 13.35 -7.95 L12.25 -8.75 11.3 -9.3 10.9 -9.5 8.9 -10.35 Q4.95 -11.8 -0.15 -11.8 -5.25 -11.8 -9.2 -10.4 L-10.45 -9.85" fill="none" stroke="#000000" stroke-linecap="round" stroke-linejoin="round" stroke-opacity="0.5019608" stroke-width="0.05"/>
  </g>
</svg>
