<?xml version="1.0" encoding="UTF-8" standalone="no"?>
<svg xmlns:xlink="http://www.w3.org/1999/xlink" height="29.75px" width="54.15px" xmlns="http://www.w3.org/2000/svg">
  <g transform="matrix(1.0, 0.0, 0.0, 1.0, 27.15, 14.95)">
    <path d="M-15.8 -3.6 L-15.85 -4.2 Q-15.85 -5.9 -14.6 -7.3 -13.45 -8.6 -11.35 -9.7 L-11.25 -9.75 Q-6.65 -12.0 -0.1 -12.0 6.4 -12.0 10.95 -9.75 L11.1 -9.65 Q13.25 -8.6 14.35 -7.25 15.6 -5.85 15.6 -4.2 L15.55 -3.6 Q15.15 -6.45 10.95 -8.55 L8.95 -9.4 Q5.0 -10.85 -0.1 -10.85 -5.2 -10.85 -9.15 -9.45 L-11.25 -8.55 Q-15.4 -6.45 -15.8 -3.6" fill="#898c72" fill-rule="evenodd" stroke="none"/>
    <path d="M15.55 -3.6 L15.6 -4.2 Q15.6 -5.85 14.35 -7.25 13.25 -8.6 11.1 -9.65 L10.95 -9.75 Q6.4 -12.0 -0.1 -12.0 -6.65 -12.0 -11.25 -9.75 L-11.35 -9.7 Q-13.45 -8.6 -14.6 -7.3 -15.85 -5.9 -15.85 -4.2 L-15.8 -3.6 -15.85 -3.0 Q-15.85 0.25 -11.25 2.55 -6.65 4.9 -0.1 4.9 6.4 4.9 10.95 2.55 15.6 0.25 15.6 -3.0 L15.55 -3.6 M-21.4 -0.9 L-21.05 -2.25 -19.85 -5.1 -19.8 -5.2 Q-18.7 -8.15 -14.35 -10.45 -8.45 -13.6 -0.1 -13.6 8.15 -13.6 14.05 -10.45 18.55 -8.15 19.65 -5.0 L19.75 -4.65 Q20.6 -3.4 21.1 -1.5 L21.15 -1.0 Q20.55 3.0 15.0 5.95 8.7 9.3 -0.1 9.3 -9.0 9.3 -15.3 5.95 -20.75 3.05 -21.4 -0.9 M19.75 -4.65 L20.0 -3.0 19.9 -1.95 19.8 -1.5 Q18.95 1.95 14.05 4.45 8.15 7.6 -0.1 7.6 -8.45 7.6 -14.35 4.45 -19.2 1.95 -20.05 -1.45 L-20.15 -1.95 -20.25 -3.0 Q-20.25 -4.1 -19.85 -5.1 -20.25 -4.1 -20.25 -3.0 L-20.15 -1.95 -20.05 -1.45 Q-19.2 1.95 -14.35 4.45 -8.45 7.6 -0.1 7.6 8.15 7.6 14.05 4.45 18.95 1.95 19.8 -1.5 L19.9 -1.95 20.0 -3.0 19.75 -4.65" fill="#c9cca7" fill-rule="evenodd" stroke="none"/>
    <path d="M-15.8 -3.6 Q-15.4 -6.45 -11.25 -8.55 L-9.15 -9.45 Q-5.2 -10.85 -0.1 -10.85 5.0 -10.85 8.95 -9.4 L10.95 -8.55 Q15.15 -6.45 15.55 -3.6 L15.6 -3.0 Q15.6 0.25 10.95 2.55 6.4 4.9 -0.1 4.9 -6.65 4.9 -11.25 2.55 -15.85 0.25 -15.85 -3.0 L-15.8 -3.6" fill="#a5a889" fill-rule="evenodd" stroke="none"/>
    <path d="M21.15 -1.0 L21.25 0.15 Q21.25 4.9 15.0 8.2 8.7 11.5 -0.1 11.5 -9.0 11.5 -15.3 8.2 -21.5 4.9 -21.5 0.15 L-21.4 -0.8 -21.4 -0.9 Q-20.75 3.05 -15.3 5.95 -9.0 9.3 -0.1 9.3 8.7 9.3 15.0 5.95 20.55 3.0 21.15 -1.0" fill="#8e9176" fill-rule="evenodd" stroke="none"/>
    <path d="M15.55 -3.6 L15.6 -4.2 Q15.6 -5.85 14.35 -7.25 13.25 -8.6 11.1 -9.65 L10.95 -9.75 Q6.4 -12.0 -0.1 -12.0 -6.65 -12.0 -11.25 -9.75 L-11.35 -9.7 Q-13.45 -8.6 -14.6 -7.3 -15.85 -5.9 -15.85 -4.2 L-15.8 -3.6 M-21.4 -0.9 L-21.05 -2.25 -19.85 -5.1 -19.8 -5.2 Q-18.7 -8.15 -14.35 -10.45 -8.45 -13.6 -0.1 -13.6 8.15 -13.6 14.05 -10.45 18.55 -8.15 19.65 -5.0 L19.75 -4.65 Q20.6 -3.4 21.1 -1.5 L21.15 -1.0 21.25 0.15 Q21.25 4.9 15.0 8.2 8.7 11.5 -0.1 11.5 -9.0 11.5 -15.3 8.2 -21.5 4.9 -21.5 0.15 L-21.4 -0.8 -21.4 -0.9" fill="none" stroke="#000000" stroke-linecap="round" stroke-linejoin="round" stroke-opacity="0.5019608" stroke-width="0.05"/>
    <path d="M-15.8 -3.6 Q-15.4 -6.45 -11.25 -8.55 L-9.15 -9.45 Q-5.2 -10.85 -0.1 -10.85 5.0 -10.85 8.95 -9.4 L10.95 -8.55 Q15.15 -6.45 15.55 -3.6 L15.6 -3.0 Q15.6 0.25 10.95 2.55 6.4 4.9 -0.1 4.9 -6.65 4.9 -11.25 2.55 -15.85 0.25 -15.85 -3.0 L-15.8 -3.6" fill="none" stroke="#000000" stroke-linecap="round" stroke-linejoin="round" stroke-opacity="0.24705882" stroke-width="0.1"/>
    <path d="M-19.85 -5.1 Q-20.25 -4.1 -20.25 -3.0 L-20.15 -1.95 -20.05 -1.45 Q-19.2 1.95 -14.35 4.45 -8.45 7.6 -0.1 7.6 8.15 7.6 14.05 4.45 18.95 1.95 19.8 -1.5 L19.9 -1.95 20.0 -3.0 19.75 -4.65" fill="none" stroke="#ffffff" stroke-linecap="round" stroke-linejoin="round" stroke-opacity="0.5019608" stroke-width="0.05"/>
    <path d="M18.7 -2.15 L11.05 -3.55 12.85 -7.85 5.2 -6.45 2.05 -10.55 -2.7 -6.95 -9.65 -9.25 -9.6 -4.85 -17.65 -4.45 -12.85 -0.85 -19.05 2.05 -11.25 3.4 -13.1 7.75 -5.5 6.3 -2.3 10.45 2.45 6.85 9.35 9.15 9.25 4.7 17.35 4.3 12.55 0.75 18.7 -2.15 M15.05 -12.4 L14.55 -8.65 21.25 -9.25 18.65 -5.75 25.35 -5.15 20.9 -2.3 27.0 -0.55 21.1 1.4 25.95 4.05 19.3 4.95 22.35 8.3 15.55 8.0 16.55 11.7 10.25 10.25 9.15 13.95 3.95 11.5 0.85 14.8 -2.7 11.6 -7.6 14.25 -9.15 10.6 -15.25 12.25 -14.75 8.5 -21.5 9.05 -18.8 5.65 -25.5 5.05 -21.1 2.2 -27.15 0.45 -21.35 -1.5 -26.1 -4.2 -19.45 -5.05 -22.5 -8.4 -15.7 -8.1 -16.75 -11.8 -10.4 -10.35 -9.3 -14.05 -4.15 -11.6 -1.0 -14.95 2.55 -11.75 7.4 -14.4 9.0 -10.75 15.05 -12.4" fill="url(#gradient0)" fill-rule="evenodd" stroke="none"/>
    <path d="M-15.9 -4.6 L-15.95 -5.2 Q-15.95 -6.9 -14.7 -8.35 -13.55 -9.6 -11.45 -10.7 L-11.35 -10.75 Q-6.75 -13.05 -0.25 -13.05 6.25 -13.05 10.85 -10.75 L11.0 -10.65 Q13.15 -9.6 14.25 -8.3 L14.7 -7.7 Q15.55 -6.45 15.55 -5.05 L15.5 -4.45 15.45 -4.85 14.75 -6.4 Q13.65 -8.05 10.95 -9.4 L8.95 -10.3 Q5.0 -11.7 -0.15 -11.7 -5.25 -11.7 -9.15 -10.35 L-11.25 -9.4 Q-15.45 -7.3 -15.8 -4.45 L-15.85 -4.9 -15.9 -4.6" fill="#898c72" fill-rule="evenodd" stroke="none"/>
    <path d="M14.7 -7.7 L14.25 -8.3 Q13.15 -9.6 11.0 -10.65 L10.85 -10.75 Q6.25 -13.05 -0.25 -13.05 -6.75 -13.05 -11.35 -10.75 L-11.45 -10.7 Q-13.55 -9.6 -14.7 -8.35 -15.95 -6.9 -15.95 -5.2 L-15.9 -4.6 -15.95 -4.0 Q-15.95 -2.6 -15.1 -1.4 -14.0 0.3 -11.25 1.65 -6.65 4.0 -0.15 4.0 6.35 4.0 10.95 1.65 15.55 -0.6 15.55 -3.85 L15.5 -4.45 15.55 -5.05 Q15.55 -6.45 14.7 -7.7 M-20.0 -6.15 L-19.95 -6.2 Q-18.85 -9.2 -14.5 -11.5 -8.6 -14.6 -0.25 -14.6 8.05 -14.6 13.95 -11.5 18.45 -9.15 19.55 -6.05 L19.65 -5.65 19.85 -4.0 19.75 -2.95 19.7 -2.5 Q18.8 0.9 13.95 3.45 8.05 6.55 -0.25 6.55 -8.6 6.55 -14.5 3.45 -19.3 0.9 -20.15 -2.45 L-20.25 -2.95 -20.35 -4.0 -20.0 -6.15 -20.35 -4.0 -20.25 -2.95 -20.15 -2.45 Q-19.3 0.9 -14.5 3.45 -8.6 6.55 -0.25 6.55 8.05 6.55 13.95 3.45 18.8 0.9 19.7 -2.5 L19.75 -2.95 19.85 -4.0 19.65 -5.65 Q20.45 -4.45 20.95 -2.5 L21.05 -2.0 Q20.4 2.0 14.85 4.9 8.6 8.25 -0.25 8.25 -9.15 8.25 -15.4 4.9 -20.85 2.0 -21.55 -1.9 L-21.15 -3.3 -20.0 -6.15" fill="#c9cca7" fill-rule="evenodd" stroke="none"/>
    <path d="M-15.8 -4.45 Q-15.45 -7.3 -11.25 -9.4 L-9.15 -10.35 Q-5.25 -11.7 -0.15 -11.7 5.0 -11.7 8.95 -10.3 L10.95 -9.4 Q13.65 -8.05 14.75 -6.4 L15.45 -4.85 15.5 -4.45 15.55 -3.85 Q15.55 -0.6 10.95 1.65 6.35 4.0 -0.15 4.0 -6.65 4.0 -11.25 1.65 -14.0 0.3 -15.1 -1.4 -15.85 -2.55 -15.85 -3.85 L-15.8 -4.45" fill="#585857" fill-rule="evenodd" stroke="none"/>
    <path d="M21.05 -2.0 L21.15 -0.85 Q21.15 3.85 14.85 7.15 8.6 10.5 -0.25 10.5 -9.15 10.5 -15.4 7.15 -21.65 3.85 -21.65 -0.85 L-21.55 -1.8 -21.55 -1.9 Q-20.85 2.0 -15.4 4.9 -9.15 8.25 -0.25 8.25 8.6 8.25 14.85 4.9 20.4 2.0 21.05 -2.0" fill="#8e9176" fill-rule="evenodd" stroke="none"/>
    <path d="M-15.9 -4.6 L-15.85 -4.9 -15.8 -4.45 -15.85 -3.85 Q-15.85 -2.55 -15.1 -1.4 -15.95 -2.6 -15.95 -4.0 L-15.9 -4.6" fill="#5a5b4b" fill-rule="evenodd" stroke="none"/>
    <path d="M14.7 -7.7 L14.25 -8.3 Q13.15 -9.6 11.0 -10.65 L10.85 -10.75 Q6.25 -13.05 -0.25 -13.05 -6.75 -13.05 -11.35 -10.75 L-11.45 -10.7 Q-13.55 -9.6 -14.7 -8.35 -15.95 -6.9 -15.95 -5.2 L-15.9 -4.6 -15.95 -4.0 Q-15.95 -2.6 -15.1 -1.4 -15.85 -2.55 -15.85 -3.85 L-15.8 -4.45 M15.5 -4.45 L15.55 -3.85 Q15.55 -0.6 10.95 1.65 6.35 4.0 -0.15 4.0 -6.65 4.0 -11.25 1.65 -14.0 0.3 -15.1 -1.4" fill="none" stroke="#000000" stroke-linecap="round" stroke-linejoin="round" stroke-opacity="0.24705882" stroke-width="0.1"/>
    <path d="M-20.0 -6.15 L-20.35 -4.0 -20.25 -2.95 -20.15 -2.45 Q-19.3 0.9 -14.5 3.45 -8.6 6.55 -0.25 6.55 8.05 6.55 13.95 3.45 18.8 0.9 19.7 -2.5 L19.75 -2.95 19.85 -4.0 19.65 -5.65" fill="none" stroke="#ffffff" stroke-linecap="round" stroke-linejoin="round" stroke-opacity="0.5019608" stroke-width="0.05"/>
    <path d="M19.65 -5.65 L19.55 -6.05 Q18.45 -9.15 13.95 -11.5 8.05 -14.6 -0.25 -14.6 -8.6 -14.6 -14.5 -11.5 -18.85 -9.2 -19.95 -6.2 L-20.0 -6.15 -21.15 -3.3 -21.55 -1.9 -21.55 -1.8 -21.65 -0.85 Q-21.65 3.85 -15.4 7.15 -9.15 10.5 -0.25 10.5 8.6 10.5 14.85 7.15 21.15 3.85 21.15 -0.85 L21.05 -2.0 20.95 -2.5 Q20.45 -4.45 19.65 -5.65" fill="none" stroke="#000000" stroke-linecap="round" stroke-linejoin="round" stroke-opacity="0.5019608" stroke-width="0.05"/>
    <path d="M9.55 -9.7 L6.35 -7.1 9.5 -5.7 1.1 -5.1 Q1.3 -6.85 3.6 -9.75 L4.95 -8.1 9.55 -9.7" fill="url(#gradient1)" fill-rule="evenodd" stroke="none"/>
    <path d="M9.55 -9.7 L6.35 -7.1 9.5 -5.7 1.1 -5.1 Q1.3 -6.85 3.6 -9.75 L4.95 -8.1 9.55 -9.7 Z" fill="none" stroke="#ffffff" stroke-linecap="round" stroke-linejoin="round" stroke-opacity="0.32941177" stroke-width="0.1"/>
    <path d="M-7.0 -2.2 L-10.5 -3.1 -1.85 -3.7 Q-2.1 -0.7 -4.0 1.25 L-5.25 -0.75 -11.15 1.15 -7.0 -2.2" fill="url(#gradient2)" fill-rule="evenodd" stroke="none"/>
    <path d="M-7.0 -2.2 L-10.5 -3.1 -1.85 -3.7 Q-2.1 -0.7 -4.0 1.25 L-5.25 -0.75 -11.15 1.15 -7.0 -2.2 Z" fill="none" stroke="#ffffff" stroke-linecap="round" stroke-linejoin="round" stroke-opacity="0.32941177" stroke-width="0.1"/>
    <path d="M6.45 -2.35 L9.85 0.85 4.1 -0.45 2.95 1.3 Q1.45 -0.5 0.8 -3.6 L8.25 -3.95 6.45 -2.35" fill="url(#gradient3)" fill-rule="evenodd" stroke="none"/>
    <path d="M6.45 -2.35 L9.85 0.85 4.1 -0.45 2.95 1.3 Q1.45 -0.5 0.8 -3.6 L8.25 -3.95 6.45 -2.35 Z" fill="none" stroke="#ffffff" stroke-linecap="round" stroke-linejoin="round" stroke-opacity="0.32941177" stroke-width="0.1"/>
    <path d="M-3.55 -9.5 Q-1.55 -7.4 -1.15 -4.85 L-9.35 -5.6 -7.15 -6.85 -10.2 -9.45 -5.2 -8.1 -3.55 -9.5" fill="url(#gradient4)" fill-rule="evenodd" stroke="none"/>
    <path d="M-3.55 -9.5 Q-1.55 -7.4 -1.15 -4.85 L-9.35 -5.6 -7.15 -6.85 -10.2 -9.45 -5.2 -8.1 -3.55 -9.5 Z" fill="none" stroke="#ffffff" stroke-linecap="round" stroke-linejoin="round" stroke-opacity="0.32941177" stroke-width="0.1"/>
  </g>
  <defs>
    <radialGradient cx="0" cy="0" gradientTransform="matrix(0.0, -0.017, 0.0329, 0.0, -0.4, 0.25)" gradientUnits="userSpaceOnUse" id="gradient0" r="819.2" spreadMethod="pad">
      <stop offset="0.00784313725490196" stop-color="#4d2673"/>
      <stop offset="1.0" stop-color="#cd61da"/>
    </radialGradient>
    <radialGradient cx="0" cy="0" gradientTransform="matrix(0.012, -0.0063, 0.0129, 0.01, -1.45, -5.9)" gradientUnits="userSpaceOnUse" id="gradient1" r="819.2" spreadMethod="pad">
      <stop offset="0.01568627450980392" stop-color="#f1aef2"/>
      <stop offset="1.0" stop-color="#cc61da"/>
    </radialGradient>
    <radialGradient cx="0" cy="0" gradientTransform="matrix(0.0255, -0.0134, 0.031, 0.024, -12.7, 2.7)" gradientUnits="userSpaceOnUse" id="gradient2" r="819.2" spreadMethod="pad">
      <stop offset="0.01568627450980392" stop-color="#f1aef2"/>
      <stop offset="1.0" stop-color="#cc61da"/>
    </radialGradient>
    <radialGradient cx="0" cy="0" gradientTransform="matrix(0.0082, -0.0076, 0.0236, 0.0114, -3.35, -6.0)" gradientUnits="userSpaceOnUse" id="gradient3" r="819.2" spreadMethod="pad">
      <stop offset="0.01568627450980392" stop-color="#f1aef2"/>
      <stop offset="1.0" stop-color="#cc61da"/>
    </radialGradient>
    <radialGradient cx="0" cy="0" gradientTransform="matrix(-0.0078, 0.0044, -0.0094, -0.0052, -1.5, -6.0)" gradientUnits="userSpaceOnUse" id="gradient4" r="819.2" spreadMethod="pad">
      <stop offset="0.01568627450980392" stop-color="#f1aef2"/>
      <stop offset="1.0" stop-color="#cc61da"/>
    </radialGradient>
  </defs>
</svg>
