<?xml version="1.0" encoding="UTF-8" standalone="no"?>
<svg xmlns:xlink="http://www.w3.org/1999/xlink" height="32.0px" width="31.95px" xmlns="http://www.w3.org/2000/svg">
  <g transform="matrix(1.0, 0.0, 0.0, 1.0, 18.3, 31.0)">
    <use height="32.0" transform="matrix(1.0, 0.0, 0.0, 1.0, -18.3, -31.0)" width="31.95" xlink:href="#shape0"/>
  </g>
  <defs>
    <g id="shape0" transform="matrix(1.0, 0.0, 0.0, 1.0, 18.3, 31.0)">
      <path d="M12.65 -29.95 L12.65 -29.9 10.85 -23.9 8.7 -20.35 -4.3 -7.15 -3.65 -6.5 -2.5 -2.45 -7.2 -7.15 -11.8 -2.6 Q-11.8 -1.45 -12.45 -0.8 -13.1 0.0 -14.2 0.0 -15.5 -0.15 -16.3 -1.15 -17.3 -2.1 -17.3 -3.25 -17.45 -4.55 -16.65 -5.2 -16.0 -5.85 -14.85 -5.7 L-10.3 -10.4 -13.9 -13.8 -14.85 -14.95 -10.95 -13.8 -10.3 -13.0 Q-8.05 -15.95 -6.05 -17.75 L3.35 -26.85 Q6.3 -28.95 9.35 -29.6 L12.5 -29.95 12.65 -30.0 12.65 -29.95" fill="#650a0a" fill-rule="evenodd" stroke="none"/>
      <path d="M12.65 -29.95 L12.65 -30.0 12.5 -29.95 9.35 -29.6 Q6.3 -28.95 3.35 -26.85 L-6.05 -17.75 Q-8.05 -15.95 -10.3 -13.0 L-10.95 -13.8 -14.85 -14.95 -13.9 -13.8 -10.3 -10.4 -14.85 -5.7 Q-16.0 -5.85 -16.65 -5.2 -17.45 -4.55 -17.3 -3.25 -17.3 -2.1 -16.3 -1.15 -15.5 -0.15 -14.2 0.0 -13.1 0.0 -12.45 -0.8 -11.8 -1.45 -11.8 -2.6 L-7.2 -7.15 -2.5 -2.45 -3.65 -6.5 -4.3 -7.15 8.7 -20.35 10.85 -23.9 12.65 -29.9 12.65 -29.95 Z" fill="none" stroke="#450707" stroke-linecap="round" stroke-linejoin="round" stroke-width="2.0"/>
      <path d="M12.65 -29.9 L10.85 -23.9 8.7 -20.35 0.8 -12.3 -11.7 -11.7 -13.9 -13.8 -14.85 -14.95 -10.95 -13.8 -10.3 -13.0 Q-8.05 -15.95 -6.05 -17.75 L3.35 -26.85 Q6.3 -28.95 9.35 -29.6 L12.5 -29.95 12.65 -29.9" fill="url(#gradient0)" fill-rule="evenodd" stroke="none"/>
      <path d="M12.5 -29.95 L12.65 -30.0 12.65 -29.95 12.65 -29.9 12.5 -29.95" fill="#ff0000" fill-rule="evenodd" stroke="none"/>
      <path d="M0.8 -12.3 L-4.3 -7.15 -3.65 -6.5 -2.5 -2.45 -7.2 -7.15 -11.8 -2.6 Q-11.8 -1.45 -12.45 -0.8 -13.1 0.0 -14.2 0.0 -15.5 -0.15 -16.3 -1.15 -17.3 -2.1 -17.3 -3.25 -17.45 -4.55 -16.65 -5.2 -16.0 -5.85 -14.85 -5.7 L-10.3 -10.4 -11.7 -11.7 0.8 -12.3" fill="#a40f0f" fill-rule="evenodd" stroke="none"/>
      <path d="M10.6 -28.2 L9.5 -24.55 7.55 -21.25 -5.35 -8.2 -5.7 -7.75 -6.15 -8.2 Q-6.6 -8.65 -7.2 -8.65 L-8.25 -8.2 -12.85 -3.65 -13.3 -2.6 -13.5 -1.85 -13.6 -1.75 Q-13.8 -1.55 -14.05 -1.5 L-15.1 -2.05 -15.25 -2.2 Q-15.75 -2.7 -15.8 -3.25 L-15.8 -3.4 -15.7 -4.0 -15.6 -4.15 -15.05 -4.2 -14.35 -4.25 -13.75 -4.65 -9.2 -9.35 -8.85 -10.0 -8.85 -10.8 -9.25 -11.5 -9.5 -11.7 -9.1 -12.1 Q-6.95 -14.9 -5.05 -16.6 L-5.0 -16.65 4.3 -25.65 Q6.95 -27.55 9.7 -28.1 L10.6 -28.2" fill="url(#gradient1)" fill-rule="evenodd" stroke="none"/>
    </g>
    <linearGradient gradientTransform="matrix(0.0, 0.0162, -0.0183, 0.0, -2.3, -13.6)" gradientUnits="userSpaceOnUse" id="gradient0" x1="-819.2" x2="819.2">
      <stop offset="0.0" stop-color="#ff0000"/>
      <stop offset="0.9921568627450981" stop-color="#a40f0f"/>
    </linearGradient>
    <linearGradient gradientTransform="matrix(0.0, 0.0067, -0.0161, 0.0, -2.6, -20.8)" gradientUnits="userSpaceOnUse" id="gradient1" x1="-819.2" x2="819.2">
      <stop offset="0.0" stop-color="#fd7113"/>
      <stop offset="0.9921568627450981" stop-color="#fd7218" stop-opacity="0.0"/>
    </linearGradient>
  </defs>
</svg>
