<?xml version="1.0" encoding="UTF-8" standalone="no"?>
<svg xmlns:xlink="http://www.w3.org/1999/xlink" height="32.0px" width="25.6px" xmlns="http://www.w3.org/2000/svg">
  <g transform="matrix(1.0, 0.0, 0.0, 1.0, 12.75, 30.95)">
    <use height="32.0" transform="matrix(1.0, 0.0, 0.0, 1.0, -12.75, -30.95)" width="25.6" xlink:href="#shape0"/>
  </g>
  <defs>
    <g id="shape0" transform="matrix(1.0, 0.0, 0.0, 1.0, 12.75, 30.95)">
      <path d="M11.35 -18.25 L10.9 -15.95 Q8.5 -4.95 0.05 0.05 -6.65 -3.9 -9.55 -11.6 L-10.6 -15.15 Q-11.75 -19.9 -11.75 -25.75 -4.65 -26.9 0.05 -29.95 4.85 -26.9 11.85 -25.75 11.85 -21.75 11.35 -18.25 M9.05 -23.5 L9.0 -23.75 8.75 -23.9 Q4.6 -24.5 0.25 -27.05 L0.05 -27.1 -0.15 -27.05 Q-4.5 -24.5 -8.65 -23.9 L-8.85 -23.75 -8.95 -23.5 Q-8.7 -19.2 -7.8 -15.55 L-6.45 -11.55 Q-4.25 -6.25 -0.15 -2.85 -0.1 -2.75 0.05 -2.75 0.25 -2.75 0.3 -2.85 5.45 -7.15 7.6 -14.45 L8.4 -17.85 Q8.9 -20.5 9.05 -23.5 M-6.4 -15.75 Q-7.2 -18.9 -7.45 -22.6 -3.85 -23.35 0.0 -25.4 3.9 -23.35 7.5 -22.6 L6.85 -17.6 5.85 -13.8 Q3.95 -8.15 0.0 -4.6 -3.15 -7.45 -4.95 -11.6 L-6.4 -15.75" fill="#24407d" fill-rule="evenodd" stroke="none"/>
      <path d="M11.35 -18.25 L10.9 -15.95 Q8.5 -4.95 0.05 0.05 -6.65 -3.9 -9.55 -11.6 L-10.6 -15.15 Q-11.75 -19.9 -11.75 -25.75 -4.65 -26.9 0.05 -29.95 4.85 -26.9 11.85 -25.75 11.85 -21.75 11.35 -18.25 M9.05 -23.5 L9.0 -23.75 8.75 -23.9 Q4.6 -24.5 0.25 -27.05 L0.05 -27.1 -0.15 -27.05 Q-4.5 -24.5 -8.65 -23.9 L-8.85 -23.75 -8.95 -23.5 Q-8.7 -19.2 -7.8 -15.55 L-6.45 -11.55 Q-4.25 -6.25 -0.15 -2.85 -0.1 -2.75 0.05 -2.75 0.25 -2.75 0.3 -2.85 5.45 -7.15 7.6 -14.45 L8.4 -17.85 Q8.9 -20.5 9.05 -23.5 M-6.4 -15.75 Q-7.2 -18.9 -7.45 -22.6 -3.85 -23.35 0.0 -25.4 3.9 -23.35 7.5 -22.6 L6.85 -17.6 5.85 -13.8 Q3.95 -8.15 0.0 -4.6 -3.15 -7.45 -4.95 -11.6 L-6.4 -15.75" fill="none" stroke="#1d3263" stroke-linecap="round" stroke-linejoin="round" stroke-width="2.0"/>
      <path d="M7.6 -14.45 L8.4 -17.85 Q8.9 -20.5 9.05 -23.5 L9.0 -23.75 8.75 -23.9 Q4.6 -24.5 0.25 -27.05 L0.05 -27.1 -0.15 -27.05 Q-4.5 -24.5 -8.65 -23.9 L-8.85 -23.75 -8.95 -23.5 Q-8.7 -19.2 -7.8 -15.55 L-6.45 -11.55 -9.55 -11.6 -10.6 -15.15 Q-11.75 -19.9 -11.75 -25.75 -4.65 -26.9 0.05 -29.95 4.85 -26.9 11.85 -25.75 11.85 -21.75 11.35 -18.25 L10.9 -15.95 7.6 -14.45 M-4.95 -11.6 L-6.4 -15.75 Q-7.2 -18.9 -7.45 -22.6 -3.85 -23.35 0.0 -25.4 3.9 -23.35 7.5 -22.6 L6.85 -17.6 5.85 -13.8 Q0.5 -11.9 -4.95 -11.6" fill="url(#gradient0)" fill-rule="evenodd" stroke="none"/>
      <path d="M-6.45 -11.55 Q-4.25 -6.25 -0.15 -2.85 -0.1 -2.75 0.05 -2.75 0.25 -2.75 0.3 -2.85 5.45 -7.15 7.6 -14.45 L10.9 -15.95 Q8.5 -4.95 0.05 0.05 -6.65 -3.9 -9.55 -11.6 L-6.45 -11.55 M5.85 -13.8 Q3.95 -8.15 0.0 -4.6 -3.15 -7.45 -4.95 -11.6 0.5 -11.9 5.85 -13.8" fill="#345cba" fill-rule="evenodd" stroke="none"/>
      <path d="M-4.95 -16.15 Q-5.6 -18.6 -5.85 -21.4 -3.0 -22.2 0.0 -23.7 3.05 -22.2 5.9 -21.4 L5.4 -17.9 4.65 -14.95 Q0.35 -13.55 -3.95 -13.15 L-4.95 -16.15" fill="url(#gradient1)" fill-rule="evenodd" stroke="none"/>
    </g>
    <linearGradient gradientTransform="matrix(0.0, 0.0162, -0.0144, 0.0, 0.05, -15.15)" gradientUnits="userSpaceOnUse" id="gradient0" x1="-819.2" x2="819.2">
      <stop offset="0.0" stop-color="#00ccff"/>
      <stop offset="0.9921568627450981" stop-color="#345cba"/>
    </linearGradient>
    <linearGradient gradientTransform="matrix(0.0, 0.0034, -0.0072, 0.0, 0.05, -19.95)" gradientUnits="userSpaceOnUse" id="gradient1" x1="-819.2" x2="819.2">
      <stop offset="0.0" stop-color="#00ffff"/>
      <stop offset="0.9921568627450981" stop-color="#01fbfd" stop-opacity="0.0"/>
    </linearGradient>
  </defs>
</svg>
