<?xml version="1.0" encoding="UTF-8" standalone="no"?>
<svg xmlns:xlink="http://www.w3.org/1999/xlink" height="30.0px" width="30.0px" xmlns="http://www.w3.org/2000/svg">
  <g transform="matrix(1.0, 0.0, 0.0, 1.0, 15.0, 30.0)">
    <use height="30.0" transform="matrix(1.0, 0.0, 0.0, 1.0, -15.0, -30.0)" width="30.0" xlink:href="#shape0"/>
  </g>
  <defs>
    <g id="shape0" transform="matrix(1.0, 0.0, 0.0, 1.0, 15.0, 30.0)">
      <path d="M11.55 -24.5 Q15.0 -20.45 15.0 -14.95 14.95 -8.8 10.55 -4.4 6.2 -0.05 0.0 0.0 L-1.5 -0.05 -1.55 -0.05 Q-5.2 -0.45 -8.2 -2.5 -8.7 -2.75 -9.1 -3.15 L-9.4 -3.35 -10.6 -4.45 Q-14.1 -8.25 -14.7 -12.05 L-15.0 -15.0 Q-15.0 -21.25 -10.6 -25.65 -6.25 -30.0 -0.1 -30.0 6.15 -30.0 10.55 -25.65 L11.55 -24.55 11.55 -24.5" fill="#ffffff" fill-rule="evenodd" stroke="none"/>
      <path d="M12.6 -14.95 Q12.6 -12.2 11.6 -9.8 10.65 -7.7 8.85 -5.9 5.05 -2.1 -0.25 -2.1 -5.55 -2.1 -9.3 -5.9 -10.55 -7.15 -11.45 -8.55 -13.1 -11.4 -13.1 -14.95 -13.1 -20.3 -9.3 -24.1 -5.55 -27.85 -0.25 -27.85 5.05 -27.85 8.85 -24.1 12.6 -20.3 12.6 -14.95" fill="url(#gradient0)" fill-rule="evenodd" stroke="none"/>
      <path d="M5.3 -24.0 Q4.55 -23.8 4.15 -23.15 L4.05 -22.9 3.15 -21.2 5.55 -19.35 7.0 -20.65 7.2 -20.8 Q7.7 -21.35 7.75 -22.15 7.75 -23.1 7.0 -23.7 L6.95 -23.75 Q6.2 -24.3 5.3 -24.0 M0.25 -22.1 Q-0.55 -22.0 -1.0 -21.35 L-1.05 -21.3 Q-1.55 -20.7 -1.4 -19.95 -1.3 -19.15 -0.7 -18.65 L4.2 -14.95 Q4.8 -14.45 5.6 -14.55 6.35 -14.65 6.85 -15.25 L6.9 -15.3 Q7.35 -15.95 7.25 -16.7 7.15 -17.5 6.55 -18.0 L1.65 -21.7 Q1.05 -22.2 0.25 -22.1 M1.1 -8.0 Q-3.3 -5.35 -7.0 -5.55 -8.1 -9.0 -6.75 -14.0 L-0.45 -17.85 3.25 -15.0 1.1 -8.0" fill="none" stroke="#e74e00" stroke-linecap="round" stroke-linejoin="round" stroke-width="3.0"/>
      <path d="M0.25 -22.1 Q1.05 -22.2 1.65 -21.7 L6.55 -18.0 Q7.15 -17.5 7.25 -16.7 7.35 -15.95 6.9 -15.3 L6.85 -15.25 Q6.35 -14.65 5.6 -14.55 4.8 -14.45 4.2 -14.95 L-0.7 -18.65 Q-1.3 -19.15 -1.4 -19.95 -1.55 -20.7 -1.05 -21.3 L-1.0 -21.35 Q-0.55 -22.0 0.25 -22.1 M5.3 -24.0 Q6.2 -24.3 6.95 -23.75 L7.0 -23.7 Q7.75 -23.1 7.75 -22.15 7.7 -21.35 7.2 -20.8 L7.0 -20.65 5.55 -19.35 3.15 -21.2 4.05 -22.9 4.15 -23.15 Q4.55 -23.8 5.3 -24.0 M-6.75 -14.0 L-0.45 -17.85 1.4 -16.45 -1.65 -12.5 -6.75 -14.0" fill="#ffffff" fill-rule="evenodd" stroke="none"/>
      <path d="M1.4 -16.45 L3.25 -15.0 1.1 -8.0 -1.65 -12.5 1.4 -16.45 M-7.0 -5.55 Q-8.1 -9.0 -6.75 -14.0 L-1.65 -12.5 -7.0 -5.55" fill="#ffffff" fill-opacity="0.7019608" fill-rule="evenodd" stroke="none"/>
      <path d="M1.1 -8.0 Q-3.3 -5.35 -7.0 -5.55 L-1.65 -12.5 1.1 -8.0" fill="#ffffff" fill-opacity="0.5019608" fill-rule="evenodd" stroke="none"/>
    </g>
    <radialGradient cx="0" cy="0" gradientTransform="matrix(0.0206, 0.0, 0.0, 0.0206, -0.25, -14.95)" gradientUnits="userSpaceOnUse" id="gradient0" r="819.2" spreadMethod="pad">
      <stop offset="0.3607843137254902" stop-color="#ff6600"/>
      <stop offset="1.0" stop-color="#990000"/>
    </radialGradient>
  </defs>
</svg>
