<?xml version="1.0" encoding="UTF-8" standalone="no"?>
<svg xmlns:xlink="http://www.w3.org/1999/xlink" height="30.0px" width="30.0px" xmlns="http://www.w3.org/2000/svg">
  <g transform="matrix(1.0, 0.0, 0.0, 1.0, 15.0, 30.0)">
    <use height="30.0" transform="matrix(1.0, 0.0, 0.0, 1.0, -15.0, -30.0)" width="30.0" xlink:href="#shape0"/>
  </g>
  <defs>
    <g id="shape0" transform="matrix(1.0, 0.0, 0.0, 1.0, 15.0, 30.0)">
      <path d="M15.0 -14.95 Q14.95 -8.8 10.55 -4.4 6.2 -0.05 0.0 0.0 L-1.5 -0.05 -1.55 -0.05 Q-5.2 -0.45 -8.2 -2.5 -8.7 -2.75 -9.1 -3.15 L-9.4 -3.35 -10.6 -4.45 Q-14.1 -8.25 -14.7 -12.05 L-15.0 -15.0 Q-15.0 -21.25 -10.6 -25.65 -6.25 -30.0 -0.1 -30.0 6.15 -30.0 10.55 -25.65 L11.55 -24.55 11.55 -24.5 Q15.0 -20.45 15.0 -14.95" fill="#ffffff" fill-rule="evenodd" stroke="none"/>
      <path d="M12.6 -14.95 Q12.6 -12.2 11.6 -9.8 10.65 -7.7 8.85 -5.9 5.05 -2.1 -0.25 -2.1 -5.55 -2.1 -9.3 -5.9 -10.55 -7.15 -11.45 -8.55 -13.1 -11.4 -13.1 -14.95 -13.1 -20.3 -9.3 -24.1 -5.55 -27.85 -0.25 -27.85 5.05 -27.85 8.85 -24.1 12.6 -20.3 12.6 -14.95" fill="url(#gradient0)" fill-rule="evenodd" stroke="none"/>
      <path d="M4.8 -14.4 L4.8 -9.1 Q2.95 -6.1 0.5 -4.95 L-5.5 -4.95 Q-6.55 -6.05 -5.5 -6.9 L-1.6 -8.65 -0.7 -11.0 Q-2.35 -14.8 -2.25 -18.55 L-10.55 -23.25 -10.5 -23.3 Q-9.45 -25.4 -7.75 -27.15 -7.25 -27.65 -2.9 -28.45 L-1.05 -25.45 3.55 -22.6 6.15 -22.6 Q7.95 -21.1 8.35 -18.3 7.55 -15.6 4.8 -14.4" fill="#ffffff" fill-rule="evenodd" stroke="none"/>
    </g>
    <radialGradient cx="0" cy="0" gradientTransform="matrix(0.0206, 0.0, 0.0, 0.0206, -0.25, -14.95)" gradientUnits="userSpaceOnUse" id="gradient0" r="819.2" spreadMethod="pad">
      <stop offset="0.3607843137254902" stop-color="#22cc00"/>
      <stop offset="1.0" stop-color="#119900"/>
    </radialGradient>
  </defs>
</svg>
