<?xml version="1.0" encoding="UTF-8" standalone="no"?>
<svg xmlns:xlink="http://www.w3.org/1999/xlink" height="29.8px" width="54.15px" xmlns="http://www.w3.org/2000/svg">
  <g transform="matrix(1.0, 0.0, 0.0, 1.0, 26.75, 13.85)">
    <path d="M15.95 -2.45 Q15.55 -5.3 11.35 -7.4 L9.35 -8.25 Q5.4 -9.7 0.3 -9.7 -4.8 -9.7 -8.75 -8.3 L-10.85 -7.4 Q-15.0 -5.3 -15.4 -2.45 L-15.45 -3.05 Q-15.45 -4.75 -14.2 -6.15 -13.05 -7.45 -10.95 -8.55 L-10.85 -8.6 Q-6.25 -10.85 0.3 -10.85 6.8 -10.85 11.35 -8.6 L11.5 -8.5 Q13.65 -7.45 14.75 -6.1 16.0 -4.7 16.0 -3.05 L15.95 -2.45" fill="#898c72" fill-rule="evenodd" stroke="none"/>
    <path d="M-15.4 -2.45 Q-15.0 -5.3 -10.85 -7.4 L-8.75 -8.3 Q-4.8 -9.7 0.3 -9.7 5.4 -9.7 9.35 -8.25 L11.35 -7.4 Q15.55 -5.3 15.95 -2.45 L16.0 -1.85 Q16.0 1.4 11.35 3.7 6.8 6.05 0.3 6.05 -6.25 6.05 -10.85 3.7 -15.45 1.4 -15.45 -1.85 L-15.4 -2.45" fill="#a5a889" fill-rule="evenodd" stroke="none"/>
    <path d="M15.95 -2.45 L16.0 -3.05 Q16.0 -4.7 14.75 -6.1 13.65 -7.45 11.5 -8.5 L11.35 -8.6 Q6.8 -10.85 0.3 -10.85 -6.25 -10.85 -10.85 -8.6 L-10.95 -8.55 Q-13.05 -7.45 -14.2 -6.15 -15.45 -4.75 -15.45 -3.05 L-15.4 -2.45 -15.45 -1.85 Q-15.45 1.4 -10.85 3.7 -6.25 6.05 0.3 6.05 6.8 6.05 11.35 3.7 16.0 1.4 16.0 -1.85 L15.95 -2.45 M-21.0 0.25 L-20.65 -1.1 -19.45 -3.95 -19.4 -4.05 Q-18.3 -7.0 -13.95 -9.3 -8.05 -12.45 0.3 -12.45 8.55 -12.45 14.45 -9.3 18.95 -7.0 20.05 -3.85 L20.15 -3.5 Q21.0 -2.25 21.5 -0.35 L21.55 0.15 Q20.95 4.15 15.4 7.1 9.1 10.45 0.3 10.45 -8.6 10.45 -14.9 7.1 -20.35 4.2 -21.0 0.25 M20.15 -3.5 L20.4 -1.85 20.3 -0.8 20.2 -0.35 Q19.35 3.1 14.45 5.6 8.55 8.75 0.3 8.75 -8.05 8.75 -13.95 5.6 -18.8 3.1 -19.65 -0.3 L-19.75 -0.8 -19.85 -1.85 Q-19.85 -2.95 -19.45 -3.95 -19.85 -2.95 -19.85 -1.85 L-19.75 -0.8 -19.65 -0.3 Q-18.8 3.1 -13.95 5.6 -8.05 8.75 0.3 8.75 8.55 8.75 14.45 5.6 19.35 3.1 20.2 -0.35 L20.3 -0.8 20.4 -1.85 20.15 -3.5" fill="#c9cca7" fill-rule="evenodd" stroke="none"/>
    <path d="M21.55 0.15 L21.65 1.3 Q21.65 6.05 15.4 9.35 9.1 12.65 0.3 12.65 -8.6 12.65 -14.9 9.35 -21.1 6.05 -21.1 1.3 L-21.0 0.35 -21.0 0.25 Q-20.35 4.2 -14.9 7.1 -8.6 10.45 0.3 10.45 9.1 10.45 15.4 7.1 20.95 4.15 21.55 0.15" fill="#8e9176" fill-rule="evenodd" stroke="none"/>
    <path d="M-15.4 -2.45 Q-15.0 -5.3 -10.85 -7.4 L-8.75 -8.3 Q-4.8 -9.7 0.3 -9.7 5.4 -9.7 9.35 -8.25 L11.35 -7.4 Q15.55 -5.3 15.95 -2.45 L16.0 -1.85 Q16.0 1.4 11.35 3.7 6.8 6.05 0.3 6.05 -6.25 6.05 -10.85 3.7 -15.45 1.4 -15.45 -1.85 L-15.4 -2.45" fill="none" stroke="#000000" stroke-linecap="round" stroke-linejoin="round" stroke-opacity="0.24705882" stroke-width="0.1"/>
    <path d="M15.95 -2.45 L16.0 -3.05 Q16.0 -4.7 14.75 -6.1 13.65 -7.45 11.5 -8.5 L11.35 -8.6 Q6.8 -10.85 0.3 -10.85 -6.25 -10.85 -10.85 -8.6 L-10.95 -8.55 Q-13.05 -7.45 -14.2 -6.15 -15.45 -4.75 -15.45 -3.05 L-15.4 -2.45 M-21.0 0.25 L-20.65 -1.1 -19.45 -3.95 -19.4 -4.05 Q-18.3 -7.0 -13.95 -9.3 -8.05 -12.45 0.3 -12.45 8.55 -12.45 14.45 -9.3 18.95 -7.0 20.05 -3.85 L20.15 -3.5 Q21.0 -2.25 21.5 -0.35 L21.55 0.15 21.65 1.3 Q21.65 6.05 15.4 9.35 9.1 12.65 0.3 12.65 -8.6 12.65 -14.9 9.35 -21.1 6.05 -21.1 1.3 L-21.0 0.35 -21.0 0.25" fill="none" stroke="#000000" stroke-linecap="round" stroke-linejoin="round" stroke-opacity="0.5019608" stroke-width="0.05"/>
    <path d="M-19.45 -3.95 Q-19.85 -2.95 -19.85 -1.85 L-19.75 -0.8 -19.65 -0.3 Q-18.8 3.1 -13.95 5.6 -8.05 8.75 0.3 8.75 8.55 8.75 14.45 5.6 19.35 3.1 20.2 -0.35 L20.3 -0.8 20.4 -1.85 20.15 -3.5" fill="none" stroke="#ffffff" stroke-linecap="round" stroke-linejoin="round" stroke-opacity="0.5019608" stroke-width="0.05"/>
    <path d="M15.45 -11.25 L14.95 -7.5 21.65 -8.1 19.05 -4.6 25.75 -4.0 21.3 -1.15 27.4 0.6 21.5 2.55 26.35 5.2 19.7 6.1 22.75 9.45 15.95 9.15 16.95 12.85 10.65 11.4 9.55 15.1 4.35 12.65 1.25 15.95 -2.3 12.75 -7.2 15.4 -8.75 11.75 -14.85 13.4 -14.35 9.65 -21.1 10.2 -18.4 6.8 -25.1 6.2 -20.7 3.35 -26.75 1.6 -20.95 -0.35 -25.7 -3.05 -19.05 -3.9 -22.1 -7.25 -15.3 -6.95 -16.35 -10.65 -10.0 -9.2 -8.9 -12.9 -3.75 -10.45 -0.6 -13.8 2.95 -10.6 7.8 -13.25 9.4 -9.6 15.45 -11.25 M19.1 -1.0 L11.45 -2.4 13.25 -6.7 5.6 -5.3 2.45 -9.4 -2.3 -5.8 -9.25 -8.1 -9.2 -3.7 -17.25 -3.3 -12.45 0.3 -18.65 3.2 -10.85 4.55 -12.7 8.9 -5.1 7.45 -1.9 11.6 2.85 8.0 9.75 10.3 9.65 5.85 17.75 5.45 12.95 1.9 19.1 -1.0" fill="url(#gradient0)" fill-rule="evenodd" stroke="none"/>
    <path d="M15.8 -3.45 Q15.45 -6.3 11.25 -8.4 L9.25 -9.3 Q5.3 -10.7 0.15 -10.7 -4.95 -10.7 -8.85 -9.35 L-10.95 -8.4 Q-15.15 -6.3 -15.5 -3.45 L-15.55 -4.05 Q-15.55 -5.75 -14.3 -7.2 -13.15 -8.45 -11.05 -9.55 L-10.95 -9.6 Q-6.35 -11.9 0.15 -11.9 6.65 -11.9 11.25 -9.6 L11.4 -9.5 Q13.55 -8.45 14.65 -7.15 15.85 -5.7 15.85 -4.05 L15.8 -3.45" fill="#898c72" fill-rule="evenodd" stroke="none"/>
    <path d="M-15.5 -3.45 Q-15.15 -6.3 -10.95 -8.4 L-8.85 -9.35 Q-4.95 -10.7 0.15 -10.7 5.3 -10.7 9.25 -9.3 L11.25 -8.4 Q15.45 -6.3 15.8 -3.45 L15.85 -2.85 Q15.85 0.4 11.25 2.65 6.65 5.0 0.15 5.0 -6.35 5.0 -10.95 2.65 -15.55 0.4 -15.55 -2.85 L-15.5 -3.45" fill="#5a5b4b" fill-rule="evenodd" stroke="none"/>
    <path d="M15.8 -3.45 L15.85 -4.05 Q15.85 -5.7 14.65 -7.15 13.55 -8.45 11.4 -9.5 L11.25 -9.6 Q6.65 -11.9 0.15 -11.9 -6.35 -11.9 -10.95 -9.6 L-11.05 -9.55 Q-13.15 -8.45 -14.3 -7.2 -15.55 -5.75 -15.55 -4.05 L-15.5 -3.45 -15.55 -2.85 Q-15.55 0.4 -10.95 2.65 -6.35 5.0 0.15 5.0 6.65 5.0 11.25 2.65 15.85 0.4 15.85 -2.85 L15.8 -3.45 M20.05 -4.5 L20.25 -2.85 20.15 -1.8 20.1 -1.35 Q19.2 2.05 14.35 4.6 8.45 7.7 0.15 7.7 -8.2 7.7 -14.1 4.6 -18.9 2.05 -19.75 -1.3 L-19.85 -1.8 -19.95 -2.85 -19.6 -5.0 -19.95 -2.85 -19.85 -1.8 -19.75 -1.3 Q-18.9 2.05 -14.1 4.6 -8.2 7.7 0.15 7.7 8.45 7.7 14.35 4.6 19.2 2.05 20.1 -1.35 L20.15 -1.8 20.25 -2.85 20.05 -4.5 Q20.85 -3.3 21.35 -1.35 L21.45 -0.85 Q20.8 3.15 15.25 6.05 9.0 9.4 0.15 9.4 -8.75 9.4 -15.0 6.05 -20.45 3.15 -21.15 -0.75 L-20.75 -2.15 -19.6 -5.0 -19.55 -5.05 Q-18.45 -8.05 -14.1 -10.35 -8.2 -13.45 0.15 -13.45 8.45 -13.45 14.35 -10.35 18.85 -8.0 19.95 -4.9 L20.05 -4.5" fill="#c9cca7" fill-rule="evenodd" stroke="none"/>
    <path d="M-21.15 -0.75 Q-20.45 3.15 -15.0 6.05 -8.75 9.4 0.15 9.4 9.0 9.4 15.25 6.05 20.8 3.15 21.45 -0.85 L21.55 0.3 Q21.55 5.0 15.25 8.3 9.0 11.65 0.15 11.65 -8.75 11.65 -15.0 8.3 -21.25 5.0 -21.25 0.3 L-21.15 -0.65 -21.15 -0.75" fill="#8e9176" fill-rule="evenodd" stroke="none"/>
    <path d="M15.8 -3.45 L15.85 -4.05 Q15.85 -5.7 14.65 -7.15 13.55 -8.45 11.4 -9.5 L11.25 -9.6 Q6.65 -11.9 0.15 -11.9 -6.35 -11.9 -10.95 -9.6 L-11.05 -9.55 Q-13.15 -8.45 -14.3 -7.2 -15.55 -5.75 -15.55 -4.05 L-15.5 -3.45 -15.55 -2.85 Q-15.55 0.4 -10.95 2.65 -6.35 5.0 0.15 5.0 6.65 5.0 11.25 2.65 15.85 0.4 15.85 -2.85 L15.8 -3.45" fill="none" stroke="#000000" stroke-linecap="round" stroke-linejoin="round" stroke-opacity="0.24705882" stroke-width="0.1"/>
    <path d="M-19.6 -5.0 L-19.95 -2.85 -19.85 -1.8 -19.75 -1.3 Q-18.9 2.05 -14.1 4.6 -8.2 7.7 0.15 7.7 8.45 7.7 14.35 4.6 19.2 2.05 20.1 -1.35 L20.15 -1.8 20.25 -2.85 20.05 -4.5" fill="none" stroke="#ffffff" stroke-linecap="round" stroke-linejoin="round" stroke-opacity="0.5019608" stroke-width="0.05"/>
    <path d="M20.05 -4.5 L19.95 -4.9 Q18.85 -8.0 14.35 -10.35 8.45 -13.45 0.15 -13.45 -8.2 -13.45 -14.1 -10.35 -18.45 -8.05 -19.55 -5.05 L-19.6 -5.0 -20.75 -2.15 -21.15 -0.75 -21.15 -0.65 -21.25 0.3 Q-21.25 5.0 -15.0 8.3 -8.75 11.65 0.15 11.65 9.0 11.65 15.25 8.3 21.55 5.0 21.55 0.3 L21.45 -0.85 21.35 -1.35 Q20.85 -3.3 20.05 -4.5" fill="none" stroke="#000000" stroke-linecap="round" stroke-linejoin="round" stroke-opacity="0.5019608" stroke-width="0.05"/>
    <path d="M-1.4 -5.3 L0.05 -5.3 3.45 -5.5 Q4.95 -5.7 4.95 -6.0 4.95 -6.3 3.45 -6.5 L0.05 -6.7 -3.35 -6.5 -3.65 -6.45 -4.2 -6.7 0.2 -6.95 4.9 -6.65 Q6.8 -6.3 6.9 -5.9 L6.7 -5.15 6.35 -2.35 6.95 -1.15 -1.4 -5.3 M0.9 0.55 L-2.35 0.6 -9.25 0.4 -10.4 0.25 Q-9.2 -2.3 -6.7 -3.25 L0.9 0.55" fill="url(#gradient1)" fill-rule="evenodd" stroke="none"/>
    <path d="M-3.65 -6.45 L-3.35 -6.5 0.05 -6.7 3.45 -6.5 Q4.95 -6.3 4.95 -6.0 4.95 -5.7 3.45 -5.5 L0.05 -5.3 -1.4 -5.3 -3.35 -5.5 Q-4.8 -5.7 -4.8 -6.0 L-3.65 -6.45 M0.9 0.55 L3.25 0.45 4.45 0.4 Q7.3 0.1 7.3 -0.25 L6.95 -1.15 10.55 0.65 11.1 0.1 Q12.1 -1.1 12.1 -2.5 12.1 -5.15 8.35 -7.05 4.55 -8.95 -0.75 -8.95 -4.2 -8.95 -7.0 -8.1 L-4.2 -6.7 -4.6 -6.65 Q-6.45 -6.3 -6.45 -5.85 L-6.35 -5.65 -6.25 -5.15 -6.25 -3.75 -1.55 -3.5 Q1.45 -2.6 3.25 -0.95 1.6 -2.15 -0.85 -2.9 L-4.95 -3.55 -6.05 -3.45 -6.25 -3.4 -6.7 -3.25 -11.8 -5.8 Q-13.6 -4.35 -13.6 -2.5 -13.6 -0.7 -11.95 0.7 L-9.8 2.05 Q-6.05 3.95 -0.75 3.95 2.9 3.95 5.85 3.05 L0.9 0.55 M14.45 -2.5 Q14.4 0.55 10.0 2.75 5.65 4.95 -0.55 4.95 L-2.05 4.95 -2.1 4.95 Q-5.75 4.75 -8.75 3.7 L-9.65 3.4 -9.95 3.3 -11.15 2.75 Q-14.65 0.85 -15.25 -1.05 L-15.55 -2.55 Q-15.55 -5.65 -11.15 -7.85 -6.8 -10.05 -0.65 -10.05 5.6 -10.05 10.0 -7.85 L11.0 -7.3 Q14.45 -5.25 14.45 -2.5" fill="#515243" fill-rule="evenodd" stroke="none"/>
    <path d="M6.95 -1.15 L6.35 -2.35 6.7 -5.15 6.9 -5.9 Q6.8 -6.3 4.9 -6.65 L0.2 -6.95 -4.2 -6.7 -7.0 -8.1 Q-4.2 -8.95 -0.75 -8.95 4.55 -8.95 8.35 -7.05 12.1 -5.15 12.1 -2.5 12.1 -1.1 11.1 0.1 L10.55 0.65 6.95 -1.15 M0.9 0.55 L5.85 3.05 Q2.9 3.95 -0.75 3.95 -6.05 3.95 -9.8 2.05 L-11.95 0.7 Q-13.6 -0.7 -13.6 -2.5 -13.6 -4.35 -11.8 -5.8 L-6.7 -3.25 Q-9.2 -2.3 -10.4 0.25 L-9.25 0.4 -2.35 0.6 0.9 0.55" fill="#b355c5" fill-rule="evenodd" stroke="none"/>
    <path d="M-1.4 -5.3 L6.95 -1.15 7.3 -0.25 Q7.3 0.1 4.45 0.4 L3.25 0.45 0.9 0.55 -6.7 -3.25 -6.25 -3.4 -6.05 -3.45 -4.95 -3.55 -0.85 -2.9 Q1.6 -2.15 3.25 -0.95 1.45 -2.6 -1.55 -3.5 L-6.25 -3.75 -6.25 -5.15 -6.35 -5.65 -6.45 -5.85 Q-6.45 -6.3 -4.6 -6.65 L-4.2 -6.7 -3.65 -6.45 -4.8 -6.0 Q-4.8 -5.7 -3.35 -5.5 L-1.4 -5.3" fill="#ffffff" fill-rule="evenodd" stroke="none"/>
    <path d="M6.95 -1.15 L6.35 -2.35 6.7 -5.15 6.9 -5.9 Q6.8 -6.3 4.9 -6.65 L0.2 -6.95 -4.2 -6.7 -4.6 -6.65 Q-6.45 -6.3 -6.45 -5.85 L-6.35 -5.65 -6.25 -5.15 -6.25 -3.75 -1.55 -3.5 Q1.45 -2.6 3.25 -0.95 1.6 -2.15 -0.85 -2.9 L-4.95 -3.55 -6.05 -3.45 -6.25 -3.4 -6.7 -3.25 Q-9.2 -2.3 -10.4 0.25 L-9.25 0.4 -2.35 0.6 0.9 0.55 3.25 0.45 4.45 0.4 Q7.3 0.1 7.3 -0.25 L6.95 -1.15 Z" fill="none" stroke="#515243" stroke-linecap="round" stroke-linejoin="round" stroke-width="2.0"/>
    <path d="M6.7 -5.15 L6.35 -2.35 7.3 -0.25 Q7.3 0.1 4.45 0.4 L3.25 0.45 -2.35 0.6 -9.25 0.4 -10.4 0.25 Q-9.1 -2.5 -6.25 -3.4 L-6.05 -3.45 -4.95 -3.55 -0.85 -2.9 Q1.6 -2.15 3.25 -0.95 1.45 -2.6 -1.55 -3.5 L-6.25 -3.75 -6.25 -5.15 -6.35 -5.65 -6.45 -5.85 Q-6.45 -6.3 -4.6 -6.65 L0.2 -6.95 4.9 -6.65 Q6.8 -6.3 6.9 -5.9 L6.7 -5.15 M4.95 -6.0 Q4.95 -6.3 3.45 -6.5 L0.05 -6.7 -3.35 -6.5 Q-4.8 -6.3 -4.8 -6.0 -4.8 -5.7 -3.35 -5.5 L0.05 -5.3 3.45 -5.5 Q4.95 -5.7 4.95 -6.0" fill="#b355c5" fill-rule="evenodd" stroke="none"/>
    <path d="M-3.75 -10.5 L-0.6 -13.85 2.95 -10.65 7.8 -13.3 9.4 -9.65 15.45 -11.3 14.95 -7.55 21.65 -8.15 19.05 -4.65 25.75 -4.05 21.3 -1.2 27.4 0.55 21.5 2.5 26.35 5.15 19.7 6.05 22.75 9.4 15.95 9.1 16.95 12.8 10.65 11.35 9.55 15.05 4.35 12.6 1.25 15.9 -2.3 12.7 -7.2 15.35 -8.75 11.7 -14.85 13.35 -14.35 9.6 -21.1 10.15 -18.4 6.75 -25.1 6.15 -20.7 3.3 -26.75 1.55 -20.95 -0.4 -25.7 -3.1 -19.05 -3.95 -22.1 -7.3 -15.3 -7.0 -16.35 -10.7 -10.0 -9.25 -8.9 -12.95 -3.75 -10.5 M-17.25 -3.35 L-12.45 0.25 -18.65 3.15 -10.85 4.5 -12.7 8.85 -5.1 7.4 -1.9 11.55 2.85 7.95 9.75 10.25 9.65 5.8 17.75 5.4 12.95 1.85 19.1 -1.05 11.45 -2.45 13.25 -6.75 5.6 -5.35 2.45 -9.45 -2.3 -5.85 -9.25 -8.15 -9.2 -3.75 -17.25 -3.35" fill="url(#gradient2)" fill-rule="evenodd" stroke="none"/>
    <path d="M15.85 -3.35 L15.8 -3.75 15.1 -5.3 Q14.0 -6.95 11.3 -8.3 L9.3 -9.2 Q5.35 -10.6 0.2 -10.6 -4.9 -10.6 -8.8 -9.25 L-10.9 -8.3 Q-15.1 -6.2 -15.45 -3.35 L-15.5 -3.8 -15.55 -3.5 -15.6 -4.1 Q-15.6 -5.8 -14.35 -7.25 -13.2 -8.5 -11.1 -9.6 L-11.0 -9.65 Q-6.4 -11.95 0.1 -11.95 6.6 -11.95 11.2 -9.65 L11.35 -9.55 Q13.5 -8.5 14.6 -7.2 L15.05 -6.6 Q15.9 -5.35 15.9 -3.95 L15.85 -3.35" fill="#898c72" fill-rule="evenodd" stroke="none"/>
    <path d="M-15.45 -3.35 Q-15.1 -6.2 -10.9 -8.3 L-8.8 -9.25 Q-4.9 -10.6 0.2 -10.6 5.35 -10.6 9.3 -9.2 L11.3 -8.3 Q14.0 -6.95 15.1 -5.3 L15.8 -3.75 15.85 -3.35 15.9 -2.75 Q15.9 0.5 11.3 2.75 6.7 5.1 0.2 5.1 -6.3 5.1 -10.9 2.75 -13.65 1.4 -14.75 -0.3 -15.5 -1.45 -15.5 -2.75 L-15.45 -3.35" fill="#afb292" fill-rule="evenodd" stroke="none"/>
    <path d="M15.85 -3.35 L15.9 -3.95 Q15.9 -5.35 15.05 -6.6 L14.6 -7.2 Q13.5 -8.5 11.35 -9.55 L11.2 -9.65 Q6.6 -11.95 0.1 -11.95 -6.4 -11.95 -11.0 -9.65 L-11.1 -9.6 Q-13.2 -8.5 -14.35 -7.25 -15.6 -5.8 -15.6 -4.1 L-15.55 -3.5 -15.6 -2.9 Q-15.6 -1.5 -14.75 -0.3 -13.65 1.4 -10.9 2.75 -6.3 5.1 0.2 5.1 6.7 5.1 11.3 2.75 15.9 0.5 15.9 -2.75 L15.85 -3.35 M-19.65 -5.05 L-19.6 -5.1 Q-18.5 -8.1 -14.15 -10.4 -8.25 -13.5 0.1 -13.5 8.4 -13.5 14.3 -10.4 18.8 -8.05 19.9 -4.95 L20.0 -4.55 20.2 -2.9 20.1 -1.85 20.05 -1.4 Q19.15 2.0 14.3 4.55 8.4 7.65 0.1 7.65 -8.25 7.65 -14.15 4.55 -18.95 2.0 -19.8 -1.35 L-19.9 -1.85 -20.0 -2.9 -19.65 -5.05 -20.0 -2.9 -19.9 -1.85 -19.8 -1.35 Q-18.95 2.0 -14.15 4.55 -8.25 7.65 0.1 7.65 8.4 7.65 14.3 4.55 19.15 2.0 20.05 -1.4 L20.1 -1.85 20.2 -2.9 20.0 -4.55 Q20.8 -3.35 21.3 -1.4 L21.4 -0.9 Q20.75 3.1 15.2 6.0 8.95 9.35 0.1 9.35 -8.8 9.35 -15.05 6.0 -20.5 3.1 -21.2 -0.8 L-20.8 -2.2 -19.65 -5.05" fill="#c9cca7" fill-rule="evenodd" stroke="none"/>
    <path d="M21.4 -0.9 L21.5 0.25 Q21.5 4.95 15.2 8.25 8.95 11.6 0.1 11.6 -8.8 11.6 -15.05 8.25 -21.3 4.95 -21.3 0.25 L-21.2 -0.7 -21.2 -0.8 Q-20.5 3.1 -15.05 6.0 -8.8 9.35 0.1 9.35 8.95 9.35 15.2 6.0 20.75 3.1 21.4 -0.9" fill="#8e9176" fill-rule="evenodd" stroke="none"/>
    <path d="M-15.55 -3.5 L-15.5 -3.8 -15.45 -3.35 -15.5 -2.75 Q-15.5 -1.45 -14.75 -0.3 -15.6 -1.5 -15.6 -2.9 L-15.55 -3.5" fill="#5a5b4b" fill-rule="evenodd" stroke="none"/>
    <path d="M15.05 -6.6 L14.6 -7.2 Q13.5 -8.5 11.35 -9.55 L11.2 -9.65 Q6.6 -11.95 0.1 -11.95 -6.4 -11.95 -11.0 -9.65 L-11.1 -9.6 Q-13.2 -8.5 -14.35 -7.25 -15.6 -5.8 -15.6 -4.1 L-15.55 -3.5 -15.6 -2.9 Q-15.6 -1.5 -14.75 -0.3 -13.65 1.4 -10.9 2.75 -6.3 5.1 0.2 5.1 6.7 5.1 11.3 2.75 15.9 0.5 15.9 -2.75 L15.85 -3.35 M-15.45 -3.35 L-15.5 -2.75 Q-15.5 -1.45 -14.75 -0.3" fill="none" stroke="#000000" stroke-linecap="round" stroke-linejoin="round" stroke-opacity="0.24705882" stroke-width="0.1"/>
    <path d="M20.0 -4.55 L19.9 -4.95 Q18.8 -8.05 14.3 -10.4 8.4 -13.5 0.1 -13.5 -8.25 -13.5 -14.15 -10.4 -18.5 -8.1 -19.6 -5.1 L-19.65 -5.05 -20.8 -2.2 -21.2 -0.8 -21.2 -0.7 -21.3 0.25 Q-21.3 4.95 -15.05 8.25 -8.8 11.6 0.1 11.6 8.95 11.6 15.2 8.25 21.5 4.95 21.5 0.25 L21.4 -0.9 21.3 -1.4 Q20.8 -3.35 20.0 -4.55" fill="none" stroke="#000000" stroke-linecap="round" stroke-linejoin="round" stroke-opacity="0.5019608" stroke-width="0.05"/>
    <path d="M-19.65 -5.05 L-20.0 -2.9 -19.9 -1.85 -19.8 -1.35 Q-18.95 2.0 -14.15 4.55 -8.25 7.65 0.1 7.65 8.4 7.65 14.3 4.55 19.15 2.0 20.05 -1.4 L20.1 -1.85 20.2 -2.9 20.0 -4.55" fill="none" stroke="#ffffff" stroke-linecap="round" stroke-linejoin="round" stroke-opacity="0.5019608" stroke-width="0.05"/>
    <path d="M7.6 -5.6 L7.8 -6.35 Q7.7 -6.75 5.8 -7.1 L1.1 -7.4 -3.7 -7.1 Q-5.55 -6.75 -5.55 -6.3 L-5.45 -6.1 -5.35 -5.6 -5.35 -4.2 -0.65 -3.95 Q2.35 -3.05 4.15 -1.4 2.5 -2.6 0.05 -3.35 L-4.05 -4.0 -5.15 -3.9 -5.35 -3.85 Q-8.2 -2.95 -9.5 -0.2 L-8.35 -0.05 -1.45 0.15 4.15 0.0 5.35 -0.05 Q8.2 -0.35 8.2 -0.7 L7.25 -2.8 7.6 -5.6 M3.65 1.05 L1.85 1.1 -1.45 1.15 -8.4 0.95 -8.5 0.95 -9.6 0.8 -10.15 0.55 -10.45 0.0 -10.4 -0.6 Q-9.2 -3.1 -6.95 -4.25 L-6.35 -4.55 -6.35 -5.5 -6.4 -5.7 -6.45 -5.85 -6.55 -6.3 Q-6.8 -7.3 -4.75 -7.85 L-3.85 -8.05 -3.95 -8.05 -3.4 -8.15 1.1 -8.4 5.95 -8.1 6.0 -8.05 Q8.8 -7.55 8.8 -6.6 L8.75 -6.05 8.55 -5.3 8.6 -5.45 8.3 -2.95 8.75 -2.05 8.8 -2.0 9.2 -0.9 9.2 -0.7 Q9.45 0.55 5.45 0.95 L4.2 1.0 4.15 1.0 3.65 1.05 M5.85 -6.45 Q5.85 -6.15 4.35 -5.95 L0.95 -5.75 -2.45 -5.95 Q-3.9 -6.15 -3.9 -6.45 -3.9 -6.75 -2.45 -6.95 L0.95 -7.15 4.35 -6.95 Q5.85 -6.75 5.85 -6.45" fill="#afb292" fill-rule="evenodd" stroke="none"/>
    <path d="M-4.75 -7.85 L-6.1 -8.55 0.15 -9.4 Q5.45 -9.4 9.25 -7.5 13.0 -5.6 13.0 -2.95 13.0 -1.55 12.0 -0.35 L11.45 0.2 9.2 -0.9" fill="none" stroke="#ffffff" stroke-linecap="round" stroke-linejoin="round" stroke-opacity="0.24705882" stroke-width="0.1"/>
    <path d="M9.2 -0.9 L8.8 -2.0 8.75 -2.05 8.3 -2.95 8.6 -5.45 8.55 -5.3 8.75 -6.05 8.8 -6.6 Q8.8 -7.55 6.0 -8.05 L5.95 -8.1 1.1 -8.4 -3.4 -8.15 -3.95 -8.05 -3.85 -8.05 -4.75 -7.85 -6.1 -8.55 0.15 -9.4 Q5.45 -9.4 9.25 -7.5 13.0 -5.6 13.0 -2.95 13.0 -1.55 12.0 -0.35 L11.45 0.2 9.2 -0.9 M7.6 -5.6 L7.25 -2.8 8.2 -0.7 Q8.2 -0.35 5.35 -0.05 L4.15 0.0 -1.45 0.15 -8.35 -0.05 -9.5 -0.2 Q-8.2 -2.95 -5.35 -3.85 L-5.15 -3.9 -4.05 -4.0 0.05 -3.35 Q2.5 -2.6 4.15 -1.4 2.35 -3.05 -0.65 -3.95 L-5.35 -4.2 -5.35 -5.6 -5.45 -6.1 -5.55 -6.3 Q-5.55 -6.75 -3.7 -7.1 L1.1 -7.4 5.8 -7.1 Q7.7 -6.75 7.8 -6.35 L7.6 -5.6 M5.85 -6.45 Q5.85 -6.75 4.35 -6.95 L0.95 -7.15 -2.45 -6.95 Q-3.9 -6.75 -3.9 -6.45 -3.9 -6.15 -2.45 -5.95 L0.95 -5.75 4.35 -5.95 Q5.85 -6.15 5.85 -6.45 M-6.95 -4.25 Q-9.2 -3.1 -10.4 -0.6 L-10.45 0.0 -10.15 0.55 -9.6 0.8 -8.5 0.95 -8.4 0.95 -1.45 1.15 1.85 1.1 3.65 1.05 6.75 2.6 Q3.8 3.5 0.15 3.5 -5.15 3.5 -8.9 1.6 L-11.05 0.25 Q-12.7 -1.15 -12.7 -2.95 -12.7 -4.8 -10.9 -6.25 L-6.95 -4.25" fill="url(#gradient3)" fill-rule="evenodd" stroke="none"/>
    <path d="M9.2 -0.9 L8.8 -2.0 8.75 -2.05 8.3 -2.95 8.6 -5.45 8.55 -5.3 8.75 -6.05 8.8 -6.6 Q8.8 -7.55 6.0 -8.05 L5.95 -8.1 1.1 -8.4 -3.4 -8.15 -3.95 -8.05 -3.85 -8.05 -4.75 -7.85 -6.1 -8.55 0.15 -9.4 Q5.45 -9.4 9.25 -7.5 13.0 -5.6 13.0 -2.95 13.0 -1.55 12.0 -0.35 L11.45 0.2 9.2 -0.9 M7.6 -5.6 L7.25 -2.8 8.2 -0.7 Q8.2 -0.35 5.35 -0.05 L4.15 0.0 -1.45 0.15 -8.35 -0.05 -9.5 -0.2 Q-8.2 -2.95 -5.35 -3.85 L-5.15 -3.9 -4.05 -4.0 0.05 -3.35 Q2.5 -2.6 4.15 -1.4 2.35 -3.05 -0.65 -3.95 L-5.35 -4.2 -5.35 -5.6 -5.45 -6.1 -5.55 -6.3 Q-5.55 -6.75 -3.7 -7.1 L1.1 -7.4 5.8 -7.1 Q7.7 -6.75 7.8 -6.35 L7.6 -5.6 M5.85 -6.45 Q5.85 -6.15 4.35 -5.95 L0.95 -5.75 -2.45 -5.95 Q-3.9 -6.15 -3.9 -6.45 -3.9 -6.75 -2.45 -6.95 L0.95 -7.15 4.35 -6.95 Q5.85 -6.75 5.85 -6.45 M-6.95 -4.25 Q-9.2 -3.1 -10.4 -0.6 L-10.45 0.0 -10.15 0.55 -9.6 0.8 -8.5 0.95 -8.4 0.95 -1.45 1.15 1.85 1.1 3.65 1.05 6.75 2.6 Q3.8 3.5 0.15 3.5 -5.15 3.5 -8.9 1.6 L-11.05 0.25 Q-12.7 -1.15 -12.7 -2.95 -12.7 -4.8 -10.9 -6.25 L-6.95 -4.25" fill="none" stroke="#ffffff" stroke-linecap="round" stroke-linejoin="round" stroke-opacity="0.24705882" stroke-width="0.1"/>
  </g>
  <defs>
    <radialGradient cx="0" cy="0" gradientTransform="matrix(0.0, -0.017, 0.0329, 0.0, 0.0, 1.4)" gradientUnits="userSpaceOnUse" id="gradient0" r="819.2" spreadMethod="pad">
      <stop offset="0.00784313725490196" stop-color="#4d2673"/>
      <stop offset="1.0" stop-color="#cd61da"/>
    </radialGradient>
    <radialGradient cx="0" cy="0" gradientTransform="matrix(0.0206, 0.0, 0.0, 0.0103, -0.75, -2.45)" gradientUnits="userSpaceOnUse" id="gradient1" r="819.2" spreadMethod="pad">
      <stop offset="0.3607843137254902" stop-color="#ff6600"/>
      <stop offset="1.0" stop-color="#990000"/>
    </radialGradient>
    <radialGradient cx="0" cy="0" gradientTransform="matrix(0.0267, 0.0, 0.0, 0.0148, 0.2, -0.4)" gradientUnits="userSpaceOnUse" id="gradient2" r="819.2" spreadMethod="pad">
      <stop offset="0.00784313725490196" stop-color="#856dbf"/>
      <stop offset="0.9882352941176471" stop-color="#5b30af"/>
    </radialGradient>
    <radialGradient cx="0" cy="0" gradientTransform="matrix(0.0363, 0.0, 0.0, 0.0165, 0.15, -2.95)" gradientUnits="userSpaceOnUse" id="gradient3" r="819.2" spreadMethod="pad">
      <stop offset="0.027450980392156862" stop-color="#8652d7"/>
      <stop offset="1.0" stop-color="#3900a8"/>
    </radialGradient>
  </defs>
</svg>
