<?xml version="1.0" encoding="UTF-8" standalone="no"?>
<svg xmlns:xlink="http://www.w3.org/1999/xlink" height="29.75px" width="54.15px" xmlns="http://www.w3.org/2000/svg">
  <g transform="matrix(1.0, 0.0, 0.0, 1.0, 26.7, 13.95)">
    <path d="M15.5 -11.4 L15.0 -7.65 21.7 -8.25 19.1 -4.75 25.8 -4.15 21.35 -1.3 27.45 0.45 21.55 2.4 26.4 5.05 19.75 5.95 22.8 9.3 16.0 9.0 17.0 12.7 10.7 11.25 9.6 14.95 4.4 12.5 1.3 15.8 -2.25 12.6 -7.15 15.25 -8.7 11.6 -14.8 13.25 -14.3 9.5 -21.05 10.05 -18.35 6.65 -25.05 6.05 -20.65 3.2 -26.7 1.45 -20.9 -0.5 -25.65 -3.2 -19.0 -4.05 -22.05 -7.4 -15.25 -7.1 -16.3 -10.8 -9.95 -9.35 -8.85 -13.05 -3.7 -10.6 -0.55 -13.95 3.0 -10.75 7.85 -13.4 9.45 -9.75 15.5 -11.4 M19.15 -1.15 L11.5 -2.55 13.3 -6.85 5.65 -5.45 2.5 -9.55 -2.25 -5.95 -9.2 -8.25 -9.15 -3.85 -17.2 -3.45 -12.4 0.15 -18.6 3.05 -10.8 4.4 -12.65 8.75 -5.05 7.3 -1.85 11.45 2.9 7.85 9.8 10.15 9.7 5.7 17.8 5.3 13.0 1.75 19.15 -1.15" fill="#5e3820" fill-rule="evenodd" stroke="none"/>
    <path d="M15.85 -3.6 Q15.5 -6.45 11.3 -8.55 L9.3 -9.45 Q5.35 -10.85 0.2 -10.85 -4.9 -10.85 -8.8 -9.5 L-10.9 -8.55 Q-15.1 -6.45 -15.45 -3.6 L-15.5 -4.2 Q-15.5 -5.9 -14.25 -7.35 -13.1 -8.6 -11.0 -9.7 L-10.9 -9.75 Q-6.3 -12.05 0.2 -12.05 6.7 -12.05 11.3 -9.75 L11.45 -9.65 Q13.6 -8.6 14.7 -7.3 15.9 -5.85 15.9 -4.2 L15.85 -3.6" fill="#898c72" fill-rule="evenodd" stroke="none"/>
    <path d="M-15.45 -3.6 Q-15.1 -6.45 -10.9 -8.55 L-8.8 -9.5 Q-4.9 -10.85 0.2 -10.85 5.35 -10.85 9.3 -9.45 L11.3 -8.55 Q15.5 -6.45 15.85 -3.6 L15.9 -3.0 Q15.9 0.25 11.3 2.5 6.7 4.85 0.2 4.85 -6.3 4.85 -10.9 2.5 -15.5 0.25 -15.5 -3.0 L-15.45 -3.6" fill="#afb292" fill-rule="evenodd" stroke="none"/>
    <path d="M15.85 -3.6 L15.9 -4.2 Q15.9 -5.85 14.7 -7.3 13.6 -8.6 11.45 -9.65 L11.3 -9.75 Q6.7 -12.05 0.2 -12.05 -6.3 -12.05 -10.9 -9.75 L-11.0 -9.7 Q-13.1 -8.6 -14.25 -7.35 -15.5 -5.9 -15.5 -4.2 L-15.45 -3.6 -15.5 -3.0 Q-15.5 0.25 -10.9 2.5 -6.3 4.85 0.2 4.85 6.7 4.85 11.3 2.5 15.9 0.25 15.9 -3.0 L15.85 -3.6 M-19.55 -5.15 L-19.5 -5.2 Q-18.4 -8.2 -14.05 -10.5 -8.15 -13.6 0.2 -13.6 8.5 -13.6 14.4 -10.5 18.9 -8.15 20.0 -5.05 L20.1 -4.65 20.3 -3.0 20.2 -1.95 20.15 -1.5 Q19.25 1.9 14.4 4.45 8.5 7.55 0.2 7.55 -8.15 7.55 -14.05 4.45 -18.85 1.9 -19.7 -1.45 L-19.8 -1.95 -19.9 -3.0 -19.55 -5.15 -19.9 -3.0 -19.8 -1.95 -19.7 -1.45 Q-18.85 1.9 -14.05 4.45 -8.15 7.55 0.2 7.55 8.5 7.55 14.4 4.45 19.25 1.9 20.15 -1.5 L20.2 -1.95 20.3 -3.0 20.1 -4.65 Q20.9 -3.45 21.4 -1.5 L21.5 -1.0 Q20.85 3.0 15.3 5.9 9.05 9.25 0.2 9.25 -8.7 9.25 -14.95 5.9 -20.4 3.0 -21.1 -0.9 L-20.7 -2.3 -19.55 -5.15" fill="#c9cca7" fill-rule="evenodd" stroke="none"/>
    <path d="M21.5 -1.0 L21.6 0.15 Q21.6 4.85 15.3 8.15 9.05 11.5 0.2 11.5 -8.7 11.5 -14.95 8.15 -21.2 4.85 -21.2 0.15 L-21.1 -0.8 -21.1 -0.9 Q-20.4 3.0 -14.95 5.9 -8.7 9.25 0.2 9.25 9.05 9.25 15.3 5.9 20.85 3.0 21.5 -1.0" fill="#8e9176" fill-rule="evenodd" stroke="none"/>
    <path d="M15.85 -3.6 L15.9 -4.2 Q15.9 -5.85 14.7 -7.3 13.6 -8.6 11.45 -9.65 L11.3 -9.75 Q6.7 -12.05 0.2 -12.05 -6.3 -12.05 -10.9 -9.75 L-11.0 -9.7 Q-13.1 -8.6 -14.25 -7.35 -15.5 -5.9 -15.5 -4.2 L-15.45 -3.6 M20.1 -4.65 L20.0 -5.05 Q18.9 -8.15 14.4 -10.5 8.5 -13.6 0.2 -13.6 -8.15 -13.6 -14.05 -10.5 -18.4 -8.2 -19.5 -5.2 L-19.55 -5.15 -20.7 -2.3 -21.1 -0.9 -21.1 -0.8 -21.2 0.15 Q-21.2 4.85 -14.95 8.15 -8.7 11.5 0.2 11.5 9.05 11.5 15.3 8.15 21.6 4.85 21.6 0.15 L21.5 -1.0 21.4 -1.5 Q20.9 -3.45 20.1 -4.65" fill="none" stroke="#000000" stroke-linecap="round" stroke-linejoin="round" stroke-opacity="0.5019608" stroke-width="0.05"/>
    <path d="M-15.45 -3.6 L-15.5 -3.0 Q-15.5 0.25 -10.9 2.5 -6.3 4.85 0.2 4.85 6.7 4.85 11.3 2.5 15.9 0.25 15.9 -3.0 L15.85 -3.6" fill="none" stroke="#000000" stroke-linecap="round" stroke-linejoin="round" stroke-opacity="0.24705882" stroke-width="0.1"/>
    <path d="M-19.55 -5.15 L-19.9 -3.0 -19.8 -1.95 -19.7 -1.45 Q-18.85 1.9 -14.05 4.45 -8.15 7.55 0.2 7.55 8.5 7.55 14.4 4.45 19.25 1.9 20.15 -1.5 L20.2 -1.95 20.3 -3.0 20.1 -4.65" fill="none" stroke="#ffffff" stroke-linecap="round" stroke-linejoin="round" stroke-opacity="0.5019608" stroke-width="0.05"/>
    <path d="M0.5 -10.2 Q4.7 -10.2 7.7 -8.5 10.7 -6.8 10.7 -4.4 10.7 -2.0 7.7 -0.35 L7.55 -0.25 Q9.65 0.65 9.8 1.75 7.45 3.0 4.05 3.0 2.6 2.15 3.1 1.2 L0.5 1.35 0.25 1.35 0.0 1.35 -2.6 1.2 Q-2.1 2.15 -3.55 3.0 -6.95 3.0 -9.3 1.75 -9.15 0.65 -7.05 -0.25 L-7.2 -0.35 Q-10.2 -2.0 -10.2 -4.4 -10.2 -6.8 -7.2 -8.5 -4.2 -10.2 0.0 -10.2 L0.25 -10.2 0.5 -10.2 M2.25 -2.3 L3.25 -1.5 Q3.9 -1.1 4.85 -1.1 L6.55 -1.4 7.7 -2.3 Q8.05 -2.8 7.45 -3.6 6.85 -4.45 5.4 -4.3 3.95 -4.15 2.95 -3.45 1.95 -2.8 2.25 -2.3 M-7.2 -2.3 L-6.05 -1.4 -4.35 -1.1 Q-3.4 -1.1 -2.75 -1.5 L-1.75 -2.3 Q-1.45 -2.8 -2.45 -3.45 -3.45 -4.15 -4.9 -4.3 -6.35 -4.45 -6.95 -3.6 -7.55 -2.8 -7.2 -2.3" fill="url(#gradient0)" fill-rule="evenodd" stroke="none"/>
  </g>
  <defs>
    <radialGradient cx="0" cy="0" gradientTransform="matrix(0.0142, 0.0, 0.0, 0.0103, 0.3, -5.75)" gradientUnits="userSpaceOnUse" id="gradient0" r="819.2" spreadMethod="pad">
      <stop offset="0.0" stop-color="#5f3921"/>
      <stop offset="1.0" stop-color="#5f3921"/>
    </radialGradient>
  </defs>
</svg>
