<?xml version="1.0" encoding="UTF-8" standalone="no"?>
<svg xmlns:xlink="http://www.w3.org/1999/xlink" height="30.0px" width="30.0px" xmlns="http://www.w3.org/2000/svg">
  <g transform="matrix(1.0, 0.0, 0.0, 1.0, 15.0, 30.0)">
    <path d="M15.0 -14.95 Q14.95 -8.8 10.55 -4.4 6.2 -0.05 0.0 0.0 L-1.5 -0.05 -1.55 -0.05 Q-5.2 -0.45 -8.2 -2.5 -8.7 -2.75 -9.1 -3.15 L-9.4 -3.35 -10.6 -4.45 Q-14.1 -8.25 -14.7 -12.05 L-15.0 -15.0 Q-15.0 -21.25 -10.6 -25.65 -6.25 -30.0 -0.1 -30.0 6.15 -30.0 10.55 -25.65 L11.55 -24.55 11.55 -24.5 Q15.0 -20.45 15.0 -14.95" fill="#ffffff" fill-rule="evenodd" stroke="none"/>
    <path d="M11.65 -9.75 Q10.7 -7.65 8.9 -5.85 5.1 -2.05 -0.2 -2.05 -5.5 -2.05 -9.25 -5.85 -10.5 -7.1 -11.4 -8.5 -13.05 -11.35 -13.05 -14.9 -13.05 -20.25 -9.25 -24.05 -5.5 -27.8 -0.2 -27.8 5.1 -27.8 8.9 -24.05 12.65 -20.25 12.65 -14.9 12.65 -12.15 11.65 -9.75" fill="url(#gradient0)" fill-rule="evenodd" stroke="none"/>
  </g>
  <g transform="scale(0.68)">
    <use height="28.6" transform="matrix(1.0, 0.0, 0.0, 1.0, 8.25, 7.75)" width="27.65" xlink:href="#shape2"/>
  </g>
  <defs>
    <radialGradient cx="0" cy="0" gradientTransform="matrix(0.0206, 0.0, 0.0, 0.0206, -0.2, -14.9)" gradientUnits="userSpaceOnUse" id="gradient0" r="819.2" spreadMethod="pad">
      <stop offset="0.3607843137254902" stop-color="#9966ff"/>
      <stop offset="1.0" stop-color="#003366"/>
    </radialGradient>
    <g id="shape2" transform="matrix(1.0, 0.0, 0.0, 1.0, -8.25, -7.75)">
      <path d="M22.2 11.3 L22.35 11.35 18.3 11.5 Q15.25 12.25 12.9 14.65 L11.5 16.4 11.0 17.7 Q10.15 21.05 11.85 24.0 13.5 27.0 16.7 27.9 L17.4 28.05 Q16.3 27.5 15.35 26.55 13.75 24.85 13.3 22.6 13.9 24.5 15.4 25.9 17.45 27.75 19.7 27.4 21.9 27.1 23.5 25.5 25.15 23.9 25.4 22.6 25.65 20.75 24.55 19.35 L24.25 19.0 Q22.9 17.55 21.0 17.55 L19.85 17.7 19.05 17.95 18.5 18.35 17.4 19.7 Q16.75 20.55 16.75 21.45 16.45 18.85 17.2 17.9 L17.8 17.2 18.25 16.85 18.9 16.4 19.55 16.05 21.6 15.65 Q23.45 15.65 24.95 16.85 L25.5 17.4 26.1 18.2 Q26.45 16.4 24.65 14.7 26.0 15.35 27.4 17.7 28.85 20.0 28.0 23.75 27.15 27.6 23.4 29.7 19.7 31.8 15.75 30.7 12.3 29.75 10.3 26.95 L9.55 28.3 Q8.25 25.45 8.25 22.05 L8.35 20.15 8.65 18.1 9.65 15.65 Q10.6 13.65 12.3 11.95 16.35 7.75 22.1 7.75 27.8 7.75 31.9 11.95 35.9 16.1 35.9 22.05 35.9 28.0 31.9 32.2 27.8 36.35 22.1 36.35 18.6 36.35 15.8 34.85 L20.5 34.7 Q25.45 34.35 28.75 31.05 32.0 27.65 32.0 22.8 32.0 18.0 28.75 14.65 26.0 11.8 22.2 11.3" fill="#ffffff" fill-rule="evenodd" stroke="none"/>
    </g>
  </defs>
</svg>
