<?xml version="1.0" encoding="UTF-8" standalone="no"?>
<svg xmlns:xlink="http://www.w3.org/1999/xlink" height="30.0px" width="30.0px" xmlns="http://www.w3.org/2000/svg">
  <g transform="matrix(1.0, 0.0, 0.0, 1.0, 15.0, 30.0)">
    <path d="M15.0 -14.95 Q14.95 -8.8 10.55 -4.4 6.2 -0.05 0.0 0.0 L-1.5 -0.05 -1.55 -0.05 Q-5.2 -0.45 -8.2 -2.5 -8.7 -2.75 -9.1 -3.15 L-9.4 -3.35 -10.6 -4.45 Q-14.1 -8.25 -14.7 -12.05 L-15.0 -15.0 Q-15.0 -21.25 -10.6 -25.65 -6.25 -30.0 -0.1 -30.0 6.15 -30.0 10.55 -25.65 L11.55 -24.55 11.55 -24.5 Q15.0 -20.45 15.0 -14.95" fill="#ffffff" fill-rule="evenodd" stroke="none"/>
    <path d="M11.65 -9.75 Q10.7 -7.65 8.9 -5.85 5.1 -2.05 -0.2 -2.05 -5.5 -2.05 -9.25 -5.85 -10.5 -7.1 -11.4 -8.5 -13.05 -11.35 -13.05 -14.9 -13.05 -20.25 -9.25 -24.05 -5.5 -27.8 -0.2 -27.8 5.1 -27.8 8.9 -24.05 12.65 -20.25 12.65 -14.9 12.65 -12.15 11.65 -9.75" fill="url(#gradient0)" fill-rule="evenodd" stroke="none"/>
    <path d="M9.0 -5.75 L6.5 -3.75 -11.55 -21.8 -9.55 -24.35 Q-8.3 -25.6 -6.8 -26.5 L11.2 -8.5 Q10.35 -7.05 9.0 -5.75" fill="#ffffff" fill-rule="evenodd" stroke="none"/>
    <path d="M0.6 -20.5 L-2.8 -20.95 Q-4.25 -21.35 -4.25 -21.95 -4.25 -22.5 -2.8 -22.9 L0.6 -23.3 4.0 -22.9 Q5.5 -22.5 5.5 -21.95 5.5 -21.35 4.0 -20.95 L0.6 -20.5" fill="#e74e00" fill-rule="evenodd" stroke="none"/>
    <path d="M7.25 -20.25 L6.9 -14.65 7.85 -10.4 Q7.85 -9.7 5.0 -9.15 L3.8 -9.0 -1.8 -8.7 -8.7 -9.15 -9.85 -9.4 Q-8.55 -14.9 -5.7 -16.75 L-5.5 -16.85 -4.4 -17.0 Q-2.55 -17.0 -0.3 -15.7 2.15 -14.25 3.8 -11.8 2.0 -15.15 -1.0 -16.95 -3.3 -18.2 -5.7 -17.45 L-5.7 -20.25 -5.8 -21.2 -5.9 -21.6 Q-5.9 -22.55 -4.05 -23.2 L0.75 -23.8 5.45 -23.2 Q7.35 -22.55 7.45 -21.7 L7.25 -20.25 Z" fill="none" stroke="#e74e00" stroke-linecap="round" stroke-linejoin="round" stroke-width="2.0"/>
    <path d="M7.25 -20.25 L6.9 -14.65 7.85 -10.4 Q7.85 -9.7 5.0 -9.15 L3.8 -9.0 -1.8 -8.7 -8.7 -9.15 -9.85 -9.4 Q-8.55 -14.9 -5.7 -16.75 L-5.5 -16.85 -4.4 -17.0 Q-2.55 -17.0 -0.3 -15.7 2.15 -14.25 3.8 -11.8 2.0 -15.15 -1.0 -16.95 -3.3 -18.2 -5.7 -17.45 L-5.7 -20.25 -5.8 -21.2 -5.9 -21.6 Q-5.9 -22.55 -4.05 -23.2 L0.75 -23.8 5.45 -23.2 Q7.35 -22.55 7.45 -21.7 L7.25 -20.25 M5.5 -21.95 Q5.5 -22.5 4.0 -22.9 L0.6 -23.3 -2.8 -22.9 Q-4.25 -22.5 -4.25 -21.95 -4.25 -21.35 -2.8 -20.95 L0.6 -20.5 4.0 -20.95 Q5.5 -21.35 5.5 -21.95" fill="#ffffff" fill-rule="evenodd" stroke="none"/>
  </g>
  <defs>
    <radialGradient cx="0" cy="0" gradientTransform="matrix(0.0206, 0.0, 0.0, 0.0206, -0.2, -14.9)" gradientUnits="userSpaceOnUse" id="gradient0" r="819.2" spreadMethod="pad">
      <stop offset="0.3607843137254902" stop-color="#ff6600"/>
      <stop offset="1.0" stop-color="#990000"/>
    </radialGradient>
  </defs>
</svg>
