<?xml version="1.0" encoding="UTF-8" standalone="no"?>
<svg xmlns:xlink="http://www.w3.org/1999/xlink" height="44.0px" width="44.0px" xmlns="http://www.w3.org/2000/svg">
  <g transform="matrix(1.0, 0.0, 0.0, 1.0, -0.05, 0.0)">
    <use height="37.1" transform="matrix(1.0, 0.0, 0.0, 1.0, 3.45, 3.5)" width="37.2" xlink:href="#shape0"/>
    <use height="20.15" transform="matrix(1.1594, 0.0, 0.0, 1.1594, 5.85, 5.25)" width="28.2" xlink:href="#sprite0"/>
    <use height="44.0" transform="matrix(1.0, 0.0, 0.0, 1.0, 0.05, 0.0)" width="44.0" xlink:href="#shape2"/>
    <use height="8.6" transform="matrix(1.2125, 0.0, 0.0, 1.2125, 0.9075, 0.95)" width="35.05" xlink:href="#sprite1"/>
    <use height="40.0" transform="matrix(1.0, 0.0, 0.0, 1.0, 0.05, 4.0)" width="43.95" xlink:href="#shape4"/>
    <use height="20.15" transform="matrix(1.1594, 0.0, 0.0, 1.1594, 5.85, 5.25)" width="28.2" xlink:href="#sprite0"/>
    <use height="44.0" transform="matrix(1.0, 0.0, 0.0, 1.0, 0.05, 0.0)" width="44.0" xlink:href="#shape5"/>
    <use height="8.6" transform="matrix(1.2125, 0.0, 0.0, 1.2125, 0.9075, 0.95)" width="35.05" xlink:href="#sprite1"/>
    <use height="17.95" transform="matrix(1.0, 0.0, 0.0, 1.0, 0.05, 26.05)" width="43.95" xlink:href="#shape6"/>
  </g>
  <defs>
    <g id="shape0" transform="matrix(1.0, 0.0, 0.0, 1.0, -3.45, -3.5)">
      <path d="M3.45 22.05 Q3.45 14.35 8.9 8.95 14.35 3.5 22.1 3.5 29.8 3.5 35.25 8.95 40.65 14.4 40.65 22.05 40.65 29.75 35.25 35.2 29.8 40.6 22.1 40.6 14.35 40.6 8.9 35.2 3.45 29.75 3.45 22.05" fill="url(#gradient0)" fill-rule="evenodd" stroke="none"/>
      <path d="M21.95 11.45 L21.95 11.7 Q28.85 11.7 35.85 17.8 26.7 19.95 25.95 22.1 L31.9 22.1 Q27.1 24.9 26.0 27.4 L29.75 27.4 Q25.75 28.75 24.3 31.95 L26.8 31.95 Q23.3 33.15 21.95 35.8 L21.75 36.0 21.75 35.55 Q20.4 32.95 16.9 31.75 L19.4 31.75 Q17.95 28.6 13.95 27.25 L17.7 27.25 Q16.6 24.7 11.75 21.95 L17.75 21.95 Q17.0 19.75 7.85 17.6 14.9 11.4 21.95 11.45" fill="#664411" fill-rule="evenodd" stroke="none"/>
    </g>
    <linearGradient gradientTransform="matrix(0.0, -0.017, -0.0173, 0.0, 21.05, 26.95)" gradientUnits="userSpaceOnUse" id="gradient0" spreadMethod="pad" x1="-819.2" x2="819.2">
      <stop offset="0.011764705882352941" stop-color="#dad67d"/>
      <stop offset="1.0" stop-color="#cfa451"/>
    </linearGradient>
    <g id="sprite0" transform="matrix(1.0, 0.0, 0.0, 1.0, 0.0, 0.0)">
      <use height="20.15" transform="matrix(1.0, 0.0, 0.0, 1.0, 0.0, 0.0)" width="28.2" xlink:href="#shape1"/>
    </g>
    <g id="shape1" transform="matrix(1.0, 0.0, 0.0, 1.0, 0.0, 0.0)">
      <path d="M27.4 18.95 Q26.2 20.8 23.4 19.8 19.6 18.5 17.35 14.05 14.8 9.1 9.75 7.4 4.1 5.65 0.0 10.3 1.0 6.85 3.7 4.15 7.2 0.65 11.9 0.05 L14.8 0.05 18.4 0.65 Q21.55 1.65 24.05 4.15 28.2 8.3 28.2 14.25 28.2 16.45 27.65 18.45 L27.4 18.95" fill="#ffffff" fill-opacity="0.19607843" fill-rule="evenodd" stroke="none"/>
    </g>
    <g id="shape2" transform="matrix(1.0, 0.0, 0.0, 1.0, -0.05, 0.0)">
      <path d="M44.05 7.6 L44.05 36.4 Q44.05 39.6 41.85 41.8 39.65 44.0 36.45 44.0 L7.65 44.0 Q4.5 44.0 2.3 41.8 0.05 39.6 0.05 36.4 L0.05 7.6 Q0.05 4.5 2.3 2.3 4.5 0.0 7.65 0.0 L36.45 0.0 Q39.6 0.0 41.85 2.3 44.05 4.5 44.05 7.6 M40.9 22.05 Q40.9 14.1 35.3 8.6 29.8 3.05 21.9 3.05 13.95 3.05 8.45 8.6 2.9 14.1 2.9 22.05 2.9 29.95 8.45 35.45 13.95 41.1 21.9 41.1 29.8 41.1 35.3 35.45 40.9 29.95 40.9 22.05" fill="url(#gradient1)" fill-rule="evenodd" stroke="none"/>
      <path d="M40.9 22.05 Q40.9 29.95 35.3 35.45 29.8 41.1 21.9 41.1 13.95 41.1 8.45 35.45 2.9 29.95 2.9 22.05 2.9 14.1 8.45 8.6 13.95 3.05 21.9 3.05 29.8 3.05 35.3 8.6 40.9 14.1 40.9 22.05 M33.75 10.35 Q28.8 5.45 21.9 5.4 15.0 5.45 10.15 10.35 5.25 15.15 5.2 22.05 5.25 29.0 10.15 33.85 15.0 38.75 21.9 38.75 28.8 38.75 33.75 33.85 38.55 29.0 38.55 22.05 38.55 15.15 33.75 10.35" fill="url(#gradient2)" fill-rule="evenodd" stroke="none"/>
    </g>
    <linearGradient gradientTransform="matrix(0.0, -0.0258, -0.0551, 0.0, 21.9, 21.85)" gradientUnits="userSpaceOnUse" id="gradient1" spreadMethod="pad" x1="-819.2" x2="819.2">
      <stop offset="0.011764705882352941" stop-color="#c79829"/>
      <stop offset="1.0" stop-color="#be7d1e"/>
    </linearGradient>
    <linearGradient gradientTransform="matrix(1.0E-4, 0.0223, -0.0232, 1.0E-4, 21.95, 22.3)" gradientUnits="userSpaceOnUse" id="gradient2" spreadMethod="pad" x1="-819.2" x2="819.2">
      <stop offset="0.011764705882352941" stop-color="#8d5910"/>
      <stop offset="1.0" stop-color="#d9d597"/>
    </linearGradient>
    <g id="sprite1" transform="matrix(1.0, 0.0, 0.0, 1.0, 0.2, 0.0)">
      <use height="8.6" transform="matrix(1.0, 0.0, 0.0, 1.0, -0.2, 0.0)" width="35.05" xlink:href="#shape3"/>
    </g>
    <g id="shape3" transform="matrix(1.0, 0.0, 0.0, 1.0, 0.2, 0.0)">
      <path d="M34.85 8.6 Q34.8 6.95 34.4 5.7 33.0 1.3 27.2 1.3 L7.45 1.3 Q0.05 1.3 -0.2 8.5 L-0.2 7.65 Q-0.2 0.0 7.45 0.0 L27.2 0.0 Q33.0 0.0 34.4 4.4 34.85 5.8 34.85 7.65 L34.85 8.6" fill="#e7deda" fill-rule="evenodd" stroke="none"/>
    </g>
    <g id="shape4" transform="matrix(1.0, 0.0, 0.0, 1.0, -0.05, -4.0)">
      <path d="M38.9 27.95 L39.35 26.8 39.75 26.3 Q40.1 26.05 40.45 26.05 L41.1 26.3 41.55 26.85 41.95 27.95 43.1 27.95 Q43.55 27.95 43.8 28.2 L44.0 28.35 44.0 29.95 43.75 30.1 42.9 30.75 43.3 32.1 43.3 32.8 42.85 33.35 42.15 33.55 41.5 33.3 41.25 33.15 41.2 35.7 43.6 36.65 44.0 36.9 43.65 38.8 43.45 38.85 40.9 39.5 40.7 42.45 40.55 42.75 39.3 43.5 39.05 43.45 38.55 43.0 37.05 40.45 34.25 41.2 33.9 41.2 33.05 41.8 33.45 43.15 33.45 43.85 33.35 44.0 31.2 44.0 30.6 43.6 29.95 44.0 27.75 44.0 27.7 43.8 27.7 43.1 28.1 41.8 27.2 41.2 26.8 40.6 Q26.65 40.2 26.8 39.85 L27.2 39.25 27.9 39.05 29.05 39.05 29.5 37.9 29.9 37.35 30.6 37.15 31.25 37.35 31.7 37.95 32.1 39.05 33.25 39.05 34.9 37.05 33.6 34.85 33.45 34.15 33.75 33.45 Q33.95 33.2 34.3 33.15 L35.0 33.2 37.4 34.15 38.1 33.4 37.95 33.3 37.55 32.7 37.55 32.0 37.95 30.75 37.05 30.1 36.65 29.55 Q36.5 29.15 36.65 28.8 L37.05 28.2 Q37.35 27.95 37.75 27.95 L38.9 27.95 M30.7 38.7 L30.45 38.7 29.85 40.2 28.25 40.2 28.15 40.45 29.5 41.35 28.9 43.1 29.1 43.2 30.6 42.15 32.0 43.2 32.25 43.1 31.7 41.35 32.85 40.5 32.8 40.2 31.3 40.2 30.7 38.7 M37.75 35.5 L34.6 34.25 36.35 37.2 33.95 40.0 37.6 39.1 39.55 42.35 39.8 38.6 43.2 37.7 40.05 36.45 40.1 33.0 37.75 35.5 M39.7 29.15 L38.1 29.15 38.0 29.35 39.35 30.3 38.8 32.0 38.95 32.15 40.45 31.1 41.85 32.15 42.1 32.0 41.55 30.3 42.85 29.35 42.7 29.15 41.15 29.15 40.55 27.6 40.3 27.6 39.7 29.15" fill="url(#gradient3)" fill-rule="evenodd" stroke="none"/>
      <path d="M42.25 29.75 L41.55 30.3 41.55 30.9 41.9 32.2 40.45 31.1 38.95 32.2 39.35 30.9 39.35 30.3 38.6 29.75 39.7 29.75 40.45 27.85 41.15 29.75 42.25 29.75 M40.05 36.45 L40.05 37.05 42.2 38.0 39.8 38.6 39.55 42.35 37.6 39.1 34.6 39.85 36.35 37.8 36.35 37.2 35.05 35.1 37.75 36.15 40.1 33.65 40.05 36.45 M32.4 40.85 L31.7 41.35 31.7 42.0 32.05 43.25 30.6 42.15 29.1 43.25 29.5 42.0 29.5 41.35 28.75 40.85 29.85 40.85 30.6 38.9 31.3 40.85 32.4 40.85" fill="#815815" fill-rule="evenodd" stroke="none"/>
      <path d="M38.6 29.75 L37.75 29.15 39.7 29.15 40.45 27.2 41.15 29.15 43.1 29.15 42.25 29.75 41.15 29.75 40.45 27.85 39.7 29.75 38.6 29.75 M41.55 30.3 L42.2 32.35 41.9 32.2 41.55 30.9 41.55 30.3 M38.95 32.2 L38.65 32.35 39.35 30.3 39.35 30.9 38.95 32.2 M40.05 36.45 L43.2 37.7 42.2 38.0 40.05 37.05 40.05 36.45 M34.6 39.85 L33.95 40.0 36.35 37.2 36.35 37.8 34.6 39.85 M35.05 35.1 L34.6 34.25 37.75 35.5 40.1 33.0 40.1 33.65 37.75 36.15 35.05 35.1 M28.75 40.85 L27.9 40.2 29.85 40.2 30.6 38.3 31.3 40.2 33.25 40.2 32.4 40.85 31.3 40.85 30.6 38.9 29.85 40.85 28.75 40.85 M31.7 41.35 L32.35 43.45 32.05 43.25 31.7 42.0 31.7 41.35 M29.1 43.25 L28.8 43.45 29.5 41.35 29.5 42.0 29.1 43.25" fill="#674512" fill-rule="evenodd" stroke="none"/>
      <path d="M5.15 27.95 L6.3 27.95 Q6.7 27.95 7.0 28.2 L7.4 28.8 7.4 29.55 7.0 30.1 6.1 30.75 6.5 32.0 6.5 32.7 6.1 33.3 5.95 33.4 6.65 34.15 9.05 33.2 9.75 33.15 10.3 33.45 10.6 34.15 10.45 34.85 9.15 37.05 10.8 39.05 11.95 39.05 12.35 37.95 12.8 37.35 13.45 37.15 14.15 37.35 14.55 37.9 15.0 39.05 16.15 39.05 16.85 39.25 17.25 39.85 17.25 40.6 16.85 41.2 15.95 41.8 16.35 43.1 16.35 43.8 16.3 44.0 14.1 44.0 13.45 43.6 12.85 44.0 10.7 44.0 10.6 43.85 10.6 43.15 11.0 41.8 10.15 41.2 9.8 41.2 7.0 40.45 5.5 43.0 5.0 43.45 4.75 43.5 Q4.05 43.2 3.5 42.75 L3.35 42.45 3.15 39.5 0.6 38.85 0.4 38.8 0.05 36.9 Q0.25 36.7 0.45 36.65 L2.85 35.7 2.8 33.15 2.55 33.3 1.9 33.55 1.2 33.35 0.75 32.8 0.75 32.1 1.15 30.75 0.3 30.1 0.05 29.95 0.05 28.35 0.25 28.2 Q0.5 27.95 0.95 27.95 L2.1 27.95 2.5 26.85 2.95 26.3 Q3.25 26.05 3.6 26.05 L4.3 26.3 4.7 26.8 5.15 27.95 M4.35 29.15 L3.75 27.6 3.5 27.6 2.9 29.15 1.35 29.15 1.2 29.35 2.5 30.3 1.95 32.0 2.2 32.15 3.6 31.1 5.1 32.15 5.25 32.0 4.7 30.3 6.05 29.35 5.95 29.15 4.35 29.15 M6.3 35.5 L3.95 33.0 4.0 36.45 0.85 37.7 4.25 38.6 4.5 42.35 6.45 39.1 10.1 40.0 7.7 37.2 9.45 34.25 6.3 35.5 M13.35 38.7 L12.75 40.2 11.25 40.2 11.2 40.5 12.35 41.35 11.8 43.1 12.05 43.2 13.45 42.15 14.95 43.2 15.15 43.1 14.55 41.35 15.9 40.45 15.8 40.2 14.2 40.2 13.6 38.7 13.35 38.7" fill="url(#gradient4)" fill-rule="evenodd" stroke="none"/>
      <path d="M1.8 29.75 L0.95 29.15 2.9 29.15 3.6 27.2 4.35 29.15 6.3 29.15 5.45 29.75 4.35 29.75 3.6 27.85 2.9 29.75 1.8 29.75 M4.7 30.3 L5.4 32.35 5.1 32.2 4.7 30.9 4.7 30.3 M2.15 32.2 L1.85 32.35 2.5 30.3 2.5 30.9 2.15 32.2 M3.95 33.65 L3.95 33.0 6.3 35.5 9.45 34.25 9.0 35.1 6.3 36.15 3.95 33.65 M7.7 37.2 L10.1 40.0 9.45 39.85 7.7 37.8 7.7 37.2 M1.85 38.0 L0.85 37.7 4.0 36.45 4.0 37.05 1.85 38.0 M11.65 40.85 L10.8 40.2 12.75 40.2 13.45 38.3 14.2 40.2 16.15 40.2 15.3 40.85 14.2 40.85 13.45 38.9 12.75 40.85 11.65 40.85 M14.55 41.35 L15.25 43.45 14.95 43.25 14.55 42.0 14.55 41.35 M12.0 43.25 L11.7 43.45 12.35 41.35 12.35 42.0 12.0 43.25" fill="#674512" fill-rule="evenodd" stroke="none"/>
      <path d="M1.8 29.75 L2.9 29.75 3.6 27.85 4.35 29.75 5.45 29.75 4.7 30.3 4.7 30.9 5.1 32.2 3.6 31.1 2.15 32.2 2.5 30.9 2.5 30.3 1.8 29.75 M9.0 35.1 L7.7 37.2 7.7 37.8 9.45 39.85 6.45 39.1 4.5 42.35 4.25 38.6 1.85 38.0 4.0 37.05 4.0 36.45 3.95 33.65 6.3 36.15 9.0 35.1 M11.65 40.85 L12.75 40.85 13.45 38.9 14.2 40.85 15.3 40.85 14.55 41.35 14.55 42.0 14.95 43.25 13.45 42.15 12.0 43.25 12.35 42.0 12.35 41.35 11.65 40.85" fill="#815815" fill-rule="evenodd" stroke="none"/>
      <path d="M40.5 22.15 Q40.5 29.7 35.15 35.0 29.85 40.3 22.35 40.3 14.85 40.3 9.55 35.0 4.2 29.7 4.2 22.15 4.2 14.6 9.55 9.3 14.85 4.0 22.35 4.0 29.85 4.0 35.15 9.3 40.5 14.6 40.5 22.15" fill="url(#gradient5)" fill-rule="evenodd" stroke="none"/>
      <path d="M20.75 8.15 Q21.2 7.8 21.9 7.8 22.65 7.8 23.15 8.15 L23.55 8.65 23.55 14.3 23.35 14.7 23.15 14.85 21.95 15.05 20.75 14.85 20.55 14.7 20.3 14.25 20.3 8.6 Q20.35 8.35 20.7 8.15 L20.75 8.15 M22.0 20.5 Q21.15 20.5 20.5 21.1 L20.45 21.15 Q19.9 21.75 19.9 22.6 19.9 23.5 20.5 24.15 L20.45 24.1 Q21.1 24.7 22.0 24.7 22.85 24.7 23.45 24.15 L23.45 24.1 Q24.1 23.45 24.1 22.6 24.1 21.75 23.45 21.1 22.85 20.5 22.0 20.5 M24.9 19.75 Q26.1 20.95 26.1 22.6 26.1 24.35 24.85 25.55 L24.9 25.5 Q23.75 26.7 22.0 26.7 20.3 26.7 19.05 25.55 L19.05 25.5 Q17.9 24.3 17.9 22.6 17.9 20.95 19.0 19.75 L19.05 19.7 Q20.3 18.5 22.0 18.5 23.7 18.5 24.85 19.7 L24.9 19.75 M25.2 15.25 L24.4 14.95 24.55 14.4 24.55 11.35 25.2 11.5 Q27.95 12.3 30.1 14.45 32.45 16.8 33.2 19.85 L30.1 19.85 Q29.85 19.85 29.6 20.0 29.0 18.3 27.65 16.95 26.55 15.85 25.2 15.25 M36.4 23.65 Q36.15 24.05 35.8 24.1 L30.15 24.1 29.9 24.0 29.7 23.7 29.7 23.65 Q29.35 23.2 29.35 22.5 29.35 21.75 29.7 21.25 L29.85 21.05 30.2 20.85 35.85 20.85 Q36.15 20.9 36.4 21.25 L36.6 22.45 36.4 23.65 M16.2 16.95 Q14.85 18.3 14.35 20.0 L13.8 19.85 10.65 19.85 Q11.35 16.8 13.7 14.45 L13.75 14.4 Q15.9 12.25 18.65 11.5 L19.3 11.35 19.3 14.35 19.5 14.95 18.65 15.25 Q17.35 15.85 16.2 16.95 M7.55 23.65 Q7.2 23.2 7.2 22.5 7.2 21.75 7.55 21.25 7.75 20.9 8.05 20.85 L13.7 20.85 14.05 21.05 14.25 21.25 14.45 22.45 14.25 23.65 14.0 23.95 13.65 24.1 8.0 24.1 7.55 23.7 7.55 23.65 M27.65 28.35 Q29.1 26.85 29.7 25.05 L30.05 25.1 33.3 25.1 Q32.6 28.35 30.1 30.8 27.95 32.95 25.2 33.8 L24.55 34.0 24.55 30.7 24.5 30.35 25.2 30.05 Q26.5 29.45 27.6 28.35 L27.65 28.35 M18.65 30.05 L19.4 30.35 19.3 30.65 19.3 34.0 18.65 33.8 Q15.9 32.95 13.75 30.8 11.25 28.35 10.6 25.1 L13.75 25.1 14.2 25.0 Q14.75 26.85 16.2 28.35 17.35 29.45 18.65 30.05 M20.75 37.0 L20.3 36.4 20.3 30.75 20.4 30.6 20.7 30.3 20.75 30.3 Q21.2 29.95 21.9 29.95 22.65 29.95 23.15 30.3 L23.45 30.6 23.55 30.8 23.55 36.45 23.15 37.0 21.95 37.2 20.75 37.0" fill="#664411" fill-rule="evenodd" stroke="none"/>
    </g>
    <linearGradient gradientTransform="matrix(0.0, -0.0258, -0.0551, 0.0, 21.85, 21.85)" gradientUnits="userSpaceOnUse" id="gradient3" spreadMethod="pad" x1="-819.2" x2="819.2">
      <stop offset="0.011764705882352941" stop-color="#c79829"/>
      <stop offset="1.0" stop-color="#be7d1e"/>
    </linearGradient>
    <linearGradient gradientTransform="matrix(0.0, -0.0258, 0.0551, 0.0, 22.05, 21.85)" gradientUnits="userSpaceOnUse" id="gradient4" spreadMethod="pad" x1="-819.2" x2="819.2">
      <stop offset="0.011764705882352941" stop-color="#c79829"/>
      <stop offset="1.0" stop-color="#be7d1e"/>
    </linearGradient>
    <linearGradient gradientTransform="matrix(0.0, -0.017, -0.0173, 0.0, 21.0, 26.95)" gradientUnits="userSpaceOnUse" id="gradient5" spreadMethod="pad" x1="-819.2" x2="819.2">
      <stop offset="0.011764705882352941" stop-color="#dad67d"/>
      <stop offset="1.0" stop-color="#cfa451"/>
    </linearGradient>
    <g id="shape5" transform="matrix(1.0, 0.0, 0.0, 1.0, -0.05, 0.0)">
      <path d="M41.85 2.3 Q44.05 4.5 44.05 7.6 L44.05 36.4 Q44.05 39.6 41.85 41.8 39.65 44.0 36.45 44.0 L7.65 44.0 Q4.5 44.0 2.3 41.8 0.05 39.6 0.05 36.4 L0.05 7.6 Q0.05 4.5 2.3 2.3 4.5 0.0 7.65 0.0 L36.45 0.0 Q39.6 0.0 41.85 2.3 M40.9 22.05 Q40.9 14.1 35.3 8.6 29.8 3.05 21.9 3.05 13.95 3.05 8.45 8.6 2.9 14.1 2.9 22.05 2.9 29.95 8.45 35.45 13.95 41.1 21.9 41.1 29.8 41.1 35.3 35.45 40.9 29.95 40.9 22.05" fill="url(#gradient6)" fill-rule="evenodd" stroke="none"/>
      <path d="M40.9 22.05 Q40.9 29.95 35.3 35.45 29.8 41.1 21.9 41.1 13.95 41.1 8.45 35.45 2.9 29.95 2.9 22.05 2.9 14.1 8.45 8.6 13.95 3.05 21.9 3.05 29.8 3.05 35.3 8.6 40.9 14.1 40.9 22.05 M33.75 10.35 Q28.8 5.45 21.9 5.4 15.0 5.45 10.15 10.35 5.25 15.15 5.2 22.05 5.25 29.0 10.15 33.85 15.0 38.75 21.9 38.75 28.8 38.75 33.75 33.85 38.55 29.0 38.55 22.05 38.55 15.15 33.75 10.35" fill="url(#gradient7)" fill-rule="evenodd" stroke="none"/>
    </g>
    <linearGradient gradientTransform="matrix(0.0, -0.0258, -0.0551, 0.0, 21.9, 21.85)" gradientUnits="userSpaceOnUse" id="gradient6" spreadMethod="pad" x1="-819.2" x2="819.2">
      <stop offset="0.011764705882352941" stop-color="#dad67d"/>
      <stop offset="1.0" stop-color="#cfa451"/>
    </linearGradient>
    <linearGradient gradientTransform="matrix(0.0, 0.0059, -0.0232, 0.0, 21.9, 18.4)" gradientUnits="userSpaceOnUse" id="gradient7" spreadMethod="pad" x1="-819.2" x2="819.2">
      <stop offset="0.011764705882352941" stop-color="#8d5910"/>
      <stop offset="1.0" stop-color="#d9d597"/>
    </linearGradient>
    <g id="shape6" transform="matrix(1.0, 0.0, 0.0, 1.0, 0.0, -26.05)">
      <path d="M38.85 27.95 L39.3 26.8 39.7 26.3 Q40.05 26.05 40.4 26.05 L41.05 26.3 41.5 26.85 41.9 27.95 43.05 27.95 43.75 28.2 43.95 28.35 43.95 29.95 43.7 30.1 42.85 30.75 43.25 32.1 43.25 32.8 42.8 33.35 42.1 33.55 41.45 33.3 41.2 33.15 41.15 35.7 43.55 36.65 Q43.75 36.7 43.95 36.9 L43.6 38.8 43.4 38.85 40.85 39.5 40.65 42.45 40.5 42.75 39.25 43.5 39.0 43.45 38.5 43.0 37.0 40.45 34.2 41.2 33.85 41.2 33.0 41.8 33.4 43.15 33.4 43.85 33.3 44.0 31.15 44.0 30.55 43.6 29.9 44.0 27.7 44.0 27.65 43.8 27.65 43.1 28.05 41.8 27.15 41.2 26.75 40.6 Q26.6 40.2 26.75 39.85 L27.15 39.25 27.85 39.05 29.0 39.05 29.45 37.9 Q29.6 37.55 29.85 37.35 L30.55 37.15 31.2 37.35 31.65 37.95 32.05 39.05 33.2 39.05 34.85 37.05 33.55 34.85 33.4 34.15 33.7 33.45 Q33.9 33.2 34.25 33.15 L34.95 33.2 37.35 34.15 38.05 33.4 37.9 33.3 37.5 32.7 37.5 32.0 37.9 30.75 37.0 30.1 36.6 29.55 Q36.45 29.15 36.6 28.8 L37.0 28.2 Q37.3 27.95 37.7 27.95 L38.85 27.95 M30.65 38.7 L30.4 38.7 29.8 40.2 28.2 40.2 28.1 40.45 29.45 41.35 28.85 43.1 29.05 43.2 30.55 42.15 31.95 43.2 32.2 43.1 31.65 41.35 32.8 40.5 32.75 40.2 31.25 40.2 30.65 38.7 M37.7 35.5 L34.55 34.25 36.3 37.2 33.9 40.0 37.55 39.1 39.5 42.35 39.75 38.6 43.15 37.7 40.0 36.45 40.05 33.0 37.7 35.5 M39.65 29.15 L38.05 29.15 37.95 29.35 39.3 30.3 38.75 32.0 38.9 32.15 40.4 31.1 41.8 32.15 42.05 32.0 41.5 30.3 42.8 29.35 42.65 29.15 41.1 29.15 40.5 27.6 40.25 27.6 39.65 29.15" fill="#d1ae5a" fill-rule="evenodd" stroke="none"/>
      <path d="M42.2 29.75 L41.5 30.3 41.5 30.9 41.85 32.2 40.4 31.1 38.9 32.2 39.3 30.9 39.3 30.3 38.55 29.75 39.65 29.75 40.4 27.85 41.1 29.75 42.2 29.75 M40.0 36.45 L40.0 37.05 42.15 38.0 39.75 38.6 39.5 42.35 37.55 39.1 34.55 39.85 36.3 37.8 36.3 37.2 35.0 35.1 37.7 36.15 40.05 33.65 40.0 36.45 M32.35 40.85 L31.65 41.35 31.65 42.0 32.0 43.25 30.55 42.15 29.05 43.25 29.45 42.0 29.45 41.35 28.7 40.85 29.8 40.85 30.55 38.9 31.25 40.85 32.35 40.85" fill="#815815" fill-rule="evenodd" stroke="none"/>
      <path d="M38.55 29.75 L37.7 29.15 39.65 29.15 40.4 27.2 41.1 29.15 43.05 29.15 42.2 29.75 41.1 29.75 40.4 27.85 39.65 29.75 38.55 29.75 M41.5 30.3 L42.15 32.35 41.85 32.2 41.5 30.9 41.5 30.3 M38.9 32.2 L38.6 32.35 39.3 30.3 39.3 30.9 38.9 32.2 M40.0 36.45 L43.15 37.7 42.15 38.0 40.0 37.05 40.0 36.45 M34.55 39.85 L33.9 40.0 36.3 37.2 36.3 37.8 34.55 39.85 M35.0 35.1 L34.55 34.25 37.7 35.5 40.05 33.0 40.05 33.65 37.7 36.15 35.0 35.1 M28.7 40.85 L27.85 40.2 29.8 40.2 30.55 38.3 31.25 40.2 33.2 40.2 32.35 40.85 31.25 40.85 30.55 38.9 29.8 40.85 28.7 40.85 M31.65 41.35 L32.3 43.45 32.0 43.25 31.65 42.0 31.65 41.35 M29.05 43.25 L28.75 43.45 29.45 41.35 29.45 42.0 29.05 43.25" fill="#674512" fill-rule="evenodd" stroke="none"/>
      <path d="M10.25 33.45 L10.55 34.15 10.4 34.85 9.1 37.05 10.75 39.05 11.9 39.05 12.3 37.95 Q12.4 37.55 12.75 37.35 L13.4 37.15 14.1 37.35 14.5 37.9 14.95 39.05 16.1 39.05 16.8 39.25 17.2 39.85 17.2 40.6 16.8 41.2 15.9 41.8 16.3 43.1 16.3 43.8 16.25 44.0 14.05 44.0 13.4 43.6 12.8 44.0 10.65 44.0 10.55 43.85 10.55 43.15 10.95 41.8 10.1 41.2 9.75 41.2 6.95 40.45 5.45 43.0 4.95 43.45 4.7 43.5 3.45 42.75 3.3 42.45 3.1 39.5 0.55 38.85 0.35 38.8 0.0 36.9 0.4 36.65 2.8 35.7 2.75 33.15 2.5 33.3 1.85 33.55 Q1.45 33.55 1.15 33.35 L0.7 32.8 0.7 32.1 1.1 30.75 0.25 30.1 0.0 29.95 0.0 28.35 0.2 28.2 0.9 27.95 2.05 27.95 2.45 26.85 Q2.55 26.45 2.9 26.3 L3.55 26.05 Q3.9 26.05 4.25 26.3 L4.65 26.8 5.1 27.95 6.25 27.95 6.95 28.2 7.35 28.8 7.35 29.55 6.95 30.1 6.05 30.75 6.45 32.0 6.45 32.7 6.05 33.3 5.9 33.4 6.6 34.15 9.0 33.2 9.7 33.15 10.25 33.45 M3.7 27.6 L3.45 27.6 2.85 29.15 1.3 29.15 1.15 29.35 2.45 30.3 1.9 32.0 2.15 32.15 3.55 31.1 5.05 32.15 5.2 32.0 4.65 30.3 6.0 29.35 5.9 29.15 4.3 29.15 3.7 27.6 M4.2 38.6 L4.45 42.35 6.4 39.1 10.05 40.0 7.65 37.2 9.4 34.25 6.25 35.5 3.9 33.0 3.95 36.45 0.8 37.7 4.2 38.6 M11.15 40.5 L12.3 41.35 11.75 43.1 12.0 43.2 13.4 42.15 14.9 43.2 15.1 43.1 14.5 41.35 15.85 40.45 15.75 40.2 14.15 40.2 13.55 38.7 13.3 38.7 12.7 40.2 11.2 40.2 11.15 40.5" fill="#d1ae5a" fill-rule="evenodd" stroke="none"/>
      <path d="M1.75 29.75 L0.9 29.15 2.85 29.15 3.55 27.2 4.3 29.15 6.25 29.15 5.4 29.75 4.3 29.75 3.55 27.85 2.85 29.75 1.75 29.75 M4.65 30.3 L5.35 32.35 5.05 32.2 4.65 30.9 4.65 30.3 M2.1 32.2 L1.8 32.35 2.45 30.3 2.45 30.9 2.1 32.2 M3.9 33.65 L3.9 33.0 6.25 35.5 9.4 34.25 8.95 35.1 6.25 36.15 3.9 33.65 M7.65 37.2 L10.05 40.0 9.4 39.85 7.65 37.8 7.65 37.2 M1.8 38.0 L0.8 37.7 3.95 36.45 3.95 37.05 1.8 38.0 M11.6 40.85 L10.75 40.2 12.7 40.2 13.4 38.3 14.15 40.2 16.1 40.2 15.25 40.85 14.15 40.85 13.4 38.9 12.7 40.85 11.6 40.85 M14.5 41.35 L15.2 43.45 14.9 43.25 14.5 42.0 14.5 41.35 M11.95 43.25 L11.65 43.45 12.3 41.35 12.3 42.0 11.95 43.25" fill="#674512" fill-rule="evenodd" stroke="none"/>
      <path d="M1.75 29.75 L2.85 29.75 3.55 27.85 4.3 29.75 5.4 29.75 4.65 30.3 4.65 30.9 5.05 32.2 3.55 31.1 2.1 32.2 2.45 30.9 2.45 30.3 1.75 29.75 M3.95 36.45 L3.9 33.65 6.25 36.15 8.95 35.1 7.65 37.2 7.65 37.8 9.4 39.85 6.4 39.1 4.45 42.35 4.2 38.6 1.8 38.0 3.95 37.05 3.95 36.45 M11.6 40.85 L12.7 40.85 13.4 38.9 14.15 40.85 15.25 40.85 14.5 41.35 14.5 42.0 14.9 43.25 13.4 42.15 11.95 43.25 12.3 42.0 12.3 41.35 11.6 40.85" fill="#815815" fill-rule="evenodd" stroke="none"/>
    </g>
  </defs>
</svg>
