<?xml version="1.0" encoding="UTF-8" standalone="no"?>
<svg xmlns:xlink="http://www.w3.org/1999/xlink" height="44.05px" width="44.0px" xmlns="http://www.w3.org/2000/svg">
  <g transform="matrix(1.0, 0.0, 0.0, 1.0, 0.0, 0.0)">
    <use height="44.0" transform="matrix(1.0, 0.0, 0.0, 1.0, 0.0, 0.0)" width="44.0" xlink:href="#shape0"/>
    <use height="0.0" transform="matrix(1.2125, 0.0, 0.0, 1.2125, 1.0, 0.95)" width="0.0" xlink:href="#sprite0"/>
    <use height="33.15" transform="matrix(1.0, 0.0, 0.0, 1.0, 0.05, 10.9)" width="43.95" xlink:href="#shape1"/>
    <use height="20.15" transform="matrix(1.1594, 0.0, 0.0, 1.1605, 5.8, 5.3)" width="28.2" xlink:href="#sprite1"/>
    <use height="8.6" transform="matrix(1.2077, 0.0, 0.0, 1.2065, 0.9585, 0.75)" width="35.05" xlink:href="#sprite2"/>
  </g>
  <defs>
    <g id="shape0" transform="matrix(1.0, 0.0, 0.0, 1.0, 0.0, 0.0)">
      <path d="M41.8 41.8 Q39.6 44.0 36.4 44.0 L7.6 44.0 Q4.45 44.0 2.25 41.8 0.0 39.6 0.0 36.4 L0.0 7.6 Q0.0 4.45 2.25 2.25 4.45 0.0 7.6 0.0 L36.4 0.0 Q39.55 0.0 41.8 2.25 44.0 4.45 44.0 7.6 L44.0 36.4 Q44.0 39.6 41.8 41.8" fill="url(#gradient0)" fill-rule="evenodd" stroke="none"/>
      <path d="M40.6 22.05 Q40.6 29.75 35.2 35.2 29.75 40.6 22.05 40.6 14.3 40.6 8.85 35.2 3.4 29.75 3.4 22.05 3.4 14.3 8.85 8.95 14.3 3.5 22.05 3.5 29.75 3.5 35.2 8.95 40.6 14.4 40.6 22.05" fill="url(#gradient1)" fill-rule="evenodd" stroke="none"/>
      <path d="M33.7 10.3 Q28.75 5.45 21.85 5.4 14.95 5.45 10.1 10.3 5.2 15.15 5.15 22.05 5.2 29.0 10.1 33.85 14.95 38.75 21.85 38.75 28.75 38.75 33.7 33.85 38.5 29.0 38.5 22.05 38.5 15.15 33.7 10.3 M40.85 22.05 Q40.85 29.9 35.25 35.4 29.75 41.1 21.85 41.1 13.9 41.1 8.4 35.4 2.85 29.9 2.85 22.05 2.85 14.1 8.4 8.6 13.9 3.0 21.85 3.0 29.75 3.0 35.25 8.6 40.85 14.1 40.85 22.05" fill="url(#gradient2)" fill-rule="evenodd" stroke="none"/>
    </g>
    <linearGradient gradientTransform="matrix(0.0, -0.0283, -0.0551, 0.0, 22.6, 21.95)" gradientUnits="userSpaceOnUse" id="gradient0" spreadMethod="pad" x1="-819.2" x2="819.2">
      <stop offset="0.011764705882352941" stop-color="#f6eab6"/>
      <stop offset="1.0" stop-color="#b1aa8a"/>
    </linearGradient>
    <linearGradient gradientTransform="matrix(0.0, -0.0173, -0.0173, 0.0, 22.0, 18.45)" gradientUnits="userSpaceOnUse" id="gradient1" spreadMethod="pad" x1="-819.2" x2="819.2">
      <stop offset="0.011764705882352941" stop-color="#f7f1d5"/>
      <stop offset="1.0" stop-color="#f6eab6"/>
    </linearGradient>
    <linearGradient gradientTransform="matrix(1.0E-4, 0.0223, -0.0232, 1.0E-4, 21.9, 22.3)" gradientUnits="userSpaceOnUse" id="gradient2" spreadMethod="pad" x1="-819.2" x2="819.2">
      <stop offset="0.011764705882352941" stop-color="#777155"/>
      <stop offset="1.0" stop-color="#d7d1bb"/>
    </linearGradient>
    <g id="shape1" transform="matrix(1.0, 0.0, 0.0, 1.0, -0.05, -10.9)">
      <path d="M23.0 31.95 Q22.3 32.6 21.35 32.6 20.35 32.6 19.65 31.95 19.0 31.25 19.0 30.25 19.0 29.3 19.65 28.6 20.35 27.9 21.35 27.9 22.3 27.9 23.0 28.6 23.7 29.3 23.7 30.25 23.7 31.25 23.0 31.95 M15.25 12.55 Q15.25 11.85 15.75 11.4 16.2 10.9 16.9 10.9 L27.65 10.9 Q28.3 10.9 28.8 11.4 29.25 11.85 29.25 12.55 L29.25 20.95 28.8 22.1 Q28.3 22.55 27.65 22.55 L23.05 22.55 23.05 25.35 Q23.05 26.05 22.6 26.5 22.1 26.95 21.45 26.95 L20.35 26.5 Q19.8 26.05 19.8 25.35 L19.8 20.95 Q19.8 20.25 20.35 19.8 20.8 19.3 21.45 19.3 L26.0 19.3 26.0 14.15 18.5 14.15 18.5 16.35 18.05 17.5 Q17.6 18.0 16.9 18.0 16.2 18.0 15.75 17.5 15.25 17.05 15.25 16.35 L15.25 12.55" fill="#777155" fill-rule="evenodd" stroke="none"/>
      <path d="M33.75 33.5 Q33.95 33.25 34.3 33.2 L35.0 33.25 37.4 34.2 38.1 33.45 37.95 33.35 37.55 32.75 37.55 32.05 37.95 30.8 37.05 30.15 36.65 29.6 Q36.5 29.2 36.65 28.85 L37.05 28.25 Q37.35 28.0 37.75 28.0 L38.9 28.0 39.35 26.85 39.75 26.35 Q40.1 26.1 40.45 26.1 L41.1 26.35 41.55 26.9 41.95 28.0 43.1 28.0 Q43.55 28.0 43.8 28.25 L44.0 28.4 44.0 30.0 43.75 30.15 42.9 30.8 43.3 32.15 43.3 32.85 42.85 33.4 42.15 33.6 41.5 33.35 41.25 33.2 41.2 35.75 43.6 36.7 44.0 36.95 43.65 38.85 43.45 38.9 40.9 39.55 40.7 42.5 40.55 42.8 39.3 43.55 39.05 43.5 38.55 43.05 37.05 40.5 34.25 41.25 33.9 41.25 33.05 41.85 33.45 43.2 33.45 43.9 33.35 44.05 31.2 44.05 30.6 43.65 29.95 44.05 27.75 44.05 27.7 43.85 27.7 43.15 28.1 41.85 27.2 41.25 26.8 40.65 Q26.65 40.25 26.8 39.9 L27.2 39.3 27.9 39.1 29.05 39.1 29.5 37.95 29.9 37.4 30.6 37.2 31.25 37.4 31.7 38.0 32.1 39.1 33.25 39.1 34.9 37.1 33.6 34.9 33.45 34.2 33.75 33.5 M32.85 40.55 L32.8 40.25 31.3 40.25 30.7 38.75 30.45 38.75 29.85 40.25 28.25 40.25 28.15 40.5 29.5 41.4 28.9 43.15 29.1 43.25 30.6 42.2 32.0 43.25 32.25 43.15 31.7 41.4 32.85 40.55 M39.8 38.65 L43.2 37.75 40.05 36.5 40.1 33.05 37.75 35.55 34.6 34.3 36.35 37.25 33.95 40.05 37.6 39.15 39.55 42.4 39.8 38.65 M40.3 27.65 L39.7 29.2 38.1 29.2 38.0 29.4 39.35 30.35 38.8 32.05 38.95 32.2 40.45 31.15 41.85 32.2 42.1 32.05 41.55 30.35 42.85 29.4 42.7 29.2 41.15 29.2 40.55 27.65 40.3 27.65" fill="#b9b18f" fill-rule="evenodd" stroke="none"/>
      <path d="M38.6 29.8 L37.75 29.2 39.7 29.2 40.45 27.25 41.15 29.2 43.1 29.2 42.25 29.8 41.15 29.8 40.45 27.9 39.7 29.8 38.6 29.8 M41.55 30.35 L42.2 32.4 41.9 32.25 41.55 30.95 41.55 30.35 M38.95 32.25 L38.65 32.4 39.35 30.35 39.35 30.95 38.95 32.25 M40.05 36.5 L43.2 37.75 42.2 38.05 40.05 37.1 40.05 36.5 M34.6 39.9 L33.95 40.05 36.35 37.25 36.35 37.85 34.6 39.9 M35.05 35.15 L34.6 34.3 37.75 35.55 40.1 33.05 40.1 33.7 37.75 36.2 35.05 35.15 M28.75 40.9 L27.9 40.25 29.85 40.25 30.6 38.35 31.3 40.25 33.25 40.25 32.4 40.9 31.3 40.9 30.6 38.95 29.85 40.9 28.75 40.9 M31.7 41.4 L32.35 43.5 32.05 43.3 31.7 42.05 31.7 41.4 M29.1 43.3 L28.8 43.5 29.5 41.4 29.5 42.05 29.1 43.3" fill="#56513b" fill-rule="evenodd" stroke="none"/>
      <path d="M42.25 29.8 L41.55 30.35 41.55 30.95 41.9 32.25 40.45 31.15 38.95 32.25 39.35 30.95 39.35 30.35 38.6 29.8 39.7 29.8 40.45 27.9 41.15 29.8 42.25 29.8 M40.05 36.5 L40.05 37.1 42.2 38.05 39.8 38.65 39.55 42.4 37.6 39.15 34.6 39.9 36.35 37.85 36.35 37.25 35.05 35.15 37.75 36.2 40.1 33.7 40.05 36.5 M28.75 40.9 L29.85 40.9 30.6 38.95 31.3 40.9 32.4 40.9 31.7 41.4 31.7 42.05 32.05 43.3 30.6 42.2 29.1 43.3 29.5 42.05 29.5 41.4 28.75 40.9" fill="#777155" fill-rule="evenodd" stroke="none"/>
      <path d="M10.3 33.5 L10.6 34.2 10.45 34.9 9.15 37.1 10.8 39.1 11.95 39.1 12.35 38.0 12.8 37.4 13.45 37.2 14.15 37.4 14.55 37.95 15.0 39.1 16.15 39.1 16.85 39.3 17.25 39.9 17.25 40.65 16.85 41.25 15.95 41.85 16.35 43.15 16.35 43.85 16.3 44.05 14.1 44.05 13.45 43.65 12.85 44.05 10.7 44.05 10.6 43.9 10.6 43.2 11.0 41.85 10.15 41.25 9.8 41.25 7.0 40.5 5.5 43.05 5.0 43.5 4.75 43.55 Q4.05 43.25 3.5 42.8 L3.35 42.5 3.15 39.55 0.6 38.9 0.4 38.85 0.05 36.95 Q0.25 36.75 0.45 36.7 L2.85 35.75 2.8 33.2 2.55 33.35 1.9 33.6 1.2 33.4 0.75 32.85 0.75 32.15 1.15 30.8 0.3 30.15 0.05 30.0 0.05 28.4 0.25 28.25 Q0.5 28.0 0.95 28.0 L2.1 28.0 2.5 26.9 2.95 26.35 Q3.25 26.1 3.6 26.1 L4.3 26.35 4.7 26.85 5.15 28.0 6.3 28.0 Q6.7 28.0 7.0 28.25 L7.4 28.85 7.4 29.6 7.0 30.15 6.1 30.8 6.5 32.05 6.5 32.75 6.1 33.35 5.95 33.45 6.65 34.2 9.05 33.25 9.75 33.2 10.3 33.5 M3.75 27.65 L3.5 27.65 2.9 29.2 1.35 29.2 1.2 29.4 2.5 30.35 1.95 32.05 2.2 32.2 3.6 31.15 5.1 32.2 5.25 32.05 4.7 30.35 6.05 29.4 5.95 29.2 4.35 29.2 3.75 27.65 M4.25 38.65 L4.5 42.4 6.45 39.15 10.1 40.05 7.7 37.25 9.45 34.3 6.3 35.55 3.95 33.05 4.0 36.5 0.85 37.75 4.25 38.65 M11.2 40.55 L12.35 41.4 11.8 43.15 12.05 43.25 13.45 42.2 14.95 43.25 15.15 43.15 14.55 41.4 15.9 40.5 15.8 40.25 14.2 40.25 13.6 38.75 13.35 38.75 12.75 40.25 11.25 40.25 11.2 40.55" fill="#b9b18f" fill-rule="evenodd" stroke="none"/>
      <path d="M1.8 29.8 L0.95 29.2 2.9 29.2 3.6 27.25 4.35 29.2 6.3 29.2 5.45 29.8 4.35 29.8 3.6 27.9 2.9 29.8 1.8 29.8 M4.7 30.35 L5.4 32.4 5.1 32.25 4.7 30.95 4.7 30.35 M2.15 32.25 L1.85 32.4 2.5 30.35 2.5 30.95 2.15 32.25 M3.95 33.7 L3.95 33.05 6.3 35.55 9.45 34.3 9.0 35.15 6.3 36.2 3.95 33.7 M7.7 37.25 L10.1 40.05 9.45 39.9 7.7 37.85 7.7 37.25 M1.85 38.05 L0.85 37.75 4.0 36.5 4.0 37.1 1.85 38.05 M11.65 40.9 L10.8 40.25 12.75 40.25 13.45 38.35 14.2 40.25 16.15 40.25 15.3 40.9 14.2 40.9 13.45 38.95 12.75 40.9 11.65 40.9 M14.55 41.4 L15.25 43.5 14.95 43.3 14.55 42.05 14.55 41.4 M12.0 43.3 L11.7 43.5 12.35 41.4 12.35 42.05 12.0 43.3" fill="#56513b" fill-rule="evenodd" stroke="none"/>
      <path d="M1.8 29.8 L2.9 29.8 3.6 27.9 4.35 29.8 5.45 29.8 4.7 30.35 4.7 30.95 5.1 32.25 3.6 31.15 2.15 32.25 2.5 30.95 2.5 30.35 1.8 29.8 M9.0 35.15 L7.7 37.25 7.7 37.85 9.45 39.9 6.45 39.15 4.5 42.4 4.25 38.65 1.85 38.05 4.0 37.1 4.0 36.5 3.95 33.7 6.3 36.2 9.0 35.15 M15.3 40.9 L14.55 41.4 14.55 42.05 14.95 43.3 13.45 42.2 12.0 43.3 12.35 42.05 12.35 41.4 11.65 40.9 12.75 40.9 13.45 38.95 14.2 40.9 15.3 40.9" fill="#777155" fill-rule="evenodd" stroke="none"/>
    </g>
    <g id="sprite1" transform="matrix(1.0, 0.0, 0.0, 1.0, 0.0, 0.0)">
      <use height="20.15" transform="matrix(1.0, 0.0, 0.0, 1.0, 0.0, 0.0)" width="28.2" xlink:href="#shape2"/>
    </g>
    <g id="shape2" transform="matrix(1.0, 0.0, 0.0, 1.0, 0.0, 0.0)">
      <path d="M27.65 18.45 L27.4 18.95 Q26.2 20.8 23.4 19.8 19.6 18.5 17.35 14.05 14.8 9.1 9.75 7.4 4.1 5.65 0.0 10.3 1.0 6.85 3.7 4.15 7.2 0.65 11.9 0.05 L14.8 0.05 18.4 0.65 Q21.55 1.65 24.05 4.15 28.2 8.3 28.2 14.25 28.2 16.45 27.65 18.45" fill="#ffffff" fill-opacity="0.19607843" fill-rule="evenodd" stroke="none"/>
    </g>
    <g id="sprite2" transform="matrix(1.0, 0.0, 0.0, 1.0, 0.2, 0.0)">
      <use height="10.35" transform="matrix(0.8345, 0.0, 0.0, 0.8309, -0.1845, 0.0085)" width="42.0" xlink:href="#shape3"/>
    </g>
    <g id="shape3" transform="matrix(1.0, 0.0, 0.0, 1.0, 1.0, 0.05)">
      <path d="M31.85 -0.05 Q38.75 -0.05 40.45 5.2 41.0 6.9 41.0 9.15 L41.0 10.3 Q40.95 8.3 40.45 6.8 38.75 1.45 31.85 1.45 L8.15 1.45 Q-0.7 1.45 -1.0 10.15 L-1.0 9.15 Q-1.0 -0.05 8.15 -0.05 L31.85 -0.05" fill="#e7deda" fill-rule="evenodd" stroke="none"/>
    </g>
  </defs>
</svg>
