<?xml version="1.0" encoding="UTF-8" standalone="no"?>
<svg xmlns:xlink="http://www.w3.org/1999/xlink" height="44.0px" width="44.05px" xmlns="http://www.w3.org/2000/svg">
  <g transform="matrix(1.0, 0.0, 0.0, 1.0, 0.0, 0.0)">
    <use height="43.95" transform="matrix(1.0, 0.0, 0.0, 1.0, 0.0, 0.0)" width="44.05" xlink:href="#shape0"/>
    <use height="20.7" transform="matrix(1.2077, 0.0, 0.0, 1.2077, 0.6, 19.0)" width="7.3" xlink:href="#sprite0"/>
    <use height="24.05" transform="matrix(1.0, 0.0, 0.0, 1.0, 1.2, 18.55)" width="8.5" xlink:href="#shape2"/>
    <use height="12.1" transform="matrix(1.2077, 0.0, 0.0, 1.2077, 2.0896, 27.5)" width="5.7" xlink:href="#sprite1"/>
    <use height="18.7" transform="matrix(1.1919, 0.0, 0.0, 1.1919, 1.15, 18.25)" width="5.7" xlink:href="#sprite2"/>
    <use height="7.0" transform="matrix(1.1919, 0.0, 0.0, 1.1919, 3.1, 32.3404)" width="3.35" xlink:href="#sprite3"/>
    <use height="22.75" transform="matrix(1.0, 0.0, 0.0, 1.0, 1.85, 18.95)" width="7.0" xlink:href="#shape6"/>
    <use height="11.6" transform="matrix(1.1919, 0.0, 0.0, 1.1919, 1.05, 29.65)" width="6.9" xlink:href="#sprite4"/>
    <use height="11.1" transform="matrix(1.1919, 0.0, 0.0, 1.1919, 1.3, 29.65)" width="6.45" xlink:href="#sprite5"/>
    <use height="11.8" transform="matrix(1.1919, 0.0, 0.0, 1.1919, 1.05, 28.35)" width="6.5" xlink:href="#sprite6"/>
    <use height="18.7" transform="matrix(1.1919, 0.0, 0.0, 1.1919, 35.45, 18.25)" width="5.7" xlink:href="#sprite7"/>
    <use height="7.0" transform="matrix(1.1919, 0.0, 0.0, 1.1919, 36.25, 32.3404)" width="3.35" xlink:href="#sprite8"/>
    <use height="22.8" transform="matrix(1.0, 0.0, 0.0, 1.0, 34.6, 18.95)" width="7.05" xlink:href="#shape12"/>
    <use height="11.6" transform="matrix(1.1919, 0.0, 0.0, 1.1919, 34.0404, 29.65)" width="6.9" xlink:href="#sprite9"/>
    <use height="11.1" transform="matrix(1.1919, 0.0, 0.0, 1.1919, 34.4596, 29.65)" width="6.35" xlink:href="#sprite10"/>
    <use height="11.8" transform="matrix(1.1919, 0.0, 0.0, 1.1919, 34.6096, 28.35)" width="6.45" xlink:href="#sprite11"/>
    <use height="26.0" transform="matrix(1.0, 0.0, 0.0, 1.0, 8.95, 9.7)" width="26.0" xlink:href="#shape16"/>
    <use height="8.6" transform="matrix(1.2077, 0.0, 0.0, 1.2065, 0.8085, 0.75)" width="35.05" xlink:href="#sprite12"/>
    <use height="20.15" transform="matrix(1.1594, 0.0, 0.0, 1.1605, 6.0, 5.6)" width="28.2" xlink:href="#sprite13"/>
  </g>
  <defs>
    <g id="shape0" transform="matrix(1.0, 0.0, 0.0, 1.0, 0.0, 0.0)">
      <path d="M22.0 4.55 Q29.3 4.55 34.45 9.65 39.6 14.8 39.6 22.1 39.6 29.4 34.45 34.5 29.3 39.65 22.0 39.65 14.75 39.65 9.65 34.5 4.45 29.4 4.45 22.1 4.45 14.8 9.65 9.65 14.75 4.55 22.0 4.55" fill="url(#gradient0)" fill-rule="evenodd" stroke="none"/>
      <path d="M22.05 1.9 Q30.4 1.9 36.3 7.8 42.25 13.75 42.25 22.05 42.25 30.4 36.3 36.3 30.4 42.25 22.05 42.25 13.7 42.25 7.8 36.3 1.9 30.4 1.9 22.05 1.9 13.75 7.8 7.8 13.7 1.9 22.05 1.9" fill="url(#gradient1)" fill-rule="evenodd" stroke="none"/>
      <path d="M39.3 22.0 Q39.3 14.8 34.25 9.75 29.15 4.65 22.05 4.65 14.85 4.65 9.8 9.75 4.7 14.8 4.7 22.0 4.7 29.15 9.8 34.25 14.85 39.3 22.05 39.3 29.25 39.3 34.25 34.25 39.3 29.15 39.3 22.0 M41.8 2.25 Q44.05 4.5 44.05 7.6 L44.05 36.35 Q44.05 39.5 41.8 41.75 39.55 43.95 36.4 43.95 L7.6 43.95 Q4.5 43.95 2.25 41.75 0.0 39.5 0.0 36.35 L0.0 7.6 Q0.0 4.5 2.25 2.25 4.5 0.0 7.6 0.0 L36.4 0.0 Q39.55 0.0 41.8 2.25" fill="url(#gradient2)" fill-rule="evenodd" stroke="none"/>
      <path d="M8.45 8.8 Q14.05 3.2 22.0 3.2 29.85 3.2 35.4 8.8 41.0 14.35 41.0 22.2 41.0 30.1 35.4 35.65 29.85 41.2 22.0 41.2 14.05 41.2 8.45 35.65 2.95 30.1 2.95 22.2 2.95 14.35 8.45 8.8 M5.35 22.2 Q5.35 29.1 10.25 34.0 15.05 38.8 22.0 38.8 28.8 38.8 33.7 34.0 38.6 29.1 38.6 22.2 38.6 15.3 33.7 10.45 28.85 5.6 22.0 5.55 15.05 5.6 10.25 10.45 5.35 15.3 5.35 22.2" fill="url(#gradient3)" fill-rule="evenodd" stroke="none"/>
    </g>
    <linearGradient gradientTransform="matrix(0.0, -0.0164, -0.0164, 0.0, 22.0, 18.7)" gradientUnits="userSpaceOnUse" id="gradient0" spreadMethod="pad" x1="-819.2" x2="819.2">
      <stop offset="0.011764705882352941" stop-color="#f9cfb3"/>
      <stop offset="1.0" stop-color="#ff5b79"/>
    </linearGradient>
    <linearGradient gradientTransform="matrix(0.0, -0.0189, -0.0189, 0.0, 22.05, 18.25)" gradientUnits="userSpaceOnUse" id="gradient1" spreadMethod="pad" x1="-819.2" x2="819.2">
      <stop offset="0.011764705882352941" stop-color="#b3f9e4"/>
      <stop offset="1.0" stop-color="#5bbbff"/>
    </linearGradient>
    <linearGradient gradientTransform="matrix(0.0, -0.044, -0.044, 0.0, 22.05, -1.2)" gradientUnits="userSpaceOnUse" id="gradient2" spreadMethod="pad" x1="-819.2" x2="819.2">
      <stop offset="0.011764705882352941" stop-color="#90d1d1"/>
      <stop offset="0.9764705882352941" stop-color="#003459"/>
    </linearGradient>
    <linearGradient gradientTransform="matrix(0.0, -0.0168, -0.0168, 0.0, 21.95, 26.8)" gradientUnits="userSpaceOnUse" id="gradient3" spreadMethod="pad" x1="-819.2" x2="819.2">
      <stop offset="0.011764705882352941" stop-color="#dbf7ff"/>
      <stop offset="0.9764705882352941" stop-color="#384759"/>
    </linearGradient>
    <g id="sprite0" transform="matrix(1.0, 0.0, 0.0, 1.0, 0.0, 0.0)">
      <use height="20.7" transform="matrix(1.0, 0.0, 0.0, 1.0, 0.0, 0.0)" width="7.3" xlink:href="#shape1"/>
    </g>
    <g id="shape1" transform="matrix(1.0, 0.0, 0.0, 1.0, 0.0, 0.0)">
      <path d="M1.5 3.3 Q1.25 4.9 1.35 6.95 1.55 10.95 3.35 13.0 L6.75 16.9 Q7.8 18.5 6.9 19.6 5.25 21.5 2.85 20.1 -0.1 18.35 0.0 11.65 0.1 5.2 1.1 1.95 1.6 0.35 2.05 0.0 L1.5 3.3" fill="#6c6a85" fill-rule="evenodd" stroke="none"/>
    </g>
    <g id="shape2" transform="matrix(1.0, 0.0, 0.0, 1.0, -1.2, -18.55)">
      <path d="M2.8 21.45 L2.7 25.8 Q3.15 30.7 5.2 33.2 L9.05 38.05 Q10.35 40.05 9.1 41.35 7.05 43.6 4.25 41.75 0.8 39.5 1.25 31.4 1.75 23.7 2.55 20.35 L3.2 18.55 2.8 21.45" fill="url(#gradient4)" fill-rule="evenodd" stroke="none"/>
    </g>
    <linearGradient gradientTransform="matrix(0.0, -0.0105, -0.0105, 0.0, 5.4, 33.3)" gradientUnits="userSpaceOnUse" id="gradient4" spreadMethod="pad" x1="-819.2" x2="819.2">
      <stop offset="0.011764705882352941" stop-color="#dbf7ff"/>
      <stop offset="0.9764705882352941" stop-color="#384759"/>
    </linearGradient>
    <g id="sprite1" transform="matrix(1.0, 0.0, 0.0, 1.0, 0.05, 0.0)">
      <use height="12.1" transform="matrix(1.0, 0.0, 0.0, 1.0, -0.05, 0.0)" width="5.7" xlink:href="#shape3"/>
    </g>
    <g id="shape3" transform="matrix(1.0, 0.0, 0.0, 1.0, 0.05, 0.0)">
      <path d="M1.45 10.9 Q3.25 11.3 3.25 9.75 3.25 8.85 2.15 7.35 L0.45 4.75 Q-0.3 2.9 0.1 0.0 0.15 0.9 0.5 2.05 1.15 4.35 2.45 5.8 L5.15 8.65 Q6.15 9.9 5.1 11.0 2.85 13.25 1.45 10.9" fill="#f2f2f2" fill-rule="evenodd" stroke="none"/>
    </g>
    <g id="sprite2" transform="matrix(1.0, 0.0, 0.0, 1.0, 0.0, 0.0)">
      <use height="18.7" transform="matrix(1.0, 0.0, 0.0, 1.0, 0.0, 0.0)" width="5.7" xlink:href="#shape4"/>
    </g>
    <g id="shape4" transform="matrix(1.0, 0.0, 0.0, 1.0, 0.0, 0.0)">
      <path d="M1.65 11.9 Q1.55 10.8 0.55 8.3 -0.4 5.85 0.25 2.65 0.6 1.1 1.1 0.0 L0.5 2.55 Q0.05 5.55 0.95 8.0 1.6 9.8 3.55 11.35 5.25 12.65 5.55 14.75 5.9 17.2 5.3 18.15 L4.6 18.55 Q3.45 19.2 2.4 16.85 1.55 14.9 1.55 13.5 L1.65 11.9" fill="#ffffff" fill-rule="evenodd" stroke="none"/>
    </g>
    <g id="sprite3" transform="matrix(1.0, 0.0, 0.0, 1.0, 0.0, 0.05)">
      <use height="7.0" transform="matrix(1.0, 0.0, 0.0, 1.0, 0.0, -0.05)" width="3.35" xlink:href="#shape5"/>
    </g>
    <g id="shape5" transform="matrix(1.0, 0.0, 0.0, 1.0, 0.0, 0.05)">
      <path d="M2.3 5.7 Q2.05 4.1 0.65 2.6 -0.4 1.45 0.2 0.4 0.8 -0.6 2.05 0.6 3.35 1.8 3.35 4.25 3.35 6.7 2.05 6.95 2.9 6.45 2.3 5.7" fill="#ffffff" fill-rule="evenodd" stroke="none"/>
    </g>
    <g id="shape6" transform="matrix(1.0, 0.0, 0.0, 1.0, -1.85, -18.95)">
      <path d="M3.95 34.45 L3.65 33.7 Q3.6 32.85 4.6 32.85 6.15 32.85 5.9 35.5 L5.1 34.1 Q4.2 33.05 3.95 34.45" fill="#ffffff" fill-rule="evenodd" stroke="none"/>
      <path d="M3.55 28.2 L5.45 30.6 Q7.05 32.2 7.7 33.35 9.3 36.1 8.7 39.4 8.6 40.15 8.05 40.7 6.9 41.95 4.55 41.6 L6.3 41.25 Q8.0 40.3 7.85 37.15 7.65 34.55 5.2 31.8 2.6 28.9 2.15 26.6 1.65 23.5 1.95 20.95 L2.35 18.95 2.3 22.75 Q2.4 26.7 3.55 28.2" fill="#bbded6" fill-rule="evenodd" stroke="none"/>
    </g>
    <g id="sprite4" transform="matrix(1.0, 0.0, 0.0, 1.0, 0.0, 0.0)">
      <use height="11.6" transform="matrix(1.0, 0.0, 0.0, 1.0, 0.0, 0.0)" width="6.9" xlink:href="#shape7"/>
    </g>
    <g id="shape7" transform="matrix(1.0, 0.0, 0.0, 1.0, 0.0, 0.0)">
      <path d="M0.0 4.95 Q0.0 2.4 0.35 0.0 0.5 4.25 0.85 6.75 1.1 8.3 2.25 9.5 L3.35 10.4 Q5.95 10.25 6.3 7.5 6.45 6.1 6.1 4.75 7.75 7.6 6.05 10.0 4.4 12.4 2.0 11.15 0.05 10.1 0.0 4.95" fill="#bbded6" fill-rule="evenodd" stroke="none"/>
    </g>
    <g id="sprite5" transform="matrix(1.0, 0.0, 0.0, 1.0, 0.0, 0.0)">
      <use height="11.1" transform="matrix(1.0, 0.0, 0.0, 1.0, 0.0, 0.0)" width="6.45" xlink:href="#shape8"/>
    </g>
    <g id="shape8" transform="matrix(1.0, 0.0, 0.0, 1.0, 0.0, 0.0)">
      <path d="M0.45 5.0 Q1.15 10.05 3.15 10.4 L4.6 10.1 Q6.1 9.4 6.3 7.2 L6.3 6.25 Q6.6 7.3 6.35 8.45 5.85 10.7 3.3 11.1 2.3 11.25 1.35 9.9 -0.45 7.25 0.15 0.0 0.1 2.45 0.45 5.0" fill="#bbded6" fill-rule="evenodd" stroke="none"/>
    </g>
    <g id="sprite6" transform="matrix(1.0, 0.0, 0.0, 1.0, 0.0, 0.0)">
      <use height="11.8" transform="matrix(1.0, 0.0, 0.0, 1.0, 0.0, 0.0)" width="6.5" xlink:href="#shape9"/>
    </g>
    <g id="shape9" transform="matrix(1.0, 0.0, 0.0, 1.0, 0.0, 0.0)">
      <path d="M0.0 0.0 Q0.4 0.55 0.4 1.45 0.4 4.65 0.65 6.45 1.25 10.9 3.1 11.35 L4.2 11.4 Q5.4 11.25 6.1 10.2 L6.5 8.75 6.45 9.5 Q6.15 10.85 5.0 11.45 4.5 11.8 3.8 11.8 2.45 11.75 1.4 10.05 0.4 7.35 0.3 3.6 L0.25 0.8 0.0 0.0" fill="#306b5e" fill-rule="evenodd" stroke="none"/>
    </g>
    <g id="sprite7" transform="matrix(1.0, 0.0, 0.0, 1.0, 0.0, 0.0)">
      <use height="18.7" transform="matrix(1.0, 0.0, 0.0, 1.0, 0.0, 0.0)" width="5.7" xlink:href="#shape10"/>
    </g>
    <g id="shape10" transform="matrix(1.0, 0.0, 0.0, 1.0, 0.0, 0.0)">
      <path d="M4.05 11.9 L4.15 13.5 Q4.15 14.9 3.3 16.85 2.25 19.2 1.1 18.55 0.75 18.6 0.4 18.15 -0.2 17.2 0.15 14.75 0.45 12.65 2.15 11.35 4.1 9.8 4.75 8.0 5.65 5.55 5.2 2.55 5.0 1.05 4.6 0.0 L5.45 2.65 Q6.1 5.85 5.15 8.3 4.15 10.8 4.05 11.9" fill="#ffffff" fill-rule="evenodd" stroke="none"/>
    </g>
    <g id="sprite8" transform="matrix(1.0, 0.0, 0.0, 1.0, 0.0, 0.05)">
      <use height="7.0" transform="matrix(1.0, 0.0, 0.0, 1.0, 0.0, -0.05)" width="3.35" xlink:href="#shape11"/>
    </g>
    <g id="shape11" transform="matrix(1.0, 0.0, 0.0, 1.0, 0.0, 0.05)">
      <path d="M1.05 5.7 Q0.45 6.45 1.3 6.95 0.0 6.7 0.0 4.25 0.0 1.8 1.3 0.6 2.55 -0.6 3.15 0.4 3.75 1.45 2.7 2.6 1.3 4.1 1.05 5.7" fill="#ffffff" fill-rule="evenodd" stroke="none"/>
    </g>
    <g id="shape12" transform="matrix(1.0, 0.0, 0.0, 1.0, -34.6, -18.95)">
      <path d="M39.6 34.45 Q39.35 33.05 38.4 34.1 L37.55 35.5 37.65 34.15 Q37.9 32.85 38.95 32.85 40.5 32.85 39.6 34.45" fill="#ffffff" fill-rule="evenodd" stroke="none"/>
      <path d="M39.95 28.2 Q41.1 26.7 41.2 22.75 L41.15 18.95 41.55 20.95 Q41.85 23.5 41.3 26.6 40.9 28.9 38.3 31.8 35.85 34.55 35.65 37.15 35.5 40.3 37.2 41.25 L38.65 41.7 Q36.55 41.9 35.4 40.7 L34.75 39.4 Q34.15 36.1 35.8 33.35 36.45 32.2 38.05 30.6 L39.95 28.2" fill="#bbded6" fill-rule="evenodd" stroke="none"/>
    </g>
    <g id="sprite9" transform="matrix(1.0, 0.0, 0.0, 1.0, 0.05, 0.0)">
      <use height="11.6" transform="matrix(1.0, 0.0, 0.0, 1.0, -0.05, 0.0)" width="6.9" xlink:href="#shape13"/>
    </g>
    <g id="shape13" transform="matrix(1.0, 0.0, 0.0, 1.0, 0.05, 0.0)">
      <path d="M0.8 10.0 Q-0.9 7.6 0.75 4.75 0.4 6.1 0.55 7.5 0.9 10.25 3.5 10.4 L4.6 9.5 Q5.75 8.3 6.0 6.75 6.35 4.25 6.5 0.0 6.9 2.4 6.85 4.95 6.8 10.1 4.85 11.15 2.45 12.4 0.8 10.0" fill="#bbded6" fill-rule="evenodd" stroke="none"/>
    </g>
    <g id="sprite10" transform="matrix(1.0, 0.0, 0.0, 1.0, -0.05, 0.0)">
      <use height="11.1" transform="matrix(1.0, 0.0, 0.0, 1.0, 0.05, 0.0)" width="6.35" xlink:href="#shape14"/>
    </g>
    <g id="shape14" transform="matrix(1.0, 0.0, 0.0, 1.0, -0.05, 0.0)">
      <path d="M5.95 5.0 Q6.3 2.45 6.25 0.0 6.85 7.25 5.05 9.9 4.15 11.25 3.1 11.1 0.55 10.7 0.05 8.45 L0.1 6.25 0.1 7.2 Q0.3 9.4 1.8 10.1 L3.25 10.4 Q5.25 10.05 5.95 5.0" fill="#bbded6" fill-rule="evenodd" stroke="none"/>
    </g>
    <g id="sprite11" transform="matrix(1.0, 0.0, 0.0, 1.0, -0.05, 0.0)">
      <use height="11.8" transform="matrix(1.0, 0.0, 0.0, 1.0, 0.05, 0.0)" width="6.45" xlink:href="#shape15"/>
    </g>
    <g id="shape15" transform="matrix(1.0, 0.0, 0.0, 1.0, -0.05, 0.0)">
      <path d="M6.5 0.0 L6.3 0.8 6.2 3.6 Q6.1 7.35 5.1 10.05 4.05 11.75 2.7 11.8 2.0 11.8 1.5 11.45 0.4 10.85 0.1 9.5 L0.05 8.95 0.4 10.2 Q1.1 11.25 2.3 11.4 L3.4 11.35 Q5.25 10.9 5.85 6.45 L6.1 1.45 Q6.1 0.55 6.5 0.0" fill="#306b5e" fill-rule="evenodd" stroke="none"/>
    </g>
    <g id="shape16" transform="matrix(1.0, 0.0, 0.0, 1.0, -8.95, -9.7)">
      <path d="M23.3 14.85 L23.3 21.55 Q27.1 24.0 31.35 20.25 27.3 18.7 23.3 14.85 M34.15 18.1 Q34.95 20.2 34.95 22.7 34.95 25.2 34.15 27.35 33.45 29.15 32.2 30.75 L31.75 31.25 31.25 31.8 31.15 31.9 Q27.35 35.7 21.95 35.7 16.55 35.7 12.75 31.9 L12.55 31.7 12.5 31.65 11.7 30.75 Q8.95 27.3 8.95 22.7 8.95 17.3 12.75 13.5 16.55 9.7 21.95 9.7 27.35 9.7 31.15 13.5 33.2 15.55 34.15 18.1 M12.1 20.25 Q16.35 24.0 20.15 21.55 L20.15 14.85 Q16.15 18.7 12.1 20.25 M13.1 28.85 L13.75 29.85 14.5 29.05 Q17.55 26.0 21.85 26.0 26.2 26.0 29.25 29.05 L29.9 29.7 30.85 28.8 30.2 28.1 Q26.8 24.7 21.95 24.7 17.15 24.7 13.75 28.1 L13.1 28.85" fill="#2e5d6b" fill-rule="evenodd" stroke="none"/>
    </g>
    <g id="sprite12" transform="matrix(1.0, 0.0, 0.0, 1.0, 0.2, 0.0)">
      <use height="8.6" transform="matrix(1.0, 0.0, 0.0, 1.0, -0.2, 0.0)" width="35.05" xlink:href="#shape17"/>
    </g>
    <g id="shape17" transform="matrix(1.0, 0.0, 0.0, 1.0, 0.2, 0.0)">
      <path d="M34.4 4.4 Q34.85 5.8 34.85 7.65 L34.85 8.6 Q34.8 6.95 34.4 5.7 33.0 1.3 27.2 1.3 L7.45 1.3 Q0.05 1.3 -0.2 8.5 L-0.2 7.65 Q-0.2 0.0 7.45 0.0 L27.2 0.0 Q33.0 0.0 34.4 4.4" fill="#e7deda" fill-rule="evenodd" stroke="none"/>
    </g>
    <g id="sprite13" transform="matrix(1.0, 0.0, 0.0, 1.0, 0.0, 0.0)">
      <use height="20.15" transform="matrix(1.0, 0.0, 0.0, 1.0, 0.0, 0.0)" width="28.2" xlink:href="#shape18"/>
    </g>
    <g id="shape18" transform="matrix(1.0, 0.0, 0.0, 1.0, 0.0, 0.0)">
      <path d="M27.65 18.45 L27.4 18.95 Q26.2 20.8 23.4 19.8 19.6 18.5 17.35 14.05 14.8 9.1 9.75 7.4 4.1 5.65 0.0 10.3 1.0 6.85 3.7 4.15 7.2 0.65 11.9 0.05 L14.8 0.05 18.4 0.65 Q21.55 1.65 24.05 4.15 28.2 8.3 28.2 14.25 28.2 16.45 27.65 18.45" fill="#ffffff" fill-opacity="0.19607843" fill-rule="evenodd" stroke="none"/>
    </g>
  </defs>
</svg>
