<?xml version="1.0" encoding="UTF-8" standalone="no"?>
<svg xmlns:xlink="http://www.w3.org/1999/xlink" height="44.05px" width="44.0px" xmlns="http://www.w3.org/2000/svg">
  <g transform="matrix(1.0, 0.0, 0.0, 1.0, 0.0, -0.05)">
    <use height="44.05" transform="matrix(1.0, 0.0, 0.0, 1.0, 0.0, 0.05)" width="44.0" xlink:href="#shape0"/>
    <use height="8.6" transform="matrix(1.2077, 0.0, 0.0, 1.2065, 0.9085, 0.9)" width="35.05" xlink:href="#sprite0"/>
    <use height="28.6" transform="matrix(1.0, 0.0, 0.0, 1.0, 8.25, 7.75)" width="27.65" xlink:href="#shape2"/>
    <use height="20.15" transform="matrix(1.1594, 0.0, 0.0, 1.1605, 6.0, 5.4)" width="28.2" xlink:href="#sprite1"/>
  </g>
  <defs>
    <g id="shape0" transform="matrix(1.0, 0.0, 0.0, 1.0, 0.0, -0.05)">
      <path d="M36.25 0.05 Q39.4 0.05 41.6 2.25 43.8 4.45 43.8 7.55 L43.8 36.15 Q43.8 39.25 41.6 41.45 39.4 43.65 36.25 43.65 L7.7 43.65 Q4.55 43.65 2.35 41.45 0.15 39.25 0.15 36.15 L0.15 7.55 Q0.15 4.45 2.35 2.25 4.55 0.05 7.7 0.05 L36.25 0.05" fill="url(#gradient0)" fill-rule="evenodd" stroke="none"/>
      <path d="M40.25 22.15 Q40.25 29.7 34.9 35.0 29.6 40.3 22.1 40.3 14.6 40.3 9.3 35.0 3.95 29.7 3.95 22.15 3.95 14.6 9.3 9.3 14.6 4.0 22.1 4.0 29.6 4.0 34.9 9.3 40.25 14.6 40.25 22.15" fill="url(#gradient1)" fill-rule="evenodd" stroke="none"/>
      <path d="M43.8 20.5 L44.0 19.7 43.9 20.45 43.8 23.9 Q43.8 25.3 42.0 29.8 L40.05 34.45 40.2 34.65 40.7 35.1 40.7 35.3 40.75 35.75 41.35 35.8 41.45 35.75 42.15 31.9 42.0 32.05 42.55 30.05 42.7 38.5 37.95 34.4 37.6 34.1 38.0 34.0 Q39.25 33.95 39.8 33.1 L40.95 31.05 Q42.15 28.7 42.55 26.75 L43.7 22.35 43.8 20.5 M37.65 33.8 L38.15 33.7 37.3 33.9 37.65 33.8 M34.35 41.8 L35.0 41.8 38.25 41.15 38.05 41.35 37.45 42.0 36.7 42.75 28.75 43.15 27.2 43.0 26.9 42.9 26.85 42.9 27.15 42.8 27.25 42.8 28.4 42.4 29.2 42.45 Q31.9 42.45 34.65 38.75 L36.55 36.3 37.2 35.4 37.15 35.35 42.45 39.75 42.55 39.75 42.2 40.5 Q41.5 41.8 39.75 42.85 L39.85 41.4 Q39.85 40.5 39.5 39.55 39.0 37.9 37.85 37.9 L37.65 37.95 36.9 37.5 33.95 41.8 34.35 41.8 M0.15 20.5 L0.25 22.35 1.45 26.75 Q1.85 28.7 3.0 31.05 L4.15 33.1 Q4.75 33.95 5.95 34.0 L6.35 34.1 6.0 34.4 1.25 38.5 1.45 30.05 1.95 32.05 1.85 31.9 2.55 35.75 2.6 35.8 3.2 35.75 3.3 35.3 3.3 35.1 3.75 34.65 3.9 34.45 1.95 29.8 Q0.15 25.3 0.15 23.9 L0.05 20.45 0.0 19.7 0.15 20.5 M6.65 33.9 L5.85 33.7 6.3 33.8 6.65 33.9 M6.8 35.35 L6.75 35.4 7.4 36.3 9.3 38.75 Q12.1 42.45 14.75 42.45 L15.55 42.4 16.7 42.8 16.85 42.8 17.1 42.9 17.05 42.9 16.75 43.0 15.2 43.15 7.25 42.75 6.5 42.0 5.9 41.35 5.7 41.15 8.95 41.8 9.6 41.8 10.0 41.8 7.05 37.5 6.3 37.95 6.1 37.9 Q4.95 37.9 4.45 39.55 4.1 40.5 4.1 41.4 L4.2 42.85 Q2.45 41.8 1.75 40.5 L1.45 39.75 1.5 39.75 6.8 35.35" fill="#4a3355" fill-rule="evenodd" stroke="none"/>
      <path d="M43.9 20.45 L44.0 20.35 43.8 24.45 Q43.8 26.5 40.2 34.65 L40.05 34.45 42.0 29.8 Q43.8 25.3 43.8 23.9 L43.9 20.45 M42.7 38.5 L42.7 39.15 37.45 34.65 37.75 34.65 37.95 34.4 42.7 38.5 M42.45 40.5 Q41.8 42.45 38.9 44.1 L39.35 43.2 39.75 43.0 39.75 42.85 Q41.5 41.8 42.2 40.5 L42.45 40.5 M39.65 41.4 Q39.6 40.5 38.9 39.6 38.0 38.6 36.9 38.05 L34.35 41.8 33.95 41.8 36.9 37.5 37.65 37.95 38.0 38.2 38.9 39.0 39.15 39.45 39.45 40.05 39.65 40.55 39.65 41.4 M38.0 42.0 L36.7 43.35 Q34.95 44.25 26.9 43.55 L27.05 43.4 27.85 43.15 28.05 43.25 28.75 43.15 36.7 42.75 37.45 42.0 38.0 42.0 M0.05 20.45 L0.15 23.9 Q0.15 25.3 1.95 29.8 L3.9 34.45 3.75 34.65 Q0.15 26.5 0.15 24.45 L0.0 20.35 0.05 20.45 M1.25 38.5 L6.0 34.4 6.25 34.65 6.5 34.65 1.25 39.15 1.25 38.5 M1.75 40.5 Q2.45 41.8 4.2 42.85 L4.2 43.0 4.6 43.2 5.05 44.1 Q2.2 42.45 1.5 40.5 L1.75 40.5 M6.3 37.95 L7.05 37.5 10.0 41.8 9.6 41.8 7.05 38.05 Q5.95 38.6 5.05 39.6 4.4 40.5 4.3 41.4 L4.3 40.55 4.5 40.05 4.8 39.45 5.05 39.0 5.95 38.2 6.3 37.95 M6.5 42.0 L7.25 42.75 15.2 43.15 15.9 43.25 16.15 43.15 16.9 43.4 17.05 43.55 Q9.0 44.25 7.25 43.35 L5.95 42.0 6.5 42.0" fill="#0b000a" fill-rule="evenodd" stroke="none"/>
      <path d="M40.7 35.1 L41.2 35.65 42.0 32.15 42.0 32.05 42.15 31.9 41.45 35.75 41.35 35.8 40.75 35.75 40.7 35.3 40.7 35.1 M38.15 33.7 L38.95 33.6 Q40.95 31.5 42.7 25.4 L43.8 20.45 43.8 20.5 43.7 22.35 42.55 26.75 Q42.15 28.7 40.95 31.05 L39.8 33.1 Q39.25 33.95 38.0 34.0 L37.6 34.1 37.55 34.1 37.3 33.9 38.15 33.7 M39.35 43.2 L38.9 43.4 38.95 43.25 39.4 42.35 39.5 42.05 39.6 41.7 39.6 41.65 39.6 41.6 39.65 41.4 39.65 40.55 39.45 40.05 39.15 39.45 38.9 39.0 38.0 38.2 37.65 37.95 37.85 37.9 Q39.0 37.9 39.5 39.55 39.85 40.5 39.85 41.4 L39.75 42.85 39.75 43.0 39.35 43.2 M28.4 42.4 L28.6 42.35 28.85 42.25 29.85 41.9 30.9 41.55 Q32.55 41.0 35.0 38.1 L37.15 35.35 37.2 35.4 36.55 36.3 34.65 38.75 Q31.9 42.45 29.2 42.45 L28.4 42.4 M6.35 34.1 L5.95 34.0 Q4.75 33.95 4.15 33.1 L3.0 31.05 Q1.85 28.7 1.45 26.75 L0.25 22.35 0.15 20.5 0.15 20.45 1.25 25.4 Q3.0 31.5 5.0 33.6 L5.85 33.7 6.65 33.9 6.4 34.1 6.35 34.1 M3.3 35.1 L3.3 35.3 3.2 35.75 2.6 35.8 2.55 35.75 1.85 31.9 1.95 32.05 1.95 32.15 2.75 35.65 3.3 35.1 M15.55 42.4 L14.75 42.45 Q12.1 42.45 9.3 38.75 L7.4 36.3 6.75 35.4 6.8 35.35 8.95 38.1 Q11.4 41.0 13.05 41.55 L14.1 41.9 15.1 42.25 15.4 42.35 15.55 42.4 M4.2 42.85 L4.1 41.4 Q4.1 40.5 4.45 39.55 4.95 37.9 6.1 37.9 L6.3 37.95 5.95 38.2 5.05 39.0 4.8 39.45 4.5 40.05 4.3 40.55 4.3 41.4 4.4 41.6 4.4 41.65 4.4 41.7 4.45 42.05 4.55 42.35 5.0 43.25 5.05 43.4 4.6 43.2 4.2 43.0 4.2 42.85" fill="#c8a6c1" fill-rule="evenodd" stroke="none"/>
      <path d="M37.45 34.65 L37.4 34.55 37.3 34.45 37.25 33.9 37.65 33.8 37.3 33.9 37.55 34.1 37.6 34.1 37.95 34.4 37.75 34.65 37.45 34.65 M42.55 39.75 L42.65 40.25 42.55 40.5 42.45 40.5 42.2 40.5 42.55 39.75 M38.05 41.35 L38.25 41.5 38.25 41.95 38.0 42.0 37.45 42.0 38.05 41.35 M26.9 43.55 L26.9 42.9 27.2 43.0 28.75 43.15 28.05 43.25 27.85 43.15 27.05 43.4 26.9 43.55 M27.15 42.8 L27.2 42.75 27.25 42.8 27.15 42.8 M6.35 34.1 L6.4 34.1 6.65 33.9 6.3 33.8 6.7 33.9 6.65 34.45 6.6 34.55 6.5 34.65 6.25 34.65 6.0 34.4 6.35 34.1 M1.45 39.75 L1.75 40.5 1.5 40.5 1.45 40.5 1.3 40.25 Q1.3 39.85 1.45 39.75 M5.9 41.35 L6.5 42.0 5.95 42.0 5.7 41.95 5.7 41.5 Q5.75 41.35 5.9 41.35 M15.2 43.15 L16.75 43.0 17.05 42.9 17.05 43.55 16.9 43.4 16.15 43.15 15.9 43.25 15.2 43.15 M16.85 42.8 L16.7 42.8 16.75 42.75 16.85 42.8" fill="#000000" fill-rule="evenodd" stroke="none"/>
      <path d="M35.45 8.45 Q41.05 13.95 41.05 21.9 41.05 29.75 35.45 35.25 29.95 40.95 22.05 40.95 14.15 40.95 8.65 35.25 3.1 29.75 3.1 21.9 3.1 13.95 8.65 8.45 14.15 2.9 22.05 2.9 29.95 2.9 35.45 8.45 M33.9 10.2 Q28.95 5.35 22.05 5.3 15.2 5.35 10.3 10.2 5.45 15.0 5.4 21.9 5.45 28.85 10.3 33.7 15.2 38.55 22.05 38.55 28.95 38.55 33.9 33.7 38.7 28.85 38.7 21.9 38.7 15.0 33.9 10.2" fill="url(#gradient2)" fill-rule="evenodd" stroke="none"/>
    </g>
    <linearGradient gradientTransform="matrix(0.0, -0.0546, -0.0546, 0.0, 21.95, 18.2)" gradientUnits="userSpaceOnUse" id="gradient0" spreadMethod="pad" x1="-819.2" x2="819.2">
      <stop offset="0.011764705882352941" stop-color="#bf809f"/>
      <stop offset="1.0" stop-color="#543c7c"/>
    </linearGradient>
    <linearGradient gradientTransform="matrix(0.0, -0.0169, -0.0169, 0.0, 22.05, 18.65)" gradientUnits="userSpaceOnUse" id="gradient1" spreadMethod="pad" x1="-819.2" x2="819.2">
      <stop offset="0.011764705882352941" stop-color="#f9cfb3"/>
      <stop offset="1.0" stop-color="#ff5b79"/>
    </linearGradient>
    <linearGradient gradientTransform="matrix(0.0, 0.0226, -0.0232, 0.0, 22.05, 22.15)" gradientUnits="userSpaceOnUse" id="gradient2" spreadMethod="pad" x1="-819.2" x2="819.2">
      <stop offset="0.0" stop-color="#3d2945"/>
      <stop offset="1.0" stop-color="#cabad6"/>
    </linearGradient>
    <g id="sprite0" transform="matrix(1.0, 0.0, 0.0, 1.0, 0.2, 0.0)">
      <use height="8.6" transform="matrix(1.0, 0.0, 0.0, 1.0, -0.2, 0.0)" width="35.05" xlink:href="#shape1"/>
    </g>
    <g id="shape1" transform="matrix(1.0, 0.0, 0.0, 1.0, 0.2, 0.0)">
      <path d="M34.4 4.4 Q34.85 5.8 34.85 7.65 L34.85 8.6 Q34.8 6.95 34.4 5.7 33.0 1.3 27.2 1.3 L7.45 1.3 Q0.05 1.3 -0.2 8.5 L-0.2 7.65 Q-0.2 0.0 7.45 0.0 L27.2 0.0 Q33.0 0.0 34.4 4.4" fill="#e7deda" fill-rule="evenodd" stroke="none"/>
    </g>
    <g id="shape2" transform="matrix(1.0, 0.0, 0.0, 1.0, -8.25, -7.75)">
      <path d="M22.2 11.3 L22.35 11.35 18.3 11.5 Q15.25 12.25 12.9 14.65 L11.5 16.4 11.0 17.7 Q10.15 21.05 11.85 24.0 13.5 27.0 16.7 27.9 L17.4 28.05 Q16.3 27.5 15.35 26.55 13.75 24.85 13.3 22.6 13.9 24.5 15.4 25.9 17.45 27.75 19.7 27.4 21.9 27.1 23.5 25.5 25.15 23.9 25.4 22.6 25.65 20.75 24.55 19.35 L24.25 19.0 Q22.9 17.55 21.0 17.55 L19.85 17.7 19.05 17.95 18.5 18.35 17.4 19.7 Q16.75 20.55 16.75 21.45 16.45 18.85 17.2 17.9 L17.8 17.2 18.25 16.85 18.9 16.4 19.55 16.05 21.6 15.65 Q23.45 15.65 24.95 16.85 L25.5 17.4 26.1 18.2 Q26.45 16.4 24.65 14.7 26.0 15.35 27.4 17.7 28.85 20.0 28.0 23.75 27.15 27.6 23.4 29.7 19.7 31.8 15.75 30.7 12.3 29.75 10.3 26.95 L9.55 28.3 Q8.25 25.45 8.25 22.05 L8.35 20.15 8.65 18.1 9.65 15.65 Q10.6 13.65 12.3 11.95 16.35 7.75 22.1 7.75 27.8 7.75 31.9 11.95 35.9 16.1 35.9 22.05 35.9 28.0 31.9 32.2 27.8 36.35 22.1 36.35 18.6 36.35 15.8 34.85 L20.5 34.7 Q25.45 34.35 28.75 31.05 32.0 27.65 32.0 22.8 32.0 18.0 28.75 14.65 26.0 11.8 22.2 11.3" fill="#92300b" fill-rule="evenodd" stroke="none"/>
    </g>
    <g id="sprite1" transform="matrix(1.0, 0.0, 0.0, 1.0, 0.0, 0.0)">
      <use height="20.15" transform="matrix(1.0, 0.0, 0.0, 1.0, 0.0, 0.0)" width="28.2" xlink:href="#shape3"/>
    </g>
    <g id="shape3" transform="matrix(1.0, 0.0, 0.0, 1.0, 0.0, 0.0)">
      <path d="M27.65 18.45 L27.4 18.95 Q26.2 20.8 23.4 19.8 19.6 18.5 17.35 14.05 14.8 9.1 9.75 7.4 4.1 5.65 0.0 10.3 1.0 6.85 3.7 4.15 7.2 0.65 11.9 0.05 L14.8 0.05 18.4 0.65 Q21.55 1.65 24.05 4.15 28.2 8.3 28.2 14.25 28.2 16.45 27.65 18.45" fill="#ffffff" fill-opacity="0.19607843" fill-rule="evenodd" stroke="none"/>
    </g>
  </defs>
</svg>
