<?xml version="1.0" encoding="UTF-8" standalone="no"?>
<svg xmlns:xlink="http://www.w3.org/1999/xlink" height="44.0px" width="44.0px" xmlns="http://www.w3.org/2000/svg">
  <g transform="matrix(1.0, 0.0, 0.0, 1.0, 0.0, -0.05)">
    <use height="44.0" transform="matrix(1.0, 0.0, 0.0, 1.0, 0.0, 0.05)" width="44.0" xlink:href="#shape0"/>
    <use height="20.15" transform="matrix(1.1548, 0.0, 0.0, 1.1548, 5.65, 5.55)" width="28.2" xlink:href="#sprite0"/>
    <use height="8.6" transform="matrix(1.2077, 0.0, 0.0, 1.2065, 0.9585, 0.95)" width="35.05" xlink:href="#sprite1"/>
  </g>
  <defs>
    <g id="shape0" transform="matrix(1.0, 0.0, 0.0, 1.0, 0.0, -0.05)">
      <path d="M7.6 0.05 L36.4 0.05 Q39.55 0.05 41.8 2.3 44.0 4.5 44.0 7.65 L44.0 36.45 Q44.0 39.65 41.8 41.85 39.6 44.05 36.4 44.05 L7.6 44.05 Q4.45 44.05 2.25 41.85 0.0 39.65 0.0 36.45 L0.0 7.65 Q0.0 4.5 2.25 2.3 4.45 0.05 7.6 0.05" fill="url(#gradient0)" fill-rule="evenodd" stroke="none"/>
      <path d="M34.9 8.85 Q40.1 14.1 40.1 21.45 40.1 28.85 34.9 34.15 29.7 39.35 22.3 39.35 14.85 39.35 9.65 34.15 4.45 28.85 4.45 21.45 4.45 14.1 9.65 8.85 14.95 3.6 22.3 3.6 29.7 3.6 34.9 8.85" fill="url(#gradient1)" fill-rule="evenodd" stroke="none"/>
      <path d="M24.1 15.2 L23.8 15.4 Q23.2 16.0 23.2 16.8 23.2 17.4 23.55 17.9 L23.65 17.9 23.75 18.5 23.4 18.8 Q23.0 19.4 23.0 20.2 23.0 20.95 23.4 21.5 L24.15 22.1 24.55 25.45 24.9 25.75 Q26.05 26.85 26.05 28.45 L26.05 28.65 28.2 29.2 27.85 30.45 25.8 29.95 25.45 30.6 26.85 32.0 25.95 32.9 24.6 31.55 23.65 32.15 23.45 32.25 Q23.05 32.7 23.05 33.3 23.05 33.85 23.45 34.25 L24.2 34.7 24.6 37.3 22.4 36.2 20.2 37.3 20.6 34.7 21.25 34.25 Q21.7 33.85 21.7 33.3 21.7 32.7 21.3 32.3 20.6 32.1 20.0 31.7 L18.6 33.05 17.7 32.15 19.05 30.8 18.85 30.5 18.65 30.05 16.8 30.55 16.45 29.35 18.35 28.85 18.3 28.5 Q18.3 27.45 18.85 26.55 L19.45 25.75 20.2 25.2 20.55 22.1 21.2 21.5 Q21.65 20.95 21.65 20.2 21.65 19.4 21.2 18.8 L20.95 18.5 21.0 18.05 20.95 18.0 20.95 17.95 Q21.35 17.45 21.35 16.8 21.35 16.0 20.8 15.4 L20.4 15.1 20.15 13.95 22.2 5.95 24.3 13.95 24.1 15.2 M34.45 19.65 L25.85 10.15 33.05 15.15 34.45 19.65 M13.3 31.2 L11.85 25.9 16.65 14.5 13.3 31.2 M10.65 20.9 L11.3 16.25 17.6 10.2 10.65 20.9 M33.3 30.2 L27.4 14.2 33.9 24.75 33.3 30.2 M22.2 26.6 Q21.4 26.6 20.8 27.2 20.25 27.75 20.25 28.55 20.25 29.35 20.8 29.9 21.4 30.5 22.2 30.5 23.0 30.5 23.55 29.9 24.15 29.35 24.15 28.55 24.15 27.75 23.55 27.2 23.0 26.6 22.2 26.6" fill="#4a3355" fill-rule="evenodd" stroke="none"/>
      <path d="M40.85 22.1 Q40.85 29.95 35.25 35.5 29.75 41.15 21.85 41.15 13.9 41.15 8.4 35.5 2.85 29.95 2.85 22.1 2.85 14.15 8.4 8.65 13.9 3.05 21.85 3.05 29.75 3.05 35.25 8.65 40.85 14.15 40.85 22.1 M21.85 5.45 Q14.95 5.5 10.1 10.4 5.2 15.2 5.15 22.1 5.2 29.05 10.1 33.9 14.95 38.8 21.85 38.8 28.75 38.8 33.7 33.9 38.5 29.05 38.5 22.1 38.5 15.2 33.7 10.4 28.75 5.5 21.85 5.45" fill="url(#gradient2)" fill-rule="evenodd" stroke="none"/>
      <path d="M0.8 36.15 L0.75 35.75 Q0.75 34.8 1.45 34.05 2.15 33.4 3.1 33.4 4.1 33.4 4.75 34.05 5.5 34.8 5.5 35.75 L5.5 36.1 Q2.95 33.2 0.8 36.15" fill="#494136" fill-rule="evenodd" stroke="none"/>
      <path d="M5.5 36.1 L4.75 37.4 Q4.1 38.15 3.1 38.15 2.15 38.15 1.45 37.4 0.85 36.85 0.8 36.15 2.95 33.2 5.5 36.1" fill="#625748" fill-rule="evenodd" stroke="none"/>
      <path d="M5.85 38.0 L5.85 37.75 Q5.85 37.15 6.25 36.75 6.7 36.35 7.25 36.35 7.85 36.35 8.25 36.75 L8.7 37.75 8.7 37.95 5.85 38.0" fill="#494136" fill-rule="evenodd" stroke="none"/>
      <path d="M8.7 37.95 L8.25 38.75 Q7.85 39.2 7.25 39.2 6.7 39.2 6.25 38.75 L5.85 38.0 8.7 37.95" fill="#625748" fill-rule="evenodd" stroke="none"/>
      <path d="M2.85 40.9 L2.85 40.65 Q2.85 40.05 3.25 39.65 3.7 39.25 4.25 39.25 4.85 39.25 5.25 39.65 5.7 40.05 5.7 40.65 L5.7 40.85 2.85 40.9" fill="#494136" fill-rule="evenodd" stroke="none"/>
      <path d="M5.7 40.85 L5.25 41.65 Q4.85 42.1 4.25 42.1 L3.25 41.65 2.85 40.9 5.7 40.85" fill="#625748" fill-rule="evenodd" stroke="none"/>
      <path d="M7.55 41.6 L7.5 41.4 Q7.5 40.95 7.8 40.65 8.15 40.3 8.6 40.3 9.05 40.3 9.35 40.65 9.7 40.95 9.7 41.4 L9.7 41.55 7.55 41.6" fill="#494136" fill-rule="evenodd" stroke="none"/>
      <path d="M9.7 41.55 L9.35 42.2 8.6 42.5 Q8.15 42.5 7.8 42.2 L7.55 41.6 9.7 41.55" fill="#625748" fill-rule="evenodd" stroke="none"/>
      <path d="M42.35 36.15 L42.4 35.75 Q42.4 34.8 41.7 34.05 41.0 33.4 40.05 33.4 39.05 33.4 38.4 34.05 37.65 34.8 37.65 35.75 L37.65 36.1 Q40.2 33.2 42.35 36.15" fill="#494136" fill-rule="evenodd" stroke="none"/>
      <path d="M37.65 36.1 Q37.8 36.85 38.4 37.4 39.05 38.15 40.05 38.15 41.0 38.15 41.7 37.4 42.3 36.85 42.35 36.15 40.2 33.2 37.65 36.1" fill="#625748" fill-rule="evenodd" stroke="none"/>
      <path d="M37.35 38.0 L37.35 37.75 Q37.35 37.15 36.95 36.75 L35.95 36.35 Q35.35 36.35 34.95 36.75 34.5 37.15 34.5 37.75 L34.5 37.95 37.35 38.0" fill="#494136" fill-rule="evenodd" stroke="none"/>
      <path d="M34.5 37.95 L34.95 38.75 Q35.35 39.2 35.95 39.2 L36.95 38.75 37.35 38.0 34.5 37.95" fill="#625748" fill-rule="evenodd" stroke="none"/>
      <path d="M40.35 40.9 L40.35 40.65 Q40.35 40.05 39.95 39.65 L38.95 39.25 Q38.35 39.25 37.95 39.65 37.5 40.05 37.5 40.65 L37.5 40.85 40.35 40.9" fill="#494136" fill-rule="evenodd" stroke="none"/>
      <path d="M37.5 40.85 L37.95 41.65 Q38.35 42.1 38.95 42.1 39.5 42.1 39.95 41.65 L40.35 40.9 37.5 40.85" fill="#625748" fill-rule="evenodd" stroke="none"/>
      <path d="M35.6 41.6 L35.65 41.4 35.35 40.65 Q35.0 40.3 34.55 40.3 34.1 40.3 33.8 40.65 33.45 40.95 33.45 41.4 L33.45 41.55 35.6 41.6" fill="#494136" fill-rule="evenodd" stroke="none"/>
      <path d="M33.45 41.55 L33.8 42.2 34.55 42.5 35.35 42.2 35.6 41.6 33.45 41.55" fill="#625748" fill-rule="evenodd" stroke="none"/>
    </g>
    <linearGradient gradientTransform="matrix(0.0, -0.0551, -0.0551, 0.0, 22.05, 18.5)" gradientUnits="userSpaceOnUse" id="gradient0" spreadMethod="pad" x1="-819.2" x2="819.2">
      <stop offset="0.011764705882352941" stop-color="#bcb0a0"/>
      <stop offset="1.0" stop-color="#453e3a"/>
    </linearGradient>
    <linearGradient gradientTransform="matrix(0.0, -0.0167, -0.0167, 0.0, 22.3, 18.1)" gradientUnits="userSpaceOnUse" id="gradient1" spreadMethod="pad" x1="-819.2" x2="819.2">
      <stop offset="0.011764705882352941" stop-color="#bcb9ae"/>
      <stop offset="1.0" stop-color="#9b5b79"/>
    </linearGradient>
    <linearGradient gradientTransform="matrix(1.0E-4, 0.0223, -0.0232, 1.0E-4, 21.9, 22.35)" gradientUnits="userSpaceOnUse" id="gradient2" spreadMethod="pad" x1="-819.2" x2="819.2">
      <stop offset="0.011764705882352941" stop-color="#494136"/>
      <stop offset="1.0" stop-color="#dbccbd"/>
    </linearGradient>
    <g id="sprite0" transform="matrix(1.0, 0.0, 0.0, 1.0, 0.0, 0.0)">
      <use height="20.15" transform="matrix(1.0, 0.0, 0.0, 1.0, 0.0, 0.0)" width="28.2" xlink:href="#shape1"/>
    </g>
    <g id="shape1" transform="matrix(1.0, 0.0, 0.0, 1.0, 0.0, 0.0)">
      <path d="M27.65 18.45 L27.4 18.95 Q26.2 20.8 23.4 19.8 19.6 18.5 17.35 14.05 14.8 9.1 9.75 7.4 4.1 5.65 0.0 10.3 1.0 6.85 3.7 4.15 7.2 0.65 11.9 0.05 L14.8 0.05 18.4 0.65 Q21.55 1.65 24.05 4.15 28.2 8.3 28.2 14.25 28.2 16.45 27.65 18.45" fill="#ffffff" fill-opacity="0.19607843" fill-rule="evenodd" stroke="none"/>
    </g>
    <g id="sprite1" transform="matrix(1.0, 0.0, 0.0, 1.0, 0.2, 0.0)">
      <use height="8.6" transform="matrix(1.0, 0.0, 0.0, 1.0, -0.2, 0.0)" width="35.05" xlink:href="#shape2"/>
    </g>
    <g id="shape2" transform="matrix(1.0, 0.0, 0.0, 1.0, 0.2, 0.0)">
      <path d="M34.85 8.6 Q34.8 6.95 34.4 5.7 33.0 1.3 27.2 1.3 L7.45 1.3 Q0.05 1.3 -0.2 8.5 L-0.2 7.65 Q-0.2 0.0 7.45 0.0 L27.2 0.0 Q33.0 0.0 34.4 4.4 34.85 5.8 34.85 7.65 L34.85 8.6" fill="#e7deda" fill-rule="evenodd" stroke="none"/>
    </g>
  </defs>
</svg>
