<?xml version="1.0" encoding="UTF-8" standalone="no"?>
<svg xmlns:xlink="http://www.w3.org/1999/xlink" height="44.0px" width="44.0px" xmlns="http://www.w3.org/2000/svg">
  <g transform="matrix(1.0, 0.0, 0.0, 1.0, 0.0, -0.25)">
    <use height="39.2" transform="matrix(1.0, 0.0, 0.0, 1.0, 0.95, 3.35)" width="41.5" xlink:href="#shape0"/>
    <use height="0.0" transform="matrix(1.2125, 0.0, 0.0, 1.2125, 1.15, 0.95)" width="0.0" xlink:href="#sprite0"/>
    <use height="8.6" transform="matrix(1.2077, 0.0, 0.0, 1.2065, 1.0085, 0.6)" width="35.05" xlink:href="#sprite1"/>
    <use height="20.15" transform="matrix(1.1594, 0.0, 0.0, 1.1594, 5.8, 5.5)" width="28.2" xlink:href="#sprite2"/>
    <use height="44.0" transform="matrix(1.0, 0.0, 0.0, 1.0, 0.0, 0.25)" width="44.0" xlink:href="#shape3"/>
    <use height="0.0" transform="matrix(1.2125, 0.0, 0.0, 1.2125, 1.1, 1.2)" width="0.0" xlink:href="#sprite0"/>
    <use height="44.0" transform="matrix(1.0, 0.0, 0.0, 1.0, 0.0, 0.25)" width="44.0" xlink:href="#shape4"/>
    <use height="0.0" transform="matrix(1.2125, 0.0, 0.0, 1.2125, 1.1, 1.2)" width="0.0" xlink:href="#sprite0"/>
    <use height="43.3" transform="matrix(1.0, 0.0, 0.0, 1.0, 0.0, 0.95)" width="43.95" xlink:href="#shape5"/>
  </g>
  <defs>
    <g id="shape0" transform="matrix(1.0, 0.0, 0.0, 1.0, -0.95, -3.35)">
      <path d="M41.1 15.9 L41.0 17.45 40.7 18.05 39.8 19.25 39.75 19.25 39.8 19.35 41.05 20.9 41.35 22.55 41.35 22.75 40.5 24.25 40.0 25.0 39.6 25.75 39.8 26.25 40.25 27.0 Q40.85 27.95 40.85 28.55 40.85 30.5 38.8 31.6 37.65 32.2 36.85 33.1 L35.85 34.3 Q35.4 35.0 35.1 35.8 34.85 36.5 33.25 37.45 L31.05 38.45 30.0 38.75 Q29.2 38.95 26.9 40.3 L26.85 40.3 Q25.0 41.35 22.05 41.35 L18.0 41.0 Q15.5 40.55 15.0 39.85 L14.8 39.6 Q13.75 38.3 12.65 38.5 L12.15 38.65 Q10.6 39.4 9.25 37.9 7.5 36.0 6.65 33.3 L6.4 32.45 Q5.6 30.15 4.55 28.65 L3.3 27.2 Q1.75 25.8 1.75 23.95 3.25 17.6 4.35 14.95 4.85 13.65 5.3 13.25 L6.65 11.5 8.2 9.55 9.35 8.25 Q12.35 4.95 14.85 4.1 L16.4 3.8 16.45 3.8 Q17.2 3.8 17.75 4.3 L18.4 4.75 19.1 4.6 21.2 4.15 21.7 4.05 26.05 3.8 28.25 4.1 32.15 5.1 Q34.3 5.7 35.25 7.15 35.65 7.75 35.6 9.2 35.95 10.6 38.75 11.6 40.3 12.15 40.85 13.6 L41.1 15.0 41.1 15.9 M31.4 9.5 L31.0 9.5 27.95 9.0 27.55 8.85 25.4 7.8 24.55 7.55 24.4 7.35 24.15 7.5 Q22.85 7.3 21.8 7.95 L19.9 8.9 19.7 9.0 18.65 9.15 17.5 8.9 17.0 8.75 16.35 8.6 15.95 8.7 15.55 8.85 Q14.5 9.45 12.95 11.3 L11.65 12.85 11.25 13.35 9.4 15.4 9.0 15.8 8.9 15.85 8.15 16.75 Q7.3 17.9 6.65 19.75 5.85 22.15 5.85 24.15 5.85 24.6 7.7 26.75 L7.4 27.2 7.1 27.6 Q5.8 29.85 6.5 32.55 7.2 35.15 9.5 36.6 11.85 37.85 14.3 37.3 L14.6 37.2 Q16.25 36.75 17.4 35.7 L18.5 36.3 Q20.05 37.25 22.2 37.25 23.6 37.25 25.5 36.15 26.55 37.0 27.95 37.4 L28.25 37.5 Q30.7 38.05 33.05 36.8 35.35 35.35 36.05 32.75 36.65 30.45 35.8 28.5 L36.0 28.35 Q35.5 27.35 35.5 25.85 L35.6 24.3 Q35.75 23.65 36.65 22.25 L35.35 20.7 35.3 20.4 35.25 19.45 Q35.25 18.6 35.5 18.05 L35.6 17.8 37.0 15.65 36.2 15.0 35.3 14.3 33.25 12.6 32.8 12.15 Q31.4 10.7 31.4 9.5" fill="#664411" fill-rule="evenodd" stroke="none"/>
      <path d="M3.4 22.3 Q3.4 14.6 8.85 9.2 14.3 3.75 22.05 3.75 29.75 3.75 35.2 9.2 40.6 14.65 40.6 22.3 40.6 30.0 35.2 35.45 29.75 40.85 22.05 40.85 14.3 40.85 8.85 35.45 3.4 30.0 3.4 22.3" fill="url(#gradient0)" fill-rule="evenodd" stroke="none"/>
      <path d="M22.2 3.35 Q29.9 3.35 35.35 8.8 40.75 14.25 40.75 21.9 40.75 29.6 35.35 35.05 29.9 40.45 22.2 40.45 14.45 40.45 9.0 35.05 3.55 29.6 3.55 21.9 3.55 14.2 9.0 8.8 14.45 3.35 22.2 3.35" fill="url(#gradient1)" fill-rule="evenodd" stroke="none"/>
      <path d="M29.15 19.85 L29.4 19.9 Q31.7 20.4 31.85 22.95 L31.85 23.05 31.85 23.15 31.85 23.4 Q31.75 26.3 29.05 26.7 L29.05 30.2 29.15 30.2 30.95 30.5 Q31.55 30.65 31.85 31.2 L32.0 31.85 Q33.3 32.5 33.9 33.7 L33.9 33.65 34.9 34.5 34.75 34.65 34.25 35.2 Q33.45 34.8 33.1 34.1 L33.05 34.1 Q32.6 33.25 31.75 32.75 L31.3 33.15 30.25 33.3 28.95 33.1 Q28.25 35.35 25.4 35.35 L17.25 35.35 Q13.55 35.35 13.55 31.65 L13.55 26.7 Q10.85 26.3 10.7 23.4 L10.7 23.35 10.7 23.05 10.7 22.95 10.75 22.95 Q10.9 20.35 13.25 19.85 L29.15 19.85 M27.3 9.6 Q28.1 9.6 28.7 10.15 29.25 10.7 29.25 11.5 29.25 12.3 28.7 12.9 28.1 13.5 27.3 13.5 L22.45 13.5 22.45 19.3 20.1 19.3 20.1 13.5 15.25 13.5 Q14.45 13.5 13.9 12.9 13.3 12.3 13.3 11.5 13.3 10.7 13.9 10.15 14.45 9.6 15.25 9.6 L27.3 9.6" fill="#664411" fill-rule="evenodd" stroke="none"/>
      <path d="M5.7 36.1 Q5.6 36.85 5.0 37.45 4.3 38.15 3.35 38.15 2.4 38.15 1.65 37.45 L1.0 36.2 Q3.2 33.25 5.7 36.1" fill="#625748" fill-rule="evenodd" stroke="none"/>
      <path d="M1.0 36.2 L0.95 35.8 Q0.95 34.8 1.65 34.1 2.4 33.4 3.35 33.4 4.3 33.4 5.0 34.1 5.7 34.8 5.7 35.8 L5.7 36.1 Q3.2 33.25 1.0 36.2" fill="#494136" fill-rule="evenodd" stroke="none"/>
      <path d="M6.05 38.05 L6.0 37.8 Q6.0 37.2 6.45 36.75 6.85 36.35 7.45 36.35 8.05 36.35 8.45 36.75 8.9 37.2 8.9 37.8 L8.9 38.0 6.05 38.05" fill="#494136" fill-rule="evenodd" stroke="none"/>
      <path d="M8.9 38.0 L8.45 38.8 Q8.05 39.2 7.45 39.2 6.85 39.2 6.45 38.8 6.1 38.45 6.05 38.05 L8.9 38.0" fill="#625748" fill-rule="evenodd" stroke="none"/>
      <path d="M3.05 40.95 L3.0 40.7 Q3.0 40.1 3.45 39.65 3.85 39.25 4.45 39.25 5.05 39.25 5.45 39.65 5.9 40.1 5.9 40.7 L5.9 40.9 3.05 40.95" fill="#494136" fill-rule="evenodd" stroke="none"/>
      <path d="M5.9 40.9 L5.45 41.7 Q5.05 42.1 4.45 42.1 3.85 42.1 3.45 41.7 L3.05 40.95 5.9 40.9" fill="#625748" fill-rule="evenodd" stroke="none"/>
      <path d="M7.75 41.6 L7.75 41.45 Q7.75 41.0 8.05 40.65 8.4 40.35 8.85 40.35 9.25 40.35 9.6 40.65 9.95 41.0 9.95 41.45 L9.95 41.6 Q8.75 40.25 7.75 41.6" fill="#494136" fill-rule="evenodd" stroke="none"/>
      <path d="M9.95 41.6 L9.6 42.2 8.85 42.55 Q8.4 42.55 8.05 42.2 L7.75 41.6 Q8.75 40.25 9.95 41.6" fill="#625748" fill-rule="evenodd" stroke="none"/>
      <path d="M37.7 36.1 Q40.2 33.25 42.4 36.2 L41.75 37.45 Q41.0 38.15 40.05 38.15 39.1 38.15 38.4 37.45 37.8 36.85 37.7 36.1" fill="#625748" fill-rule="evenodd" stroke="none"/>
      <path d="M37.7 36.1 L37.7 35.8 Q37.7 34.8 38.4 34.1 39.1 33.4 40.05 33.4 41.0 33.4 41.75 34.1 42.45 34.8 42.45 35.8 L42.4 36.2 Q40.2 33.25 37.7 36.1" fill="#494136" fill-rule="evenodd" stroke="none"/>
      <path d="M34.5 38.0 L34.5 37.8 Q34.5 37.2 34.95 36.75 35.35 36.35 35.95 36.35 36.55 36.35 36.95 36.75 37.4 37.2 37.4 37.8 L37.35 38.05 34.5 38.0" fill="#494136" fill-rule="evenodd" stroke="none"/>
      <path d="M34.5 38.0 L37.35 38.05 36.95 38.8 Q36.55 39.2 35.95 39.2 35.35 39.2 34.95 38.8 L34.5 38.0" fill="#625748" fill-rule="evenodd" stroke="none"/>
      <path d="M37.5 40.9 L37.5 40.7 Q37.5 40.1 37.95 39.65 38.35 39.25 38.95 39.25 39.55 39.25 39.95 39.65 40.4 40.1 40.4 40.7 L40.35 40.95 37.5 40.9" fill="#494136" fill-rule="evenodd" stroke="none"/>
      <path d="M37.5 40.9 L40.35 40.95 39.95 41.7 Q39.55 42.1 38.95 42.1 38.35 42.1 37.95 41.7 L37.5 40.9" fill="#625748" fill-rule="evenodd" stroke="none"/>
      <path d="M33.45 41.6 L33.45 41.45 Q33.45 41.0 33.8 40.65 L34.55 40.35 Q35.0 40.35 35.35 40.65 L35.65 41.45 35.65 41.6 Q34.65 40.25 33.45 41.6" fill="#494136" fill-rule="evenodd" stroke="none"/>
      <path d="M33.45 41.6 Q34.65 40.25 35.65 41.6 L35.35 42.2 Q35.0 42.55 34.55 42.55 34.15 42.55 33.8 42.2 L33.45 41.6" fill="#625748" fill-rule="evenodd" stroke="none"/>
    </g>
    <linearGradient gradientTransform="matrix(0.0, -0.017, -0.0173, 0.0, 21.0, 27.2)" gradientUnits="userSpaceOnUse" id="gradient0" spreadMethod="pad" x1="-819.2" x2="819.2">
      <stop offset="0.011764705882352941" stop-color="#dad67d"/>
      <stop offset="1.0" stop-color="#cfa451"/>
    </linearGradient>
    <linearGradient gradientTransform="matrix(0.0056, 0.0, 0.0, 0.0043, -24.4, 41.6)" gradientUnits="userSpaceOnUse" id="gradient1" spreadMethod="pad" x1="-819.2" x2="819.2">
      <stop offset="0.011764705882352941" stop-color="#c79829"/>
      <stop offset="1.0" stop-color="#be7d1e"/>
    </linearGradient>
    <g id="sprite1" transform="matrix(1.0, 0.0, 0.0, 1.0, 0.2, 0.0)">
      <use height="10.4" transform="matrix(0.8276, 0.0, 0.0, 0.8269, -0.2, 0.0)" width="42.35" xlink:href="#shape1"/>
    </g>
    <g id="shape1" transform="matrix(1.0, 0.0, 0.0, 1.0, 0.0, 0.0)">
      <path d="M42.35 9.25 L42.35 10.4 Q42.3 8.4 41.8 6.9 40.1 1.55 33.1 1.55 L9.25 1.55 Q0.3 1.55 0.0 10.25 L0.0 9.25 Q0.0 0.0 9.25 0.0 L33.1 0.0 Q40.1 0.0 41.8 5.3 42.35 7.0 42.35 9.25" fill="#e7deda" fill-opacity="0.5882353" fill-rule="evenodd" stroke="none"/>
    </g>
    <g id="sprite2" transform="matrix(1.0, 0.0, 0.0, 1.0, 0.0, 0.0)">
      <use height="20.15" transform="matrix(1.0, 0.0, 0.0, 1.0, 0.0, 0.0)" width="28.2" xlink:href="#shape2"/>
    </g>
    <g id="shape2" transform="matrix(1.0, 0.0, 0.0, 1.0, 0.0, 0.0)">
      <path d="M27.65 18.45 L27.4 18.95 Q26.2 20.8 23.4 19.8 19.6 18.5 17.35 14.05 14.8 9.1 9.75 7.4 4.1 5.65 0.0 10.3 1.0 6.85 3.7 4.15 7.2 0.65 11.9 0.05 L14.8 0.05 18.4 0.65 Q21.55 1.65 24.05 4.15 28.2 8.3 28.2 14.25 28.2 16.45 27.65 18.45" fill="#ffffff" fill-opacity="0.19607843" fill-rule="evenodd" stroke="none"/>
    </g>
    <g id="shape3" transform="matrix(1.0, 0.0, 0.0, 1.0, 0.0, -0.25)">
      <path d="M41.8 2.55 Q44.0 4.75 44.0 7.85 L44.0 36.65 Q44.0 39.85 41.8 42.05 39.6 44.25 36.4 44.25 L7.6 44.25 Q4.45 44.25 2.25 42.05 0.0 39.85 0.0 36.65 L0.0 7.85 Q0.0 4.75 2.25 2.55 4.45 0.25 7.6 0.25 L36.4 0.25 Q39.55 0.25 41.8 2.55 M40.85 22.3 Q40.85 14.35 35.25 8.85 29.75 3.3 21.85 3.3 13.9 3.3 8.4 8.85 2.85 14.35 2.85 22.3 2.85 30.2 8.4 35.7 13.9 41.35 21.85 41.35 29.75 41.35 35.25 35.7 40.85 30.2 40.85 22.3" fill="url(#gradient2)" fill-rule="evenodd" stroke="none"/>
      <path d="M40.85 22.3 Q40.85 30.2 35.25 35.7 29.75 41.35 21.85 41.35 13.9 41.35 8.4 35.7 2.85 30.2 2.85 22.3 2.85 14.35 8.4 8.85 13.9 3.3 21.85 3.3 29.75 3.3 35.25 8.85 40.85 14.35 40.85 22.3 M33.7 10.6 Q28.75 5.7 21.85 5.65 14.95 5.7 10.1 10.6 5.2 15.4 5.15 22.3 5.2 29.25 10.1 34.1 14.95 39.0 21.85 39.0 28.75 39.0 33.7 34.1 38.5 29.25 38.5 22.3 38.5 15.4 33.7 10.6" fill="url(#gradient3)" fill-rule="evenodd" stroke="none"/>
    </g>
    <linearGradient gradientTransform="matrix(0.0, -0.0258, -0.0551, 0.0, 21.85, 22.1)" gradientUnits="userSpaceOnUse" id="gradient2" spreadMethod="pad" x1="-819.2" x2="819.2">
      <stop offset="0.011764705882352941" stop-color="#c79829"/>
      <stop offset="1.0" stop-color="#be7d1e"/>
    </linearGradient>
    <linearGradient gradientTransform="matrix(1.0E-4, 0.0223, -0.0232, 1.0E-4, 21.9, 22.55)" gradientUnits="userSpaceOnUse" id="gradient3" spreadMethod="pad" x1="-819.2" x2="819.2">
      <stop offset="0.011764705882352941" stop-color="#8d5910"/>
      <stop offset="1.0" stop-color="#d9d597"/>
    </linearGradient>
    <g id="shape4" transform="matrix(1.0, 0.0, 0.0, 1.0, 0.0, -0.25)">
      <path d="M38.85 28.2 L39.3 27.05 39.7 26.55 Q40.05 26.3 40.4 26.3 L41.05 26.55 41.5 27.1 41.9 28.2 43.05 28.2 43.75 28.45 43.95 28.6 43.95 30.2 43.7 30.35 42.85 31.0 43.25 32.35 43.25 33.05 42.8 33.6 42.1 33.8 41.45 33.55 41.2 33.4 41.15 35.95 43.55 36.9 Q43.75 36.95 43.95 37.15 L43.6 39.05 43.4 39.1 40.85 39.75 40.65 42.7 40.5 43.0 39.25 43.75 39.0 43.7 38.5 43.25 37.0 40.7 34.2 41.45 33.85 41.45 33.0 42.05 33.4 43.4 33.4 44.1 33.3 44.25 31.15 44.25 30.55 43.85 29.9 44.25 27.7 44.25 27.65 44.05 27.65 43.35 28.05 42.05 27.15 41.45 26.75 40.85 Q26.6 40.45 26.75 40.1 L27.15 39.5 27.85 39.3 29.0 39.3 29.45 38.15 Q29.6 37.8 29.85 37.6 L30.55 37.4 31.2 37.6 31.65 38.2 32.05 39.3 33.2 39.3 34.85 37.3 33.55 35.1 33.4 34.4 33.7 33.7 Q33.9 33.45 34.25 33.4 L34.95 33.45 37.35 34.4 38.05 33.65 37.9 33.55 37.5 32.95 37.5 32.25 37.9 31.0 37.0 30.35 36.6 29.8 Q36.45 29.4 36.6 29.05 L37.0 28.45 Q37.3 28.2 37.7 28.2 L38.85 28.2 M30.65 38.95 L30.4 38.95 29.8 40.45 28.2 40.45 28.1 40.7 29.45 41.6 28.85 43.35 29.05 43.45 30.55 42.4 31.95 43.45 32.2 43.35 31.65 41.6 32.8 40.75 32.75 40.45 31.25 40.45 30.65 38.95 M37.7 35.75 L34.55 34.5 36.3 37.45 33.9 40.25 37.55 39.35 39.5 42.6 39.75 38.85 43.15 37.95 40.0 36.7 40.05 33.25 37.7 35.75 M39.65 29.4 L38.05 29.4 37.95 29.6 39.3 30.55 38.75 32.25 38.9 32.4 40.4 31.35 41.8 32.4 42.05 32.25 41.5 30.55 42.8 29.6 42.65 29.4 41.1 29.4 40.5 27.85 40.25 27.85 39.65 29.4" fill="url(#gradient4)" fill-rule="evenodd" stroke="none"/>
      <path d="M42.2 30.0 L41.5 30.55 41.5 31.15 41.85 32.45 40.4 31.35 38.9 32.45 39.3 31.15 39.3 30.55 38.55 30.0 39.65 30.0 40.4 28.1 41.1 30.0 42.2 30.0 M40.0 36.7 L40.0 37.3 42.15 38.25 39.75 38.85 39.5 42.6 37.55 39.35 34.55 40.1 36.3 38.05 36.3 37.45 35.0 35.35 37.7 36.4 40.05 33.9 40.0 36.7 M32.35 41.1 L31.65 41.6 31.65 42.25 32.0 43.5 30.55 42.4 29.05 43.5 29.45 42.25 29.45 41.6 28.7 41.1 29.8 41.1 30.55 39.15 31.25 41.1 32.35 41.1" fill="#815815" fill-rule="evenodd" stroke="none"/>
      <path d="M38.55 30.0 L37.7 29.4 39.65 29.4 40.4 27.45 41.1 29.4 43.05 29.4 42.2 30.0 41.1 30.0 40.4 28.1 39.65 30.0 38.55 30.0 M41.5 30.55 L42.15 32.6 41.85 32.45 41.5 31.15 41.5 30.55 M38.9 32.45 L38.6 32.6 39.3 30.55 39.3 31.15 38.9 32.45 M40.0 36.7 L43.15 37.95 42.15 38.25 40.0 37.3 40.0 36.7 M34.55 40.1 L33.9 40.25 36.3 37.45 36.3 38.05 34.55 40.1 M35.0 35.35 L34.55 34.5 37.7 35.75 40.05 33.25 40.05 33.9 37.7 36.4 35.0 35.35 M28.7 41.1 L27.85 40.45 29.8 40.45 30.55 38.55 31.25 40.45 33.2 40.45 32.35 41.1 31.25 41.1 30.55 39.15 29.8 41.1 28.7 41.1 M31.65 41.6 L32.3 43.7 32.0 43.5 31.65 42.25 31.65 41.6 M29.05 43.5 L28.75 43.7 29.45 41.6 29.45 42.25 29.05 43.5" fill="#674512" fill-rule="evenodd" stroke="none"/>
      <path d="M5.1 28.2 L6.25 28.2 6.95 28.45 7.35 29.05 7.35 29.8 6.95 30.35 6.05 31.0 6.45 32.25 6.45 32.95 6.05 33.55 5.9 33.65 6.6 34.4 9.0 33.45 9.7 33.4 10.25 33.7 10.55 34.4 10.4 35.1 9.1 37.3 10.75 39.3 11.9 39.3 12.3 38.2 Q12.4 37.8 12.75 37.6 L13.4 37.4 14.1 37.6 14.5 38.15 14.95 39.3 16.1 39.3 16.8 39.5 17.2 40.1 17.2 40.85 16.8 41.45 15.9 42.05 16.3 43.35 16.3 44.05 16.25 44.25 14.05 44.25 13.4 43.85 12.8 44.25 10.65 44.25 10.55 44.1 10.55 43.4 10.95 42.05 10.1 41.45 9.75 41.45 6.95 40.7 5.45 43.25 4.95 43.7 4.7 43.75 3.45 43.0 3.3 42.7 3.1 39.75 0.55 39.1 0.35 39.05 0.0 37.15 0.4 36.9 2.8 35.95 2.75 33.4 2.5 33.55 1.85 33.8 Q1.45 33.8 1.15 33.6 L0.7 33.05 0.7 32.35 1.1 31.0 0.25 30.35 0.0 30.2 0.0 28.6 0.2 28.45 0.9 28.2 2.05 28.2 2.45 27.1 Q2.55 26.7 2.9 26.55 L3.55 26.3 Q3.9 26.3 4.25 26.55 L4.65 27.05 5.1 28.2 M4.3 29.4 L3.7 27.85 3.45 27.85 2.85 29.4 1.3 29.4 1.15 29.6 2.45 30.55 1.9 32.25 2.15 32.4 3.55 31.35 5.05 32.4 5.2 32.25 4.65 30.55 6.0 29.6 5.9 29.4 4.3 29.4 M6.25 35.75 L3.9 33.25 3.95 36.7 0.8 37.95 4.2 38.85 4.45 42.6 6.4 39.35 10.05 40.25 7.65 37.45 9.4 34.5 6.25 35.75 M13.3 38.95 L12.7 40.45 11.2 40.45 11.15 40.75 12.3 41.6 11.75 43.35 12.0 43.45 13.4 42.4 14.9 43.45 15.1 43.35 14.5 41.6 15.85 40.7 15.75 40.45 14.15 40.45 13.55 38.95 13.3 38.95" fill="url(#gradient5)" fill-rule="evenodd" stroke="none"/>
      <path d="M1.75 30.0 L0.9 29.4 2.85 29.4 3.55 27.45 4.3 29.4 6.25 29.4 5.4 30.0 4.3 30.0 3.55 28.1 2.85 30.0 1.75 30.0 M4.65 30.55 L5.35 32.6 5.05 32.45 4.65 31.15 4.65 30.55 M2.1 32.45 L1.8 32.6 2.45 30.55 2.45 31.15 2.1 32.45 M3.9 33.9 L3.9 33.25 6.25 35.75 9.4 34.5 8.95 35.35 6.25 36.4 3.9 33.9 M7.65 37.45 L10.05 40.25 9.4 40.1 7.65 38.05 7.65 37.45 M1.8 38.25 L0.8 37.95 3.95 36.7 3.95 37.3 1.8 38.25 M11.6 41.1 L10.75 40.45 12.7 40.45 13.4 38.55 14.15 40.45 16.1 40.45 15.25 41.1 14.15 41.1 13.4 39.15 12.7 41.1 11.6 41.1 M14.5 41.6 L15.2 43.7 14.9 43.5 14.5 42.25 14.5 41.6 M11.95 43.5 L11.65 43.7 12.3 41.6 12.3 42.25 11.95 43.5" fill="#674512" fill-rule="evenodd" stroke="none"/>
      <path d="M1.75 30.0 L2.85 30.0 3.55 28.1 4.3 30.0 5.4 30.0 4.65 30.55 4.65 31.15 5.05 32.45 3.55 31.35 2.1 32.45 2.45 31.15 2.45 30.55 1.75 30.0 M8.95 35.35 L7.65 37.45 7.65 38.05 9.4 40.1 6.4 39.35 4.45 42.6 4.2 38.85 1.8 38.25 3.95 37.3 3.95 36.7 3.9 33.9 6.25 36.4 8.95 35.35 M11.6 41.1 L12.7 41.1 13.4 39.15 14.15 41.1 15.25 41.1 14.5 41.6 14.5 42.25 14.9 43.5 13.4 42.4 11.95 43.5 12.3 42.25 12.3 41.6 11.6 41.1" fill="#815815" fill-rule="evenodd" stroke="none"/>
      <path d="M41.8 2.55 Q44.0 4.75 44.0 7.85 L44.0 36.65 Q44.0 39.85 41.8 42.05 39.6 44.25 36.4 44.25 L7.6 44.25 Q4.45 44.25 2.25 42.05 0.0 39.85 0.0 36.65 L0.0 7.85 Q0.0 4.75 2.25 2.55 4.45 0.25 7.6 0.25 L36.4 0.25 Q39.55 0.25 41.8 2.55 M40.85 22.3 Q40.85 14.35 35.25 8.85 29.75 3.3 21.85 3.3 13.9 3.3 8.4 8.85 2.85 14.35 2.85 22.3 2.85 30.2 8.4 35.7 13.9 41.35 21.85 41.35 29.75 41.35 35.25 35.7 40.85 30.2 40.85 22.3" fill="url(#gradient6)" fill-rule="evenodd" stroke="none"/>
      <path d="M40.85 22.3 Q40.85 30.2 35.25 35.7 29.75 41.35 21.85 41.35 13.9 41.35 8.4 35.7 2.85 30.2 2.85 22.3 2.85 14.35 8.4 8.85 13.9 3.3 21.85 3.3 29.75 3.3 35.25 8.85 40.85 14.35 40.85 22.3 M33.7 10.6 Q28.75 5.7 21.85 5.65 14.95 5.7 10.1 10.6 5.2 15.4 5.15 22.3 5.2 29.25 10.1 34.1 14.95 39.0 21.85 39.0 28.75 39.0 33.7 34.1 38.5 29.25 38.5 22.3 38.5 15.4 33.7 10.6" fill="url(#gradient7)" fill-rule="evenodd" stroke="none"/>
    </g>
    <linearGradient gradientTransform="matrix(0.0, -0.0258, -0.0551, 0.0, 21.85, 22.1)" gradientUnits="userSpaceOnUse" id="gradient4" spreadMethod="pad" x1="-819.2" x2="819.2">
      <stop offset="0.011764705882352941" stop-color="#c79829"/>
      <stop offset="1.0" stop-color="#be7d1e"/>
    </linearGradient>
    <linearGradient gradientTransform="matrix(0.0, -0.0258, 0.0551, 0.0, 22.05, 22.1)" gradientUnits="userSpaceOnUse" id="gradient5" spreadMethod="pad" x1="-819.2" x2="819.2">
      <stop offset="0.011764705882352941" stop-color="#c79829"/>
      <stop offset="1.0" stop-color="#be7d1e"/>
    </linearGradient>
    <linearGradient gradientTransform="matrix(0.0, -0.0258, -0.0551, 0.0, 21.85, 22.1)" gradientUnits="userSpaceOnUse" id="gradient6" spreadMethod="pad" x1="-819.2" x2="819.2">
      <stop offset="0.011764705882352941" stop-color="#dad67d"/>
      <stop offset="1.0" stop-color="#cfa451"/>
    </linearGradient>
    <linearGradient gradientTransform="matrix(0.0, 0.0059, -0.0232, 0.0, 21.85, 18.65)" gradientUnits="userSpaceOnUse" id="gradient7" spreadMethod="pad" x1="-819.2" x2="819.2">
      <stop offset="0.011764705882352941" stop-color="#8d5910"/>
      <stop offset="1.0" stop-color="#d9d597"/>
    </linearGradient>
    <g id="shape5" transform="matrix(1.0, 0.0, 0.0, 1.0, 0.0, -0.95)">
      <path d="M41.5 27.1 L41.9 28.2 43.05 28.2 43.75 28.45 43.95 28.6 43.95 30.2 43.7 30.35 42.85 31.0 43.25 32.35 43.25 33.05 42.8 33.6 42.1 33.8 41.45 33.55 41.2 33.4 41.15 35.95 43.55 36.9 Q43.75 36.95 43.95 37.15 L43.6 39.05 43.4 39.1 40.85 39.75 40.65 42.7 40.5 43.0 39.25 43.75 39.0 43.7 38.5 43.25 37.0 40.7 34.2 41.45 33.85 41.45 33.0 42.05 33.4 43.4 33.4 44.1 33.3 44.25 31.15 44.25 30.55 43.85 29.9 44.25 27.7 44.25 27.65 44.05 27.65 43.35 28.05 42.05 27.15 41.45 26.75 40.85 Q26.6 40.45 26.75 40.1 L27.15 39.5 27.85 39.3 29.0 39.3 29.45 38.15 Q29.6 37.8 29.85 37.6 L30.55 37.4 31.2 37.6 31.65 38.2 32.05 39.3 33.2 39.3 34.85 37.3 33.55 35.1 33.4 34.4 33.7 33.7 Q33.9 33.45 34.25 33.4 L34.95 33.45 37.35 34.4 38.05 33.65 37.9 33.55 37.5 32.95 37.5 32.25 37.9 31.0 37.0 30.35 36.6 29.8 Q36.45 29.4 36.6 29.05 L37.0 28.45 Q37.3 28.2 37.7 28.2 L38.85 28.2 39.3 27.05 39.7 26.55 Q40.05 26.3 40.4 26.3 L41.05 26.55 41.5 27.1 M29.8 40.45 L28.2 40.45 28.1 40.7 29.45 41.6 28.85 43.35 29.05 43.45 30.55 42.4 31.95 43.45 32.2 43.35 31.65 41.6 32.8 40.75 32.75 40.45 31.25 40.45 30.65 38.95 30.4 38.95 29.8 40.45 M40.05 33.25 L37.7 35.75 34.55 34.5 36.3 37.45 33.9 40.25 37.55 39.35 39.5 42.6 39.75 38.85 43.15 37.95 40.0 36.7 40.05 33.25 M42.65 29.4 L41.1 29.4 40.5 27.85 40.25 27.85 39.65 29.4 38.05 29.4 37.95 29.6 39.3 30.55 38.75 32.25 38.9 32.4 40.4 31.35 41.8 32.4 42.05 32.25 41.5 30.55 42.8 29.6 42.65 29.4" fill="#d1ae5a" fill-rule="evenodd" stroke="none"/>
      <path d="M42.2 30.0 L41.5 30.55 41.5 31.15 41.85 32.45 40.4 31.35 38.9 32.45 39.3 31.15 39.3 30.55 38.55 30.0 39.65 30.0 40.4 28.1 41.1 30.0 42.2 30.0 M40.0 36.7 L40.0 37.3 42.15 38.25 39.75 38.85 39.5 42.6 37.55 39.35 34.55 40.1 36.3 38.05 36.3 37.45 35.0 35.35 37.7 36.4 40.05 33.9 40.0 36.7 M32.35 41.1 L31.65 41.6 31.65 42.25 32.0 43.5 30.55 42.4 29.05 43.5 29.45 42.25 29.45 41.6 28.7 41.1 29.8 41.1 30.55 39.15 31.25 41.1 32.35 41.1" fill="#815815" fill-rule="evenodd" stroke="none"/>
      <path d="M38.55 30.0 L37.7 29.4 39.65 29.4 40.4 27.45 41.1 29.4 43.05 29.4 42.2 30.0 41.1 30.0 40.4 28.1 39.65 30.0 38.55 30.0 M41.5 30.55 L42.15 32.6 41.85 32.45 41.5 31.15 41.5 30.55 M38.9 32.45 L38.6 32.6 39.3 30.55 39.3 31.15 38.9 32.45 M40.0 36.7 L43.15 37.95 42.15 38.25 40.0 37.3 40.0 36.7 M34.55 40.1 L33.9 40.25 36.3 37.45 36.3 38.05 34.55 40.1 M35.0 35.35 L34.55 34.5 37.7 35.75 40.05 33.25 40.05 33.9 37.7 36.4 35.0 35.35 M28.7 41.1 L27.85 40.45 29.8 40.45 30.55 38.55 31.25 40.45 33.2 40.45 32.35 41.1 31.25 41.1 30.55 39.15 29.8 41.1 28.7 41.1 M31.65 41.6 L32.3 43.7 32.0 43.5 31.65 42.25 31.65 41.6 M29.05 43.5 L28.75 43.7 29.45 41.6 29.45 42.25 29.05 43.5" fill="#674512" fill-rule="evenodd" stroke="none"/>
      <path d="M10.55 34.4 L10.4 35.1 9.1 37.3 10.75 39.3 11.9 39.3 12.3 38.2 Q12.4 37.8 12.75 37.6 L13.4 37.4 14.1 37.6 14.5 38.15 14.95 39.3 16.1 39.3 16.8 39.5 17.2 40.1 17.2 40.85 16.8 41.45 15.9 42.05 16.3 43.35 16.3 44.05 16.25 44.25 14.05 44.25 13.4 43.85 12.8 44.25 10.65 44.25 10.55 44.1 10.55 43.4 10.95 42.05 10.1 41.45 9.75 41.45 6.95 40.7 5.45 43.25 4.95 43.7 4.7 43.75 3.45 43.0 3.3 42.7 3.1 39.75 0.55 39.1 0.35 39.05 0.0 37.15 0.4 36.9 2.8 35.95 2.75 33.4 2.5 33.55 1.85 33.8 Q1.45 33.8 1.15 33.6 L0.7 33.05 0.7 32.35 1.1 31.0 0.25 30.35 0.0 30.2 0.0 28.6 0.2 28.45 0.9 28.2 2.05 28.2 2.45 27.1 Q2.55 26.7 2.9 26.55 L3.55 26.3 Q3.9 26.3 4.25 26.55 L4.65 27.05 5.1 28.2 6.25 28.2 6.95 28.45 7.35 29.05 7.35 29.8 6.95 30.35 6.05 31.0 6.45 32.25 6.45 32.95 6.05 33.55 5.9 33.65 6.6 34.4 9.0 33.45 9.7 33.4 10.25 33.7 10.55 34.4 M5.9 29.4 L4.3 29.4 3.7 27.85 3.45 27.85 2.85 29.4 1.3 29.4 1.15 29.6 2.45 30.55 1.9 32.25 2.15 32.4 3.55 31.35 5.05 32.4 5.2 32.25 4.65 30.55 6.0 29.6 5.9 29.4 M3.95 36.7 L0.8 37.95 4.2 38.85 4.45 42.6 6.4 39.35 10.05 40.25 7.65 37.45 9.4 34.5 6.25 35.75 3.9 33.25 3.95 36.7 M15.75 40.45 L14.15 40.45 13.55 38.95 13.3 38.95 12.7 40.45 11.2 40.45 11.15 40.75 12.3 41.6 11.75 43.35 12.0 43.45 13.4 42.4 14.9 43.45 15.1 43.35 14.5 41.6 15.85 40.7 15.75 40.45" fill="#d1ae5a" fill-rule="evenodd" stroke="none"/>
      <path d="M1.75 30.0 L0.9 29.4 2.85 29.4 3.55 27.45 4.3 29.4 6.25 29.4 5.4 30.0 4.3 30.0 3.55 28.1 2.85 30.0 1.75 30.0 M4.65 30.55 L5.35 32.6 5.05 32.45 4.65 31.15 4.65 30.55 M2.1 32.45 L1.8 32.6 2.45 30.55 2.45 31.15 2.1 32.45 M3.9 33.9 L3.9 33.25 6.25 35.75 9.4 34.5 8.95 35.35 6.25 36.4 3.9 33.9 M7.65 37.45 L10.05 40.25 9.4 40.1 7.65 38.05 7.65 37.45 M1.8 38.25 L0.8 37.95 3.95 36.7 3.95 37.3 1.8 38.25 M11.6 41.1 L10.75 40.45 12.7 40.45 13.4 38.55 14.15 40.45 16.1 40.45 15.25 41.1 14.15 41.1 13.4 39.15 12.7 41.1 11.6 41.1 M14.5 41.6 L15.2 43.7 14.9 43.5 14.5 42.25 14.5 41.6 M11.95 43.5 L11.65 43.7 12.3 41.6 12.3 42.25 11.95 43.5" fill="#674512" fill-rule="evenodd" stroke="none"/>
      <path d="M1.75 30.0 L2.85 30.0 3.55 28.1 4.3 30.0 5.4 30.0 4.65 30.55 4.65 31.15 5.05 32.45 3.55 31.35 2.1 32.45 2.45 31.15 2.45 30.55 1.75 30.0 M3.95 36.7 L3.9 33.9 6.25 36.4 8.95 35.35 7.65 37.45 7.65 38.05 9.4 40.1 6.4 39.35 4.45 42.6 4.2 38.85 1.8 38.25 3.95 37.3 3.95 36.7 M11.6 41.1 L12.7 41.1 13.4 39.15 14.15 41.1 15.25 41.1 14.5 41.6 14.5 42.25 14.9 43.5 13.4 42.4 11.95 43.5 12.3 42.25 12.3 41.6 11.6 41.1" fill="#815815" fill-rule="evenodd" stroke="none"/>
      <path d="M42.8 6.3 Q43.35 8.0 43.35 10.25 L43.35 11.4 Q43.3 9.4 42.8 7.85 41.1 2.55 34.1 2.55 L10.15 2.55 Q1.15 2.55 0.85 11.25 L0.85 10.25 Q0.85 0.95 10.15 0.95 L34.1 0.95 Q41.1 0.95 42.8 6.3" fill="#e7deda" fill-opacity="0.5882353" fill-rule="evenodd" stroke="none"/>
    </g>
  </defs>
</svg>
