<?xml version="1.0" encoding="UTF-8" standalone="no"?>
<svg xmlns:xlink="http://www.w3.org/1999/xlink" height="44.0px" width="44.0px" xmlns="http://www.w3.org/2000/svg">
  <g transform="matrix(1.0, 0.0, 0.0, 1.0, 0.0, 0.0)">
    <use height="37.1" transform="matrix(1.0, 0.0, 0.0, 1.0, 3.4, 3.5)" width="37.2" xlink:href="#shape0"/>
    <use height="20.15" transform="matrix(1.1594, 0.0, 0.0, 1.1594, 5.8, 5.3659)" width="28.15" xlink:href="#sprite0"/>
    <use height="44.0" transform="matrix(1.0, 0.0, 0.0, 1.0, 0.0, 0.0)" width="44.0" xlink:href="#shape2"/>
    <use height="8.3" transform="matrix(1.2125, 0.0, 0.0, 1.2125, 1.6456, 0.8288)" width="33.85" xlink:href="#sprite2"/>
    <use height="40.5" transform="matrix(1.0, 0.0, 0.0, 1.0, 0.0, 3.5)" width="43.95" xlink:href="#shape4"/>
    <use height="20.15" transform="matrix(1.1594, 0.0, 0.0, 1.1594, 5.8, 5.3659)" width="28.15" xlink:href="#sprite0"/>
    <use height="44.0" transform="matrix(1.0, 0.0, 0.0, 1.0, 0.0, 0.0)" width="44.0" xlink:href="#shape2"/>
    <use height="8.3" transform="matrix(1.2125, 0.0, 0.0, 1.2125, 1.6456, 0.8288)" width="33.85" xlink:href="#sprite2"/>
    <use height="17.95" transform="matrix(1.0, 0.0, 0.0, 1.0, 0.0, 26.05)" width="43.95" xlink:href="#shape5"/>
  </g>
  <defs>
    <g id="shape0" transform="matrix(1.0, 0.0, 0.0, 1.0, -3.4, -3.5)">
      <path d="M3.4 22.05 Q3.4 14.35 8.85 8.95 14.3 3.5 22.05 3.5 29.75 3.5 35.2 8.95 40.6 14.4 40.6 22.05 40.6 29.75 35.2 35.2 29.75 40.6 22.05 40.6 14.3 40.6 8.85 35.2 3.4 29.75 3.4 22.05" fill="url(#gradient0)" fill-rule="evenodd" stroke="none"/>
      <path d="M21.9 11.45 L21.9 11.7 Q28.8 11.7 35.8 17.8 26.65 19.95 25.9 22.1 L31.85 22.1 Q27.05 24.9 25.95 27.4 L29.7 27.4 Q25.7 28.75 24.25 31.95 L26.75 31.95 Q23.25 33.15 21.9 35.8 L21.7 36.0 21.7 35.55 Q20.35 32.95 16.85 31.75 L19.35 31.75 Q17.9 28.6 13.9 27.25 L17.65 27.25 Q16.55 24.7 11.7 21.95 L17.7 21.95 Q16.95 19.75 7.8 17.6 14.85 11.4 21.9 11.45" fill="#664411" fill-rule="evenodd" stroke="none"/>
    </g>
    <linearGradient gradientTransform="matrix(0.0, -0.017, -0.0173, 0.0, 21.0, 26.95)" gradientUnits="userSpaceOnUse" id="gradient0" spreadMethod="pad" x1="-819.2" x2="819.2">
      <stop offset="0.011764705882352941" stop-color="#dad67d"/>
      <stop offset="1.0" stop-color="#cfa451"/>
    </linearGradient>
    <g id="sprite0" transform="matrix(1.0, 0.0, 0.0, 1.0, 0.0, -0.1)">
      <use height="20.15" transform="matrix(0.999, 0.0, 0.0, 1.0, 0.0, 0.1)" width="28.2" xlink:href="#sprite1"/>
    </g>
    <g id="sprite1" transform="matrix(1.0, 0.0, 0.0, 1.0, 0.0, 0.0)">
      <use height="20.15" transform="matrix(1.0, 0.0, 0.0, 1.0, 0.0, 0.0)" width="28.2" xlink:href="#shape1"/>
    </g>
    <g id="shape1" transform="matrix(1.0, 0.0, 0.0, 1.0, 0.0, 0.0)">
      <path d="M27.65 18.45 L27.4 18.95 Q26.2 20.8 23.4 19.8 19.6 18.5 17.35 14.05 14.8 9.1 9.75 7.4 4.1 5.65 0.0 10.3 1.0 6.85 3.7 4.15 7.2 0.65 11.9 0.05 L14.8 0.05 18.4 0.65 Q21.55 1.65 24.05 4.15 28.2 8.3 28.2 14.25 28.2 16.45 27.65 18.45" fill="#ffffff" fill-opacity="0.19607843" fill-rule="evenodd" stroke="none"/>
    </g>
    <g id="shape2" transform="matrix(1.0, 0.0, 0.0, 1.0, 0.0, 0.0)">
      <path d="M41.8 2.3 Q44.0 4.5 44.0 7.6 L44.0 36.4 Q44.0 39.6 41.8 41.8 39.6 44.0 36.4 44.0 L7.6 44.0 Q4.45 44.0 2.25 41.8 0.0 39.6 0.0 36.4 L0.0 7.6 Q0.0 4.5 2.25 2.3 4.45 0.0 7.6 0.0 L36.4 0.0 Q39.55 0.0 41.8 2.3 M40.85 22.05 Q40.85 14.1 35.25 8.6 29.75 3.05 21.85 3.05 13.9 3.05 8.4 8.6 2.85 14.1 2.85 22.05 2.85 29.95 8.4 35.45 13.9 41.1 21.85 41.1 29.75 41.1 35.25 35.45 40.85 29.95 40.85 22.05" fill="url(#gradient1)" fill-rule="evenodd" stroke="none"/>
      <path d="M40.85 22.05 Q40.85 29.95 35.25 35.45 29.75 41.1 21.85 41.1 13.9 41.1 8.4 35.45 2.85 29.95 2.85 22.05 2.85 14.1 8.4 8.6 13.9 3.05 21.85 3.05 29.75 3.05 35.25 8.6 40.85 14.1 40.85 22.05 M33.7 10.35 Q28.75 5.45 21.85 5.4 14.95 5.45 10.1 10.35 5.2 15.15 5.15 22.05 5.2 29.0 10.1 33.85 14.95 38.75 21.85 38.75 28.75 38.75 33.7 33.85 38.5 29.0 38.5 22.05 38.5 15.15 33.7 10.35" fill="url(#gradient2)" fill-rule="evenodd" stroke="none"/>
    </g>
    <linearGradient gradientTransform="matrix(0.0, -0.0258, -0.0551, 0.0, 21.85, 21.85)" gradientUnits="userSpaceOnUse" id="gradient1" spreadMethod="pad" x1="-819.2" x2="819.2">
      <stop offset="0.011764705882352941" stop-color="#c79829"/>
      <stop offset="1.0" stop-color="#be7d1e"/>
    </linearGradient>
    <linearGradient gradientTransform="matrix(1.0E-4, 0.0223, -0.0232, 1.0E-4, 21.9, 22.3)" gradientUnits="userSpaceOnUse" id="gradient2" spreadMethod="pad" x1="-819.2" x2="819.2">
      <stop offset="0.011764705882352941" stop-color="#8d5910"/>
      <stop offset="1.0" stop-color="#d9d597"/>
    </linearGradient>
    <g id="sprite2" transform="matrix(1.0, 0.0, 0.0, 1.0, -0.45, 0.1)">
      <use height="8.6" transform="matrix(0.9662, 0.0, 0.0, 0.9652, 0.4568, -0.1)" width="35.05" xlink:href="#sprite3"/>
    </g>
    <g id="sprite3" transform="matrix(1.0, 0.0, 0.0, 1.0, 0.2, 0.0)">
      <use height="10.35" transform="matrix(0.8345, 0.0, 0.0, 0.8309, -0.1845, 0.0085)" width="42.0" xlink:href="#shape3"/>
    </g>
    <g id="shape3" transform="matrix(1.0, 0.0, 0.0, 1.0, 1.0, 0.05)">
      <path d="M31.85 -0.05 Q38.75 -0.05 40.45 5.2 41.0 6.9 41.0 9.15 L41.0 10.3 Q40.95 8.3 40.45 6.8 38.75 1.45 31.85 1.45 L8.15 1.45 Q-0.7 1.45 -1.0 10.15 L-1.0 9.15 Q-1.0 -0.05 8.15 -0.05 L31.85 -0.05" fill="#e7deda" fill-rule="evenodd" stroke="none"/>
    </g>
    <g id="shape4" transform="matrix(1.0, 0.0, 0.0, 1.0, 0.0, -3.5)">
      <path d="M38.85 27.95 L39.3 26.8 39.7 26.3 Q40.05 26.05 40.4 26.05 L41.05 26.3 41.5 26.85 41.9 27.95 43.05 27.95 43.75 28.2 43.95 28.35 43.95 29.95 43.7 30.1 42.85 30.75 43.25 32.1 43.25 32.8 42.8 33.35 42.1 33.55 41.45 33.3 41.2 33.15 41.15 35.7 43.55 36.65 Q43.75 36.7 43.95 36.9 L43.6 38.8 43.4 38.85 40.85 39.5 40.65 42.45 40.5 42.75 39.25 43.5 39.0 43.45 38.5 43.0 37.0 40.45 34.2 41.2 33.85 41.2 33.0 41.8 33.4 43.15 33.4 43.85 33.3 44.0 31.15 44.0 30.55 43.6 29.9 44.0 27.7 44.0 27.65 43.8 27.65 43.1 28.05 41.8 27.15 41.2 26.75 40.6 Q26.6 40.2 26.75 39.85 L27.15 39.25 27.85 39.05 29.0 39.05 29.45 37.9 Q29.6 37.55 29.85 37.35 L30.55 37.15 31.2 37.35 31.65 37.95 32.05 39.05 33.2 39.05 34.85 37.05 33.55 34.85 33.4 34.15 33.7 33.45 Q33.9 33.2 34.25 33.15 L34.95 33.2 37.35 34.15 38.05 33.4 37.9 33.3 37.5 32.7 37.5 32.0 37.9 30.75 37.0 30.1 36.6 29.55 Q36.45 29.15 36.6 28.8 L37.0 28.2 Q37.3 27.95 37.7 27.95 L38.85 27.95 M30.65 38.7 L30.4 38.7 29.8 40.2 28.2 40.2 28.1 40.45 29.45 41.35 28.85 43.1 29.05 43.2 30.55 42.15 31.95 43.2 32.2 43.1 31.65 41.35 32.8 40.5 32.75 40.2 31.25 40.2 30.65 38.7 M37.7 35.5 L34.55 34.25 36.3 37.2 33.9 40.0 37.55 39.1 39.5 42.35 39.75 38.6 43.15 37.7 40.0 36.45 40.05 33.0 37.7 35.5 M39.65 29.15 L38.05 29.15 37.95 29.35 39.3 30.3 38.75 32.0 38.9 32.15 40.4 31.1 41.8 32.15 42.05 32.0 41.5 30.3 42.8 29.35 42.65 29.15 41.1 29.15 40.5 27.6 40.25 27.6 39.65 29.15" fill="url(#gradient3)" fill-rule="evenodd" stroke="none"/>
      <path d="M42.2 29.75 L41.5 30.3 41.5 30.9 41.85 32.2 40.4 31.1 38.9 32.2 39.3 30.9 39.3 30.3 38.55 29.75 39.65 29.75 40.4 27.85 41.1 29.75 42.2 29.75 M40.0 36.45 L40.0 37.05 42.15 38.0 39.75 38.6 39.5 42.35 37.55 39.1 34.55 39.85 36.3 37.8 36.3 37.2 35.0 35.1 37.7 36.15 40.05 33.65 40.0 36.45 M32.35 40.85 L31.65 41.35 31.65 42.0 32.0 43.25 30.55 42.15 29.05 43.25 29.45 42.0 29.45 41.35 28.7 40.85 29.8 40.85 30.55 38.9 31.25 40.85 32.35 40.85" fill="#815815" fill-rule="evenodd" stroke="none"/>
      <path d="M38.55 29.75 L37.7 29.15 39.65 29.15 40.4 27.2 41.1 29.15 43.05 29.15 42.2 29.75 41.1 29.75 40.4 27.85 39.65 29.75 38.55 29.75 M41.5 30.3 L42.15 32.35 41.85 32.2 41.5 30.9 41.5 30.3 M38.9 32.2 L38.6 32.35 39.3 30.3 39.3 30.9 38.9 32.2 M40.0 36.45 L43.15 37.7 42.15 38.0 40.0 37.05 40.0 36.45 M34.55 39.85 L33.9 40.0 36.3 37.2 36.3 37.8 34.55 39.85 M35.0 35.1 L34.55 34.25 37.7 35.5 40.05 33.0 40.05 33.65 37.7 36.15 35.0 35.1 M28.7 40.85 L27.85 40.2 29.8 40.2 30.55 38.3 31.25 40.2 33.2 40.2 32.35 40.85 31.25 40.85 30.55 38.9 29.8 40.85 28.7 40.85 M31.65 41.35 L32.3 43.45 32.0 43.25 31.65 42.0 31.65 41.35 M29.05 43.25 L28.75 43.45 29.45 41.35 29.45 42.0 29.05 43.25" fill="#674512" fill-rule="evenodd" stroke="none"/>
      <path d="M5.1 27.95 L6.25 27.95 6.95 28.2 7.35 28.8 7.35 29.55 6.95 30.1 6.05 30.75 6.45 32.0 6.45 32.7 6.05 33.3 5.9 33.4 6.6 34.15 9.0 33.2 9.7 33.15 10.25 33.45 10.55 34.15 10.4 34.85 9.1 37.05 10.75 39.05 11.9 39.05 12.3 37.95 Q12.4 37.55 12.75 37.35 L13.4 37.15 14.1 37.35 14.5 37.9 14.95 39.05 16.1 39.05 16.8 39.25 17.2 39.85 17.2 40.6 16.8 41.2 15.9 41.8 16.3 43.1 16.3 43.8 16.25 44.0 14.05 44.0 13.4 43.6 12.8 44.0 10.65 44.0 10.55 43.85 10.55 43.15 10.95 41.8 10.1 41.2 9.75 41.2 6.95 40.45 5.45 43.0 4.95 43.45 4.7 43.5 3.45 42.75 3.3 42.45 3.1 39.5 0.55 38.85 0.35 38.8 0.0 36.9 0.4 36.65 2.8 35.7 2.75 33.15 2.5 33.3 1.85 33.55 Q1.45 33.55 1.15 33.35 L0.7 32.8 0.7 32.1 1.1 30.75 0.25 30.1 0.0 29.95 0.0 28.35 0.2 28.2 0.9 27.95 2.05 27.95 2.45 26.85 Q2.55 26.45 2.9 26.3 L3.55 26.05 Q3.9 26.05 4.25 26.3 L4.65 26.8 5.1 27.95 M4.3 29.15 L3.7 27.6 3.45 27.6 2.85 29.15 1.3 29.15 1.15 29.35 2.45 30.3 1.9 32.0 2.15 32.15 3.55 31.1 5.05 32.15 5.2 32.0 4.65 30.3 6.0 29.35 5.9 29.15 4.3 29.15 M6.25 35.5 L3.9 33.0 3.95 36.45 0.8 37.7 4.2 38.6 4.45 42.35 6.4 39.1 10.05 40.0 7.65 37.2 9.4 34.25 6.25 35.5 M13.3 38.7 L12.7 40.2 11.2 40.2 11.15 40.5 12.3 41.35 11.75 43.1 12.0 43.2 13.4 42.15 14.9 43.2 15.1 43.1 14.5 41.35 15.85 40.45 15.75 40.2 14.15 40.2 13.55 38.7 13.3 38.7" fill="url(#gradient4)" fill-rule="evenodd" stroke="none"/>
      <path d="M1.75 29.75 L0.9 29.15 2.85 29.15 3.55 27.2 4.3 29.15 6.25 29.15 5.4 29.75 4.3 29.75 3.55 27.85 2.85 29.75 1.75 29.75 M4.65 30.3 L5.35 32.35 5.05 32.2 4.65 30.9 4.65 30.3 M2.1 32.2 L1.8 32.35 2.45 30.3 2.45 30.9 2.1 32.2 M3.9 33.65 L3.9 33.0 6.25 35.5 9.4 34.25 8.95 35.1 6.25 36.15 3.9 33.65 M7.65 37.2 L10.05 40.0 9.4 39.85 7.65 37.8 7.65 37.2 M1.8 38.0 L0.8 37.7 3.95 36.45 3.95 37.05 1.8 38.0 M11.6 40.85 L10.75 40.2 12.7 40.2 13.4 38.3 14.15 40.2 16.1 40.2 15.25 40.85 14.15 40.85 13.4 38.9 12.7 40.85 11.6 40.85 M14.5 41.35 L15.2 43.45 14.9 43.25 14.5 42.0 14.5 41.35 M11.95 43.25 L11.65 43.45 12.3 41.35 12.3 42.0 11.95 43.25" fill="#674512" fill-rule="evenodd" stroke="none"/>
      <path d="M1.75 29.75 L2.85 29.75 3.55 27.85 4.3 29.75 5.4 29.75 4.65 30.3 4.65 30.9 5.05 32.2 3.55 31.1 2.1 32.2 2.45 30.9 2.45 30.3 1.75 29.75 M8.95 35.1 L7.65 37.2 7.65 37.8 9.4 39.85 6.4 39.1 4.45 42.35 4.2 38.6 1.8 38.0 3.95 37.05 3.95 36.45 3.9 33.65 6.25 36.15 8.95 35.1 M11.6 40.85 L12.7 40.85 13.4 38.9 14.15 40.85 15.25 40.85 14.5 41.35 14.5 42.0 14.9 43.25 13.4 42.15 11.95 43.25 12.3 42.0 12.3 41.35 11.6 40.85" fill="#815815" fill-rule="evenodd" stroke="none"/>
      <path d="M3.4 22.05 Q3.4 14.35 8.85 8.95 14.3 3.5 22.05 3.5 29.75 3.5 35.2 8.95 40.6 14.4 40.6 22.05 40.6 29.75 35.2 35.2 29.75 40.6 22.05 40.6 14.3 40.6 8.85 35.2 3.4 29.75 3.4 22.05" fill="url(#gradient5)" fill-rule="evenodd" stroke="none"/>
      <path d="M26.1 16.2 Q25.55 15.95 24.95 16.2 24.45 16.35 23.45 19.15 L23.3 19.6 23.15 21.6 23.4 23.05 Q23.75 24.05 24.45 24.25 L25.1 24.25 26.7 24.2 27.5 24.15 28.6 24.0 30.0 23.8 30.3 21.3 Q30.5 19.6 30.3 19.25 L30.25 19.2 30.0 18.95 28.65 17.65 28.4 17.45 Q27.0 16.35 26.1 16.2 M22.1 29.15 L22.2 29.1 22.3 29.15 23.4 29.65 22.7 26.9 21.7 26.9 21.05 29.65 22.1 29.15 M16.4 17.45 L16.3 17.45 15.4 18.4 14.5 19.25 14.45 19.25 Q14.25 19.55 14.45 21.3 L14.75 23.7 15.95 23.85 17.35 24.15 17.8 24.2 20.45 24.25 Q21.0 24.05 21.3 23.05 L21.3 23.0 Q21.85 21.5 21.3 19.55 L21.3 19.45 21.25 19.15 21.2 19.15 20.6 17.1 19.85 16.2 Q19.2 15.95 18.85 16.2 L18.8 16.2 Q17.75 16.35 16.4 17.45 M19.05 9.1 L21.95 8.9 Q28.5 9.0 31.4 12.0 34.25 14.95 33.35 20.75 L33.35 20.8 31.9 24.25 33.35 24.75 33.5 24.8 33.55 25.05 33.55 27.1 33.55 27.25 33.4 27.45 31.8 28.4 31.6 28.4 31.45 28.4 Q30.55 27.85 29.75 28.1 31.5 29.85 31.9 31.8 L31.9 32.1 Q30.85 33.95 28.45 34.0 L27.65 34.0 27.4 33.95 26.45 33.2 Q25.2 32.1 24.9 32.25 24.55 32.35 24.6 33.3 L24.6 33.75 24.6 33.85 24.5 33.95 Q23.25 34.85 22.1 34.8 L21.95 34.8 Q20.7 34.85 19.6 33.95 L19.5 33.85 19.4 33.75 Q19.55 32.75 19.35 32.25 18.7 31.8 16.65 33.95 L16.3 34.0 15.6 34.0 14.4 33.9 Q12.8 33.45 12.15 32.05 L12.05 31.8 Q12.45 29.85 14.3 28.1 L14.15 28.05 13.15 28.15 Q12.85 28.2 12.55 28.4 L12.4 28.4 12.25 28.25 10.45 27.25 10.4 27.1 10.4 25.15 10.45 24.95 10.6 24.8 12.15 24.25 10.75 20.8 10.6 20.75 Q9.85 15.7 12.0 12.8 14.0 9.9 19.05 9.1" fill="#664411" fill-rule="evenodd" stroke="none"/>
    </g>
    <linearGradient gradientTransform="matrix(0.0, -0.0258, -0.0551, 0.0, 21.85, 21.85)" gradientUnits="userSpaceOnUse" id="gradient3" spreadMethod="pad" x1="-819.2" x2="819.2">
      <stop offset="0.011764705882352941" stop-color="#c79829"/>
      <stop offset="1.0" stop-color="#be7d1e"/>
    </linearGradient>
    <linearGradient gradientTransform="matrix(0.0, -0.0258, 0.0551, 0.0, 22.05, 21.85)" gradientUnits="userSpaceOnUse" id="gradient4" spreadMethod="pad" x1="-819.2" x2="819.2">
      <stop offset="0.011764705882352941" stop-color="#c79829"/>
      <stop offset="1.0" stop-color="#be7d1e"/>
    </linearGradient>
    <linearGradient gradientTransform="matrix(0.0, -0.017, -0.0173, 0.0, 21.0, 26.95)" gradientUnits="userSpaceOnUse" id="gradient5" spreadMethod="pad" x1="-819.2" x2="819.2">
      <stop offset="0.011764705882352941" stop-color="#dad67d"/>
      <stop offset="1.0" stop-color="#cfa451"/>
    </linearGradient>
    <g id="shape5" transform="matrix(1.0, 0.0, 0.0, 1.0, 0.0, -26.05)">
      <path d="M38.85 27.95 L39.3 26.8 39.7 26.3 Q40.05 26.05 40.4 26.05 L41.05 26.3 41.5 26.85 41.9 27.95 43.05 27.95 43.75 28.2 43.95 28.35 43.95 29.95 43.7 30.1 42.85 30.75 43.25 32.1 43.25 32.8 42.8 33.35 42.1 33.55 41.45 33.3 41.2 33.15 41.15 35.7 43.55 36.65 Q43.75 36.7 43.95 36.9 L43.6 38.8 43.4 38.85 40.85 39.5 40.65 42.45 40.5 42.75 39.25 43.5 39.0 43.45 38.5 43.0 37.0 40.45 34.2 41.2 33.85 41.2 33.0 41.8 33.4 43.15 33.4 43.85 33.3 44.0 31.15 44.0 30.55 43.6 29.9 44.0 27.7 44.0 27.65 43.8 27.65 43.1 28.05 41.8 27.15 41.2 26.75 40.6 Q26.6 40.2 26.75 39.85 L27.15 39.25 27.85 39.05 29.0 39.05 29.45 37.9 Q29.6 37.55 29.85 37.35 L30.55 37.15 31.2 37.35 31.65 37.95 32.05 39.05 33.2 39.05 34.85 37.05 33.55 34.85 33.4 34.15 33.7 33.45 Q33.9 33.2 34.25 33.15 L34.95 33.2 37.35 34.15 38.05 33.4 37.9 33.3 37.5 32.7 37.5 32.0 37.9 30.75 37.0 30.1 36.6 29.55 Q36.45 29.15 36.6 28.8 L37.0 28.2 Q37.3 27.95 37.7 27.95 L38.85 27.95 M30.65 38.7 L30.4 38.7 29.8 40.2 28.2 40.2 28.1 40.45 29.45 41.35 28.85 43.1 29.05 43.2 30.55 42.15 31.95 43.2 32.2 43.1 31.65 41.35 32.8 40.5 32.75 40.2 31.25 40.2 30.65 38.7 M37.7 35.5 L34.55 34.25 36.3 37.2 33.9 40.0 37.55 39.1 39.5 42.35 39.75 38.6 43.15 37.7 40.0 36.45 40.05 33.0 37.7 35.5 M39.65 29.15 L38.05 29.15 37.95 29.35 39.3 30.3 38.75 32.0 38.9 32.15 40.4 31.1 41.8 32.15 42.05 32.0 41.5 30.3 42.8 29.35 42.65 29.15 41.1 29.15 40.5 27.6 40.25 27.6 39.65 29.15" fill="url(#gradient6)" fill-rule="evenodd" stroke="none"/>
      <path d="M42.2 29.75 L41.5 30.3 41.5 30.9 41.85 32.2 40.4 31.1 38.9 32.2 39.3 30.9 39.3 30.3 38.55 29.75 39.65 29.75 40.4 27.85 41.1 29.75 42.2 29.75 M40.0 36.45 L40.0 37.05 42.15 38.0 39.75 38.6 39.5 42.35 37.55 39.1 34.55 39.85 36.3 37.8 36.3 37.2 35.0 35.1 37.7 36.15 40.05 33.65 40.0 36.45 M32.35 40.85 L31.65 41.35 31.65 42.0 32.0 43.25 30.55 42.15 29.05 43.25 29.45 42.0 29.45 41.35 28.7 40.85 29.8 40.85 30.55 38.9 31.25 40.85 32.35 40.85" fill="#815815" fill-rule="evenodd" stroke="none"/>
      <path d="M38.55 29.75 L37.7 29.15 39.65 29.15 40.4 27.2 41.1 29.15 43.05 29.15 42.2 29.75 41.1 29.75 40.4 27.85 39.65 29.75 38.55 29.75 M41.5 30.3 L42.15 32.35 41.85 32.2 41.5 30.9 41.5 30.3 M38.9 32.2 L38.6 32.35 39.3 30.3 39.3 30.9 38.9 32.2 M40.0 36.45 L43.15 37.7 42.15 38.0 40.0 37.05 40.0 36.45 M34.55 39.85 L33.9 40.0 36.3 37.2 36.3 37.8 34.55 39.85 M35.0 35.1 L34.55 34.25 37.7 35.5 40.05 33.0 40.05 33.65 37.7 36.15 35.0 35.1 M28.7 40.85 L27.85 40.2 29.8 40.2 30.55 38.3 31.25 40.2 33.2 40.2 32.35 40.85 31.25 40.85 30.55 38.9 29.8 40.85 28.7 40.85 M31.65 41.35 L32.3 43.45 32.0 43.25 31.65 42.0 31.65 41.35 M29.05 43.25 L28.75 43.45 29.45 41.35 29.45 42.0 29.05 43.25" fill="#674512" fill-rule="evenodd" stroke="none"/>
      <path d="M5.1 27.95 L6.25 27.95 6.95 28.2 7.35 28.8 7.35 29.55 6.95 30.1 6.05 30.75 6.45 32.0 6.45 32.7 6.05 33.3 5.9 33.4 6.6 34.15 9.0 33.2 9.7 33.15 10.25 33.45 10.55 34.15 10.4 34.85 9.1 37.05 10.75 39.05 11.9 39.05 12.3 37.95 Q12.4 37.55 12.75 37.35 L13.4 37.15 14.1 37.35 14.5 37.9 14.95 39.05 16.1 39.05 16.8 39.25 17.2 39.85 17.2 40.6 16.8 41.2 15.9 41.8 16.3 43.1 16.3 43.8 16.25 44.0 14.05 44.0 13.4 43.6 12.8 44.0 10.65 44.0 10.55 43.85 10.55 43.15 10.95 41.8 10.1 41.2 9.75 41.2 6.95 40.45 5.45 43.0 4.95 43.45 4.7 43.5 3.45 42.75 3.3 42.45 3.1 39.5 0.55 38.85 0.35 38.8 0.0 36.9 0.4 36.65 2.8 35.7 2.75 33.15 2.5 33.3 1.85 33.55 Q1.45 33.55 1.15 33.35 L0.7 32.8 0.7 32.1 1.1 30.75 0.25 30.1 0.0 29.95 0.0 28.35 0.2 28.2 0.9 27.95 2.05 27.95 2.45 26.85 Q2.55 26.45 2.9 26.3 L3.55 26.05 Q3.9 26.05 4.25 26.3 L4.65 26.8 5.1 27.95 M4.3 29.15 L3.7 27.6 3.45 27.6 2.85 29.15 1.3 29.15 1.15 29.35 2.45 30.3 1.9 32.0 2.15 32.15 3.55 31.1 5.05 32.15 5.2 32.0 4.65 30.3 6.0 29.35 5.9 29.15 4.3 29.15 M6.25 35.5 L3.9 33.0 3.95 36.45 0.8 37.7 4.2 38.6 4.45 42.35 6.4 39.1 10.05 40.0 7.65 37.2 9.4 34.25 6.25 35.5 M13.3 38.7 L12.7 40.2 11.2 40.2 11.15 40.5 12.3 41.35 11.75 43.1 12.0 43.2 13.4 42.15 14.9 43.2 15.1 43.1 14.5 41.35 15.85 40.45 15.75 40.2 14.15 40.2 13.55 38.7 13.3 38.7" fill="url(#gradient7)" fill-rule="evenodd" stroke="none"/>
      <path d="M1.75 29.75 L0.9 29.15 2.85 29.15 3.55 27.2 4.3 29.15 6.25 29.15 5.4 29.75 4.3 29.75 3.55 27.85 2.85 29.75 1.75 29.75 M4.65 30.3 L5.35 32.35 5.05 32.2 4.65 30.9 4.65 30.3 M2.1 32.2 L1.8 32.35 2.45 30.3 2.45 30.9 2.1 32.2 M3.9 33.65 L3.9 33.0 6.25 35.5 9.4 34.25 8.95 35.1 6.25 36.15 3.9 33.65 M7.65 37.2 L10.05 40.0 9.4 39.85 7.65 37.8 7.65 37.2 M1.8 38.0 L0.8 37.7 3.95 36.45 3.95 37.05 1.8 38.0 M11.6 40.85 L10.75 40.2 12.7 40.2 13.4 38.3 14.15 40.2 16.1 40.2 15.25 40.85 14.15 40.85 13.4 38.9 12.7 40.85 11.6 40.85 M14.5 41.35 L15.2 43.45 14.9 43.25 14.5 42.0 14.5 41.35 M11.95 43.25 L11.65 43.45 12.3 41.35 12.3 42.0 11.95 43.25" fill="#674512" fill-rule="evenodd" stroke="none"/>
      <path d="M1.75 29.75 L2.85 29.75 3.55 27.85 4.3 29.75 5.4 29.75 4.65 30.3 4.65 30.9 5.05 32.2 3.55 31.1 2.1 32.2 2.45 30.9 2.45 30.3 1.75 29.75 M8.95 35.1 L7.65 37.2 7.65 37.8 9.4 39.85 6.4 39.1 4.45 42.35 4.2 38.6 1.8 38.0 3.95 37.05 3.95 36.45 3.9 33.65 6.25 36.15 8.95 35.1 M11.6 40.85 L12.7 40.85 13.4 38.9 14.15 40.85 15.25 40.85 14.5 41.35 14.5 42.0 14.9 43.25 13.4 42.15 11.95 43.25 12.3 42.0 12.3 41.35 11.6 40.85" fill="#815815" fill-rule="evenodd" stroke="none"/>
    </g>
    <linearGradient gradientTransform="matrix(0.0, -0.0258, -0.0551, 0.0, 21.85, 21.85)" gradientUnits="userSpaceOnUse" id="gradient6" spreadMethod="pad" x1="-819.2" x2="819.2">
      <stop offset="0.011764705882352941" stop-color="#c79829"/>
      <stop offset="1.0" stop-color="#be7d1e"/>
    </linearGradient>
    <linearGradient gradientTransform="matrix(0.0, -0.0258, 0.0551, 0.0, 22.05, 21.85)" gradientUnits="userSpaceOnUse" id="gradient7" spreadMethod="pad" x1="-819.2" x2="819.2">
      <stop offset="0.011764705882352941" stop-color="#c79829"/>
      <stop offset="1.0" stop-color="#be7d1e"/>
    </linearGradient>
  </defs>
</svg>
