<?xml version="1.0" encoding="UTF-8" standalone="no"?>
<svg xmlns:xlink="http://www.w3.org/1999/xlink" height="44.0px" width="44.0px" xmlns="http://www.w3.org/2000/svg">
  <g transform="matrix(1.0, 0.0, 0.0, 1.0, 0.0, -0.05)">
    <use height="44.0" transform="matrix(1.0, 0.0, 0.0, 1.0, 0.0, 0.05)" width="44.0" xlink:href="#shape0"/>
    <use height="8.6" transform="matrix(1.2077, 0.0, 0.0, 1.2065, 0.7085, 0.85)" width="35.05" xlink:href="#sprite0"/>
    <use height="38.0" transform="matrix(1.0, 0.0, 0.0, 1.0, 3.0, 3.05)" width="37.95" xlink:href="#shape2"/>
    <use height="32.85" transform="matrix(1.1548, 0.0, 0.0, 1.1548, 0.0655, 6.0629)" width="38.05" xlink:href="#sprite1"/>
    <use height="20.15" transform="matrix(1.1548, 0.0, 0.0, 1.1548, 6.3, 5.5)" width="28.2" xlink:href="#sprite3"/>
    <use height="0.0" transform="matrix(1.2077, 0.0, 0.0, 1.2077, 1.2, 1.1)" width="0.0" xlink:href="#sprite4"/>
  </g>
  <defs>
    <g id="shape0" transform="matrix(1.0, 0.0, 0.0, 1.0, 0.0, -0.05)">
      <path d="M41.95 22.5 Q41.95 30.9 36.0 36.75 30.1 42.65 21.75 42.65 13.4 42.65 7.55 36.75 1.6 30.9 1.6 22.5 1.6 14.15 7.55 8.25 13.4 2.35 21.75 2.35 30.1 2.35 36.0 8.25 41.95 14.15 41.95 22.5" fill="url(#gradient0)" fill-rule="evenodd" stroke="none"/>
      <path d="M27.05 14.05 L26.85 14.25 Q25.05 13.2 22.75 13.1 L22.75 10.3 Q27.0 10.45 30.3 12.45 L27.05 14.05 M20.65 14.65 L21.95 14.55 Q26.1 14.6 27.0 16.6 27.4 17.45 27.1 18.7 L26.4 20.05 27.2 20.35 27.2 21.05 26.5 21.35 Q25.85 21.1 25.25 21.35 26.25 22.05 26.45 22.8 26.05 23.45 25.0 23.5 L24.65 23.5 24.15 23.15 Q22.85 22.25 23.05 23.5 L21.95 23.65 20.95 23.5 20.85 22.9 20.85 22.8 Q20.55 22.55 19.35 23.5 L18.9 23.5 18.5 23.4 Q17.9 23.25 17.55 22.8 17.7 22.05 18.75 21.35 18.1 21.1 17.5 21.35 L16.85 21.05 16.85 20.35 17.6 20.1 16.9 18.7 Q16.65 17.6 16.95 16.75 17.05 16.4 17.3 16.1 18.2 14.95 20.65 14.65 M29.5 17.0 Q28.9 15.8 27.7 14.85 L31.25 13.05 31.9 13.55 Q35.5 16.5 35.9 20.45 L35.95 20.6 30.15 19.0 30.0 18.95 Q29.95 17.9 29.5 17.0 M25.95 18.1 L25.8 17.95 25.2 17.45 25.05 17.45 23.95 16.95 23.35 16.95 Q22.9 17.0 22.5 18.1 L22.45 18.25 Q22.25 19.05 22.5 19.6 L23.1 20.15 23.5 20.15 24.15 20.1 24.6 20.1 25.85 19.9 26.05 18.95 25.95 18.1 M21.8 18.1 L21.5 17.35 21.0 16.95 20.45 16.95 Q19.95 17.0 19.3 17.45 L18.4 18.1 Q18.2 18.2 18.3 18.95 18.3 19.5 18.45 19.9 L19.15 20.05 19.8 20.1 21.25 20.15 21.85 19.6 Q22.1 19.05 21.85 18.25 L21.8 18.1 M27.9 23.6 Q29.7 22.05 30.0 19.95 L35.95 21.65 35.95 22.05 35.65 23.95 Q34.85 26.65 32.4 28.9 L27.9 23.6 M22.45 20.85 L21.7 20.85 21.25 22.2 22.05 21.9 22.85 22.2 22.45 20.85 M21.75 13.05 Q19.4 13.15 17.6 14.2 L17.4 14.0 14.1 12.3 Q17.45 10.35 21.75 10.3 L21.75 13.05 M8.05 21.45 L8.1 20.45 Q8.5 16.5 12.25 13.55 L13.0 13.0 13.2 12.9 13.3 13.0 13.4 13.05 16.7 14.8 16.6 14.85 Q15.4 15.8 14.85 16.9 14.3 17.85 14.25 19.0 L8.4 20.65 8.15 20.85 8.1 21.25 8.3 21.55 8.7 21.6 14.3 20.05 Q14.6 22.15 16.55 23.7 L12.05 29.05 12.0 29.05 Q9.2 26.8 8.4 23.95 L8.1 22.05 8.05 21.45 M17.35 24.3 Q19.25 25.5 21.75 25.6 L21.75 32.55 Q16.55 32.45 12.8 29.7 L17.35 24.35 17.35 24.3 M14.5 34.85 L15.1 35.1 15.65 34.85 15.9 34.15 15.65 33.45 Q15.45 33.15 15.1 33.15 14.75 33.15 14.5 33.45 L14.3 34.15 14.5 34.85 M10.8 30.15 Q10.5 30.15 10.3 30.4 L10.1 31.0 10.3 31.65 10.8 31.9 11.3 31.65 11.5 31.0 11.3 30.4 Q11.1 30.15 10.8 30.15 M8.1 25.45 L8.25 24.55 Q8.95 27.9 12.25 30.45 16.3 33.75 22.05 33.75 L22.25 33.75 Q27.85 33.7 31.9 30.45 35.1 27.9 35.8 24.55 L35.9 25.45 35.95 26.45 Q35.95 31.0 31.9 34.25 27.8 37.55 22.05 37.55 16.3 37.55 12.25 34.25 8.05 31.0 8.05 26.45 L8.1 25.45 M33.25 30.15 Q32.95 30.15 32.75 30.4 L32.55 31.0 32.75 31.65 Q32.95 31.9 33.25 31.9 L33.75 31.65 33.95 31.0 33.75 30.4 33.25 30.15 M22.0 34.7 Q21.55 34.7 21.25 35.0 20.95 35.3 20.95 35.75 20.95 36.2 21.25 36.5 21.55 36.8 22.0 36.8 L22.75 36.5 23.05 35.75 22.75 35.0 Q22.45 34.7 22.0 34.7 M29.55 33.45 Q29.3 33.15 28.95 33.15 L28.4 33.45 28.15 34.15 28.4 34.85 28.95 35.1 29.55 34.85 29.75 34.15 29.55 33.45 M22.75 25.6 Q25.2 25.45 27.1 24.2 L31.6 29.5 Q27.85 32.35 22.75 32.55 L22.75 25.6" fill="#92300b" fill-rule="evenodd" stroke="none"/>
      <path d="M34.25 9.85 Q29.15 4.75 22.0 4.75 14.85 4.75 9.75 9.85 4.65 14.9 4.65 22.05 4.65 29.25 9.75 34.3 14.85 39.4 22.0 39.4 29.2 39.4 34.25 34.3 39.3 29.3 39.3 22.05 39.3 14.9 34.25 9.85 M41.75 2.3 Q44.0 4.5 44.0 7.7 L44.0 36.5 Q44.0 39.6 41.75 41.85 39.55 44.05 36.35 44.05 L7.6 44.05 Q4.45 44.05 2.25 41.85 0.0 39.6 0.0 36.5 L0.0 7.7 Q0.0 4.5 2.25 2.3 4.45 0.05 7.6 0.05 L36.35 0.05 Q39.55 0.05 41.75 2.3" fill="url(#gradient1)" fill-rule="evenodd" stroke="none"/>
    </g>
    <linearGradient gradientTransform="matrix(0.0, -0.0188, -0.0188, 0.0, 21.7, 18.6)" gradientUnits="userSpaceOnUse" id="gradient0" spreadMethod="pad" x1="-819.2" x2="819.2">
      <stop offset="0.011764705882352941" stop-color="#f9cfb3"/>
      <stop offset="1.0" stop-color="#ff5b79"/>
    </linearGradient>
    <linearGradient gradientTransform="matrix(0.0, -0.0173, -0.0173, 0.0, 22.0, 2.3)" gradientUnits="userSpaceOnUse" id="gradient1" spreadMethod="pad" x1="-819.2" x2="819.2">
      <stop offset="0.011764705882352941" stop-color="#d13800"/>
      <stop offset="0.9764705882352941" stop-color="#591600"/>
    </linearGradient>
    <g id="sprite0" transform="matrix(1.0, 0.0, 0.0, 1.0, 0.2, 0.0)">
      <use height="8.6" transform="matrix(1.0, 0.0, 0.0, 1.0, -0.2, 0.0)" width="35.05" xlink:href="#shape1"/>
    </g>
    <g id="shape1" transform="matrix(1.0, 0.0, 0.0, 1.0, 0.2, 0.0)">
      <path d="M34.4 4.4 Q34.85 5.8 34.85 7.65 L34.85 8.6 Q34.8 6.95 34.4 5.7 33.0 1.3 27.2 1.3 L7.45 1.3 Q0.05 1.3 -0.2 8.5 L-0.2 7.65 Q-0.2 0.0 7.45 0.0 L27.2 0.0 Q33.0 0.0 34.4 4.4" fill="#e7deda" fill-rule="evenodd" stroke="none"/>
    </g>
    <g id="shape2" transform="matrix(1.0, 0.0, 0.0, 1.0, -3.0, -3.05)">
      <path d="M22.0 5.45 Q15.05 5.55 10.2 10.4 5.35 15.25 5.35 22.05 5.35 28.9 10.2 33.75 15.05 38.7 22.0 38.7 28.85 38.7 33.7 33.75 38.55 28.9 38.55 22.05 38.55 15.25 33.7 10.4 28.85 5.55 22.0 5.45 M8.55 8.65 Q14.1 3.05 22.0 3.05 29.85 3.05 35.4 8.65 40.95 14.25 40.95 22.05 40.95 29.95 35.4 35.45 29.85 41.05 22.0 41.05 14.1 41.05 8.55 35.45 3.0 29.95 3.0 22.05 3.0 14.25 8.55 8.65" fill="url(#gradient2)" fill-rule="evenodd" stroke="none"/>
    </g>
    <linearGradient gradientTransform="matrix(0.0, -0.0168, -0.0168, 0.0, 21.95, 26.65)" gradientUnits="userSpaceOnUse" id="gradient2" spreadMethod="pad" x1="-819.2" x2="819.2">
      <stop offset="0.011764705882352941" stop-color="#ffa582"/>
      <stop offset="0.9764705882352941" stop-color="#591600"/>
    </linearGradient>
    <g id="sprite1" transform="matrix(1.0, 0.0, 0.0, 1.0, -0.1, 2.5)">
      <clipPath id="clipPath0" transform="matrix(1.0, 0.0, 0.0, 1.0, -0.1, 2.5)">
        <use height="32.85" transform="matrix(1.0, 0.0, 0.0, 1.0, 0.5, -2.5)" width="37.65" xlink:href="#shape3"/>
      </clipPath>
      <g clip-path="url(#clipPath0)">
        <use height="29.6" transform="matrix(1.0, 0.0, 0.0, 1.0, 20.3, 0.0)" width="17.8" xlink:href="#sprite2"/>
        <use height="28.95" transform="matrix(1.0, 0.0, 0.0, 1.0, 19.9, 1.15)" width="18.05" xlink:href="#shape5"/>
        <use height="29.6" transform="matrix(-1.0, 0.0, 0.0, 1.0, 17.9, 0.0)" width="17.8" xlink:href="#sprite2"/>
        <use height="28.95" transform="matrix(1.0, 0.0, 0.0, 1.0, 0.25, 1.15)" width="18.05" xlink:href="#shape6"/>
      </g>
    </g>
    <g id="shape3" transform="matrix(1.0, 0.0, 0.0, 1.0, -0.5, 2.5)">
      <path d="M34.0 -2.5 L38.15 -1.6 38.15 30.35 0.5 30.35 0.5 -1.55 3.5 -2.1 6.95 6.9 5.35 20.95 5.55 20.85 7.3 22.85 Q12.1 27.7 18.95 27.7 25.75 27.7 30.55 22.85 L33.05 19.75 33.2 19.55 33.0 19.65 29.75 13.25 34.0 -2.5" fill="#ff0000" fill-rule="evenodd" stroke="none"/>
    </g>
    <g id="sprite2" transform="matrix(1.0, 0.0, 0.0, 1.0, 0.0, 0.0)">
      <use height="29.6" transform="matrix(1.0, 0.0, 0.0, 1.0, 0.0, 0.0)" width="17.8" xlink:href="#shape4"/>
    </g>
    <g id="shape4" transform="matrix(1.0, 0.0, 0.0, 1.0, 0.0, 0.0)">
      <path d="M15.35 1.0 L15.95 0.0 Q15.7 0.8 15.6 1.8 L15.55 2.45 15.95 3.55 17.3 7.0 Q17.8 8.8 17.8 10.85 L17.55 13.15 17.65 13.3 Q17.3 14.6 15.75 14.85 16.6 16.5 16.85 19.4 17.65 25.05 15.2 28.0 13.2 30.3 6.95 29.3 2.15 28.55 0.0 27.4 L2.25 27.0 Q3.9 26.85 6.15 25.4 9.4 23.4 12.0 19.75 L11.95 21.55 Q11.7 23.55 10.65 24.8 10.2 25.3 10.3 25.65 L10.95 26.1 Q11.65 26.25 12.6 25.55 13.9 24.6 14.6 22.35 15.3 20.05 14.9 17.8 L14.15 16.45 13.7 15.05 Q13.3 13.85 13.3 12.65 13.3 10.2 15.35 10.1 L14.75 11.15 Q14.25 12.4 14.9 13.5 16.9 13.05 16.95 11.4 17.0 10.45 16.15 8.55 15.15 6.35 14.95 4.65 14.75 2.6 15.3 1.1 L15.35 1.05 15.35 1.0" fill="#261e00" fill-rule="evenodd" stroke="none"/>
    </g>
    <g id="shape5" transform="matrix(1.0, 0.0, 0.0, 1.0, -19.9, -1.15)">
      <path d="M34.85 5.3 Q34.6 3.25 34.9 2.0 L35.2 1.15 35.15 2.65 Q35.25 4.4 35.95 5.35 38.1 8.25 37.5 13.9 L37.05 14.75 Q36.35 15.55 35.15 15.55 L34.35 14.15 35.55 13.85 Q36.8 13.3 36.85 12.05 36.9 11.1 36.0 9.15 35.05 7.0 34.85 5.3" fill="url(#gradient3)" fill-rule="evenodd" stroke="none"/>
      <path d="M34.85 5.3 Q34.6 3.25 34.9 2.0 L35.2 1.15 35.15 2.65 Q35.25 4.4 35.95 5.35 38.1 8.25 37.5 13.9 L37.05 14.75 Q36.35 15.55 35.15 15.55 L34.35 14.15 35.55 13.85 Q36.8 13.3 36.85 12.05 36.9 11.1 36.0 9.15 35.05 7.0 34.85 5.3" fill="url(#gradient4)" fill-rule="evenodd" stroke="none"/>
      <path d="M37.3 9.0 Q36.8 6.6 35.95 5.35 35.3 4.4 35.2 2.65 L35.2 1.5 Q35.25 2.85 36.0 4.3 L37.55 7.85 Q38.15 9.9 37.9 12.0 L37.5 13.65 Q37.85 11.65 37.3 9.0" fill="#ffd6cc" fill-rule="evenodd" stroke="none"/>
      <path d="M31.8 22.15 Q31.55 24.15 30.5 25.45 29.9 26.15 30.3 26.6 30.65 27.0 31.5 26.85 33.8 26.4 34.45 23.3 35.15 20.15 34.85 18.75 L34.05 17.05 Q33.3 15.75 33.3 13.85 33.3 11.35 35.2 10.7 L34.55 11.9 Q34.05 13.35 35.05 14.55 36.25 16.0 36.6 19.3 37.0 22.55 36.35 25.75 36.2 26.75 35.55 27.75 34.2 29.8 31.6 29.85 L26.8 29.45 Q24.2 28.85 20.9 27.05 L24.6 26.2 Q28.9 24.55 31.85 20.4 L31.8 22.15" fill="url(#gradient5)" fill-rule="evenodd" stroke="none"/>
      <path d="M34.0 11.75 Q32.95 13.3 33.55 15.65 33.15 14.45 33.15 13.25 33.15 10.85 35.2 10.7 34.55 11.0 34.0 11.75" fill="#ebc7be" fill-rule="evenodd" stroke="none"/>
      <path d="M35.2 19.1 Q35.65 20.3 35.35 22.1 34.5 27.5 31.0 27.5 30.1 27.55 30.1 26.25 L30.65 26.65 Q31.4 26.95 32.5 26.15 33.8 25.2 34.5 22.9 35.15 20.55 34.75 18.25 L35.2 19.1" fill="#d68d7c" fill-rule="evenodd" stroke="none"/>
      <path d="M36.75 22.6 L36.5 18.3 36.9 22.1 Q36.95 26.35 35.05 28.6 33.1 30.9 26.85 29.65 22.65 28.8 19.9 27.5 L21.15 27.0 25.9 28.8 Q31.2 30.3 33.8 28.75 36.45 27.2 36.75 22.6" fill="#261e00" fill-rule="evenodd" stroke="none"/>
    </g>
    <linearGradient gradientTransform="matrix(-4.0E-4, 0.0071, -0.0071, -4.0E-4, 35.95, 11.45)" gradientUnits="userSpaceOnUse" id="gradient3" spreadMethod="pad" x1="-819.2" x2="819.2">
      <stop offset="0.011764705882352941" stop-color="#ff8266"/>
      <stop offset="0.9764705882352941" stop-color="#591600"/>
    </linearGradient>
    <linearGradient gradientTransform="matrix(-4.0E-4, 0.0071, -0.0071, -4.0E-4, 35.95, 11.45)" gradientUnits="userSpaceOnUse" id="gradient4" spreadMethod="pad" x1="-819.2" x2="819.2">
      <stop offset="0.011764705882352941" stop-color="#ff3800"/>
      <stop offset="0.9764705882352941" stop-color="#591600"/>
    </linearGradient>
    <linearGradient gradientTransform="matrix(-5.0E-4, 0.0095, -0.0095, -5.0E-4, 28.85, 24.2)" gradientUnits="userSpaceOnUse" id="gradient5" spreadMethod="pad" x1="-819.2" x2="819.2">
      <stop offset="0.011764705882352941" stop-color="#ff8266"/>
      <stop offset="0.9764705882352941" stop-color="#591600"/>
    </linearGradient>
    <g id="shape6" transform="matrix(1.0, 0.0, 0.0, 1.0, -0.25, -1.15)">
      <path d="M3.35 5.3 Q3.6 3.25 3.3 2.0 L3.0 1.15 3.05 2.65 Q2.95 4.4 2.25 5.35 0.1 8.25 0.7 13.9 L1.15 14.75 Q1.85 15.55 3.05 15.55 L3.85 14.15 2.65 13.85 Q1.4 13.3 1.35 12.05 1.3 11.1 2.2 9.15 3.15 7.0 3.35 5.3" fill="url(#gradient6)" fill-rule="evenodd" stroke="none"/>
      <path d="M3.35 5.3 Q3.6 3.25 3.3 2.0 L3.0 1.15 3.05 2.65 Q2.95 4.4 2.25 5.35 0.1 8.25 0.7 13.9 L1.15 14.75 Q1.85 15.55 3.05 15.55 L3.85 14.15 2.65 13.85 Q1.4 13.3 1.35 12.05 1.3 11.1 2.2 9.15 3.15 7.0 3.35 5.3" fill="url(#gradient7)" fill-rule="evenodd" stroke="none"/>
      <path d="M0.9 9.0 Q1.4 6.6 2.25 5.35 2.9 4.4 3.0 2.65 L3.0 1.5 Q2.95 2.85 2.2 4.3 1.0 6.6 0.65 7.85 0.05 9.9 0.3 12.0 L0.7 13.65 Q0.35 11.65 0.9 9.0" fill="#ffd6cc" fill-rule="evenodd" stroke="none"/>
      <path d="M6.4 22.15 Q6.65 24.15 7.7 25.45 8.3 26.15 7.9 26.6 7.55 27.0 6.7 26.85 4.4 26.4 3.75 23.3 3.05 20.15 3.35 18.75 L4.15 17.05 Q4.9 15.75 4.9 13.85 4.9 11.35 3.0 10.7 L3.65 11.9 Q4.15 13.35 3.15 14.55 1.95 16.0 1.6 19.3 1.2 22.55 1.85 25.75 2.0 26.75 2.65 27.75 4.0 29.8 6.6 29.85 L11.4 29.45 Q14.0 28.85 17.3 27.05 L13.6 26.2 Q9.3 24.55 6.35 20.4 L6.4 22.15" fill="url(#gradient8)" fill-rule="evenodd" stroke="none"/>
      <path d="M4.2 11.75 Q5.25 13.3 4.65 15.65 5.05 14.45 5.05 13.25 5.05 10.85 3.0 10.7 L4.2 11.75" fill="#ebc7be" fill-rule="evenodd" stroke="none"/>
      <path d="M3.0 19.1 Q2.55 20.3 2.85 22.1 3.7 27.5 7.2 27.5 8.1 27.55 8.1 26.25 L7.55 26.65 Q6.8 26.95 5.7 26.15 4.4 25.2 3.7 22.9 3.05 20.55 3.45 18.25 L3.0 19.1" fill="#d68d7c" fill-rule="evenodd" stroke="none"/>
      <path d="M1.45 22.6 L1.7 18.3 1.3 22.1 Q1.25 26.35 3.15 28.6 5.1 30.9 11.35 29.65 15.55 28.8 18.3 27.5 L17.05 27.0 12.3 28.8 Q7.0 30.3 4.4 28.75 1.75 27.2 1.45 22.6" fill="#261e00" fill-rule="evenodd" stroke="none"/>
    </g>
    <linearGradient gradientTransform="matrix(4.0E-4, 0.0071, 0.0071, -4.0E-4, 2.25, 11.45)" gradientUnits="userSpaceOnUse" id="gradient6" spreadMethod="pad" x1="-819.2" x2="819.2">
      <stop offset="0.011764705882352941" stop-color="#ff8266"/>
      <stop offset="0.9764705882352941" stop-color="#591600"/>
    </linearGradient>
    <linearGradient gradientTransform="matrix(4.0E-4, 0.0071, 0.0071, -4.0E-4, 2.25, 11.45)" gradientUnits="userSpaceOnUse" id="gradient7" spreadMethod="pad" x1="-819.2" x2="819.2">
      <stop offset="0.011764705882352941" stop-color="#ff3800"/>
      <stop offset="0.9764705882352941" stop-color="#591600"/>
    </linearGradient>
    <linearGradient gradientTransform="matrix(5.0E-4, 0.0095, 0.0095, -5.0E-4, 9.35, 24.2)" gradientUnits="userSpaceOnUse" id="gradient8" spreadMethod="pad" x1="-819.2" x2="819.2">
      <stop offset="0.011764705882352941" stop-color="#ff8266"/>
      <stop offset="0.9764705882352941" stop-color="#591600"/>
    </linearGradient>
    <g id="sprite3" transform="matrix(1.0, 0.0, 0.0, 1.0, 0.0, 0.0)">
      <use height="20.15" transform="matrix(1.0, 0.0, 0.0, 1.0, 0.0, 0.0)" width="28.2" xlink:href="#shape7"/>
    </g>
    <g id="shape7" transform="matrix(1.0, 0.0, 0.0, 1.0, 0.0, 0.0)">
      <path d="M27.65 18.45 L27.4 18.95 Q26.2 20.8 23.4 19.8 19.6 18.5 17.35 14.05 14.8 9.1 9.75 7.4 4.1 5.65 0.0 10.3 1.0 6.85 3.7 4.15 7.2 0.65 11.9 0.05 L14.8 0.05 18.4 0.65 Q21.55 1.65 24.05 4.15 28.2 8.3 28.2 14.25 28.2 16.45 27.65 18.45" fill="#ffffff" fill-opacity="0.19607843" fill-rule="evenodd" stroke="none"/>
    </g>
  </defs>
</svg>
