<?xml version="1.0" encoding="UTF-8" standalone="no"?>
<svg xmlns:xlink="http://www.w3.org/1999/xlink" height="44.15px" width="44.0px" xmlns="http://www.w3.org/2000/svg">
  <g transform="matrix(1.0, 0.0, 0.0, 1.0, 0.0, -0.05)">
    <use height="44.15" transform="matrix(1.0, 0.0, 0.0, 1.0, 0.0, 0.05)" width="44.0" xlink:href="#shape0"/>
    <use height="20.15" transform="matrix(1.1594, 0.0, 0.0, 1.1605, 5.85, 5.5)" width="28.2" xlink:href="#sprite0"/>
    <use height="20.85" transform="matrix(1.0, 0.0, 0.0, 1.0, 0.7, 23.25)" width="42.65" xlink:href="#shape2"/>
    <use height="8.6" transform="matrix(1.2077, 0.0, 0.0, 1.2065, 1.0085, 0.8)" width="35.05" xlink:href="#sprite1"/>
  </g>
  <defs>
    <g id="shape0" transform="matrix(1.0, 0.0, 0.0, 1.0, 0.0, -0.05)">
      <path d="M20.05 44.2 L16.35 44.2 16.35 43.15 Q17.95 44.1 20.05 44.2 M28.65 42.25 L33.05 42.25 33.05 44.2 28.65 44.2 28.65 42.25" fill="url(#gradient0)" fill-rule="evenodd" stroke="none"/>
      <path d="M16.35 43.15 L15.25 42.25 28.65 42.25 28.65 44.2 20.05 44.2 Q17.95 44.1 16.35 43.15" fill="url(#gradient1)" fill-rule="evenodd" stroke="none"/>
      <path d="M41.8 2.35 Q44.0 4.55 44.0 7.65 L44.0 36.5 Q44.0 39.7 41.8 41.9 39.6 44.1 36.4 44.1 L7.6 44.1 Q4.45 44.1 2.25 41.9 0.0 39.7 0.0 36.5 L0.0 7.65 Q0.0 4.55 2.25 2.35 4.45 0.05 7.6 0.05 L36.4 0.05 Q39.55 0.05 41.8 2.35" fill="url(#gradient2)" fill-rule="evenodd" stroke="none"/>
      <path d="M40.6 22.1 Q40.6 29.85 35.2 35.3 29.75 40.7 22.05 40.7 14.3 40.7 8.85 35.3 3.4 29.85 3.4 22.1 3.4 14.4 8.85 9.0 14.3 3.55 22.05 3.55 29.75 3.55 35.2 9.0 40.6 14.45 40.6 22.1" fill="url(#gradient3)" fill-rule="evenodd" stroke="none"/>
      <path d="M28.55 8.85 Q30.35 8.85 31.25 9.65 32.3 10.65 32.3 12.95 32.3 14.55 31.7 15.35 31.05 16.1 30.2 16.05 L29.2 15.75 Q29.0 16.2 29.45 16.6 29.85 16.95 30.65 16.95 31.45 16.95 31.7 15.8 34.45 16.85 34.75 18.4 35.05 20.0 34.55 21.05 33.9 22.2 33.1 22.2 L32.85 22.4 36.2 22.25 Q37.8 22.65 38.55 24.1 L39.1 25.3 Q38.2 27.55 37.0 31.25 35.35 34.55 32.8 36.65 L32.4 36.2 Q31.1 34.9 29.3 34.9 27.5 34.9 26.2 36.2 24.9 37.5 24.9 39.3 L24.95 39.75 22.75 39.9 22.45 39.9 Q23.1 38.7 23.1 37.2 L23.0 36.0 Q24.6 35.8 25.75 34.6 27.15 33.25 27.15 31.25 27.15 29.3 25.75 27.9 24.9 27.05 23.9 26.75 24.4 26.0 24.4 25.05 24.4 23.8 23.5 22.9 22.65 22.05 21.4 22.05 20.15 22.05 19.25 22.9 18.4 23.8 18.4 25.05 18.4 26.3 19.25 27.2 L19.6 27.5 19.1 27.9 Q17.75 29.3 17.75 31.25 L17.75 31.35 17.2 31.3 16.3 31.35 16.4 30.85 Q16.4 30.3 16.0 29.9 15.65 29.55 15.1 29.55 14.55 29.55 14.15 29.9 13.8 30.3 13.8 30.85 13.8 31.4 14.15 31.75 L14.45 31.95 13.0 33.0 Q11.5 34.55 11.35 36.7 8.45 34.6 6.95 31.25 6.5 30.4 6.2 29.25 L5.3 26.65 Q6.25 24.8 8.5 24.1 L8.3 23.35 8.3 22.15 Q8.3 19.85 10.25 18.35 11.85 17.1 13.45 17.1 14.9 17.1 14.9 19.0 L14.75 20.25 13.4 21.15 13.4 21.25 Q14.0 21.45 14.85 20.55 15.65 19.7 15.6 18.75 15.55 17.85 14.75 17.05 13.95 16.2 12.9 16.4 L12.9 14.55 Q13.4 13.05 14.7 12.2 15.95 11.4 17.45 11.4 19.75 11.4 19.75 14.3 L19.3 15.6 Q20.4 15.05 21.65 16.2 22.95 17.35 22.65 18.8 L22.75 18.8 Q22.9 18.0 23.85 17.3 24.9 16.6 25.9 16.75 23.85 15.75 23.45 15.25 23.1 14.65 23.1 12.8 23.1 10.5 24.85 9.55 26.15 8.85 28.55 8.85 M30.3 33.3 L30.0 32.6 Q29.75 32.35 29.35 32.35 28.95 32.35 28.65 32.6 L28.4 33.3 Q28.4 33.7 28.65 33.95 28.95 34.25 29.35 34.25 L30.0 33.95 30.3 33.3 M33.0 30.7 Q33.0 30.05 32.5 29.55 32.05 29.1 31.4 29.1 30.75 29.1 30.25 29.55 29.8 30.05 29.8 30.7 29.8 31.35 30.25 31.8 30.75 32.3 31.4 32.3 32.05 32.3 32.5 31.8 33.0 31.35 33.0 30.7 M30.25 22.7 Q30.25 21.9 29.65 21.3 29.1 20.75 28.3 20.75 27.5 20.75 26.95 21.3 26.4 21.9 26.4 22.7 26.4 23.5 26.95 24.05 27.5 24.65 28.3 24.65 29.1 24.65 29.65 24.05 30.25 23.5 30.25 22.7" fill="#496125" fill-rule="evenodd" stroke="none"/>
      <path d="M28.1 31.1 Q28.1 32.15 27.35 32.85 26.65 33.6 25.6 33.6 24.55 33.6 23.8 32.85 23.1 32.15 23.1 31.1 23.1 30.05 23.8 29.3 24.55 28.6 25.6 28.6 26.65 28.6 27.35 29.3 28.1 30.05 28.1 31.1" fill="#496125" fill-rule="evenodd" stroke="none"/>
      <path d="M18.3 35.35 Q18.3 36.6 17.4 37.45 16.55 38.35 15.3 38.35 14.05 38.35 13.15 37.45 12.3 36.6 12.3 35.35 12.3 34.05 13.15 33.15 14.05 32.35 15.3 32.35 16.55 32.35 17.4 33.15 18.3 34.05 18.3 35.35" fill="#496125" fill-rule="evenodd" stroke="none"/>
      <path d="M22.2 25.4 L21.75 26.45 Q21.35 26.9 20.7 26.9 20.1 26.9 19.65 26.45 19.2 26.0 19.2 25.4 19.2 24.75 19.65 24.3 20.1 23.9 20.7 23.9 21.35 23.9 21.75 24.3 22.2 24.75 22.2 25.4" fill="#496125" fill-rule="evenodd" stroke="none"/>
      <path d="M33.7 10.4 Q28.75 5.55 21.85 5.45 14.95 5.55 10.1 10.4 5.2 15.2 5.15 22.1 5.2 29.1 10.1 33.95 14.95 38.85 21.85 38.85 28.75 38.85 33.7 33.95 38.5 29.1 38.5 22.1 38.5 15.2 33.7 10.4 M40.85 22.1 Q40.85 30.0 35.25 35.55 29.75 41.2 21.85 41.2 13.9 41.2 8.4 35.55 2.85 30.0 2.85 22.1 2.85 14.15 8.4 8.65 13.9 3.1 21.85 3.1 29.75 3.1 35.25 8.65 40.85 14.15 40.85 22.1" fill="url(#gradient4)" fill-rule="evenodd" stroke="none"/>
    </g>
    <linearGradient gradientTransform="matrix(0.0, -0.0555, -0.0554, 0.0, 22.45, 18.45)" gradientUnits="userSpaceOnUse" id="gradient0" spreadMethod="pad" x1="-819.2" x2="819.2">
      <stop offset="0.011764705882352941" stop-color="#e8e1b7"/>
      <stop offset="1.0" stop-color="#eed731"/>
    </linearGradient>
    <linearGradient gradientTransform="matrix(0.0, -0.0555, -0.0554, 0.0, 34.7, 18.45)" gradientUnits="userSpaceOnUse" id="gradient1" spreadMethod="pad" x1="-819.2" x2="819.2">
      <stop offset="0.011764705882352941" stop-color="#e8e1b7"/>
      <stop offset="1.0" stop-color="#eed731"/>
    </linearGradient>
    <linearGradient gradientTransform="matrix(0.0, -0.0283, -0.0551, 0.0, 22.6, 22.05)" gradientUnits="userSpaceOnUse" id="gradient2" spreadMethod="pad" x1="-819.2" x2="819.2">
      <stop offset="0.011764705882352941" stop-color="#9dae7c"/>
      <stop offset="1.0" stop-color="#7e8f45"/>
    </linearGradient>
    <linearGradient gradientTransform="matrix(0.0, -0.0173, -0.0173, 0.0, 22.0, 18.55)" gradientUnits="userSpaceOnUse" id="gradient3" spreadMethod="pad" x1="-819.2" x2="819.2">
      <stop offset="0.011764705882352941" stop-color="#d3d4b5"/>
      <stop offset="1.0" stop-color="#71a26f"/>
    </linearGradient>
    <linearGradient gradientTransform="matrix(1.0E-4, 0.0224, -0.0232, 1.0E-4, 21.9, 22.4)" gradientUnits="userSpaceOnUse" id="gradient4" spreadMethod="pad" x1="-819.2" x2="819.2">
      <stop offset="0.011764705882352941" stop-color="#516537"/>
      <stop offset="1.0" stop-color="#a8ce99"/>
    </linearGradient>
    <g id="sprite0" transform="matrix(1.0, 0.0, 0.0, 1.0, 0.0, 0.0)">
      <use height="20.15" transform="matrix(1.0, 0.0, 0.0, 1.0, 0.0, 0.0)" width="28.2" xlink:href="#shape1"/>
    </g>
    <g id="shape1" transform="matrix(1.0, 0.0, 0.0, 1.0, 0.0, 0.0)">
      <path d="M27.65 18.45 L27.4 18.95 Q26.2 20.8 23.4 19.8 19.6 18.5 17.35 14.05 14.8 9.1 9.75 7.4 4.1 5.65 0.0 10.3 1.0 6.85 3.7 4.15 7.2 0.65 11.9 0.05 L14.8 0.05 18.4 0.65 Q21.55 1.65 24.05 4.15 28.2 8.3 28.2 14.25 28.2 16.45 27.65 18.45" fill="#ffffff" fill-opacity="0.19607843" fill-rule="evenodd" stroke="none"/>
    </g>
    <g id="shape2" transform="matrix(1.0, 0.0, 0.0, 1.0, -0.7, -23.25)">
      <path d="M0.85 32.95 Q1.15 30.6 2.4 29.4 L2.8 27.7 Q2.95 26.7 2.7 25.65 L2.4 24.6 1.75 23.25 2.8 24.35 3.65 25.55 3.95 26.95 Q4.05 27.85 3.35 29.65 2.7 31.25 2.55 33.45 L2.45 33.2 2.4 33.45 Q1.85 36.25 3.0 38.2 3.55 39.15 4.25 39.7 L3.95 39.2 4.05 39.25 4.3 39.75 Q4.9 40.5 5.75 40.65 6.85 40.85 7.9 39.95 9.15 39.0 8.2 37.65 L8.25 38.5 Q8.05 39.45 6.7 39.9 L5.7 40.1 5.7 40.0 5.6 38.8 Q5.55 37.05 7.0 36.15 8.5 35.2 10.0 36.75 L11.2 38.55 Q11.15 36.7 10.25 35.75 L10.4 35.9 Q11.1 36.65 11.4 37.6 L11.35 37.6 11.5 38.0 11.8 38.85 11.85 40.0 Q10.45 42.9 8.65 42.9 9.95 42.7 10.05 41.55 7.15 42.75 3.7 41.05 1.2 39.1 0.85 32.95" fill="#9ec087" fill-rule="evenodd" stroke="none"/>
      <path d="M11.85 40.0 Q11.75 41.15 11.1 42.25 10.1 44.05 7.0 44.1 L4.1 43.8 5.6 43.35 7.8 43.05 6.55 43.15 Q4.4 43.1 2.85 41.6 0.95 39.55 0.75 35.45 0.65 34.05 0.85 32.95 1.2 39.1 3.7 41.05 7.15 42.75 10.05 41.55 9.95 42.7 8.65 42.9 10.45 42.9 11.85 40.0" fill="#648a4a" fill-rule="evenodd" stroke="none"/>
      <path d="M2.4 33.45 L2.45 33.2 2.55 33.45 2.4 33.45" fill="#00632e" fill-rule="evenodd" stroke="none"/>
      <path d="M2.55 33.45 L2.6 34.75 Q2.95 36.5 3.8 37.65 L3.9 37.05 Q4.6 35.05 7.3 34.5 L9.2 34.95 10.25 35.75 Q11.15 36.7 11.2 38.55 L10.0 36.75 Q8.5 35.2 7.0 36.15 5.55 37.05 5.6 38.8 L5.7 40.0 5.7 40.1 6.7 39.9 Q8.05 39.45 8.25 38.5 L8.2 37.65 Q9.15 39.0 7.9 39.95 6.85 40.85 5.75 40.65 4.9 40.5 4.3 39.75 L4.05 39.25 3.95 39.2 4.25 39.7 Q3.55 39.15 3.0 38.2 1.85 36.25 2.4 33.45 L2.55 33.45 M3.95 39.2 L4.1 39.15 4.05 39.0 3.9 39.05 3.95 39.2" fill="#c0d6b1" fill-rule="evenodd" stroke="none"/>
      <path d="M3.95 39.2 L3.9 39.05 4.05 39.0 4.1 39.15 3.95 39.2" fill="#ccbf38" fill-rule="evenodd" stroke="none"/>
      <path d="M11.4 37.6 L11.5 38.0 11.35 37.6 11.4 37.6" fill="url(#gradient5)" fill-rule="evenodd" stroke="none"/>
      <path d="M41.5 33.45 Q41.35 31.25 40.7 29.65 40.0 27.85 40.1 26.95 L40.4 25.55 41.25 24.35 42.3 23.25 41.65 24.6 41.35 25.65 Q41.1 26.7 41.25 27.7 L41.65 29.4 Q42.9 30.6 43.2 32.95 42.85 39.1 40.35 41.05 36.9 42.75 34.0 41.55 34.1 42.7 35.4 42.9 33.6 42.9 32.2 40.0 32.15 39.45 32.25 38.85 L32.55 38.0 32.7 37.6 32.65 37.6 Q32.95 36.65 33.65 35.9 L33.8 35.75 Q32.9 36.7 32.85 38.55 33.3 37.6 34.05 36.75 35.55 35.2 37.05 36.15 38.5 37.05 38.45 38.8 L38.35 40.0 38.35 40.1 37.35 39.9 Q36.0 39.45 35.8 38.5 L35.85 37.65 Q34.9 39.0 36.15 39.95 37.2 40.85 38.3 40.65 39.15 40.5 39.75 39.75 L40.0 39.25 40.1 39.2 39.8 39.7 41.05 38.2 Q42.2 36.25 41.65 33.45 L41.6 33.2 41.5 33.45" fill="#9ec087" fill-rule="evenodd" stroke="none"/>
      <path d="M32.2 40.0 Q33.6 42.9 35.4 42.9 34.1 42.7 34.0 41.55 36.9 42.75 40.35 41.05 42.85 39.1 43.2 32.95 L43.3 35.45 Q43.1 39.55 41.2 41.6 39.65 43.1 37.5 43.15 L36.25 43.05 38.45 43.35 39.95 43.8 37.05 44.1 Q33.95 44.05 32.95 42.25 32.3 41.15 32.2 40.0" fill="#648a4a" fill-rule="evenodd" stroke="none"/>
      <path d="M41.5 33.45 L41.6 33.2 41.65 33.45 41.5 33.45" fill="#00632e" fill-rule="evenodd" stroke="none"/>
      <path d="M41.65 33.45 Q42.2 36.25 41.05 38.2 L39.8 39.7 40.1 39.2 40.0 39.25 39.75 39.75 Q39.15 40.5 38.3 40.65 37.2 40.85 36.15 39.95 34.9 39.0 35.85 37.65 L35.8 38.5 Q36.0 39.45 37.35 39.9 L38.35 40.1 38.35 40.0 38.45 38.8 Q38.5 37.05 37.05 36.15 35.55 35.2 34.05 36.75 33.3 37.6 32.85 38.55 32.9 36.7 33.8 35.75 L34.85 34.95 36.75 34.5 Q39.45 35.05 40.15 37.05 L40.25 37.65 Q41.1 36.5 41.45 34.75 L41.5 33.45 41.65 33.45 M40.1 39.2 L40.15 39.05 40.0 39.0 39.95 39.15 40.1 39.2" fill="#c0d6b1" fill-rule="evenodd" stroke="none"/>
      <path d="M40.1 39.2 L39.95 39.15 40.0 39.0 40.15 39.05 40.1 39.2" fill="#ccbf38" fill-rule="evenodd" stroke="none"/>
      <path d="M32.65 37.6 L32.7 37.6 32.55 38.0 32.65 37.6" fill="url(#gradient6)" fill-rule="evenodd" stroke="none"/>
    </g>
    <linearGradient gradientTransform="matrix(0.0, -0.025, -0.025, 0.0, 6.1, 31.55)" gradientUnits="userSpaceOnUse" id="gradient5" spreadMethod="pad" x1="-819.2" x2="819.2">
      <stop offset="0.011764705882352941" stop-color="#bed9a5"/>
      <stop offset="1.0" stop-color="#739416"/>
    </linearGradient>
    <linearGradient gradientTransform="matrix(0.0, -0.025, 0.025, 0.0, 37.9, 31.55)" gradientUnits="userSpaceOnUse" id="gradient6" spreadMethod="pad" x1="-819.2" x2="819.2">
      <stop offset="0.011764705882352941" stop-color="#bed9a5"/>
      <stop offset="1.0" stop-color="#739416"/>
    </linearGradient>
    <g id="sprite1" transform="matrix(1.0, 0.0, 0.0, 1.0, 0.2, 0.0)">
      <use height="8.6" transform="matrix(1.0, 0.0, 0.0, 1.0, -0.2, 0.0)" width="35.05" xlink:href="#shape3"/>
    </g>
    <g id="shape3" transform="matrix(1.0, 0.0, 0.0, 1.0, 0.2, 0.0)">
      <path d="M34.4 4.4 Q34.85 5.8 34.85 7.65 L34.85 8.6 Q34.8 6.95 34.4 5.7 33.0 1.3 27.2 1.3 L7.45 1.3 Q0.05 1.3 -0.2 8.5 L-0.2 7.65 Q-0.2 0.0 7.45 0.0 L27.2 0.0 Q33.0 0.0 34.4 4.4" fill="#e7deda" fill-rule="evenodd" stroke="none"/>
    </g>
  </defs>
</svg>
