<?xml version="1.0" encoding="UTF-8" standalone="no"?>
<svg xmlns:xlink="http://www.w3.org/1999/xlink" height="44.0px" width="44.0px" xmlns="http://www.w3.org/2000/svg">
  <g transform="matrix(1.0, 0.0, 0.0, 1.0, 0.0, 0.0)">
    <use height="44.0" transform="matrix(1.0, 0.0, 0.0, 1.0, 0.0, 0.0)" width="44.0" xlink:href="#shape0"/>
    <use height="8.6" transform="matrix(1.2076, 0.0, 0.0, 1.2091, 0.2585, 0.4)" width="35.05" xlink:href="#sprite0"/>
    <use height="20.15" transform="matrix(1.1548, 0.0, 0.0, 1.1564, 6.35, 5.7)" width="28.2" xlink:href="#sprite1"/>
    <use height="39.9" transform="matrix(1.0, 0.0, 0.0, 1.0, 1.8, 4.1)" width="40.55" xlink:href="#shape3"/>
  </g>
  <defs>
    <g id="shape0" transform="matrix(1.0, 0.0, 0.0, 1.0, 0.0, 0.0)">
      <path d="M26.6 13.35 Q25.95 13.35 25.95 12.75 25.95 12.25 26.6 12.25 27.2 12.25 27.2 12.75 27.2 13.35 26.6 13.35" fill="#664411" fill-rule="evenodd" stroke="none"/>
      <path d="M22.5 40.25 Q14.75 40.25 9.3 34.85 3.85 29.4 3.85 21.7 3.85 14.0 9.3 8.6 14.75 3.15 22.5 3.15 30.2 3.15 35.65 8.6 41.05 14.05 41.05 21.7 41.05 29.4 35.65 34.85 30.2 40.25 22.5 40.25" fill="url(#gradient0)" fill-rule="evenodd" stroke="none"/>
      <path d="M19.0 14.05 L19.05 14.05 19.05 13.85 Q19.9 9.8 22.05 7.55 23.7 9.3 24.5 13.15 L25.45 12.5 Q25.65 13.4 25.3 14.55 25.4 14.85 27.95 15.2 L25.7 17.05 Q25.75 19.6 25.45 21.05 L28.05 21.7 28.35 21.7 28.35 20.8 30.2 20.8 30.65 13.35 31.05 13.55 31.55 20.7 33.35 20.8 33.35 24.55 31.6 25.15 33.35 25.85 33.35 26.8 28.35 26.7 28.35 25.85 30.0 25.15 28.35 24.5 28.15 24.5 28.15 24.55 28.05 24.55 25.55 24.55 Q24.8 24.5 24.95 26.5 L24.95 31.0 26.2 31.0 26.2 32.5 28.45 32.5 28.45 33.4 29.1 33.4 29.1 34.3 30.1 34.3 30.1 33.05 30.9 33.05 30.9 32.5 31.95 32.5 31.95 28.9 29.7 28.9 29.7 29.95 30.35 29.95 30.35 29.45 31.4 29.45 31.4 30.5 28.65 30.5 28.65 28.2 32.9 28.2 32.9 29.95 34.25 29.95 34.25 31.3 35.25 31.3 35.25 30.5 36.2 30.5 36.2 31.3 36.25 31.3 36.25 31.5 Q36.2 33.4 35.65 34.2 L34.75 35.2 34.25 35.65 34.2 35.65 Q31.25 37.9 28.5 38.8 25.25 40.05 21.05 40.05 17.1 40.05 13.1 37.7 L11.8 36.9 Q11.45 36.55 11.2 36.5 9.2 34.95 8.6 33.4 L8.6 32.1 9.7 32.1 9.7 30.85 10.95 30.85 10.95 32.35 12.75 32.35 12.75 32.1 13.15 32.1 13.15 30.65 12.45 30.65 12.45 31.5 11.55 31.5 11.55 29.45 14.55 29.45 14.55 32.1 15.65 32.1 15.65 33.25 15.9 33.25 15.9 33.85 16.65 33.85 16.65 32.15 17.8 32.15 17.8 31.35 18.85 31.35 18.85 26.5 Q19.0 24.5 18.35 24.55 L15.8 24.55 15.55 24.6 15.55 24.55 15.3 24.55 15.3 25.9 10.2 25.9 10.2 20.8 15.3 20.8 15.3 21.7 15.55 21.7 Q16.9 21.7 18.4 21.0 18.15 20.0 18.25 18.5 L16.75 18.65 Q18.1 17.2 18.2 16.55 17.4 14.85 17.25 13.05 18.25 14.0 19.0 14.05 M20.15 16.65 Q19.7 16.65 19.4 16.95 19.0 17.3 18.95 18.05 18.9 18.75 19.15 19.25 L20.05 19.35 21.05 18.65 21.25 17.85 21.05 16.95 Q20.7 16.65 20.15 16.65 M21.1 24.35 L19.75 24.35 19.75 25.7 21.1 25.7 21.1 28.9 22.45 28.9 22.45 25.7 23.75 25.7 23.75 24.35 22.45 24.35 22.45 23.1 21.1 23.1 21.1 24.35 M11.05 28.45 L10.4 28.45 10.4 27.85 11.05 27.85 11.05 28.45 M16.6 30.7 L16.1 30.7 16.1 30.25 16.6 30.25 16.6 30.7 M15.4 27.55 L15.4 28.45 14.5 28.45 14.5 27.55 15.4 27.55 M22.9 16.9 Q22.55 17.25 22.55 17.75 22.55 18.3 22.9 18.6 L23.85 19.3 Q24.4 19.6 24.7 19.15 L24.9 18.0 24.55 16.9 Q24.25 16.6 23.7 16.6 23.25 16.6 22.9 16.9 M27.7 27.4 L27.7 27.7 27.4 27.7 27.4 27.4 27.7 27.4 M27.15 31.05 L27.15 30.35 27.85 30.35 27.85 31.05 27.15 31.05" fill="#372d2d" fill-rule="evenodd" stroke="none"/>
      <path d="M15.55 19.55 L15.6 19.55 15.55 19.6 15.55 19.55" fill="#5f3921" fill-rule="evenodd" stroke="none"/>
      <path d="M34.25 9.8 Q29.15 4.7 22.0 4.7 14.85 4.7 9.75 9.8 4.65 14.8 4.65 22.05 4.65 29.2 9.75 34.3 14.85 39.4 22.0 39.4 29.2 39.4 34.25 34.3 39.25 29.2 39.25 22.05 39.25 14.8 34.25 9.8 M2.2 2.25 Q4.45 0.0 7.55 0.0 L36.35 0.0 Q39.55 0.0 41.75 2.25 44.0 4.55 44.0 7.65 L44.0 36.45 Q44.0 39.55 41.75 41.8 39.55 44.0 36.35 44.0 L7.55 44.0 Q4.45 44.0 2.2 41.8 0.0 39.55 0.0 36.45 L0.0 7.65 Q0.0 4.55 2.2 2.25" fill="url(#gradient1)" fill-rule="evenodd" stroke="none"/>
      <path d="M21.95 5.55 Q15.0 5.65 10.2 10.5 5.3 15.35 5.3 22.2 5.3 29.15 10.2 34.05 15.0 38.85 21.95 38.85 28.75 38.85 33.65 34.05 38.55 29.15 38.55 22.2 38.55 15.35 33.65 10.5 28.8 5.65 21.95 5.55 M8.45 8.8 Q14.05 3.2 21.95 3.2 29.8 3.2 35.35 8.8 40.95 14.35 40.95 22.2 40.95 30.15 35.35 35.7 29.8 41.25 21.95 41.25 14.05 41.25 8.45 35.7 2.9 30.15 2.9 22.2 2.9 14.35 8.45 8.8" fill="url(#gradient2)" fill-rule="evenodd" stroke="none"/>
    </g>
    <linearGradient gradientTransform="matrix(0.0, -0.0173, -0.0173, 0.0, 22.45, 18.15)" gradientUnits="userSpaceOnUse" id="gradient0" spreadMethod="pad" x1="-819.2" x2="819.2">
      <stop offset="0.011764705882352941" stop-color="#c4bebb"/>
      <stop offset="1.0" stop-color="#9f8a82"/>
    </linearGradient>
    <linearGradient gradientTransform="matrix(0.0, -0.0275, -0.044, 0.0, 20.85, 22.2)" gradientUnits="userSpaceOnUse" id="gradient1" spreadMethod="pad" x1="-819.2" x2="819.2">
      <stop offset="0.0196078431372549" stop-color="#905a3d"/>
      <stop offset="0.9764705882352941" stop-color="#6a412d"/>
    </linearGradient>
    <linearGradient gradientTransform="matrix(0.0, -0.0168, -0.0168, 0.0, 21.9, 26.8)" gradientUnits="userSpaceOnUse" id="gradient2" spreadMethod="pad" x1="-819.2" x2="819.2">
      <stop offset="0.0196078431372549" stop-color="#a3704d"/>
      <stop offset="0.9803921568627451" stop-color="#492d20"/>
    </linearGradient>
    <g id="sprite0" transform="matrix(1.0, 0.0, 0.0, 1.0, 0.2, 0.0)">
      <use height="8.6" transform="matrix(1.0, 0.0, 0.0, 1.0, -0.2, 0.0)" width="35.05" xlink:href="#shape1"/>
    </g>
    <g id="shape1" transform="matrix(1.0, 0.0, 0.0, 1.0, 0.2, 0.0)">
      <path d="M34.4 4.4 Q34.85 5.8 34.85 7.65 L34.85 8.6 Q34.8 6.95 34.4 5.7 33.0 1.3 27.2 1.3 L7.45 1.3 Q0.05 1.3 -0.2 8.5 L-0.2 7.65 Q-0.2 0.0 7.45 0.0 L27.2 0.0 Q33.0 0.0 34.4 4.4" fill="#e7deda" fill-rule="evenodd" stroke="none"/>
    </g>
    <g id="sprite1" transform="matrix(1.0, 0.0, 0.0, 1.0, 0.0, 0.0)">
      <use height="20.15" transform="matrix(1.0, 0.0, 0.0, 1.0, 0.0, 0.0)" width="28.2" xlink:href="#shape2"/>
    </g>
    <g id="shape2" transform="matrix(1.0, 0.0, 0.0, 1.0, 0.0, 0.0)">
      <path d="M27.65 18.45 L27.4 18.95 Q26.2 20.8 23.4 19.8 19.6 18.5 17.35 14.05 14.8 9.1 9.75 7.4 4.1 5.65 0.0 10.3 1.0 6.85 3.7 4.15 7.2 0.65 11.9 0.05 L14.8 0.05 18.4 0.65 Q21.55 1.65 24.05 4.15 28.2 8.3 28.2 14.25 28.2 16.45 27.65 18.45" fill="#ffffff" fill-opacity="0.19607843" fill-rule="evenodd" stroke="none"/>
    </g>
    <g id="shape3" transform="matrix(1.0, 0.0, 0.0, 1.0, -1.8, -4.1)">
      <path d="M16.3 40.5 Q12.8 39.5 9.6 37.85 10.85 34.6 13.2 34.05 13.95 37.7 16.3 40.5 M30.25 34.05 Q32.6 34.6 33.9 37.9 30.7 39.6 27.35 40.5 29.0 38.45 29.8 35.85 L30.25 34.05" fill="url(#gradient3)" fill-rule="evenodd" stroke="none"/>
      <path d="M13.2 34.05 Q14.7 37.1 17.9 38.5 L16.3 40.5 Q13.95 37.7 13.2 34.05 M27.35 40.5 L25.55 38.5 Q28.75 37.1 30.25 34.05 L29.8 35.85 Q29.0 38.45 27.35 40.5" fill="#6d4a34" fill-rule="evenodd" stroke="none"/>
      <path d="M32.2 14.2 Q31.7 9.8 29.1 7.05 L30.85 5.3 31.05 5.85 31.5 7.5 Q32.25 10.95 32.2 14.2 M11.8 14.2 Q11.6 9.9 13.15 5.3 L14.9 7.05 Q12.3 9.8 11.8 14.2" fill="#492d20" fill-rule="evenodd" stroke="none"/>
      <path d="M31.05 5.85 L30.5 4.1 Q33.9 5.85 36.75 8.8 L36.85 8.9 Q36.0 12.95 32.2 14.2 32.25 10.95 31.5 7.5 L31.05 5.85 M11.8 14.2 Q7.95 12.95 7.15 9.0 L7.4 8.8 Q10.15 5.9 13.45 4.3 L13.15 5.3 Q11.6 9.9 11.8 14.2" fill="url(#gradient4)" fill-rule="evenodd" stroke="none"/>
      <path d="M1.9 33.55 L1.9 36.25 Q1.9 37.25 2.45 37.9 2.95 38.5 3.85 38.5 4.65 38.5 5.3 37.9 5.85 37.25 5.85 36.25 L5.85 35.0 M42.25 33.55 L42.25 36.25 Q42.25 37.25 41.65 37.9 41.15 38.5 40.3 38.5 39.45 38.5 38.85 37.9 38.25 37.25 38.25 36.25 L38.25 35.0" fill="none" stroke="#6a402d" stroke-linecap="round" stroke-linejoin="round" stroke-width="0.25"/>
      <path d="M4.6 11.15 L4.05 10.4 Q3.8 9.55 3.8 8.35 3.8 7.1 4.05 6.25 L4.6 5.5 Q4.9 5.65 5.05 6.25 5.4 7.1 5.4 8.35 5.4 9.55 5.05 10.4 L4.6 11.15 M39.45 5.5 L40.0 6.25 40.3 8.35 40.0 10.4 39.45 11.15 39.0 10.4 Q38.65 9.55 38.65 8.35 38.65 7.1 39.0 6.25 L39.45 5.5" fill="#331d16" fill-rule="evenodd" stroke="none"/>
      <path d="M4.6 5.5 L4.05 6.25 Q3.8 7.1 3.8 8.35 3.8 9.55 4.05 10.4 L4.6 11.15 4.25 11.3 Q3.75 11.3 3.4 10.4 3.1 9.55 3.1 8.35 3.1 7.1 3.4 6.25 3.75 5.4 4.25 5.4 L4.6 5.5 M39.45 5.5 L39.8 5.4 Q40.35 5.4 40.7 6.25 L40.95 8.35 40.7 10.4 Q40.35 11.3 39.8 11.3 L39.45 11.15 40.0 10.4 40.3 8.35 40.0 6.25 39.45 5.5" fill="#1a0d09" fill-rule="evenodd" stroke="none"/>
      <path d="M4.6 11.15 L5.05 10.4 Q5.4 9.55 5.4 8.35 5.4 7.1 5.05 6.25 4.9 5.65 4.6 5.5 L4.25 5.4 Q3.75 5.4 3.4 6.25 3.1 7.1 3.1 8.35 3.1 9.55 3.4 10.4 3.75 11.3 4.25 11.3 L4.6 11.15 M39.45 11.15 L39.8 11.3 Q40.35 11.3 40.7 10.4 L40.95 8.35 40.7 6.25 Q40.35 5.4 39.8 5.4 L39.45 5.5 M39.45 11.15 L39.0 10.4 Q38.65 9.55 38.65 8.35 38.65 7.1 39.0 6.25 L39.45 5.5" fill="none" stroke="#6a402d" stroke-linecap="round" stroke-linejoin="round" stroke-width="0.05"/>
      <path d="M31.95 44.0 L12.15 44.0 Q12.9 43.65 14.5 43.25 L22.05 42.7 29.55 43.25 31.95 44.0" fill="#6c432e" fill-rule="evenodd" stroke="none"/>
    </g>
    <linearGradient gradientTransform="matrix(0.0, -0.0275, -0.0439, 0.0, 20.65, 21.95)" gradientUnits="userSpaceOnUse" id="gradient3" spreadMethod="pad" x1="-819.2" x2="819.2">
      <stop offset="0.0196078431372549" stop-color="#905a3d"/>
      <stop offset="0.9764705882352941" stop-color="#6a412d"/>
    </linearGradient>
    <linearGradient gradientTransform="matrix(0.0, -0.0275, -0.0439, 0.0, 20.65, 21.95)" gradientUnits="userSpaceOnUse" id="gradient4" spreadMethod="pad" x1="-819.2" x2="819.2">
      <stop offset="0.0196078431372549" stop-color="#905a3d"/>
      <stop offset="0.9764705882352941" stop-color="#6a412d"/>
    </linearGradient>
  </defs>
</svg>
