<?xml version="1.0" encoding="UTF-8" standalone="no"?>
<svg xmlns:xlink="http://www.w3.org/1999/xlink" height="44.0px" width="44.05px" xmlns="http://www.w3.org/2000/svg">
  <g transform="matrix(1.0, 0.0, 0.0, 1.0, 0.05, -0.05)">
    <use height="43.95" transform="matrix(1.0, 0.0, 0.0, 1.0, -0.05, 0.05)" width="44.05" xlink:href="#shape0"/>
    <use height="0.0" transform="matrix(1.2077, 0.0, 0.0, 1.2077, 0.75, 0.8)" width="0.0" xlink:href="#sprite0"/>
    <use height="20.7" transform="matrix(1.2077, 0.0, 0.0, 1.2077, 0.55, 19.05)" width="7.3" xlink:href="#sprite1"/>
    <use height="24.05" transform="matrix(1.0, 0.0, 0.0, 1.0, 1.15, 18.6)" width="8.5" xlink:href="#shape2"/>
    <use height="12.1" transform="matrix(1.2077, 0.0, 0.0, 1.2077, 2.0396, 27.55)" width="5.7" xlink:href="#sprite2"/>
    <use height="18.7" transform="matrix(1.1919, 0.0, 0.0, 1.1919, 1.1, 18.3)" width="5.7" xlink:href="#sprite3"/>
    <use height="7.0" transform="matrix(1.1919, 0.0, 0.0, 1.1919, 3.05, 32.3904)" width="3.35" xlink:href="#sprite4"/>
    <use height="22.75" transform="matrix(1.0, 0.0, 0.0, 1.0, 1.8, 19.0)" width="7.0" xlink:href="#shape6"/>
    <use height="11.6" transform="matrix(1.1919, 0.0, 0.0, 1.1919, 1.0, 29.7)" width="6.9" xlink:href="#sprite5"/>
    <use height="11.1" transform="matrix(1.1919, 0.0, 0.0, 1.1919, 1.25, 29.7)" width="6.45" xlink:href="#sprite6"/>
    <use height="11.8" transform="matrix(1.1919, 0.0, 0.0, 1.1919, 1.0, 28.4)" width="6.5" xlink:href="#sprite7"/>
    <use height="18.7" transform="matrix(1.1919, 0.0, 0.0, 1.1919, 35.4, 18.3)" width="5.7" xlink:href="#sprite8"/>
    <use height="7.0" transform="matrix(1.1919, 0.0, 0.0, 1.1919, 36.2, 32.3904)" width="3.35" xlink:href="#sprite9"/>
    <use height="22.8" transform="matrix(1.0, 0.0, 0.0, 1.0, 34.55, 19.0)" width="7.05" xlink:href="#shape12"/>
    <use height="11.6" transform="matrix(1.1919, 0.0, 0.0, 1.1919, 33.9904, 29.7)" width="6.9" xlink:href="#sprite10"/>
    <use height="11.1" transform="matrix(1.1919, 0.0, 0.0, 1.1919, 34.4096, 29.7)" width="6.35" xlink:href="#sprite11"/>
    <use height="11.8" transform="matrix(1.1919, 0.0, 0.0, 1.1919, 34.5596, 28.4)" width="6.45" xlink:href="#sprite12"/>
    <use height="8.6" transform="matrix(1.2077, 0.0, 0.0, 1.2065, 0.7585, 0.8)" width="35.05" xlink:href="#sprite13"/>
    <use height="20.15" transform="matrix(1.1594, 0.0, 0.0, 1.1605, 5.95, 5.65)" width="28.2" xlink:href="#sprite14"/>
  </g>
  <defs>
    <g id="shape0" transform="matrix(1.0, 0.0, 0.0, 1.0, 0.05, -0.05)">
      <path d="M21.75 2.3 Q30.1 2.3 36.0 8.2 41.95 14.15 41.95 22.45 41.95 30.8 36.0 36.7 30.1 42.65 21.75 42.65 13.4 42.65 7.5 36.7 1.6 30.8 1.6 22.45 1.6 14.15 7.5 8.2 13.4 2.3 21.75 2.3" fill="url(#gradient0)" fill-rule="evenodd" stroke="none"/>
      <path d="M19.05 21.9 L19.05 26.3 22.1 27.1 25.0 26.3 25.0 21.9 28.9 20.55 28.9 15.6 33.1 16.75 Q33.3 16.55 33.65 16.5 L34.4 16.65 Q34.7 16.9 34.8 17.3 34.85 17.7 33.05 21.1 31.2 24.5 28.4 27.55 L25.25 30.75 25.2 30.75 23.5 33.05 22.4 33.7 22.05 33.7 21.65 33.7 20.55 33.05 18.9 30.75 18.85 30.75 18.2 30.35 Q13.0 25.05 9.5 18.05 9.25 17.7 9.35 17.3 9.4 16.85 9.75 16.65 10.05 16.4 10.5 16.5 10.8 16.55 11.0 16.75 L15.15 15.6 15.15 20.55 19.05 21.9 M25.65 33.35 L25.35 33.55 24.95 33.45 24.75 33.15 24.85 32.75 Q32.1 25.55 35.45 18.35 35.55 18.2 35.8 18.15 L36.15 18.25 36.35 18.6 36.25 18.95 34.95 21.95 Q32.7 26.35 29.15 30.15 L28.65 30.65 27.65 31.6 25.65 33.35 M28.3 32.85 Q33.75 27.65 36.75 21.35 L37.0 21.2 37.35 21.25 37.5 21.55 37.4 21.85 Q34.65 28.55 28.95 33.35 L28.65 33.5 28.35 33.45 28.2 33.2 28.3 32.85 M15.8 32.85 L15.9 33.2 15.75 33.45 15.45 33.5 15.15 33.35 Q9.45 28.55 6.7 21.85 L6.6 21.55 6.75 21.25 7.1 21.2 7.35 21.35 Q10.35 27.65 15.8 32.85 M19.2 32.75 L19.3 33.15 19.1 33.45 18.75 33.55 18.4 33.35 Q11.25 27.35 7.8 18.95 L7.7 18.6 7.9 18.25 8.3 18.15 8.6 18.35 Q12.35 26.2 19.2 32.75 M23.1 30.7 L22.85 31.35 22.8 31.4 22.55 31.6 22.15 31.65 Q21.75 31.65 21.45 31.35 L21.2 30.7 21.25 30.35 21.45 30.05 21.5 30.0 Q21.75 29.75 22.15 29.75 22.55 29.75 22.8 30.0 L23.1 30.7 M23.5 32.1 L23.55 32.05 Q24.1 31.5 24.1 30.7 24.1 29.9 23.5 29.3 22.95 28.75 22.15 28.75 21.35 28.75 20.8 29.3 L20.75 29.35 20.65 29.5 Q20.2 30.0 20.2 30.7 20.2 31.5 20.75 32.05 21.35 32.65 22.15 32.65 L23.15 32.4 23.5 32.1" fill="#2e5d6b" fill-rule="evenodd" stroke="none"/>
      <path d="M39.25 22.05 Q39.25 14.85 34.2 9.8 29.1 4.7 22.0 4.7 14.8 4.7 9.75 9.8 4.65 14.85 4.65 22.05 4.65 29.2 9.75 34.3 14.8 39.35 22.0 39.35 29.2 39.35 34.2 34.3 39.25 29.2 39.25 22.05 M41.75 2.3 Q44.0 4.55 44.0 7.65 L44.0 36.4 Q44.0 39.55 41.75 41.8 39.5 44.0 36.35 44.0 L7.55 44.0 Q4.45 44.0 2.2 41.8 -0.05 39.55 -0.05 36.4 L-0.05 7.65 Q-0.05 4.55 2.2 2.3 4.45 0.05 7.55 0.05 L36.35 0.05 Q39.5 0.05 41.75 2.3" fill="url(#gradient1)" fill-rule="evenodd" stroke="none"/>
      <path d="M8.4 8.85 Q14.0 3.25 21.95 3.25 29.8 3.25 35.35 8.85 40.95 14.4 40.95 22.25 40.95 30.15 35.35 35.7 29.8 41.25 21.95 41.25 14.0 41.25 8.4 35.7 2.9 30.15 2.9 22.25 2.9 14.4 8.4 8.85 M5.3 22.25 Q5.3 29.15 10.2 34.05 15.0 38.85 21.95 38.85 28.75 38.85 33.65 34.05 38.55 29.15 38.55 22.25 38.55 15.35 33.65 10.5 28.8 5.65 21.95 5.6 15.0 5.65 10.2 10.5 5.3 15.35 5.3 22.25" fill="url(#gradient2)" fill-rule="evenodd" stroke="none"/>
    </g>
    <linearGradient gradientTransform="matrix(0.0, -0.0189, -0.0189, 0.0, 21.75, 18.65)" gradientUnits="userSpaceOnUse" id="gradient0" spreadMethod="pad" x1="-819.2" x2="819.2">
      <stop offset="0.011764705882352941" stop-color="#b3f9e4"/>
      <stop offset="1.0" stop-color="#5bbbff"/>
    </linearGradient>
    <linearGradient gradientTransform="matrix(0.0, -0.044, -0.044, 0.0, 22.0, -1.15)" gradientUnits="userSpaceOnUse" id="gradient1" spreadMethod="pad" x1="-819.2" x2="819.2">
      <stop offset="0.011764705882352941" stop-color="#90d1d1"/>
      <stop offset="0.9764705882352941" stop-color="#003459"/>
    </linearGradient>
    <linearGradient gradientTransform="matrix(0.0, -0.0168, -0.0168, 0.0, 21.9, 26.85)" gradientUnits="userSpaceOnUse" id="gradient2" spreadMethod="pad" x1="-819.2" x2="819.2">
      <stop offset="0.011764705882352941" stop-color="#dbf7ff"/>
      <stop offset="0.9764705882352941" stop-color="#384759"/>
    </linearGradient>
    <g id="sprite1" transform="matrix(1.0, 0.0, 0.0, 1.0, 0.0, 0.0)">
      <use height="20.7" transform="matrix(1.0, 0.0, 0.0, 1.0, 0.0, 0.0)" width="7.3" xlink:href="#shape1"/>
    </g>
    <g id="shape1" transform="matrix(1.0, 0.0, 0.0, 1.0, 0.0, 0.0)">
      <path d="M1.5 3.3 Q1.25 4.9 1.35 6.95 1.55 10.95 3.35 13.0 L6.75 16.9 Q7.8 18.5 6.9 19.6 5.25 21.5 2.85 20.1 -0.1 18.35 0.0 11.65 0.1 5.2 1.1 1.95 1.6 0.35 2.05 0.0 L1.5 3.3" fill="#6c6a85" fill-rule="evenodd" stroke="none"/>
    </g>
    <g id="shape2" transform="matrix(1.0, 0.0, 0.0, 1.0, -1.15, -18.6)">
      <path d="M2.75 21.5 L2.65 25.85 Q3.1 30.75 5.15 33.25 L9.0 38.1 Q10.3 40.1 9.05 41.4 7.0 43.65 4.2 41.8 0.75 39.55 1.2 31.45 1.7 23.75 2.5 20.4 L3.15 18.6 2.75 21.5" fill="url(#gradient3)" fill-rule="evenodd" stroke="none"/>
    </g>
    <linearGradient gradientTransform="matrix(0.0, -0.0105, -0.0105, 0.0, 5.35, 33.35)" gradientUnits="userSpaceOnUse" id="gradient3" spreadMethod="pad" x1="-819.2" x2="819.2">
      <stop offset="0.011764705882352941" stop-color="#dbf7ff"/>
      <stop offset="0.9764705882352941" stop-color="#384759"/>
    </linearGradient>
    <g id="sprite2" transform="matrix(1.0, 0.0, 0.0, 1.0, 0.05, 0.0)">
      <use height="12.1" transform="matrix(1.0, 0.0, 0.0, 1.0, -0.05, 0.0)" width="5.7" xlink:href="#shape3"/>
    </g>
    <g id="shape3" transform="matrix(1.0, 0.0, 0.0, 1.0, 0.05, 0.0)">
      <path d="M1.45 10.9 Q3.25 11.3 3.25 9.75 3.25 8.85 2.15 7.35 L0.45 4.75 Q-0.3 2.9 0.1 0.0 0.15 0.9 0.5 2.05 1.15 4.35 2.45 5.8 L5.15 8.65 Q6.15 9.9 5.1 11.0 2.85 13.25 1.45 10.9" fill="#f2f2f2" fill-rule="evenodd" stroke="none"/>
    </g>
    <g id="sprite3" transform="matrix(1.0, 0.0, 0.0, 1.0, 0.0, 0.0)">
      <use height="18.7" transform="matrix(1.0, 0.0, 0.0, 1.0, 0.0, 0.0)" width="5.7" xlink:href="#shape4"/>
    </g>
    <g id="shape4" transform="matrix(1.0, 0.0, 0.0, 1.0, 0.0, 0.0)">
      <path d="M1.65 11.9 Q1.55 10.8 0.55 8.3 -0.4 5.85 0.25 2.65 0.6 1.1 1.1 0.0 L0.5 2.55 Q0.05 5.55 0.95 8.0 1.6 9.8 3.55 11.35 5.25 12.65 5.55 14.75 5.9 17.2 5.3 18.15 L4.6 18.55 Q3.45 19.2 2.4 16.85 1.55 14.9 1.55 13.5 L1.65 11.9" fill="#ffffff" fill-rule="evenodd" stroke="none"/>
    </g>
    <g id="sprite4" transform="matrix(1.0, 0.0, 0.0, 1.0, 0.0, 0.05)">
      <use height="7.0" transform="matrix(1.0, 0.0, 0.0, 1.0, 0.0, -0.05)" width="3.35" xlink:href="#shape5"/>
    </g>
    <g id="shape5" transform="matrix(1.0, 0.0, 0.0, 1.0, 0.0, 0.05)">
      <path d="M2.3 5.7 Q2.05 4.1 0.65 2.6 -0.4 1.45 0.2 0.4 0.8 -0.6 2.05 0.6 3.35 1.8 3.35 4.25 3.35 6.7 2.05 6.95 2.9 6.45 2.3 5.7" fill="#ffffff" fill-rule="evenodd" stroke="none"/>
    </g>
    <g id="shape6" transform="matrix(1.0, 0.0, 0.0, 1.0, -1.85, -18.95)">
      <path d="M3.95 34.45 L3.65 33.7 Q3.6 32.85 4.6 32.85 6.15 32.85 5.9 35.5 L5.1 34.1 Q4.2 33.05 3.95 34.45" fill="#ffffff" fill-rule="evenodd" stroke="none"/>
      <path d="M3.55 28.2 L5.45 30.6 Q7.05 32.2 7.7 33.35 9.3 36.1 8.7 39.4 8.6 40.15 8.05 40.7 6.9 41.95 4.55 41.6 L6.3 41.25 Q8.0 40.3 7.85 37.15 7.65 34.55 5.2 31.8 2.6 28.9 2.15 26.6 1.65 23.5 1.95 20.95 L2.35 18.95 2.3 22.75 Q2.4 26.7 3.55 28.2" fill="#bbded6" fill-rule="evenodd" stroke="none"/>
    </g>
    <g id="sprite5" transform="matrix(1.0, 0.0, 0.0, 1.0, 0.0, 0.0)">
      <use height="11.6" transform="matrix(1.0, 0.0, 0.0, 1.0, 0.0, 0.0)" width="6.9" xlink:href="#shape7"/>
    </g>
    <g id="shape7" transform="matrix(1.0, 0.0, 0.0, 1.0, 0.0, 0.0)">
      <path d="M0.0 4.95 Q0.0 2.4 0.35 0.0 0.5 4.25 0.85 6.75 1.1 8.3 2.25 9.5 L3.35 10.4 Q5.95 10.25 6.3 7.5 6.45 6.1 6.1 4.75 7.75 7.6 6.05 10.0 4.4 12.4 2.0 11.15 0.05 10.1 0.0 4.95" fill="#bbded6" fill-rule="evenodd" stroke="none"/>
    </g>
    <g id="sprite6" transform="matrix(1.0, 0.0, 0.0, 1.0, 0.0, 0.0)">
      <use height="11.1" transform="matrix(1.0, 0.0, 0.0, 1.0, 0.0, 0.0)" width="6.45" xlink:href="#shape8"/>
    </g>
    <g id="shape8" transform="matrix(1.0, 0.0, 0.0, 1.0, 0.0, 0.0)">
      <path d="M0.45 5.0 Q1.15 10.05 3.15 10.4 L4.6 10.1 Q6.1 9.4 6.3 7.2 L6.3 6.25 Q6.6 7.3 6.35 8.45 5.85 10.7 3.3 11.1 2.3 11.25 1.35 9.9 -0.45 7.25 0.15 0.0 0.1 2.45 0.45 5.0" fill="#bbded6" fill-rule="evenodd" stroke="none"/>
    </g>
    <g id="sprite7" transform="matrix(1.0, 0.0, 0.0, 1.0, 0.0, 0.0)">
      <use height="11.8" transform="matrix(1.0, 0.0, 0.0, 1.0, 0.0, 0.0)" width="6.5" xlink:href="#shape9"/>
    </g>
    <g id="shape9" transform="matrix(1.0, 0.0, 0.0, 1.0, 0.0, 0.0)">
      <path d="M0.0 0.0 Q0.4 0.55 0.4 1.45 0.4 4.65 0.65 6.45 1.25 10.9 3.1 11.35 L4.2 11.4 Q5.4 11.25 6.1 10.2 L6.5 8.75 6.45 9.5 Q6.15 10.85 5.0 11.45 4.5 11.8 3.8 11.8 2.45 11.75 1.4 10.05 0.4 7.35 0.3 3.6 L0.25 0.8 0.0 0.0" fill="#306b5e" fill-rule="evenodd" stroke="none"/>
    </g>
    <g id="sprite8" transform="matrix(1.0, 0.0, 0.0, 1.0, 0.0, 0.0)">
      <use height="18.7" transform="matrix(1.0, 0.0, 0.0, 1.0, 0.0, 0.0)" width="5.7" xlink:href="#shape10"/>
    </g>
    <g id="shape10" transform="matrix(1.0, 0.0, 0.0, 1.0, 0.0, 0.0)">
      <path d="M4.05 11.9 L4.15 13.5 Q4.15 14.9 3.3 16.85 2.25 19.2 1.1 18.55 0.75 18.6 0.4 18.15 -0.2 17.2 0.15 14.75 0.45 12.65 2.15 11.35 4.1 9.8 4.75 8.0 5.65 5.55 5.2 2.55 5.0 1.05 4.6 0.0 L5.45 2.65 Q6.1 5.85 5.15 8.3 4.15 10.8 4.05 11.9" fill="#ffffff" fill-rule="evenodd" stroke="none"/>
    </g>
    <g id="sprite9" transform="matrix(1.0, 0.0, 0.0, 1.0, 0.0, 0.05)">
      <use height="7.0" transform="matrix(1.0, 0.0, 0.0, 1.0, 0.0, -0.05)" width="3.35" xlink:href="#shape11"/>
    </g>
    <g id="shape11" transform="matrix(1.0, 0.0, 0.0, 1.0, 0.0, 0.05)">
      <path d="M1.05 5.7 Q0.45 6.45 1.3 6.95 0.0 6.7 0.0 4.25 0.0 1.8 1.3 0.6 2.55 -0.6 3.15 0.4 3.75 1.45 2.7 2.6 1.3 4.1 1.05 5.7" fill="#ffffff" fill-rule="evenodd" stroke="none"/>
    </g>
    <g id="shape12" transform="matrix(1.0, 0.0, 0.0, 1.0, -34.6, -18.95)">
      <path d="M39.6 34.45 Q39.35 33.05 38.4 34.1 L37.55 35.5 37.65 34.15 Q37.9 32.85 38.95 32.85 40.5 32.85 39.6 34.45" fill="#ffffff" fill-rule="evenodd" stroke="none"/>
      <path d="M39.95 28.2 Q41.1 26.7 41.2 22.75 L41.15 18.95 41.55 20.95 Q41.85 23.5 41.3 26.6 40.9 28.9 38.3 31.8 35.85 34.55 35.65 37.15 35.5 40.3 37.2 41.25 L38.65 41.7 Q36.55 41.9 35.4 40.7 L34.75 39.4 Q34.15 36.1 35.8 33.35 36.45 32.2 38.05 30.6 L39.95 28.2" fill="#bbded6" fill-rule="evenodd" stroke="none"/>
    </g>
    <g id="sprite10" transform="matrix(1.0, 0.0, 0.0, 1.0, 0.05, 0.0)">
      <use height="11.6" transform="matrix(1.0, 0.0, 0.0, 1.0, -0.05, 0.0)" width="6.9" xlink:href="#shape13"/>
    </g>
    <g id="shape13" transform="matrix(1.0, 0.0, 0.0, 1.0, 0.05, 0.0)">
      <path d="M0.8 10.0 Q-0.9 7.6 0.75 4.75 0.4 6.1 0.55 7.5 0.9 10.25 3.5 10.4 L4.6 9.5 Q5.75 8.3 6.0 6.75 6.35 4.25 6.5 0.0 6.9 2.4 6.85 4.95 6.8 10.1 4.85 11.15 2.45 12.4 0.8 10.0" fill="#bbded6" fill-rule="evenodd" stroke="none"/>
    </g>
    <g id="sprite11" transform="matrix(1.0, 0.0, 0.0, 1.0, -0.05, 0.0)">
      <use height="11.1" transform="matrix(1.0, 0.0, 0.0, 1.0, 0.05, 0.0)" width="6.35" xlink:href="#shape14"/>
    </g>
    <g id="shape14" transform="matrix(1.0, 0.0, 0.0, 1.0, -0.05, 0.0)">
      <path d="M5.95 5.0 Q6.3 2.45 6.25 0.0 6.85 7.25 5.05 9.9 4.15 11.25 3.1 11.1 0.55 10.7 0.05 8.45 L0.1 6.25 0.1 7.2 Q0.3 9.4 1.8 10.1 L3.25 10.4 Q5.25 10.05 5.95 5.0" fill="#bbded6" fill-rule="evenodd" stroke="none"/>
    </g>
    <g id="sprite12" transform="matrix(1.0, 0.0, 0.0, 1.0, -0.05, 0.0)">
      <use height="11.8" transform="matrix(1.0, 0.0, 0.0, 1.0, 0.05, 0.0)" width="6.45" xlink:href="#shape15"/>
    </g>
    <g id="shape15" transform="matrix(1.0, 0.0, 0.0, 1.0, -0.05, 0.0)">
      <path d="M6.5 0.0 L6.3 0.8 6.2 3.6 Q6.1 7.35 5.1 10.05 4.05 11.75 2.7 11.8 2.0 11.8 1.5 11.45 0.4 10.85 0.1 9.5 L0.05 8.95 0.4 10.2 Q1.1 11.25 2.3 11.4 L3.4 11.35 Q5.25 10.9 5.85 6.45 L6.1 1.45 Q6.1 0.55 6.5 0.0" fill="#306b5e" fill-rule="evenodd" stroke="none"/>
    </g>
    <g id="sprite13" transform="matrix(1.0, 0.0, 0.0, 1.0, 0.2, 0.0)">
      <use height="8.6" transform="matrix(1.0, 0.0, 0.0, 1.0, -0.2, 0.0)" width="35.05" xlink:href="#shape16"/>
    </g>
    <g id="shape16" transform="matrix(1.0, 0.0, 0.0, 1.0, 0.2, 0.0)">
      <path d="M34.4 4.4 Q34.85 5.8 34.85 7.65 L34.85 8.6 Q34.8 6.95 34.4 5.7 33.0 1.3 27.2 1.3 L7.45 1.3 Q0.05 1.3 -0.2 8.5 L-0.2 7.65 Q-0.2 0.0 7.45 0.0 L27.2 0.0 Q33.0 0.0 34.4 4.4" fill="#e7deda" fill-rule="evenodd" stroke="none"/>
    </g>
    <g id="sprite14" transform="matrix(1.0, 0.0, 0.0, 1.0, 0.0, 0.0)">
      <use height="20.15" transform="matrix(1.0, 0.0, 0.0, 1.0, 0.0, 0.0)" width="28.2" xlink:href="#shape17"/>
    </g>
    <g id="shape17" transform="matrix(1.0, 0.0, 0.0, 1.0, 0.0, 0.0)">
      <path d="M27.65 18.45 L27.4 18.95 Q26.2 20.8 23.4 19.8 19.6 18.5 17.35 14.05 14.8 9.1 9.75 7.4 4.1 5.65 0.0 10.3 1.0 6.85 3.7 4.15 7.2 0.65 11.9 0.05 L14.8 0.05 18.4 0.65 Q21.55 1.65 24.05 4.15 28.2 8.3 28.2 14.25 28.2 16.45 27.65 18.45" fill="#ffffff" fill-opacity="0.19607843" fill-rule="evenodd" stroke="none"/>
    </g>
  </defs>
</svg>
