<?xml version="1.0" encoding="UTF-8" standalone="no"?>
<svg xmlns:xlink="http://www.w3.org/1999/xlink" height="30.0px" width="30.0px" xmlns="http://www.w3.org/2000/svg">
  <g transform="matrix(1.0, 0.0, 0.0, 1.0, 15.0, 30.0)">
    <use height="30.0" transform="matrix(1.0, 0.0, 0.0, 1.0, -15.0, -30.0)" width="30.0" xlink:href="#shape0"/>
  </g>
  <defs>
    <g id="shape0" transform="matrix(1.0, 0.0, 0.0, 1.0, 15.0, 30.0)">
      <path d="M15.0 -14.95 Q14.95 -8.8 10.55 -4.4 6.2 -0.05 0.0 0.0 L-1.5 -0.05 -1.55 -0.05 Q-5.2 -0.45 -8.2 -2.5 -8.7 -2.75 -9.1 -3.15 L-9.4 -3.35 -10.6 -4.45 Q-14.1 -8.25 -14.7 -12.05 L-15.0 -15.0 Q-15.0 -21.25 -10.6 -25.65 -6.25 -30.0 -0.1 -30.0 6.15 -30.0 10.55 -25.65 L11.55 -24.55 11.55 -24.5 Q15.0 -20.45 15.0 -14.95" fill="#ffffff" fill-rule="evenodd" stroke="none"/>
      <path d="M11.65 -9.75 Q10.7 -7.65 8.9 -5.85 5.1 -2.05 -0.2 -2.05 -5.5 -2.05 -9.25 -5.85 -10.5 -7.1 -11.4 -8.5 -13.05 -11.35 -13.05 -14.9 -13.05 -20.25 -9.25 -24.05 -5.5 -27.8 -0.2 -27.8 5.1 -27.8 8.9 -24.05 12.65 -20.25 12.65 -14.9 12.65 -12.15 11.65 -9.75" fill="url(#gradient0)" fill-rule="evenodd" stroke="none"/>
      <path d="M6.05 -20.8 Q6.05 -19.55 5.3 -18.45 4.55 -17.35 3.85 -17.35 L2.9 -17.6 Q2.5 -17.9 2.5 -18.4 2.5 -18.85 3.1 -19.4 L3.1 -19.25 Q2.95 -19.0 2.95 -18.75 L3.0 -18.35 3.35 -18.3 3.35 -18.35 Q4.25 -18.95 3.7 -20.7 1.8 -21.5 1.25 -20.1 0.65 -18.85 2.05 -17.2 5.2 -14.7 5.1 -10.5 3.95 -4.55 -1.65 -5.3 -6.1 -7.1 -4.75 -11.8 L-4.0 -9.75 Q-3.3 -8.55 -2.6 -8.15 L-0.05 -7.85 Q1.75 -8.0 2.2 -8.85 2.95 -10.15 3.05 -11.95 3.2 -14.2 2.1 -15.45 1.0 -16.7 0.1 -16.7 L-1.1 -16.05 Q-1.6 -15.45 -1.5 -14.75 -1.35 -14.05 -0.55 -13.9 1.15 -13.75 1.4 -14.4 1.3 -13.9 0.8 -13.35 -0.25 -12.1 -1.75 -12.4 -3.45 -12.6 -4.0 -14.0 -4.5 -15.1 -3.95 -16.3 -3.45 -17.35 -2.65 -17.75 -3.8 -17.75 -4.7 -18.55 -5.65 -19.4 -5.65 -20.55 L-5.35 -24.7 Q-5.35 -25.75 -5.6 -25.9 L-5.6 -26.0 Q-3.75 -22.7 -2.1 -21.6 L0.2 -19.7 -0.15 -22.2 0.0 -23.0 Q0.35 -23.7 0.85 -24.0 1.75 -24.55 2.95 -24.55 4.2 -24.55 5.15 -23.35 6.1 -22.1 6.05 -20.8 M-2.85 -19.4 Q-1.4 -18.3 -1.35 -18.0 L-0.3 -18.3 Q-0.55 -19.1 -2.6 -20.35 -4.15 -21.25 -4.15 -22.25 L-4.25 -21.45 Q-4.25 -20.35 -2.85 -19.4" fill="#ffffff" fill-rule="evenodd" stroke="none"/>
    </g>
    <radialGradient cx="0" cy="0" gradientTransform="matrix(0.0206, 0.0, 0.0, 0.0206, -0.25, -14.95)" gradientUnits="userSpaceOnUse" id="gradient0" r="819.2" spreadMethod="pad">
      <stop offset="0.3607843137254902" stop-color="#ff99cc"/>
      <stop offset="1.0" stop-color="#cc0099"/>
    </radialGradient>
  </defs>
</svg>
