<?xml version="1.0" encoding="UTF-8" standalone="no"?>
<svg xmlns:xlink="http://www.w3.org/1999/xlink" height="30.0px" width="30.0px" xmlns="http://www.w3.org/2000/svg">
  <g transform="matrix(1.0, 0.0, 0.0, 1.0, 15.0, 30.0)">
    <use height="30.0" transform="matrix(1.0, 0.0, 0.0, 1.0, -15.0, -30.0)" width="30.0" xlink:href="#shape0"/>
  </g>
  <defs>
    <g id="shape0" transform="matrix(1.0, 0.0, 0.0, 1.0, 15.0, 30.0)">
      <path d="M11.55 -24.5 Q15.0 -20.45 15.0 -14.95 14.95 -8.8 10.55 -4.4 6.2 -0.05 0.0 0.0 L-1.5 -0.05 -1.55 -0.05 Q-5.2 -0.45 -8.2 -2.5 -8.7 -2.75 -9.1 -3.15 L-9.4 -3.35 -10.6 -4.45 Q-14.1 -8.25 -14.7 -12.05 L-15.0 -15.0 Q-15.0 -21.25 -10.6 -25.65 -6.25 -30.0 -0.1 -30.0 6.15 -30.0 10.55 -25.65 L11.55 -24.55 11.55 -24.5" fill="#ffffff" fill-rule="evenodd" stroke="none"/>
      <path d="M12.6 -14.95 Q12.6 -12.2 11.6 -9.8 10.65 -7.7 8.85 -5.9 5.05 -2.1 -0.25 -2.1 -5.55 -2.1 -9.3 -5.9 -10.55 -7.15 -11.45 -8.55 -13.1 -11.4 -13.1 -14.95 -13.1 -20.3 -9.3 -24.1 -5.55 -27.85 -0.25 -27.85 5.05 -27.85 8.85 -24.1 12.6 -20.3 12.6 -14.95" fill="url(#gradient0)" fill-rule="evenodd" stroke="none"/>
      <path d="M-0.95 -21.2 Q-0.7 -20.85 -0.7 -20.4 L-0.8 -19.65 -1.2 -18.85 -3.1 -15.2 -0.85 -11.3 Q-0.35 -10.3 -0.35 -9.65 -0.35 -9.05 -0.65 -8.7 -0.9 -8.4 -1.35 -8.4 L-1.8 -8.5 -2.15 -8.8 -2.35 -9.1 -2.65 -9.65 -4.45 -13.15 -6.1 -9.95 -6.6 -8.95 -6.9 -8.55 Q-7.1 -8.4 -7.5 -8.4 L-8.0 -8.55 -8.4 -9.0 -8.5 -9.65 -8.4 -10.35 -7.9 -11.35 -5.9 -15.2 -7.8 -18.75 Q-8.35 -19.75 -8.35 -20.4 L-8.1 -21.15 Q-7.8 -21.5 -7.35 -21.5 L-6.95 -21.4 -6.6 -21.1 -6.3 -20.65 -6.05 -20.05 -4.5 -17.05 -3.1 -19.95 -2.45 -21.15 Q-2.15 -21.5 -1.7 -21.5 -1.25 -21.5 -0.95 -21.2" fill="#ffffff" fill-rule="evenodd" stroke="none"/>
      <path d="M1.65 -20.9 L2.35 -19.75 4.85 -10.35 Q5.05 -9.55 4.8 -9.0 4.7 -8.55 4.15 -8.4 3.65 -8.25 3.25 -8.6 2.8 -8.95 2.6 -9.75 L0.1 -19.15 Q-0.15 -19.95 0.1 -20.5 L0.75 -21.05 1.65 -20.9" fill="#ffffff" fill-rule="evenodd" stroke="none"/>
      <path d="M8.25 -20.4 L8.2 -19.1 5.7 -9.7 5.05 -8.55 4.1 -8.35 Q3.6 -8.5 3.4 -9.0 3.2 -9.5 3.45 -10.3 L5.95 -19.7 Q6.15 -20.5 6.6 -20.85 L7.5 -21.05 Q8.05 -20.95 8.25 -20.4" fill="#ffffff" fill-rule="evenodd" stroke="none"/>
    </g>
    <radialGradient cx="0" cy="0" gradientTransform="matrix(0.0206, 0.0, 0.0, 0.0206, -0.25, -14.95)" gradientUnits="userSpaceOnUse" id="gradient0" r="819.2" spreadMethod="pad">
      <stop offset="0.3607843137254902" stop-color="#999999"/>
      <stop offset="1.0" stop-color="#333333"/>
    </radialGradient>
  </defs>
</svg>
