<?xml version="1.0" encoding="UTF-8" standalone="no"?>
<svg xmlns:xlink="http://www.w3.org/1999/xlink" height="44.0px" width="44.0px" xmlns="http://www.w3.org/2000/svg">
  <g transform="matrix(1.0, 0.0, 0.0, 1.0, 0.0, 0.0)">
    <use height="44.0" transform="matrix(1.0, 0.0, 0.0, 1.0, 0.0, 0.0)" width="44.0" xlink:href="#shape0"/>
    <use height="8.6" transform="matrix(1.204, 0.0, 0.0, 1.205, 0.9092, 0.7)" width="35.05" xlink:href="#sprite0"/>
    <use height="40.35" transform="matrix(1.0, 0.0, 0.0, 1.0, 0.1, 3.55)" width="43.85" xlink:href="#shape2"/>
    <use height="20.15" transform="matrix(1.1503, 0.0, 0.0, 1.1512, 6.05, 5.5)" width="28.2" xlink:href="#sprite1"/>
  </g>
  <defs>
    <g id="shape0" transform="matrix(1.0, 0.0, 0.0, 1.0, 0.0, 0.0)">
      <path d="M41.65 22.35 Q41.65 30.6 35.85 36.55 29.9 42.4 21.65 42.4 13.25 42.4 7.45 36.55 1.5 30.6 1.5 22.35 1.5 14.0 7.45 8.1 13.25 2.2 21.65 2.2 29.9 2.2 35.85 8.1 41.65 14.0 41.65 22.35" fill="url(#gradient0)" fill-rule="evenodd" stroke="none"/>
      <path d="M41.75 2.25 Q44.0 4.5 44.0 7.6 L44.0 36.35 Q44.0 39.65 41.75 41.8 39.6 44.0 36.4 44.0 L7.55 44.0 Q4.35 44.0 2.25 41.8 0.0 39.65 0.0 36.35 L0.0 7.6 Q0.0 4.5 2.25 2.25 4.35 0.0 7.55 0.0 L36.4 0.0 Q39.6 0.0 41.75 2.25 M35.3 8.55 Q30.05 3.25 22.6 3.05 L22.1 3.05 21.9 3.05 21.4 3.05 Q13.9 3.25 8.65 8.55 3.1 14.15 3.1 21.95 3.1 29.85 8.65 35.4 13.9 40.8 21.4 41.0 L21.9 41.0 22.1 41.0 22.6 41.0 Q30.05 40.8 35.3 35.4 40.85 29.85 40.85 21.95 40.85 14.15 35.3 8.55" fill="url(#gradient1)" fill-rule="evenodd" stroke="none"/>
      <path d="M35.3 8.55 Q40.85 14.15 40.85 21.95 40.85 29.85 35.3 35.4 30.05 40.8 22.6 41.0 L22.1 41.0 21.9 41.0 21.4 41.0 Q13.9 40.8 8.65 35.4 3.1 29.85 3.1 21.95 3.1 14.15 8.65 8.55 13.9 3.25 21.4 3.05 L21.9 3.05 22.1 3.05 22.6 3.05 Q30.05 3.25 35.3 8.55 M26.1 38.1 L29.75 36.7 31.75 35.4 33.65 33.75 Q38.5 28.95 38.55 21.95 38.5 15.1 33.65 10.35 29.0 5.65 22.6 5.4 L22.1 5.4 21.9 5.4 21.4 5.4 Q14.95 5.65 10.3 10.35 5.45 15.1 5.4 21.95 5.45 28.95 10.3 33.75 L12.2 35.4 14.2 36.7 17.85 38.1 21.4 38.6 21.9 38.6 22.1 38.6 22.6 38.6 26.1 38.1" fill="url(#gradient2)" fill-rule="evenodd" stroke="none"/>
      <path d="M17.85 38.1 L21.4 38.55 21.9 38.55 21.9 38.6 21.4 38.6 17.85 38.1" fill="url(#gradient3)" fill-rule="evenodd" stroke="none"/>
      <path d="M21.9 38.55 L22.1 38.55 22.6 38.55 26.1 38.1 22.6 38.6 22.1 38.6 21.9 38.6 21.9 38.55" fill="url(#gradient4)" fill-rule="evenodd" stroke="none"/>
    </g>
    <linearGradient gradientTransform="matrix(0.0, 0.0183, -0.0245, 0.0, 21.6, 20.4)" gradientUnits="userSpaceOnUse" id="gradient0" spreadMethod="pad" x1="-819.2" x2="819.2">
      <stop offset="0.011764705882352941" stop-color="#f9b049"/>
      <stop offset="1.0" stop-color="#fbd59d"/>
    </linearGradient>
    <linearGradient gradientTransform="matrix(0.0, -0.0279, -0.0549, 0.0, 21.9, 21.55)" gradientUnits="userSpaceOnUse" id="gradient1" spreadMethod="pad" x1="-819.2" x2="819.2">
      <stop offset="0.011764705882352941" stop-color="#faa21f"/>
      <stop offset="1.0" stop-color="#e07205"/>
    </linearGradient>
    <linearGradient gradientTransform="matrix(-1.0E-4, 0.0223, 0.023, 1.0E-4, 21.95, 22.25)" gradientUnits="userSpaceOnUse" id="gradient2" spreadMethod="pad" x1="-819.2" x2="819.2">
      <stop offset="0.011764705882352941" stop-color="#862f0b"/>
      <stop offset="1.0" stop-color="#fabb7c"/>
    </linearGradient>
    <linearGradient gradientTransform="matrix(0.0, -0.0279, -0.0549, 0.0, 21.9, 21.55)" gradientUnits="userSpaceOnUse" id="gradient3" spreadMethod="pad" x1="-819.2" x2="819.2">
      <stop offset="0.011764705882352941" stop-color="#9d9d99"/>
      <stop offset="1.0" stop-color="#9b988f"/>
    </linearGradient>
    <linearGradient gradientTransform="matrix(0.0, -0.0279, 0.0549, 0.0, 22.1, 21.55)" gradientUnits="userSpaceOnUse" id="gradient4" spreadMethod="pad" x1="-819.2" x2="819.2">
      <stop offset="0.011764705882352941" stop-color="#9d9d99"/>
      <stop offset="1.0" stop-color="#9b988f"/>
    </linearGradient>
    <g id="sprite0" transform="matrix(1.0, 0.0, 0.0, 1.0, 0.2, 0.0)">
      <use height="8.6" transform="matrix(1.0, 0.0, 0.0, 1.0, -0.2, 0.0)" width="35.05" xlink:href="#shape1"/>
    </g>
    <g id="shape1" transform="matrix(1.0, 0.0, 0.0, 1.0, 0.2, 0.0)">
      <path d="M34.4 4.4 Q34.85 5.8 34.85 7.65 L34.85 8.6 Q34.8 6.95 34.4 5.7 33.0 1.3 27.2 1.3 L7.45 1.3 Q0.05 1.3 -0.2 8.5 L-0.2 7.65 Q-0.2 0.0 7.45 0.0 L27.2 0.0 Q33.0 0.0 34.4 4.4" fill="#e7deda" fill-rule="evenodd" stroke="none"/>
    </g>
    <g id="shape2" transform="matrix(1.0, 0.0, 0.0, 1.0, -0.1, -3.55)">
      <path d="M33.85 6.2 L34.35 5.9 34.55 5.7 34.55 5.35 34.45 5.2 34.45 5.15 Q34.2 4.4 33.6 3.6 36.85 5.65 37.2 8.1 L37.25 8.6 37.65 9.0 37.7 9.6 37.75 9.75 37.8 9.9 37.9 10.45 38.25 11.85 37.85 11.5 36.85 10.45 36.8 10.0 Q36.5 7.9 33.85 6.2 M38.6 10.1 Q38.25 8.65 38.05 7.0 40.2 9.4 41.0 11.45 L41.4 13.4 41.3 14.35 41.5 14.65 41.5 14.7 41.55 14.75 41.55 16.65 41.5 16.4 41.5 17.1 40.9 15.8 40.85 15.7 40.8 15.7 40.8 15.6 40.85 15.6 40.9 15.45 Q41.05 13.6 39.65 11.45 L38.6 10.1 M42.05 14.35 L41.95 11.8 Q45.0 16.5 43.0 20.3 L43.05 21.1 43.05 21.15 42.75 22.15 42.55 23.2 42.45 22.2 42.35 21.1 Q43.1 19.85 43.2 18.55 L43.2 18.7 43.25 18.55 Q43.35 16.55 42.05 14.35 M43.95 23.5 L43.95 24.55 43.85 24.75 43.65 25.15 42.75 26.4 42.35 27.65 42.35 27.7 42.15 27.95 41.55 28.85 42.2 26.7 43.25 25.15 43.95 23.5 M43.95 28.05 L43.95 29.05 Q42.5 31.25 39.95 32.85 L39.95 32.8 39.95 32.85 39.9 32.85 39.8 32.95 38.55 33.65 39.35 32.65 39.5 32.55 Q42.55 30.7 43.95 28.05 M43.0 32.2 L43.8 31.9 Q42.1 36.85 36.25 36.85 L36.15 37.0 35.9 37.15 35.75 37.1 34.8 37.0 35.75 36.3 35.85 36.2 Q40.7 36.2 42.55 33.0 L43.0 32.2 M38.9 38.1 L40.4 38.05 Q38.45 40.05 36.15 40.35 34.15 40.6 31.8 39.65 L31.3 39.9 30.55 39.3 31.6 38.7 Q33.85 39.6 35.75 39.35 37.15 39.2 38.4 38.45 L38.9 38.1 M33.3 42.25 L35.15 42.3 Q33.85 43.5 32.5 43.85 L32.3 43.9 30.6 43.9 30.4 43.85 Q29.5 43.6 28.6 42.85 27.85 42.3 27.45 41.35 25.55 42.2 23.95 43.3 L23.35 43.8 23.25 43.85 23.2 43.9 21.65 43.9 22.0 43.6 22.05 43.55 22.7 43.0 23.3 42.6 Q25.05 41.25 27.4 40.25 27.75 41.15 28.5 41.65 29.35 42.3 30.2 42.55 L33.25 42.25 33.3 42.25 M20.05 43.3 L16.6 41.35 Q16.2 42.3 15.45 42.85 14.5 43.6 13.6 43.85 L13.4 43.9 11.75 43.9 11.55 43.85 Q10.2 43.5 8.9 42.3 L10.75 42.25 10.8 42.25 Q12.35 42.95 13.8 42.55 14.65 42.3 15.55 41.65 16.3 41.15 16.65 40.25 18.95 41.25 20.75 42.55 L20.6 42.75 20.55 42.8 20.35 43.0 20.05 43.3 M12.7 39.9 L12.2 39.65 Q9.9 40.6 7.9 40.35 5.6 40.05 3.6 38.05 L5.15 38.1 5.7 38.45 Q6.95 39.2 8.3 39.35 10.2 39.6 12.4 38.7 L13.45 39.3 12.7 39.9 M8.15 37.15 L7.9 37.0 7.8 36.85 Q1.9 36.85 0.25 31.9 L1.05 32.2 1.45 33.0 Q3.3 36.2 8.2 36.2 L8.3 36.3 9.2 37.0 8.3 37.1 8.15 37.15 M4.2 32.95 L4.1 32.85 4.05 32.8 4.05 32.85 Q1.5 31.25 0.1 29.05 L0.1 28.05 Q1.45 30.7 4.55 32.55 L4.6 32.55 4.7 32.65 5.5 33.65 4.2 32.95 M1.65 27.7 L1.65 27.65 1.25 26.4 0.4 25.15 0.2 24.75 0.1 24.55 0.1 23.5 0.8 25.15 1.8 26.7 2.45 28.85 1.85 27.95 1.65 27.7 M1.0 21.15 L1.0 21.1 1.05 20.3 Q-0.95 16.5 2.05 11.8 L1.95 14.35 Q0.7 16.55 0.8 18.55 L0.85 18.7 0.85 18.55 Q0.95 19.85 1.65 21.1 L1.55 22.2 1.45 23.2 1.15 21.75 1.05 21.2 1.0 21.15 M2.45 14.75 L2.5 14.7 2.55 14.65 2.7 14.35 2.65 13.4 Q2.65 12.45 3.0 11.45 3.8 9.4 6.05 7.0 L5.45 10.1 4.35 11.45 Q2.95 13.6 3.1 15.45 L3.15 15.6 3.2 15.6 3.2 15.7 3.15 15.7 3.1 15.8 2.5 17.1 2.5 16.4 2.45 16.65 2.45 14.75 M6.45 9.0 L6.8 8.6 6.85 8.1 Q7.2 5.65 10.45 3.6 9.8 4.4 9.55 5.15 L9.55 5.2 9.45 5.35 9.45 5.7 9.65 5.9 10.2 6.2 Q7.55 7.9 7.25 10.0 L7.2 10.45 6.25 11.5 5.85 11.85 6.25 10.45 6.4 9.75 6.4 9.6 6.45 9.0 M10.45 6.3 L10.5 6.3 10.95 6.2 11.45 6.1 Q14.2 4.25 17.5 3.55 11.9 5.35 11.2 7.2 10.95 7.85 11.9 7.5 10.45 8.35 10.0 8.2 L9.7 7.95 9.75 7.65 9.8 7.35 10.45 6.3 M32.15 7.5 Q33.1 7.85 32.85 7.2 32.15 5.35 26.55 3.55 29.8 4.25 32.6 6.1 L33.1 6.2 33.55 6.3 33.6 6.3 34.2 7.35 34.25 7.65 34.3 7.95 34.05 8.2 Q33.6 8.35 32.15 7.5" fill="#f89f1d" fill-rule="evenodd" stroke="none"/>
      <path d="M37.65 9.0 L37.9 9.35 38.6 10.1 39.65 11.45 Q41.05 13.6 40.9 15.45 L40.85 15.45 Q40.55 13.75 39.05 11.8 L37.9 10.4 37.8 9.9 37.75 9.75 37.7 9.6 37.65 9.0 M41.55 14.65 L41.5 14.6 41.5 14.1 41.5 13.9 41.45 13.4 41.5 13.4 42.05 14.35 Q43.35 16.55 43.25 18.55 L43.2 18.55 Q42.95 16.7 41.6 14.75 L41.55 14.65 M43.05 21.15 L43.1 21.1 43.55 20.05 43.55 20.0 43.6 19.9 43.65 19.8 43.95 19.25 43.95 20.4 Q42.85 22.3 42.55 24.35 L42.4 22.2 42.45 22.2 42.55 23.2 42.75 22.15 43.05 21.15 M42.35 27.7 L42.4 27.7 43.0 27.0 43.25 26.8 43.95 26.05 43.95 27.2 Q42.45 28.6 41.5 30.05 L41.5 28.9 41.55 28.85 42.15 27.95 42.35 27.7 M39.8 32.95 L40.0 32.9 Q40.8 32.45 41.6 32.15 L43.2 31.65 43.0 32.2 42.55 33.0 Q40.5 33.6 38.55 34.8 L38.55 33.7 38.55 33.65 39.8 32.95 M35.9 37.15 L37.25 37.25 39.9 37.25 39.85 37.3 38.4 38.4 35.75 38.3 34.75 38.15 34.75 37.0 34.8 37.0 35.75 37.1 35.9 37.15 M31.3 39.9 L31.35 39.95 31.9 40.5 Q32.8 41.2 34.9 41.1 L34.85 41.15 33.25 42.2 Q32.4 42.05 31.9 41.65 31.3 40.85 30.5 40.4 L30.5 39.3 30.55 39.3 31.3 39.9 M23.95 43.3 L24.1 43.5 24.45 43.85 24.45 43.9 23.45 43.9 23.35 43.8 23.95 43.3 M20.6 43.9 L19.55 43.9 19.55 43.85 19.9 43.5 20.05 43.3 20.35 43.0 20.55 42.8 20.6 42.75 20.75 42.55 20.85 42.5 20.95 42.4 21.5 41.75 18.55 39.5 18.5 39.45 15.7 38.6 14.8 38.2 13.7 37.65 13.5 37.6 12.45 36.9 11.5 36.2 10.1 35.0 10.05 34.9 9.05 33.8 8.15 32.7 7.4 31.55 6.95 30.7 6.5 29.6 5.65 26.75 5.5 26.35 5.45 25.65 5.4 25.25 5.4 25.2 5.35 25.05 5.35 25.0 5.3 24.4 5.3 23.9 5.35 23.9 5.35 23.95 5.45 24.4 5.5 25.0 5.5 25.2 5.6 25.45 5.55 25.25 5.5 25.0 5.5 24.75 5.65 25.6 5.65 25.65 Q5.95 27.1 6.55 28.45 L6.5 28.45 6.5 28.5 6.75 28.95 6.95 29.55 6.95 29.6 7.4 30.4 8.15 31.55 8.2 31.6 7.45 30.45 7.0 29.55 6.8 29.1 Q7.7 30.95 9.1 32.65 L10.1 33.75 10.2 33.85 11.4 34.95 11.4 35.0 11.45 35.0 13.2 36.3 13.35 36.4 Q15.8 37.9 18.7 38.45 L19.85 39.35 21.55 40.65 21.6 40.7 21.9 40.9 21.95 40.95 22.05 41.1 22.15 40.95 22.2 40.9 22.5 40.7 22.55 40.65 24.15 39.35 25.35 38.45 Q28.1 37.9 30.5 36.45 L30.75 36.3 31.85 35.55 31.9 35.55 33.8 33.85 Q36.25 31.4 37.5 28.5 L37.55 28.5 37.05 29.55 36.6 30.45 35.85 31.6 35.9 31.55 36.65 30.4 37.1 29.55 37.6 28.45 38.25 26.3 37.55 28.45 37.5 28.45 Q38.7 25.5 38.7 22.05 38.7 18.55 37.45 15.6 L37.5 15.55 37.7 16.0 38.4 18.4 38.55 19.6 38.75 21.05 38.75 21.95 38.75 22.0 38.75 22.2 38.75 23.35 38.65 23.9 38.65 24.05 38.6 24.2 38.55 25.0 38.5 25.25 38.45 25.45 38.55 25.2 38.6 25.05 38.6 25.0 38.7 23.9 38.75 23.9 38.75 24.4 38.7 25.05 38.55 26.35 38.4 26.75 37.6 29.6 37.1 30.7 36.65 31.55 35.9 32.7 35.0 33.8 34.0 34.9 33.95 35.0 30.5 37.6 30.3 37.65 29.2 38.2 28.35 38.6 25.5 39.45 25.45 39.5 22.2 42.05 20.6 43.9 M9.15 41.15 L9.1 41.1 Q11.25 41.2 12.15 40.5 L12.65 39.95 12.7 39.9 13.45 39.3 13.5 39.3 13.5 40.4 Q12.7 40.85 12.15 41.65 L10.8 42.2 9.15 41.15 M4.15 37.3 L4.1 37.25 6.8 37.25 8.15 37.15 8.3 37.1 9.2 37.0 9.25 37.0 9.25 38.15 8.3 38.3 5.7 38.4 4.15 37.3 M1.05 32.2 L0.85 31.65 2.4 32.15 4.05 32.9 4.2 32.95 5.5 33.65 5.5 33.7 5.5 34.8 Q3.5 33.6 1.45 33.0 L1.05 32.2 M0.1 27.2 L0.1 26.05 0.8 26.8 1.05 27.0 1.65 27.7 1.85 27.95 2.45 28.85 2.5 28.9 2.5 30.05 0.1 27.2 M0.1 20.4 L0.1 19.25 0.7 20.45 0.95 21.0 1.0 21.1 1.0 21.15 1.05 21.2 1.15 21.75 1.45 23.2 1.55 22.2 1.6 22.2 1.45 24.35 Q1.2 22.3 0.1 20.4 M1.95 14.35 L2.5 13.4 2.55 13.4 2.5 13.9 2.5 14.1 2.5 14.6 2.45 14.65 2.4 14.75 Q1.1 16.7 0.85 18.55 L0.8 18.55 Q0.7 16.55 1.95 14.35 M5.45 10.1 L6.2 9.35 6.45 9.0 6.4 9.6 6.4 9.75 6.2 10.4 5.0 11.8 Q3.45 13.75 3.15 15.45 L3.1 15.45 Q2.95 13.6 4.35 11.45 L5.45 10.1 M10.2 6.2 L10.65 5.95 10.4 6.3 9.8 7.3 9.8 7.35 9.7 7.65 Q7.55 9.25 7.25 11.15 L7.2 11.6 5.85 13.0 5.75 13.1 5.75 11.95 5.85 11.85 6.25 11.5 7.2 10.45 7.25 10.0 Q7.55 7.9 10.2 6.2 M11.9 7.5 L12.2 7.35 Q13.45 6.55 14.7 7.0 L14.75 7.0 13.55 7.6 12.15 8.5 12.15 8.55 12.0 8.65 Q10.0 9.85 9.65 9.05 L9.8 8.45 10.0 8.2 Q10.45 8.35 11.9 7.5 M5.3 22.5 L5.35 23.5 5.3 23.35 5.3 22.5 M30.3 7.55 L29.25 7.0 29.25 6.95 Q30.5 6.55 31.8 7.35 L32.15 7.5 Q33.6 8.35 34.05 8.2 L34.2 8.45 34.35 9.05 Q34.05 9.85 32.05 8.65 L31.95 8.55 31.9 8.5 30.3 7.55 M33.4 5.95 L33.85 6.2 Q36.5 7.9 36.8 10.0 L36.85 10.45 37.85 11.5 38.25 11.85 38.35 11.95 38.35 13.1 38.25 13.0 36.85 11.6 36.8 11.15 Q36.5 9.25 34.3 7.65 L34.25 7.35 34.2 7.3 33.65 6.3 33.4 5.95 M40.9 15.8 L41.5 17.1 41.55 17.15 41.5 18.25 40.85 16.8 40.85 15.8 40.9 15.8 M33.95 33.85 L34.0 33.75 34.75 32.95 33.95 33.75 33.9 33.85 33.9 33.9 33.95 33.85 M2.5 17.1 L3.1 15.8 3.15 15.8 3.15 16.8 Q2.75 17.5 2.5 18.25 L2.45 17.15 2.5 17.1 M9.1 32.65 L9.05 32.65 9.1 32.65 M10.1 33.75 L9.25 32.95 10.05 33.75 10.1 33.85 10.15 33.85 10.15 33.9 10.15 33.8 10.1 33.75" fill="#89320e" fill-rule="evenodd" stroke="none"/>
      <path d="M41.55 14.75 L41.55 14.65 41.6 14.75 41.55 14.75 M39.85 37.3 L39.9 37.3 39.9 37.35 38.9 38.1 38.4 38.45 38.4 38.4 39.85 37.3 M34.85 41.15 L34.9 41.15 34.9 41.2 33.3 42.25 33.25 42.2 34.85 41.15 M24.15 39.35 L25.25 38.45 25.4 38.35 25.45 38.3 26.0 38.2 25.5 38.3 25.45 38.35 25.35 38.45 24.15 39.35 M30.5 36.45 L30.45 36.45 30.75 36.3 30.5 36.45 M37.55 28.5 L37.55 28.45 38.25 26.3 37.6 28.45 37.1 29.55 36.65 30.4 35.9 31.55 35.85 31.6 36.6 30.45 37.05 29.55 37.55 28.5 M32.05 8.65 L31.9 8.55 31.5 8.3 30.3 7.55 31.9 8.5 31.95 8.55 32.05 8.65 M33.6 6.3 L33.3 5.9 33.4 5.95 33.65 6.3 34.2 7.3 34.25 7.35 34.3 7.65 34.25 7.65 34.2 7.35 33.6 6.3 M37.9 10.45 L37.8 9.9 37.9 10.4 37.9 10.45 M38.7 23.9 L38.6 25.0 38.6 25.05 38.55 25.2 38.45 25.45 38.5 25.25 38.55 25.0 38.6 24.2 38.65 24.05 38.65 23.9 38.75 23.35 38.7 23.9 M33.95 33.85 L33.9 33.9 33.9 33.85 33.95 33.75 34.75 32.95 34.0 33.75 33.95 33.85" fill="url(#gradient5)" fill-rule="evenodd" stroke="none"/>
      <path d="M43.95 20.4 L43.95 23.5 43.25 25.15 42.2 26.7 41.55 28.85 41.5 28.9 41.5 30.05 Q42.45 28.6 43.95 27.2 L43.95 28.05 Q42.55 30.7 39.5 32.55 L39.35 32.65 38.55 33.65 38.5 33.7 38.55 33.7 38.55 34.8 Q40.5 33.6 42.55 33.0 40.7 36.2 35.85 36.2 L35.75 36.3 34.8 37.0 34.75 37.0 34.75 38.15 35.75 38.3 38.4 38.4 38.4 38.45 Q37.15 39.2 35.75 39.35 33.85 39.6 31.6 38.7 L30.55 39.3 30.5 39.25 30.5 39.3 30.5 40.4 Q31.3 40.85 31.9 41.65 32.4 42.05 33.25 42.2 L33.3 42.25 33.25 42.25 30.2 42.55 Q29.35 42.3 28.5 41.65 27.75 41.15 27.4 40.25 25.05 41.25 23.3 42.6 L22.7 43.0 22.05 43.55 22.0 43.6 21.65 43.9 20.6 43.9 22.2 42.05 25.45 39.5 25.5 39.45 28.35 38.6 29.2 38.2 30.3 37.65 30.5 37.6 33.95 35.0 34.0 34.9 35.0 33.8 35.9 32.7 36.65 31.55 37.1 30.7 37.6 29.6 38.4 26.75 38.55 26.35 38.7 25.05 38.75 24.4 38.75 23.9 38.75 23.35 38.75 22.2 38.75 22.0 38.75 21.95 38.75 21.05 38.55 19.6 38.4 18.4 37.7 16.0 37.5 15.55 36.95 14.45 36.85 14.2 36.3 13.35 35.1 11.65 34.3 10.75 33.95 10.4 33.85 10.3 33.8 10.25 32.75 9.3 32.35 8.95 32.05 8.65 Q34.05 9.85 34.35 9.05 L34.2 8.45 34.05 8.2 34.3 7.95 34.25 7.65 34.3 7.65 Q36.5 9.25 36.8 11.15 L36.85 11.6 38.25 13.0 38.35 13.1 38.35 11.95 38.25 11.85 37.9 10.45 37.9 10.4 39.05 11.8 Q40.55 13.75 40.85 15.45 L40.8 15.6 40.8 15.7 40.85 15.8 40.85 16.8 41.5 18.25 41.55 17.15 41.55 16.65 41.55 14.75 41.6 14.75 Q42.95 16.7 43.2 18.55 43.1 19.85 42.35 21.1 L42.45 22.2 42.4 22.2 42.55 24.35 Q42.85 22.3 43.95 20.4 M0.1 28.05 L0.1 27.2 2.5 30.05 2.5 28.9 2.45 28.85 1.8 26.7 0.8 25.15 0.1 23.5 0.1 20.4 Q1.2 22.3 1.45 24.35 L1.6 22.2 1.55 22.2 1.65 21.1 Q0.95 19.85 0.85 18.55 1.1 16.7 2.4 14.75 L2.45 14.75 2.45 16.65 2.45 17.15 2.5 18.25 Q2.75 17.5 3.15 16.8 L3.15 15.8 3.2 15.7 3.2 15.6 3.15 15.45 Q3.45 13.75 5.0 11.8 L6.2 10.4 6.25 10.45 5.85 11.85 5.75 11.95 5.75 13.1 5.85 13.0 7.2 11.6 7.25 11.15 Q7.55 9.25 9.7 7.65 L9.75 7.65 9.7 7.95 10.0 8.2 9.8 8.45 9.65 9.05 Q10.0 9.85 12.0 8.65 L12.05 8.65 10.2 10.25 9.85 10.6 9.7 10.75 9.2 11.35 8.95 11.65 7.75 13.35 7.3 14.1 7.2 14.2 7.15 14.4 7.1 14.45 6.4 16.0 6.0 17.2 5.9 17.5 5.65 18.4 5.5 19.6 5.35 20.7 5.3 21.05 5.3 21.75 5.3 22.05 5.3 22.2 5.3 22.5 5.3 23.35 5.3 23.9 5.3 24.4 5.35 25.0 5.35 25.05 5.4 25.2 5.4 25.25 5.45 25.65 5.5 26.35 5.65 26.75 6.5 29.6 6.95 30.7 7.4 31.55 8.15 32.7 9.05 33.8 10.05 34.9 10.1 35.0 11.5 36.2 12.45 36.9 13.5 37.6 13.7 37.65 14.8 38.2 15.7 38.6 18.5 39.45 18.55 39.5 21.5 41.75 20.95 42.4 20.85 42.5 20.75 42.55 Q18.95 41.25 16.65 40.25 16.3 41.15 15.55 41.65 14.65 42.3 13.8 42.55 12.35 42.95 10.8 42.25 L10.8 42.2 12.15 41.65 Q12.7 40.85 13.5 40.4 L13.5 39.3 13.5 39.25 13.45 39.3 12.4 38.7 Q10.2 39.6 8.3 39.35 6.95 39.2 5.7 38.45 L5.7 38.4 8.3 38.3 9.25 38.15 9.25 37.0 9.2 37.0 8.3 36.3 8.2 36.2 Q3.3 36.2 1.45 33.0 3.5 33.6 5.5 34.8 L5.5 33.7 5.55 33.7 5.5 33.65 4.7 32.65 4.6 32.55 4.55 32.5 4.55 32.55 Q1.45 30.7 0.1 28.05 M39.5 32.55 L39.5 32.5 39.5 32.55" fill="#c66506" fill-rule="evenodd" stroke="none"/>
      <path d="M41.45 13.4 L41.45 13.35 41.5 13.4 41.45 13.4 M24.45 43.85 L24.5 43.9 24.45 43.9 24.45 43.85 M19.55 43.9 L19.5 43.9 19.55 43.85 19.55 43.9 M2.5 13.4 L2.55 13.35 2.55 13.4 2.5 13.4 M29.25 7.0 L29.2 6.95 29.25 6.95 29.25 7.0 M40.85 15.45 L40.9 15.45 40.85 15.6 40.85 15.45 M40.85 15.7 L40.9 15.8 40.85 15.8 40.85 15.7 M41.5 17.1 L41.5 16.4 41.55 16.65 41.55 17.15 41.5 17.1 M43.2 18.55 L43.25 18.55 43.2 18.7 43.2 18.55 M38.75 23.35 L38.75 23.9 38.7 23.9 38.75 23.35 M2.45 16.65 L2.5 16.4 2.5 17.1 2.45 17.15 2.45 16.65 M3.1 15.8 L3.15 15.7 3.15 15.8 3.1 15.8 M3.15 15.6 L3.1 15.45 3.15 15.45 3.15 15.6 M0.85 18.55 L0.85 18.7 0.8 18.55 0.85 18.55 M5.35 23.9 L5.3 23.9 5.3 23.35 5.35 23.9 M13.45 39.3 L13.5 39.25 13.5 39.3 13.45 39.3 M30.5 39.3 L30.5 39.25 30.55 39.3 30.5 39.3" fill="#2c2c29" fill-rule="evenodd" stroke="none"/>
      <path d="M40.8 15.7 L40.85 15.7 40.85 15.8 40.8 15.7 M40.8 15.6 L40.85 15.45 40.85 15.6 40.8 15.6 M39.5 32.55 L39.5 32.5 39.5 32.55 M38.55 33.7 L38.5 33.7 38.55 33.65 38.55 33.7" fill="url(#gradient6)" fill-rule="evenodd" stroke="none"/>
      <path d="M23.45 43.9 L23.2 43.9 23.25 43.85 23.35 43.8 23.45 43.9 M10.8 42.25 L9.15 41.2 9.1 41.15 9.15 41.15 10.8 42.2 10.8 42.25 M5.15 38.1 L4.15 37.35 4.1 37.3 4.15 37.3 5.7 38.4 5.7 38.45 5.15 38.1 M2.45 14.65 L2.45 14.75 2.4 14.75 2.45 14.65 M10.65 5.95 L10.75 5.9 10.5 6.3 10.45 6.3 9.8 7.35 9.75 7.65 9.7 7.65 9.8 7.35 9.8 7.3 10.4 6.3 10.65 5.95 M13.55 7.6 L12.2 8.55 12.15 8.55 12.05 8.65 12.0 8.65 12.15 8.55 12.15 8.5 13.55 7.6 M5.35 23.5 L5.4 23.9 5.4 23.95 5.4 24.05 5.4 24.1 5.45 24.2 5.5 24.75 5.5 25.0 5.55 25.25 5.6 25.45 5.5 25.2 5.5 25.0 5.45 24.4 5.35 23.95 5.35 23.9 5.3 23.35 5.35 23.5 M6.55 28.45 L6.75 28.95 6.8 29.1 7.0 29.55 7.45 30.45 8.2 31.6 8.15 31.55 7.4 30.4 6.95 29.6 6.95 29.55 6.75 28.95 6.5 28.5 6.5 28.45 6.55 28.45 M13.2 36.3 L13.55 36.45 13.5 36.45 13.35 36.4 13.2 36.3 M18.7 38.45 L18.75 38.45 19.85 39.35 18.7 38.45 M6.4 9.75 L6.25 10.45 6.2 10.4 6.4 9.75 M10.1 33.75 L10.15 33.8 10.15 33.9 10.15 33.85 10.1 33.85 10.05 33.75 9.25 32.95 10.1 33.75" fill="url(#gradient7)" fill-rule="evenodd" stroke="none"/>
      <path d="M3.15 15.7 L3.2 15.7 3.15 15.8 3.15 15.7 M3.2 15.6 L3.15 15.6 3.15 15.45 3.2 15.6 M4.6 32.55 L4.55 32.55 4.55 32.5 4.6 32.55 M5.5 33.7 L5.5 33.65 5.55 33.7 5.5 33.7" fill="url(#gradient8)" fill-rule="evenodd" stroke="none"/>
      <path d="M19.5 9.95 L20.6 13.5 20.45 10.8 Q20.3 9.55 20.6 8.8 21.0 7.85 22.1 7.75 23.15 7.85 23.5 8.8 23.85 9.55 23.65 10.8 L23.5 13.5 24.6 9.95 Q24.9 8.9 25.85 8.9 26.85 9.3 26.35 10.9 L25.4 14.2 26.2 12.75 Q27.1 11.2 27.9 11.75 28.3 12.15 28.3 12.7 L27.8 14.05 26.35 15.95 Q24.65 15.1 22.15 15.1 19.5 15.1 17.8 15.95 L16.35 14.05 Q15.8 13.15 15.8 12.7 15.8 12.15 16.25 11.75 17.15 11.2 17.95 12.75 L18.75 14.2 17.75 10.9 Q17.35 9.3 18.35 8.9 19.3 8.9 19.5 9.95 M28.1 23.6 Q28.6 25.3 27.45 27.3 27.65 29.6 26.3 31.15 26.35 32.65 25.0 33.85 24.85 36.85 22.1 36.85 19.35 36.85 19.1 33.85 17.7 32.65 17.9 31.15 16.5 29.6 16.65 27.3 15.6 25.3 16.0 23.6 15.05 22.8 14.85 21.6 14.65 20.7 14.85 19.85 15.15 18.75 16.25 17.85 18.3 16.25 22.1 16.25 25.85 16.25 27.85 17.85 29.0 18.75 29.25 19.85 29.55 20.7 29.25 21.6 29.05 22.8 28.1 23.6" fill="#862f0b" fill-rule="evenodd" stroke="none"/>
    </g>
    <linearGradient gradientTransform="matrix(0.0156, 0.0, 0.0, 0.024, 32.15, 25.55)" gradientUnits="userSpaceOnUse" id="gradient5" spreadMethod="pad" x1="-819.2" x2="819.2">
      <stop offset="0.01568627450980392" stop-color="#4e4e4a"/>
      <stop offset="1.0" stop-color="#545451"/>
    </linearGradient>
    <linearGradient gradientTransform="matrix(0.0062, -0.0205, -0.0127, -0.0038, 34.35, 25.7)" gradientUnits="userSpaceOnUse" id="gradient6" spreadMethod="pad" x1="-819.2" x2="819.2">
      <stop offset="0.0" stop-color="#65645e"/>
      <stop offset="1.0" stop-color="#7d7b73"/>
    </linearGradient>
    <linearGradient gradientTransform="matrix(-0.0156, 0.0, 0.0, 0.024, 11.9, 25.55)" gradientUnits="userSpaceOnUse" id="gradient7" spreadMethod="pad" x1="-819.2" x2="819.2">
      <stop offset="0.01568627450980392" stop-color="#4e4e4a"/>
      <stop offset="1.0" stop-color="#545451"/>
    </linearGradient>
    <linearGradient gradientTransform="matrix(-0.0062, -0.0205, 0.0127, -0.0038, 9.65, 25.7)" gradientUnits="userSpaceOnUse" id="gradient8" spreadMethod="pad" x1="-819.2" x2="819.2">
      <stop offset="0.0" stop-color="#65645e"/>
      <stop offset="1.0" stop-color="#7d7b73"/>
    </linearGradient>
    <g id="sprite1" transform="matrix(1.0, 0.0, 0.0, 1.0, 0.0, 0.0)">
      <use height="20.15" transform="matrix(1.0, 0.0, 0.0, 1.0, 0.0, 0.0)" width="28.2" xlink:href="#shape3"/>
    </g>
    <g id="shape3" transform="matrix(1.0, 0.0, 0.0, 1.0, 0.0, 0.0)">
      <path d="M27.65 18.45 L27.4 18.95 Q26.2 20.8 23.4 19.8 19.6 18.5 17.35 14.05 14.8 9.1 9.75 7.4 4.1 5.65 0.0 10.3 1.0 6.85 3.7 4.15 7.2 0.65 11.9 0.05 L14.8 0.05 18.4 0.65 Q21.55 1.65 24.05 4.15 28.2 8.3 28.2 14.25 28.2 16.45 27.65 18.45" fill="#ffffff" fill-opacity="0.19607843" fill-rule="evenodd" stroke="none"/>
    </g>
  </defs>
</svg>
