<?xml version="1.0" encoding="UTF-8" standalone="no"?>
<svg xmlns:xlink="http://www.w3.org/1999/xlink" height="44.0px" width="44.0px" xmlns="http://www.w3.org/2000/svg">
  <g transform="matrix(1.0, 0.0, 0.0, 1.0, 0.0, -0.05)">
    <use height="37.1" transform="matrix(1.0, 0.0, 0.0, 1.0, 3.4, 3.55)" width="37.2" xlink:href="#shape0"/>
    <use height="20.15" transform="matrix(1.1594, 0.0, 0.0, 1.1594, 5.8, 5.3)" width="28.2" xlink:href="#sprite0"/>
    <use height="44.0" transform="matrix(1.0, 0.0, 0.0, 1.0, 0.0, 0.05)" width="44.0" xlink:href="#shape2"/>
    <use height="8.6" transform="matrix(1.2125, 0.0, 0.0, 1.2125, 0.8575, 1.0)" width="35.05" xlink:href="#sprite1"/>
    <use height="40.5" transform="matrix(1.0, 0.0, 0.0, 1.0, 0.0, 3.55)" width="43.95" xlink:href="#shape4"/>
    <use height="20.15" transform="matrix(1.1594, 0.0, 0.0, 1.1594, 5.8, 5.3)" width="28.2" xlink:href="#sprite0"/>
    <use height="44.0" transform="matrix(1.0, 0.0, 0.0, 1.0, 0.0, 0.05)" width="44.0" xlink:href="#shape5"/>
    <use height="8.6" transform="matrix(1.2125, 0.0, 0.0, 1.2125, 0.8575, 1.0)" width="35.05" xlink:href="#sprite1"/>
    <use height="17.95" transform="matrix(1.0, 0.0, 0.0, 1.0, 0.0, 26.1)" width="43.95" xlink:href="#shape6"/>
  </g>
  <defs>
    <g id="shape0" transform="matrix(1.0, 0.0, 0.0, 1.0, -3.4, -3.55)">
      <path d="M3.4 22.1 Q3.4 14.4 8.85 9.0 14.3 3.55 22.05 3.55 29.75 3.55 35.2 9.0 40.6 14.45 40.6 22.1 40.6 29.8 35.2 35.25 29.75 40.65 22.05 40.65 14.3 40.65 8.85 35.25 3.4 29.8 3.4 22.1" fill="url(#gradient0)" fill-rule="evenodd" stroke="none"/>
      <path d="M21.9 11.5 L21.9 11.75 Q28.8 11.75 35.8 17.85 26.65 20.0 25.9 22.15 L31.85 22.15 Q27.05 24.95 25.95 27.45 L29.7 27.45 Q25.7 28.8 24.25 32.0 L26.75 32.0 Q23.25 33.2 21.9 35.85 L21.7 36.05 21.7 35.6 Q20.35 33.0 16.85 31.8 L19.35 31.8 Q17.9 28.65 13.9 27.3 L17.65 27.3 Q16.55 24.75 11.7 22.0 L17.7 22.0 Q16.95 19.8 7.8 17.65 14.85 11.45 21.9 11.5" fill="#664411" fill-rule="evenodd" stroke="none"/>
    </g>
    <linearGradient gradientTransform="matrix(0.0, -0.017, -0.0173, 0.0, 21.0, 27.0)" gradientUnits="userSpaceOnUse" id="gradient0" spreadMethod="pad" x1="-819.2" x2="819.2">
      <stop offset="0.011764705882352941" stop-color="#dad67d"/>
      <stop offset="1.0" stop-color="#cfa451"/>
    </linearGradient>
    <g id="sprite0" transform="matrix(1.0, 0.0, 0.0, 1.0, 0.0, 0.0)">
      <use height="20.15" transform="matrix(1.0, 0.0, 0.0, 1.0, 0.0, 0.0)" width="28.2" xlink:href="#shape1"/>
    </g>
    <g id="shape1" transform="matrix(1.0, 0.0, 0.0, 1.0, 0.0, 0.0)">
      <path d="M27.65 18.45 L27.4 18.95 Q26.2 20.8 23.4 19.8 19.6 18.5 17.35 14.05 14.8 9.1 9.75 7.4 4.1 5.65 0.0 10.3 1.0 6.85 3.7 4.15 7.2 0.65 11.9 0.05 L14.8 0.05 18.4 0.65 Q21.55 1.65 24.05 4.15 28.2 8.3 28.2 14.25 28.2 16.45 27.65 18.45" fill="#ffffff" fill-opacity="0.19607843" fill-rule="evenodd" stroke="none"/>
    </g>
    <g id="shape2" transform="matrix(1.0, 0.0, 0.0, 1.0, 0.0, -0.05)">
      <path d="M41.8 2.35 Q44.0 4.55 44.0 7.65 L44.0 36.45 Q44.0 39.65 41.8 41.85 39.6 44.05 36.4 44.05 L7.6 44.05 Q4.45 44.05 2.25 41.85 0.0 39.65 0.0 36.45 L0.0 7.65 Q0.0 4.55 2.25 2.35 4.45 0.05 7.6 0.05 L36.4 0.05 Q39.55 0.05 41.8 2.35 M40.85 22.1 Q40.85 14.15 35.25 8.65 29.75 3.1 21.85 3.1 13.9 3.1 8.4 8.65 2.85 14.15 2.85 22.1 2.85 30.0 8.4 35.5 13.9 41.15 21.85 41.15 29.75 41.15 35.25 35.5 40.85 30.0 40.85 22.1" fill="url(#gradient1)" fill-rule="evenodd" stroke="none"/>
      <path d="M40.85 22.1 Q40.85 30.0 35.25 35.5 29.75 41.15 21.85 41.15 13.9 41.15 8.4 35.5 2.85 30.0 2.85 22.1 2.85 14.15 8.4 8.65 13.9 3.1 21.85 3.1 29.75 3.1 35.25 8.65 40.85 14.15 40.85 22.1 M33.7 10.4 Q28.75 5.5 21.85 5.45 14.95 5.5 10.1 10.4 5.2 15.2 5.15 22.1 5.2 29.05 10.1 33.9 14.95 38.8 21.85 38.8 28.75 38.8 33.7 33.9 38.5 29.05 38.5 22.1 38.5 15.2 33.7 10.4" fill="url(#gradient2)" fill-rule="evenodd" stroke="none"/>
    </g>
    <linearGradient gradientTransform="matrix(0.0, -0.0258, -0.0551, 0.0, 21.85, 21.9)" gradientUnits="userSpaceOnUse" id="gradient1" spreadMethod="pad" x1="-819.2" x2="819.2">
      <stop offset="0.011764705882352941" stop-color="#c79829"/>
      <stop offset="1.0" stop-color="#be7d1e"/>
    </linearGradient>
    <linearGradient gradientTransform="matrix(1.0E-4, 0.0223, -0.0232, 1.0E-4, 21.9, 22.35)" gradientUnits="userSpaceOnUse" id="gradient2" spreadMethod="pad" x1="-819.2" x2="819.2">
      <stop offset="0.011764705882352941" stop-color="#8d5910"/>
      <stop offset="1.0" stop-color="#d9d597"/>
    </linearGradient>
    <g id="sprite1" transform="matrix(1.0, 0.0, 0.0, 1.0, 0.2, 0.0)">
      <use height="8.6" transform="matrix(1.0, 0.0, 0.0, 1.0, -0.2, 0.0)" width="35.05" xlink:href="#shape3"/>
    </g>
    <g id="shape3" transform="matrix(1.0, 0.0, 0.0, 1.0, 0.2, 0.0)">
      <path d="M34.4 4.4 Q34.85 5.8 34.85 7.65 L34.85 8.6 Q34.8 6.95 34.4 5.7 33.0 1.3 27.2 1.3 L7.45 1.3 Q0.05 1.3 -0.2 8.5 L-0.2 7.65 Q-0.2 0.0 7.45 0.0 L27.2 0.0 Q33.0 0.0 34.4 4.4" fill="#e7deda" fill-rule="evenodd" stroke="none"/>
    </g>
    <g id="shape4" transform="matrix(1.0, 0.0, 0.0, 1.0, 0.0, -3.55)">
      <path d="M38.85 28.0 L39.3 26.85 39.7 26.35 Q40.05 26.1 40.4 26.1 L41.05 26.35 41.5 26.9 41.9 28.0 43.05 28.0 43.75 28.25 43.95 28.4 43.95 30.0 43.7 30.15 42.85 30.8 43.25 32.15 43.25 32.85 42.8 33.4 42.1 33.6 41.45 33.35 41.2 33.2 41.15 35.75 43.55 36.7 Q43.75 36.75 43.95 36.95 L43.6 38.85 43.4 38.9 40.85 39.55 40.65 42.5 40.5 42.8 39.25 43.55 39.0 43.5 38.5 43.05 37.0 40.5 34.2 41.25 33.85 41.25 33.0 41.85 33.4 43.2 33.4 43.9 33.3 44.05 31.15 44.05 30.55 43.65 29.9 44.05 27.7 44.05 27.65 43.85 27.65 43.15 28.05 41.85 27.15 41.25 26.75 40.65 Q26.6 40.25 26.75 39.9 L27.15 39.3 27.85 39.1 29.0 39.1 29.45 37.95 Q29.6 37.6 29.85 37.4 L30.55 37.2 31.2 37.4 31.65 38.0 32.05 39.1 33.2 39.1 34.85 37.1 33.55 34.9 33.4 34.2 33.7 33.5 Q33.9 33.25 34.25 33.2 L34.95 33.25 37.35 34.2 38.05 33.45 37.9 33.35 37.5 32.75 37.5 32.05 37.9 30.8 37.0 30.15 36.6 29.6 Q36.45 29.2 36.6 28.85 L37.0 28.25 Q37.3 28.0 37.7 28.0 L38.85 28.0 M30.65 38.75 L30.4 38.75 29.8 40.25 28.2 40.25 28.1 40.5 29.45 41.4 28.85 43.15 29.05 43.25 30.55 42.2 31.95 43.25 32.2 43.15 31.65 41.4 32.8 40.55 32.75 40.25 31.25 40.25 30.65 38.75 M37.7 35.55 L34.55 34.3 36.3 37.25 33.9 40.05 37.55 39.15 39.5 42.4 39.75 38.65 43.15 37.75 40.0 36.5 40.05 33.05 37.7 35.55 M39.65 29.2 L38.05 29.2 37.95 29.4 39.3 30.35 38.75 32.05 38.9 32.2 40.4 31.15 41.8 32.2 42.05 32.05 41.5 30.35 42.8 29.4 42.65 29.2 41.1 29.2 40.5 27.65 40.25 27.65 39.65 29.2" fill="url(#gradient3)" fill-rule="evenodd" stroke="none"/>
      <path d="M42.2 29.8 L41.5 30.35 41.5 30.95 41.85 32.25 40.4 31.15 38.9 32.25 39.3 30.95 39.3 30.35 38.55 29.8 39.65 29.8 40.4 27.9 41.1 29.8 42.2 29.8 M40.0 36.5 L40.0 37.1 42.15 38.05 39.75 38.65 39.5 42.4 37.55 39.15 34.55 39.9 36.3 37.85 36.3 37.25 35.0 35.15 37.7 36.2 40.05 33.7 40.0 36.5 M32.35 40.9 L31.65 41.4 31.65 42.05 32.0 43.3 30.55 42.2 29.05 43.3 29.45 42.05 29.45 41.4 28.7 40.9 29.8 40.9 30.55 38.95 31.25 40.9 32.35 40.9" fill="#815815" fill-rule="evenodd" stroke="none"/>
      <path d="M38.55 29.8 L37.7 29.2 39.65 29.2 40.4 27.25 41.1 29.2 43.05 29.2 42.2 29.8 41.1 29.8 40.4 27.9 39.65 29.8 38.55 29.8 M41.5 30.35 L42.15 32.4 41.85 32.25 41.5 30.95 41.5 30.35 M38.9 32.25 L38.6 32.4 39.3 30.35 39.3 30.95 38.9 32.25 M40.0 36.5 L43.15 37.75 42.15 38.05 40.0 37.1 40.0 36.5 M34.55 39.9 L33.9 40.05 36.3 37.25 36.3 37.85 34.55 39.9 M35.0 35.15 L34.55 34.3 37.7 35.55 40.05 33.05 40.05 33.7 37.7 36.2 35.0 35.15 M28.7 40.9 L27.85 40.25 29.8 40.25 30.55 38.35 31.25 40.25 33.2 40.25 32.35 40.9 31.25 40.9 30.55 38.95 29.8 40.9 28.7 40.9 M31.65 41.4 L32.3 43.5 32.0 43.3 31.65 42.05 31.65 41.4 M29.05 43.3 L28.75 43.5 29.45 41.4 29.45 42.05 29.05 43.3" fill="#674512" fill-rule="evenodd" stroke="none"/>
      <path d="M5.1 28.0 L6.25 28.0 6.95 28.25 7.35 28.85 7.35 29.6 6.95 30.15 6.05 30.8 6.45 32.05 6.45 32.75 6.05 33.35 5.9 33.45 6.6 34.2 9.0 33.25 9.7 33.2 10.25 33.5 10.55 34.2 10.4 34.9 9.1 37.1 10.75 39.1 11.9 39.1 12.3 38.0 Q12.4 37.6 12.75 37.4 L13.4 37.2 14.1 37.4 14.5 37.95 14.95 39.1 16.1 39.1 16.8 39.3 17.2 39.9 17.2 40.65 16.8 41.25 15.9 41.85 16.3 43.15 16.3 43.85 16.25 44.05 14.05 44.05 13.4 43.65 12.8 44.05 10.65 44.05 10.55 43.9 10.55 43.2 10.95 41.85 10.1 41.25 9.75 41.25 6.95 40.5 5.45 43.05 4.95 43.5 4.7 43.55 3.45 42.8 3.3 42.5 3.1 39.55 0.55 38.9 0.35 38.85 0.0 36.95 0.4 36.7 2.8 35.75 2.75 33.2 2.5 33.35 1.85 33.6 Q1.45 33.6 1.15 33.4 L0.7 32.85 0.7 32.15 1.1 30.8 0.25 30.15 0.0 30.0 0.0 28.4 0.2 28.25 0.9 28.0 2.05 28.0 2.45 26.9 Q2.55 26.5 2.9 26.35 L3.55 26.1 Q3.9 26.1 4.25 26.35 L4.65 26.85 5.1 28.0 M4.3 29.2 L3.7 27.65 3.45 27.65 2.85 29.2 1.3 29.2 1.15 29.4 2.45 30.35 1.9 32.05 2.15 32.2 3.55 31.15 5.05 32.2 5.2 32.05 4.65 30.35 6.0 29.4 5.9 29.2 4.3 29.2 M6.25 35.55 L3.9 33.05 3.95 36.5 0.8 37.75 4.2 38.65 4.45 42.4 6.4 39.15 10.05 40.05 7.65 37.25 9.4 34.3 6.25 35.55 M13.3 38.75 L12.7 40.25 11.2 40.25 11.15 40.55 12.3 41.4 11.75 43.15 12.0 43.25 13.4 42.2 14.9 43.25 15.1 43.15 14.5 41.4 15.85 40.5 15.75 40.25 14.15 40.25 13.55 38.75 13.3 38.75" fill="url(#gradient4)" fill-rule="evenodd" stroke="none"/>
      <path d="M1.75 29.8 L0.9 29.2 2.85 29.2 3.55 27.25 4.3 29.2 6.25 29.2 5.4 29.8 4.3 29.8 3.55 27.9 2.85 29.8 1.75 29.8 M4.65 30.35 L5.35 32.4 5.05 32.25 4.65 30.95 4.65 30.35 M2.1 32.25 L1.8 32.4 2.45 30.35 2.45 30.95 2.1 32.25 M3.9 33.7 L3.9 33.05 6.25 35.55 9.4 34.3 8.95 35.15 6.25 36.2 3.9 33.7 M7.65 37.25 L10.05 40.05 9.4 39.9 7.65 37.85 7.65 37.25 M1.8 38.05 L0.8 37.75 3.95 36.5 3.95 37.1 1.8 38.05 M11.6 40.9 L10.75 40.25 12.7 40.25 13.4 38.35 14.15 40.25 16.1 40.25 15.25 40.9 14.15 40.9 13.4 38.95 12.7 40.9 11.6 40.9 M14.5 41.4 L15.2 43.5 14.9 43.3 14.5 42.05 14.5 41.4 M11.95 43.3 L11.65 43.5 12.3 41.4 12.3 42.05 11.95 43.3" fill="#674512" fill-rule="evenodd" stroke="none"/>
      <path d="M1.75 29.8 L2.85 29.8 3.55 27.9 4.3 29.8 5.4 29.8 4.65 30.35 4.65 30.95 5.05 32.25 3.55 31.15 2.1 32.25 2.45 30.95 2.45 30.35 1.75 29.8 M8.95 35.15 L7.65 37.25 7.65 37.85 9.4 39.9 6.4 39.15 4.45 42.4 4.2 38.65 1.8 38.05 3.95 37.1 3.95 36.5 3.9 33.7 6.25 36.2 8.95 35.15 M11.6 40.9 L12.7 40.9 13.4 38.95 14.15 40.9 15.25 40.9 14.5 41.4 14.5 42.05 14.9 43.3 13.4 42.2 11.95 43.3 12.3 42.05 12.3 41.4 11.6 40.9" fill="#815815" fill-rule="evenodd" stroke="none"/>
      <path d="M3.4 22.1 Q3.4 14.4 8.85 9.0 14.3 3.55 22.05 3.55 29.75 3.55 35.2 9.0 40.6 14.45 40.6 22.1 40.6 29.8 35.2 35.25 29.75 40.65 22.05 40.65 14.3 40.65 8.85 35.25 3.4 29.8 3.4 22.1" fill="url(#gradient5)" fill-rule="evenodd" stroke="none"/>
      <path d="M39.35 21.9 Q39.35 29.15 34.2 34.3 L32.25 36.0 Q32.4 34.85 32.15 33.6 31.6 30.9 29.25 29.35 26.9 27.85 24.25 28.4 21.55 29.0 20.0 31.3 18.5 33.6 19.05 36.3 19.45 38.15 20.65 39.45 14.15 39.05 9.45 34.35 L9.55 34.3 9.95 33.95 10.2 33.7 10.7 33.85 11.25 34.05 11.25 34.25 11.4 34.85 11.75 35.25 14.75 35.4 15.2 35.05 15.45 34.55 15.5 33.55 15.8 33.4 15.75 33.45 Q18.25 32.25 19.1 29.55 20.0 26.95 18.7 24.4 17.45 21.95 14.85 21.1 12.25 20.25 9.75 21.45 7.3 22.75 6.4 25.35 5.55 28.0 6.8 30.45 L7.0 30.8 6.85 31.1 Q4.25 27.05 4.25 21.9 4.25 20.1 4.6 18.45 L26.0 18.45 Q24.95 19.65 24.65 21.3 24.3 23.6 25.65 25.45 27.1 27.4 29.35 27.7 L29.65 27.75 30.0 28.5 30.3 28.9 30.75 29.05 Q32.05 29.15 33.1 28.15 L33.35 27.8 33.3 27.35 33.3 27.05 33.6 26.7 34.0 26.45 34.15 26.6 34.6 26.8 35.1 26.75 Q36.35 26.0 36.65 24.75 L36.6 24.25 36.45 23.8 35.7 23.3 35.8 23.05 Q36.2 20.85 34.8 18.9 L34.45 18.45 39.05 18.45 39.35 21.9" fill="#664411" fill-rule="evenodd" stroke="none"/>
      <path d="M13.05 17.25 Q13.05 18.15 12.7 18.75 12.4 19.4 11.95 19.4 11.5 19.4 11.5 18.8 L11.45 17.3 11.45 15.75 11.65 13.7 12.7 15.7 Q13.05 16.35 13.05 17.25" fill="#664411" fill-rule="evenodd" stroke="none"/>
      <path d="M14.2 19.0 Q13.8 19.75 13.2 20.1 L12.25 20.2 Q11.85 20.0 12.15 19.5 L12.8 18.25 13.5 17.0 14.8 15.5 14.6 17.6 Q14.6 18.3 14.2 19.0" fill="#664411" fill-rule="evenodd" stroke="none"/>
      <path d="M11.45 17.4 L12.0 19.0 Q12.1 19.75 11.7 19.95 11.3 20.2 10.95 19.6 L10.1 18.25 9.25 16.8 8.6 15.45 Q9.75 15.7 10.3 16.1 L11.45 17.4" fill="#664411" fill-rule="evenodd" stroke="none"/>
      <path d="M17.9 29.2 Q17.2 31.3 15.15 32.3 L14.45 32.65 14.35 34.15 12.25 34.05 12.35 32.9 11.05 32.65 10.0 32.15 9.3 33.1 Q8.2 32.85 7.6 31.95 L8.4 30.7 7.9 29.9 Q6.9 27.9 7.6 25.8 8.3 23.65 10.3 22.65 12.35 21.65 14.45 22.35 16.6 23.05 17.55 25.05 18.6 27.05 17.9 29.2 M12.25 27.1 Q12.5 26.4 12.15 25.75 11.8 25.1 11.05 24.85 L9.7 24.95 Q9.05 25.3 8.8 26.0 8.55 26.7 8.9 27.35 9.25 28.0 9.95 28.25 L11.35 28.15 Q12.0 27.8 12.25 27.1 M16.85 28.6 Q17.1 27.9 16.75 27.25 16.4 26.6 15.65 26.35 L14.3 26.45 Q13.65 26.8 13.4 27.5 13.15 28.2 13.5 28.85 13.85 29.5 14.55 29.75 L15.95 29.65 Q16.6 29.3 16.85 28.6 M12.6 28.0 L10.8 29.95 12.95 30.65 12.6 28.0" fill="#664411" fill-rule="evenodd" stroke="none"/>
      <path d="M29.8 33.95 Q29.6 33.2 28.95 32.8 28.4 32.35 27.6 32.5 26.85 32.7 26.45 33.3 26.05 33.9 26.2 34.65 26.35 35.45 27.0 35.8 27.65 36.25 28.35 36.1 29.1 35.9 29.5 35.3 29.9 34.7 29.8 33.95 M25.05 34.95 Q24.9 34.15 24.2 33.75 L22.85 33.55 Q22.15 33.65 21.7 34.25 21.3 34.9 21.5 35.65 21.6 36.45 22.2 36.75 22.85 37.25 23.6 37.1 24.35 36.9 24.7 36.25 25.2 35.65 25.05 34.95 M30.9 33.85 Q31.4 36.0 30.15 37.95 L29.7 38.6 30.3 39.95 Q29.65 40.85 28.5 40.9 L28.0 39.85 26.8 40.3 25.55 40.35 25.5 41.55 23.4 41.4 23.45 40.0 22.65 39.5 Q20.8 38.25 20.35 36.05 19.9 33.9 21.1 32.0 22.3 30.1 24.5 29.7 26.75 29.2 28.6 30.4 30.45 31.65 30.9 33.85 M25.8 35.55 L25.15 38.05 27.35 37.6 25.8 35.55" fill="#664411" fill-rule="evenodd" stroke="none"/>
      <path d="M29.85 22.35 Q29.45 21.8 28.8 21.75 28.15 21.6 27.7 22.0 27.2 22.4 27.0 23.05 27.0 23.65 27.4 24.2 L28.3 24.8 29.45 24.5 Q30.0 24.15 30.05 23.5 30.2 22.85 29.85 22.35 M33.95 19.55 Q35.1 21.05 34.8 22.9 L34.7 23.6 35.6 24.4 Q35.35 25.35 34.55 25.75 L33.85 25.15 33.05 25.9 32.1 26.4 32.45 27.3 Q31.75 27.95 30.85 27.95 L30.3 26.75 29.6 26.75 Q27.75 26.35 26.55 24.9 25.5 23.35 25.8 21.45 26.1 19.6 27.6 18.55 29.2 17.35 30.95 17.7 32.9 18.0 33.95 19.55 M33.15 20.0 Q32.7 19.45 32.15 19.35 31.5 19.25 31.0 19.65 30.5 19.95 30.35 20.6 30.25 21.2 30.7 21.75 31.05 22.25 31.65 22.4 32.3 22.45 32.8 22.1 L33.35 21.1 Q33.5 20.5 33.15 20.0 M30.65 22.6 L31.0 24.7 32.5 23.65 30.65 22.6" fill="#664411" fill-rule="evenodd" stroke="none"/>
    </g>
    <linearGradient gradientTransform="matrix(0.0, -0.0258, -0.0551, 0.0, 21.85, 21.9)" gradientUnits="userSpaceOnUse" id="gradient3" spreadMethod="pad" x1="-819.2" x2="819.2">
      <stop offset="0.011764705882352941" stop-color="#c79829"/>
      <stop offset="1.0" stop-color="#be7d1e"/>
    </linearGradient>
    <linearGradient gradientTransform="matrix(0.0, -0.0258, 0.0551, 0.0, 22.05, 21.9)" gradientUnits="userSpaceOnUse" id="gradient4" spreadMethod="pad" x1="-819.2" x2="819.2">
      <stop offset="0.011764705882352941" stop-color="#c79829"/>
      <stop offset="1.0" stop-color="#be7d1e"/>
    </linearGradient>
    <linearGradient gradientTransform="matrix(0.0056, 0.0, 0.0, 0.0043, -24.55, 41.8)" gradientUnits="userSpaceOnUse" id="gradient5" spreadMethod="pad" x1="-819.2" x2="819.2">
      <stop offset="0.011764705882352941" stop-color="#c79829"/>
      <stop offset="1.0" stop-color="#be7d1e"/>
    </linearGradient>
    <g id="shape5" transform="matrix(1.0, 0.0, 0.0, 1.0, 0.0, -0.05)">
      <path d="M41.8 2.35 Q44.0 4.55 44.0 7.65 L44.0 36.45 Q44.0 39.65 41.8 41.85 39.6 44.05 36.4 44.05 L7.6 44.05 Q4.45 44.05 2.25 41.85 0.0 39.65 0.0 36.45 L0.0 7.65 Q0.0 4.55 2.25 2.35 4.45 0.05 7.6 0.05 L36.4 0.05 Q39.55 0.05 41.8 2.35 M40.85 22.1 Q40.85 14.15 35.25 8.65 29.75 3.1 21.85 3.1 13.9 3.1 8.4 8.65 2.85 14.15 2.85 22.1 2.85 30.0 8.4 35.5 13.9 41.15 21.85 41.15 29.75 41.15 35.25 35.5 40.85 30.0 40.85 22.1" fill="url(#gradient6)" fill-rule="evenodd" stroke="none"/>
      <path d="M40.85 22.1 Q40.85 30.0 35.25 35.5 29.75 41.15 21.85 41.15 13.9 41.15 8.4 35.5 2.85 30.0 2.85 22.1 2.85 14.15 8.4 8.65 13.9 3.1 21.85 3.1 29.75 3.1 35.25 8.65 40.85 14.15 40.85 22.1 M33.7 10.4 Q28.75 5.5 21.85 5.45 14.95 5.5 10.1 10.4 5.2 15.2 5.15 22.1 5.2 29.05 10.1 33.9 14.95 38.8 21.85 38.8 28.75 38.8 33.7 33.9 38.5 29.05 38.5 22.1 38.5 15.2 33.7 10.4" fill="url(#gradient7)" fill-rule="evenodd" stroke="none"/>
    </g>
    <linearGradient gradientTransform="matrix(0.0, -0.0258, -0.0551, 0.0, 21.85, 21.9)" gradientUnits="userSpaceOnUse" id="gradient6" spreadMethod="pad" x1="-819.2" x2="819.2">
      <stop offset="0.011764705882352941" stop-color="#dad67d"/>
      <stop offset="1.0" stop-color="#cfa451"/>
    </linearGradient>
    <linearGradient gradientTransform="matrix(0.0, 0.0059, -0.0232, 0.0, 21.85, 18.45)" gradientUnits="userSpaceOnUse" id="gradient7" spreadMethod="pad" x1="-819.2" x2="819.2">
      <stop offset="0.011764705882352941" stop-color="#8d5910"/>
      <stop offset="1.0" stop-color="#d9d597"/>
    </linearGradient>
    <g id="shape6" transform="matrix(1.0, 0.0, 0.0, 1.0, 0.0, -26.1)">
      <path d="M38.85 28.0 L39.3 26.85 39.7 26.35 Q40.05 26.1 40.4 26.1 L41.05 26.35 41.5 26.9 41.9 28.0 43.05 28.0 43.75 28.25 43.95 28.4 43.95 30.0 43.7 30.15 42.85 30.8 43.25 32.15 43.25 32.85 42.8 33.4 42.1 33.6 41.45 33.35 41.2 33.2 41.15 35.75 43.55 36.7 Q43.75 36.75 43.95 36.95 L43.6 38.85 43.4 38.9 40.85 39.55 40.65 42.5 40.5 42.8 39.25 43.55 39.0 43.5 38.5 43.05 37.0 40.5 34.2 41.25 33.85 41.25 33.0 41.85 33.4 43.2 33.4 43.9 33.3 44.05 31.15 44.05 30.55 43.65 29.9 44.05 27.7 44.05 27.65 43.85 27.65 43.15 28.05 41.85 27.15 41.25 26.75 40.65 Q26.6 40.25 26.75 39.9 L27.15 39.3 27.85 39.1 29.0 39.1 29.45 37.95 Q29.6 37.6 29.85 37.4 L30.55 37.2 31.2 37.4 31.65 38.0 32.05 39.1 33.2 39.1 34.85 37.1 33.55 34.9 33.4 34.2 33.7 33.5 Q33.9 33.25 34.25 33.2 L34.95 33.25 37.35 34.2 38.05 33.45 37.9 33.35 37.5 32.75 37.5 32.05 37.9 30.8 37.0 30.15 36.6 29.6 Q36.45 29.2 36.6 28.85 L37.0 28.25 Q37.3 28.0 37.7 28.0 L38.85 28.0 M30.65 38.75 L30.4 38.75 29.8 40.25 28.2 40.25 28.1 40.5 29.45 41.4 28.85 43.15 29.05 43.25 30.55 42.2 31.95 43.25 32.2 43.15 31.65 41.4 32.8 40.55 32.75 40.25 31.25 40.25 30.65 38.75 M37.7 35.55 L34.55 34.3 36.3 37.25 33.9 40.05 37.55 39.15 39.5 42.4 39.75 38.65 43.15 37.75 40.0 36.5 40.05 33.05 37.7 35.55 M39.65 29.2 L38.05 29.2 37.95 29.4 39.3 30.35 38.75 32.05 38.9 32.2 40.4 31.15 41.8 32.2 42.05 32.05 41.5 30.35 42.8 29.4 42.65 29.2 41.1 29.2 40.5 27.65 40.25 27.65 39.65 29.2" fill="#d1ae5a" fill-rule="evenodd" stroke="none"/>
      <path d="M42.2 29.8 L41.5 30.35 41.5 30.95 41.85 32.25 40.4 31.15 38.9 32.25 39.3 30.95 39.3 30.35 38.55 29.8 39.65 29.8 40.4 27.9 41.1 29.8 42.2 29.8 M40.0 36.5 L40.0 37.1 42.15 38.05 39.75 38.65 39.5 42.4 37.55 39.15 34.55 39.9 36.3 37.85 36.3 37.25 35.0 35.15 37.7 36.2 40.05 33.7 40.0 36.5 M28.7 40.9 L29.8 40.9 30.55 38.95 31.25 40.9 32.35 40.9 31.65 41.4 31.65 42.05 32.0 43.3 30.55 42.2 29.05 43.3 29.45 42.05 29.45 41.4 28.7 40.9" fill="#815815" fill-rule="evenodd" stroke="none"/>
      <path d="M38.55 29.8 L37.7 29.2 39.65 29.2 40.4 27.25 41.1 29.2 43.05 29.2 42.2 29.8 41.1 29.8 40.4 27.9 39.65 29.8 38.55 29.8 M41.5 30.35 L42.15 32.4 41.85 32.25 41.5 30.95 41.5 30.35 M38.9 32.25 L38.6 32.4 39.3 30.35 39.3 30.95 38.9 32.25 M40.0 36.5 L43.15 37.75 42.15 38.05 40.0 37.1 40.0 36.5 M34.55 39.9 L33.9 40.05 36.3 37.25 36.3 37.85 34.55 39.9 M35.0 35.15 L34.55 34.3 37.7 35.55 40.05 33.05 40.05 33.7 37.7 36.2 35.0 35.15 M28.7 40.9 L27.85 40.25 29.8 40.25 30.55 38.35 31.25 40.25 33.2 40.25 32.35 40.9 31.25 40.9 30.55 38.95 29.8 40.9 28.7 40.9 M31.65 41.4 L32.3 43.5 32.0 43.3 31.65 42.05 31.65 41.4 M29.05 43.3 L28.75 43.5 29.45 41.4 29.45 42.05 29.05 43.3" fill="#674512" fill-rule="evenodd" stroke="none"/>
      <path d="M10.25 33.5 L10.55 34.2 10.4 34.9 9.1 37.1 10.75 39.1 11.9 39.1 12.3 38.0 Q12.4 37.6 12.75 37.4 L13.4 37.2 14.1 37.4 14.5 37.95 14.95 39.1 16.1 39.1 16.8 39.3 17.2 39.9 17.2 40.65 16.8 41.25 15.9 41.85 16.3 43.15 16.3 43.85 16.25 44.05 14.05 44.05 13.4 43.65 12.8 44.05 10.65 44.05 10.55 43.9 10.55 43.2 10.95 41.85 10.1 41.25 9.75 41.25 6.95 40.5 5.45 43.05 4.95 43.5 4.7 43.55 3.45 42.8 3.3 42.5 3.1 39.55 0.55 38.9 0.35 38.85 0.0 36.95 0.4 36.7 2.8 35.75 2.75 33.2 2.5 33.35 1.85 33.6 Q1.45 33.6 1.15 33.4 L0.7 32.85 0.7 32.15 1.1 30.8 0.25 30.15 0.0 30.0 0.0 28.4 0.2 28.25 0.9 28.0 2.05 28.0 2.45 26.9 Q2.55 26.5 2.9 26.35 L3.55 26.1 Q3.9 26.1 4.25 26.35 L4.65 26.85 5.1 28.0 6.25 28.0 6.95 28.25 7.35 28.85 7.35 29.6 6.95 30.15 6.05 30.8 6.45 32.05 6.45 32.75 6.05 33.35 5.9 33.45 6.6 34.2 9.0 33.25 9.7 33.2 10.25 33.5 M3.7 27.65 L3.45 27.65 2.85 29.2 1.3 29.2 1.15 29.4 2.45 30.35 1.9 32.05 2.15 32.2 3.55 31.15 5.05 32.2 5.2 32.05 4.65 30.35 6.0 29.4 5.9 29.2 4.3 29.2 3.7 27.65 M4.2 38.65 L4.45 42.4 6.4 39.15 10.05 40.05 7.65 37.25 9.4 34.3 6.25 35.55 3.9 33.05 3.95 36.5 0.8 37.75 4.2 38.65 M11.15 40.55 L12.3 41.4 11.75 43.15 12.0 43.25 13.4 42.2 14.9 43.25 15.1 43.15 14.5 41.4 15.85 40.5 15.75 40.25 14.15 40.25 13.55 38.75 13.3 38.75 12.7 40.25 11.2 40.25 11.15 40.55" fill="#d1ae5a" fill-rule="evenodd" stroke="none"/>
      <path d="M1.75 29.8 L0.9 29.2 2.85 29.2 3.55 27.25 4.3 29.2 6.25 29.2 5.4 29.8 4.3 29.8 3.55 27.9 2.85 29.8 1.75 29.8 M4.65 30.35 L5.35 32.4 5.05 32.25 4.65 30.95 4.65 30.35 M2.1 32.25 L1.8 32.4 2.45 30.35 2.45 30.95 2.1 32.25 M3.9 33.7 L3.9 33.05 6.25 35.55 9.4 34.3 8.95 35.15 6.25 36.2 3.9 33.7 M7.65 37.25 L10.05 40.05 9.4 39.9 7.65 37.85 7.65 37.25 M1.8 38.05 L0.8 37.75 3.95 36.5 3.95 37.1 1.8 38.05 M11.6 40.9 L10.75 40.25 12.7 40.25 13.4 38.35 14.15 40.25 16.1 40.25 15.25 40.9 14.15 40.9 13.4 38.95 12.7 40.9 11.6 40.9 M14.5 41.4 L15.2 43.5 14.9 43.3 14.5 42.05 14.5 41.4 M11.95 43.3 L11.65 43.5 12.3 41.4 12.3 42.05 11.95 43.3" fill="#674512" fill-rule="evenodd" stroke="none"/>
      <path d="M1.75 29.8 L2.85 29.8 3.55 27.9 4.3 29.8 5.4 29.8 4.65 30.35 4.65 30.95 5.05 32.25 3.55 31.15 2.1 32.25 2.45 30.95 2.45 30.35 1.75 29.8 M3.95 36.5 L3.9 33.7 6.25 36.2 8.95 35.15 7.65 37.25 7.65 37.85 9.4 39.9 6.4 39.15 4.45 42.4 4.2 38.65 1.8 38.05 3.95 37.1 3.95 36.5 M15.25 40.9 L14.5 41.4 14.5 42.05 14.9 43.3 13.4 42.2 11.95 43.3 12.3 42.05 12.3 41.4 11.6 40.9 12.7 40.9 13.4 38.95 14.15 40.9 15.25 40.9" fill="#815815" fill-rule="evenodd" stroke="none"/>
    </g>
  </defs>
</svg>
