<?xml version="1.0" encoding="UTF-8" standalone="no"?>
<svg xmlns:xlink="http://www.w3.org/1999/xlink" height="29.75px" width="54.15px" xmlns="http://www.w3.org/2000/svg">
  <g transform="matrix(1.0, 0.0, 0.0, 1.0, 27.0, 13.7)">
    <path d="M15.2 -11.15 L14.7 -7.4 21.4 -8.0 18.8 -4.5 25.5 -3.9 21.05 -1.05 27.15 0.7 21.25 2.65 26.1 5.3 19.45 6.2 22.5 9.55 15.7 9.25 16.7 12.95 10.4 11.5 9.3 15.2 4.1 12.75 1.0 16.05 -2.55 12.85 -7.45 15.5 -9.0 11.85 -15.1 13.5 -14.6 9.75 -21.35 10.3 -18.65 6.9 -25.35 6.3 -20.95 3.45 -27.0 1.7 -21.2 -0.25 -25.95 -2.95 -19.3 -3.8 -22.35 -7.15 -15.55 -6.85 -16.6 -10.55 -10.25 -9.1 -9.15 -12.8 -4.0 -10.35 -0.85 -13.7 2.7 -10.5 7.55 -13.15 9.15 -9.5 15.2 -11.15 M18.85 -0.9 L11.2 -2.3 13.0 -6.6 5.35 -5.2 2.2 -9.3 -2.55 -5.7 -9.5 -8.0 -9.45 -3.6 -17.5 -3.2 -12.7 0.4 -18.9 3.3 -11.1 4.65 -12.95 9.0 -5.35 7.55 -2.15 11.7 2.6 8.1 9.5 10.4 9.4 5.95 17.5 5.55 12.7 2.0 18.85 -0.9" fill="url(#gradient0)" fill-rule="evenodd" stroke="none"/>
    <path d="M15.7 -3.55 Q15.35 -6.4 11.15 -8.5 L9.15 -9.4 Q5.2 -10.8 0.05 -10.8 -5.05 -10.8 -8.95 -9.45 L-11.05 -8.5 Q-15.25 -6.4 -15.6 -3.55 L-15.65 -4.15 Q-15.65 -5.85 -14.4 -7.3 -13.25 -8.55 -11.15 -9.65 L-11.05 -9.7 Q-6.45 -12.0 0.05 -12.0 6.55 -12.0 11.15 -9.7 L11.3 -9.6 Q13.45 -8.55 14.55 -7.25 15.75 -5.8 15.75 -4.15 L15.7 -3.55" fill="#898c72" fill-rule="evenodd" stroke="none"/>
    <path d="M15.7 -3.55 L15.75 -4.15 Q15.75 -5.8 14.55 -7.25 13.45 -8.55 11.3 -9.6 L11.15 -9.7 Q6.55 -12.0 0.05 -12.0 -6.45 -12.0 -11.05 -9.7 L-11.15 -9.65 Q-13.25 -8.55 -14.4 -7.3 -15.65 -5.85 -15.65 -4.15 L-15.6 -3.55 -15.65 -2.95 Q-15.65 0.3 -11.05 2.55 -6.45 4.9 0.05 4.9 6.55 4.9 11.15 2.55 15.75 0.3 15.75 -2.95 L15.7 -3.55 M19.95 -4.6 L20.15 -2.95 20.05 -1.9 20.0 -1.45 Q19.1 1.95 14.25 4.5 8.35 7.6 0.05 7.6 -8.3 7.6 -14.2 4.5 -19.0 1.95 -19.85 -1.4 L-19.95 -1.9 -20.05 -2.95 -19.7 -5.1 -20.05 -2.95 -19.95 -1.9 -19.85 -1.4 Q-19.0 1.95 -14.2 4.5 -8.3 7.6 0.05 7.6 8.35 7.6 14.25 4.5 19.1 1.95 20.0 -1.45 L20.05 -1.9 20.15 -2.95 19.95 -4.6 Q20.75 -3.4 21.25 -1.45 L21.35 -0.95 Q20.7 3.05 15.15 5.95 8.9 9.3 0.05 9.3 -8.85 9.3 -15.1 5.95 -20.55 3.05 -21.25 -0.85 L-20.85 -2.25 -19.7 -5.1 -19.65 -5.15 Q-18.55 -8.15 -14.2 -10.45 -8.3 -13.55 0.05 -13.55 8.35 -13.55 14.25 -10.45 18.75 -8.1 19.85 -5.0 L19.95 -4.6" fill="#c9cca7" fill-rule="evenodd" stroke="none"/>
    <path d="M-21.25 -0.85 Q-20.55 3.05 -15.1 5.95 -8.85 9.3 0.05 9.3 8.9 9.3 15.15 5.95 20.7 3.05 21.35 -0.95 L21.45 0.2 Q21.45 4.9 15.15 8.2 8.9 11.55 0.05 11.55 -8.85 11.55 -15.1 8.2 -21.35 4.9 -21.35 0.2 L-21.25 -0.75 -21.25 -0.85" fill="#8e9176" fill-rule="evenodd" stroke="none"/>
    <path d="M-15.6 -3.55 Q-15.25 -6.4 -11.05 -8.5 L-8.95 -9.45 Q-5.05 -10.8 0.05 -10.8 5.2 -10.8 9.15 -9.4 L11.15 -8.5 Q15.35 -6.4 15.7 -3.55 L15.75 -2.95 Q15.75 0.3 11.15 2.55 6.55 4.9 0.05 4.9 -6.45 4.9 -11.05 2.55 -15.65 0.3 -15.65 -2.95 L-15.6 -3.55" fill="#585857" fill-rule="evenodd" stroke="none"/>
    <path d="M15.7 -3.55 L15.75 -4.15 Q15.75 -5.8 14.55 -7.25 13.45 -8.55 11.3 -9.6 L11.15 -9.7 Q6.55 -12.0 0.05 -12.0 -6.45 -12.0 -11.05 -9.7 L-11.15 -9.65 Q-13.25 -8.55 -14.4 -7.3 -15.65 -5.85 -15.65 -4.15 L-15.6 -3.55" fill="none" stroke="#000000" stroke-linecap="round" stroke-linejoin="round" stroke-opacity="0.24705882" stroke-width="0.05"/>
    <path d="M-19.7 -5.1 L-20.05 -2.95 -19.95 -1.9 -19.85 -1.4 Q-19.0 1.95 -14.2 4.5 -8.3 7.6 0.05 7.6 8.35 7.6 14.25 4.5 19.1 1.95 20.0 -1.45 L20.05 -1.9 20.15 -2.95 19.95 -4.6" fill="none" stroke="#ffffff" stroke-linecap="round" stroke-linejoin="round" stroke-opacity="0.5019608" stroke-width="0.05"/>
    <path d="M19.95 -4.6 L19.85 -5.0 Q18.75 -8.1 14.25 -10.45 8.35 -13.55 0.05 -13.55 -8.3 -13.55 -14.2 -10.45 -18.55 -8.15 -19.65 -5.15 L-19.7 -5.1 -20.85 -2.25 -21.25 -0.85 -21.25 -0.75 -21.35 0.2 Q-21.35 4.9 -15.1 8.2 -8.85 11.55 0.05 11.55 8.9 11.55 15.15 8.2 21.45 4.9 21.45 0.2 L21.35 -0.95 21.25 -1.45 Q20.75 -3.4 19.95 -4.6" fill="none" stroke="#000000" stroke-linecap="round" stroke-linejoin="round" stroke-opacity="0.5019608" stroke-width="0.05"/>
    <path d="M-15.6 -3.55 L-15.65 -2.95 Q-15.65 0.3 -11.05 2.55 -6.45 4.9 0.05 4.9 6.55 4.9 11.15 2.55 15.75 0.3 15.75 -2.95 L15.7 -3.55 Z" fill="none" stroke="#000000" stroke-linecap="round" stroke-linejoin="round" stroke-opacity="0.24705882" stroke-width="0.1"/>
    <path d="M1.2 -6.1 L1.2 -3.3 Q4.65 -2.3 8.55 -3.85 4.85 -4.5 1.2 -6.1 M-8.1 -0.25 L-7.5 0.15 -6.85 -0.2 Q-4.05 -1.45 -0.15 -1.45 3.85 -1.45 6.6 -0.2 L7.2 0.1 8.05 -0.3 7.5 -0.6 Q4.4 -2.0 -0.05 -2.0 -4.4 -2.0 -7.5 -0.6 L-8.1 -0.25 M11.1 -4.75 Q11.8 -3.85 11.8 -2.8 11.8 -1.8 11.1 -0.9 L9.3 0.5 8.9 0.75 8.45 0.95 8.35 1.0 Q4.9 2.6 -0.05 2.6 -4.95 2.6 -8.45 1.0 L-8.6 0.9 -8.65 0.9 -9.4 0.5 Q-11.9 -0.9 -11.9 -2.8 -11.9 -5.05 -8.45 -6.65 -4.95 -8.2 -0.05 -8.2 4.9 -8.2 8.35 -6.65 10.2 -5.8 11.1 -4.75 M-9.0 -3.85 Q-5.15 -2.3 -1.7 -3.3 L-1.7 -6.1 Q-5.35 -4.5 -9.0 -3.85" fill="url(#gradient1)" fill-rule="evenodd" stroke="none"/>
    <path d="M1.2 -6.1 L1.2 -3.3 Q4.65 -2.3 8.55 -3.85 4.85 -4.5 1.2 -6.1 M-8.1 -0.25 L-7.5 0.15 -6.85 -0.2 Q-4.05 -1.45 -0.15 -1.45 3.85 -1.45 6.6 -0.2 L7.2 0.1 8.05 -0.3 7.5 -0.6 Q4.4 -2.0 -0.05 -2.0 -4.4 -2.0 -7.5 -0.6 L-8.1 -0.25 M11.1 -4.75 Q11.8 -3.85 11.8 -2.8 11.8 -1.8 11.1 -0.9 L9.3 0.5 8.9 0.75 8.45 0.95 8.35 1.0 Q4.9 2.6 -0.05 2.6 -4.95 2.6 -8.45 1.0 L-8.6 0.9 -8.65 0.9 -9.4 0.5 Q-11.9 -0.9 -11.9 -2.8 -11.9 -5.05 -8.45 -6.65 -4.95 -8.2 -0.05 -8.2 4.9 -8.2 8.35 -6.65 10.2 -5.8 11.1 -4.75 M-9.0 -3.85 Q-5.35 -4.5 -1.7 -6.1 L-1.7 -3.3 Q-5.15 -2.3 -9.0 -3.85" fill="none" stroke="#ffffff" stroke-linecap="round" stroke-linejoin="round" stroke-opacity="0.32941177" stroke-width="0.2"/>
  </g>
  <defs>
    <radialGradient cx="0" cy="0" gradientTransform="matrix(0.0331, 0.0, 0.0, 0.0331, 0.1, 1.2)" gradientUnits="userSpaceOnUse" id="gradient0" r="819.2" spreadMethod="pad">
      <stop offset="0.0" stop-color="#ffffff"/>
      <stop offset="0.7725490196078432" stop-color="#00a8a8"/>
    </radialGradient>
    <radialGradient cx="0" cy="0" fx="339.20000000000005" fy="0" gradientTransform="matrix(0.0183, 0.0, 0.0, 0.0088, 0.1, -2.75)" gradientUnits="userSpaceOnUse" id="gradient1" r="819.2" spreadMethod="pad">
      <stop offset="0.34509803921568627" stop-color="#00ffcc"/>
      <stop offset="0.9921568627450981" stop-color="#00ccff"/>
    </radialGradient>
  </defs>
</svg>
