<?xml version="1.0" encoding="UTF-8" standalone="no"?>
<svg xmlns:xlink="http://www.w3.org/1999/xlink" height="29.75px" width="54.15px" xmlns="http://www.w3.org/2000/svg">
  <g transform="matrix(1.0, 0.0, 0.0, 1.0, 27.1, 14.85)">
    <path d="M15.1 -12.3 L14.6 -8.55 21.3 -9.15 18.7 -5.65 25.4 -5.05 20.95 -2.2 27.05 -0.45 21.15 1.5 26.0 4.15 19.35 5.05 22.4 8.4 15.6 8.1 16.6 11.8 10.3 10.35 9.2 14.05 4.0 11.6 0.9 14.9 -2.65 11.7 -7.55 14.35 -9.1 10.7 -15.2 12.35 -14.7 8.6 -21.45 9.15 -18.75 5.75 -25.45 5.15 -21.05 2.3 -27.1 0.55 -21.3 -1.4 -26.05 -4.1 -19.4 -4.95 -22.45 -8.3 -15.65 -8.0 -16.7 -11.7 -10.35 -10.25 -9.25 -13.95 -4.1 -11.5 -0.95 -14.85 2.6 -11.65 7.45 -14.3 9.05 -10.65 15.1 -12.3 M18.75 -2.05 L11.1 -3.45 12.9 -7.75 5.25 -6.35 2.1 -10.45 -2.65 -6.85 -9.6 -9.15 -9.55 -4.75 -17.6 -4.35 -12.8 -0.75 -19.0 2.15 -11.2 3.5 -13.05 7.85 -5.45 6.4 -2.25 10.55 2.5 6.95 9.4 9.25 9.3 4.8 17.4 4.4 12.6 0.85 18.75 -2.05" fill="#5e3820" fill-rule="evenodd" stroke="none"/>
    <path d="M-15.85 -4.5 L-15.9 -5.1 Q-15.9 -6.8 -14.65 -8.25 -13.5 -9.5 -11.4 -10.6 L-11.3 -10.65 Q-6.7 -12.95 -0.2 -12.95 6.3 -12.95 10.9 -10.65 L11.05 -10.55 Q13.2 -9.5 14.3 -8.2 15.5 -6.75 15.5 -5.1 L15.45 -4.5 Q15.1 -7.35 10.9 -9.45 L8.9 -10.35 Q4.95 -11.75 -0.2 -11.75 -5.3 -11.75 -9.2 -10.4 L-11.3 -9.45 Q-15.5 -7.35 -15.85 -4.5" fill="#898c72" fill-rule="evenodd" stroke="none"/>
    <path d="M15.45 -4.5 L15.5 -5.1 Q15.5 -6.75 14.3 -8.2 13.2 -9.5 11.05 -10.55 L10.9 -10.65 Q6.3 -12.95 -0.2 -12.95 -6.7 -12.95 -11.3 -10.65 L-11.4 -10.6 Q-13.5 -9.5 -14.65 -8.25 -15.9 -6.8 -15.9 -5.1 L-15.85 -4.5 -15.9 -3.9 Q-15.9 -0.65 -11.3 1.6 -6.7 3.95 -0.2 3.95 6.3 3.95 10.9 1.6 15.5 -0.65 15.5 -3.9 L15.45 -4.5 M-19.95 -6.05 L-19.9 -6.1 Q-18.8 -9.1 -14.45 -11.4 -8.55 -14.5 -0.2 -14.5 8.1 -14.5 14.0 -11.4 18.5 -9.05 19.6 -5.95 L19.7 -5.55 19.9 -3.9 19.8 -2.85 19.75 -2.4 Q18.85 1.0 14.0 3.55 8.1 6.65 -0.2 6.65 -8.55 6.65 -14.45 3.55 -19.25 1.0 -20.1 -2.35 L-20.2 -2.85 -20.3 -3.9 -19.95 -6.05 -20.3 -3.9 -20.2 -2.85 -20.1 -2.35 Q-19.25 1.0 -14.45 3.55 -8.55 6.65 -0.2 6.65 8.1 6.65 14.0 3.55 18.85 1.0 19.75 -2.4 L19.8 -2.85 19.9 -3.9 19.7 -5.55 Q20.5 -4.35 21.0 -2.4 L21.1 -1.9 Q20.45 2.1 14.9 5.0 8.65 8.35 -0.2 8.35 -9.1 8.35 -15.35 5.0 -20.8 2.1 -21.5 -1.8 L-21.1 -3.2 -19.95 -6.05" fill="#c9cca7" fill-rule="evenodd" stroke="none"/>
    <path d="M-15.85 -4.5 Q-15.5 -7.35 -11.3 -9.45 L-9.2 -10.4 Q-5.3 -11.75 -0.2 -11.75 4.95 -11.75 8.9 -10.35 L10.9 -9.45 Q15.1 -7.35 15.45 -4.5 L15.5 -3.9 Q15.5 -0.65 10.9 1.6 6.3 3.95 -0.2 3.95 -6.7 3.95 -11.3 1.6 -15.9 -0.65 -15.9 -3.9 L-15.85 -4.5" fill="#afb292" fill-rule="evenodd" stroke="none"/>
    <path d="M21.1 -1.9 L21.2 -0.75 Q21.2 3.95 14.9 7.25 8.65 10.6 -0.2 10.6 -9.1 10.6 -15.35 7.25 -21.6 3.95 -21.6 -0.75 L-21.5 -1.7 -21.5 -1.8 Q-20.8 2.1 -15.35 5.0 -9.1 8.35 -0.2 8.35 8.65 8.35 14.9 5.0 20.45 2.1 21.1 -1.9" fill="#8e9176" fill-rule="evenodd" stroke="none"/>
    <path d="M15.45 -4.5 L15.5 -5.1 Q15.5 -6.75 14.3 -8.2 13.2 -9.5 11.05 -10.55 L10.9 -10.65 Q6.3 -12.95 -0.2 -12.95 -6.7 -12.95 -11.3 -10.65 L-11.4 -10.6 Q-13.5 -9.5 -14.65 -8.25 -15.9 -6.8 -15.9 -5.1 L-15.85 -4.5 M19.7 -5.55 L19.6 -5.95 Q18.5 -9.05 14.0 -11.4 8.1 -14.5 -0.2 -14.5 -8.55 -14.5 -14.45 -11.4 -18.8 -9.1 -19.9 -6.1 L-19.95 -6.05 -21.1 -3.2 -21.5 -1.8 -21.5 -1.7 -21.6 -0.75 Q-21.6 3.95 -15.35 7.25 -9.1 10.6 -0.2 10.6 8.65 10.6 14.9 7.25 21.2 3.95 21.2 -0.75 L21.1 -1.9 21.0 -2.4 Q20.5 -4.35 19.7 -5.55" fill="none" stroke="#000000" stroke-linecap="round" stroke-linejoin="round" stroke-opacity="0.5019608" stroke-width="0.05"/>
    <path d="M-19.95 -6.05 L-20.3 -3.9 -20.2 -2.85 -20.1 -2.35 Q-19.25 1.0 -14.45 3.55 -8.55 6.65 -0.2 6.65 8.1 6.65 14.0 3.55 18.85 1.0 19.75 -2.4 L19.8 -2.85 19.9 -3.9 19.7 -5.55" fill="none" stroke="#ffffff" stroke-linecap="round" stroke-linejoin="round" stroke-opacity="0.5019608" stroke-width="0.05"/>
    <path d="M6.75 -4.65 L5.7 -3.45 6.85 -3.25 6.85 -2.6 5.8 -2.3 Q4.95 -2.55 4.15 -2.3 5.55 -1.75 5.8 -1.05 5.2 -0.5 3.75 -0.5 L3.2 -0.5 2.55 -0.75 Q0.8 -1.55 1.0 -0.5 L-0.5 -0.3 -1.95 -0.5 Q-1.85 -0.85 -2.05 -1.0 L-2.1 -1.05 Q-2.6 -1.25 -4.2 -0.5 L-4.75 -0.5 -5.45 -0.5 Q-6.3 -0.65 -6.75 -1.05 -6.5 -1.75 -5.1 -2.3 -5.95 -2.55 -6.8 -2.3 L-7.85 -2.6 -7.85 -3.2 -6.7 -3.45 -7.7 -4.65 Q-8.0 -5.65 -7.6 -6.4 L-7.1 -6.95 Q-5.8 -8.0 -2.4 -8.25 L-0.5 -8.3 Q7.9 -8.25 6.75 -4.65 M-0.85 -2.8 L-1.5 -1.55 -0.4 -1.85 0.8 -1.55 0.15 -2.8 -0.85 -2.8 M4.0 -5.75 L3.85 -5.8 2.25 -6.25 1.4 -6.25 Q0.85 -6.2 0.25 -5.2 L0.15 -5.05 Q-0.15 -4.35 0.2 -3.85 0.5 -3.45 1.05 -3.4 L1.6 -3.4 2.6 -3.4 3.1 -3.45 5.0 -3.65 5.2 -4.45 Q5.35 -5.1 5.1 -5.2 L4.9 -5.3 4.0 -5.75 M-0.25 -8.8 L-1.4 -11.15 -2.25 -9.75 -3.95 -11.0 -4.15 -9.55 -6.15 -10.65 -5.85 -9.15 -8.15 -10.05 -7.05 -8.65 -6.55 -7.95 -7.1 -8.15 -7.2 -8.2 -8.3 -8.65 -10.25 -9.35 -8.95 -7.95 -11.85 -8.5 -10.15 -7.2 -13.1 -7.5 -11.1 -6.4 -14.05 -6.45 -9.95 -5.3 -14.9 -5.3 -12.15 -4.6 -15.0 -4.15 -12.2 -3.65 -14.95 -2.95 -12.0 -2.65 -14.3 -1.85 -9.8 -2.1 -13.4 -0.8 -10.55 -1.0 -12.2 0.3 -9.3 -0.2 -10.6 1.15 -7.85 0.5 -8.7 1.8 -5.4 0.3 -6.75 2.4 -4.6 1.35 -4.55 2.95 -4.4 2.95 -2.65 1.65 -1.95 3.2 -0.7 1.8 0.35 3.15 0.95 0.8 2.9 3.05 3.15 1.55 5.05 2.65 4.95 1.2 7.15 2.15 5.8 0.15 9.25 1.5 8.1 0.1 10.9 0.7 9.4 -0.65 12.3 -0.3 10.3 -1.4 13.35 -1.3 9.15 -2.65 14.2 -2.35 14.25 -2.45 11.45 -3.25 14.5 -3.65 14.5 -3.7 11.75 -4.25 14.4 -4.85 11.45 -5.15 13.95 -6.05 13.95 -6.1 8.9 -5.6 13.05 -7.1 10.15 -6.9 11.85 -8.05 9.05 -7.65 10.4 -9.0 7.6 -8.35 8.6 -9.8 5.15 -8.15 6.4 -10.35 4.3 -9.35 4.3 -10.8 3.0 -9.6 2.75 -11.1 1.3 -9.8 0.95 -11.2 -0.25 -8.8 M10.9 -9.5 Q15.6 -7.25 15.6 -4.05 15.6 -0.85 10.9 1.4 6.3 3.65 -0.2 3.65 -6.75 3.65 -11.4 1.4 -16.0 -0.85 -16.0 -4.05 -16.0 -7.25 -11.4 -9.5 -6.75 -11.75 -0.2 -11.75 6.3 -11.75 10.9 -9.5 M-1.85 -6.25 L-2.65 -6.25 -4.35 -5.8 -5.6 -5.2 Q-5.8 -5.1 -5.65 -4.45 L-5.5 -3.65 -4.5 -3.5 -3.6 -3.45 -1.5 -3.4 Q-1.0 -3.45 -0.7 -3.85 -0.35 -4.35 -0.65 -5.05 L-0.75 -5.2 -1.25 -5.85 -1.85 -6.25" fill="#5f3921" fill-rule="evenodd" stroke="none"/>
  </g>
</svg>
