<?xml version="1.0" encoding="UTF-8" standalone="no"?>
<svg xmlns:xlink="http://www.w3.org/1999/xlink" height="595.0px" width="1083.0px" xmlns="http://www.w3.org/2000/svg">
  <g transform="matrix(20.0, 0.0, 0.0, 20.0, 542.0, 298.0)">
    <use height="29.75" transform="matrix(1.0, 0.0, 0.0, 1.0, -27.1, -14.9)" width="54.15" xlink:href="#shape0"/>
  </g>
  <defs>
    <g id="shape0" transform="matrix(1.0, 0.0, 0.0, 1.0, 27.1, 14.9)">
      <path d="M15.1 -12.35 L14.6 -8.6 21.3 -9.2 18.7 -5.7 25.4 -5.1 20.95 -2.25 27.05 -0.5 21.15 1.45 26.0 4.1 19.35 5.0 22.4 8.35 15.6 8.05 16.6 11.75 10.3 10.3 9.2 14.0 4.0 11.55 0.9 14.85 -2.65 11.65 -7.55 14.3 -9.1 10.65 -15.2 12.3 -14.7 8.55 -21.45 9.1 -18.75 5.7 -25.45 5.1 -21.05 2.25 -27.1 0.5 -23.85 -0.55 -23.75 -0.55 -21.3 -1.45 -25.1 -3.6 -25.9 -4.15 -18.9 -5.2 -19.5 -5.15 -22.45 -8.35 -15.65 -8.05 -16.7 -11.75 -10.35 -10.3 -9.25 -14.0 -4.1 -11.55 -0.95 -14.9 2.6 -11.7 7.45 -14.35 9.05 -10.7 15.1 -12.35 M18.75 -2.1 L11.1 -3.5 12.9 -7.8 5.25 -6.4 2.1 -10.5 -2.65 -6.9 -9.6 -9.2 -9.55 -4.8 -17.6 -4.4 -12.8 -0.8 -19.0 2.1 -11.2 3.45 -13.05 7.8 -5.45 6.35 -2.25 10.5 2.5 6.9 9.4 9.2 9.3 4.75 17.4 4.35 12.6 0.8 18.75 -2.1" fill="url(#gradient0)" fill-rule="evenodd" stroke="none"/>
      <path d="M-15.85 -4.55 L-15.9 -5.15 Q-15.9 -6.85 -14.65 -8.3 -13.5 -9.55 -11.4 -10.65 L-11.3 -10.7 Q-6.7 -13.0 -0.2 -13.0 6.3 -13.0 10.9 -10.7 L11.05 -10.6 Q13.2 -9.55 14.3 -8.25 L14.75 -7.65 Q15.6 -6.4 15.6 -5.0 L15.55 -4.4 15.5 -4.8 14.8 -6.35 Q13.7 -8.0 11.0 -9.35 L9.0 -10.25 Q5.05 -11.65 -0.1 -11.65 -5.2 -11.65 -9.1 -10.3 L-11.2 -9.35 Q-15.4 -7.25 -15.75 -4.4 L-15.8 -4.85 -15.85 -4.55" fill="#898c72" fill-rule="evenodd" stroke="none"/>
      <path d="M14.75 -7.65 L14.3 -8.25 Q13.2 -9.55 11.05 -10.6 L10.9 -10.7 Q6.3 -13.0 -0.2 -13.0 -6.7 -13.0 -11.3 -10.7 L-11.4 -10.65 Q-13.5 -9.55 -14.65 -8.3 -15.9 -6.85 -15.9 -5.15 L-15.85 -4.55 -15.9 -3.95 Q-15.9 -2.55 -15.05 -1.35 -13.95 0.35 -11.2 1.7 -6.6 4.05 -0.1 4.05 6.4 4.05 11.0 1.7 15.6 -0.55 15.6 -3.8 L15.55 -4.4 15.6 -5.0 Q15.6 -6.4 14.75 -7.65 M19.7 -5.6 L19.9 -3.95 19.8 -2.9 19.75 -2.45 Q18.85 0.95 14.0 3.5 8.1 6.6 -0.2 6.6 -8.55 6.6 -14.45 3.5 -19.25 0.95 -20.1 -2.4 L-20.2 -2.9 -20.3 -3.95 -19.95 -6.1 -20.3 -3.95 -20.2 -2.9 -20.1 -2.4 Q-19.25 0.95 -14.45 3.5 -8.55 6.6 -0.2 6.6 8.1 6.6 14.0 3.5 18.85 0.95 19.75 -2.45 L19.8 -2.9 19.9 -3.95 19.7 -5.6 Q20.5 -4.4 21.0 -2.45 L21.1 -1.95 Q20.45 2.05 14.9 4.95 8.65 8.3 -0.2 8.3 -9.1 8.3 -15.35 4.95 -20.8 2.05 -21.5 -1.85 L-21.1 -3.25 -19.95 -6.1 -19.9 -6.15 Q-18.8 -9.15 -14.45 -11.45 -8.55 -14.55 -0.2 -14.55 8.1 -14.55 14.0 -11.45 18.5 -9.1 19.6 -6.0 L19.7 -5.6" fill="#c9cca7" fill-rule="evenodd" stroke="none"/>
      <path d="M-15.75 -4.4 Q-15.4 -7.25 -11.2 -9.35 L-9.1 -10.3 Q-5.2 -11.65 -0.1 -11.65 5.05 -11.65 9.0 -10.25 L11.0 -9.35 Q13.7 -8.0 14.8 -6.35 L15.5 -4.8 15.55 -4.4 15.6 -3.8 Q15.6 -0.55 11.0 1.7 6.4 4.05 -0.1 4.05 -6.6 4.05 -11.2 1.7 -13.95 0.35 -15.05 -1.35 -15.8 -2.5 -15.8 -3.8 L-15.75 -4.4" fill="#585857" fill-rule="evenodd" stroke="none"/>
      <path d="M-21.5 -1.85 Q-20.8 2.05 -15.35 4.95 -9.1 8.3 -0.2 8.3 8.65 8.3 14.9 4.95 20.45 2.05 21.1 -1.95 L21.2 -0.8 Q21.2 3.9 14.9 7.2 8.65 10.55 -0.2 10.55 -9.1 10.55 -15.35 7.2 -21.6 3.9 -21.6 -0.8 L-21.5 -1.75 -21.5 -1.85" fill="#8e9176" fill-rule="evenodd" stroke="none"/>
      <path d="M-15.85 -4.55 L-15.8 -4.85 -15.75 -4.4 -15.8 -3.8 Q-15.8 -2.5 -15.05 -1.35 -15.9 -2.55 -15.9 -3.95 L-15.85 -4.55" fill="#5a5b4b" fill-rule="evenodd" stroke="none"/>
      <path d="M14.75 -7.65 L14.3 -8.25 Q13.2 -9.55 11.05 -10.6 L10.9 -10.7 Q6.3 -13.0 -0.2 -13.0 -6.7 -13.0 -11.3 -10.7 L-11.4 -10.65 Q-13.5 -9.55 -14.65 -8.3 -15.9 -6.85 -15.9 -5.15 L-15.85 -4.55 M15.55 -4.4 L15.6 -3.8 Q15.6 -0.55 11.0 1.7 6.4 4.05 -0.1 4.05 -6.6 4.05 -11.2 1.7 -13.95 0.35 -15.05 -1.35 -15.9 -2.55 -15.9 -3.95 L-15.85 -4.55 M-15.05 -1.35 Q-15.8 -2.5 -15.8 -3.8 L-15.75 -4.4" fill="none" stroke="#000000" stroke-linecap="round" stroke-linejoin="round" stroke-opacity="0.24705882" stroke-width="0.1"/>
      <path d="M19.7 -5.6 L19.6 -6.0 Q18.5 -9.1 14.0 -11.45 8.1 -14.55 -0.2 -14.55 -8.55 -14.55 -14.45 -11.45 -18.8 -9.15 -19.9 -6.15 L-19.95 -6.1 -21.1 -3.25 -21.5 -1.85 -21.5 -1.75 -21.6 -0.8 Q-21.6 3.9 -15.35 7.2 -9.1 10.55 -0.2 10.55 8.65 10.55 14.9 7.2 21.2 3.9 21.2 -0.8 L21.1 -1.95 21.0 -2.45 Q20.5 -4.4 19.7 -5.6" fill="none" stroke="#000000" stroke-linecap="round" stroke-linejoin="round" stroke-opacity="0.5019608" stroke-width="0.05"/>
      <path d="M-19.95 -6.1 L-20.3 -3.95 -20.2 -2.9 -20.1 -2.4 Q-19.25 0.95 -14.45 3.5 -8.55 6.6 -0.2 6.6 8.1 6.6 14.0 3.5 18.85 0.95 19.75 -2.45 L19.8 -2.9 19.9 -3.95 19.7 -5.6" fill="none" stroke="#ffffff" stroke-linecap="round" stroke-linejoin="round" stroke-opacity="0.5019608" stroke-width="0.05"/>
      <path d="M3.9 -8.2 L2.05 -9.75 9.55 -9.4 Q8.85 -6.35 7.4 -4.55 L6.2 -6.25 1.05 -4.85 3.9 -8.2" fill="url(#gradient1)" fill-rule="evenodd" stroke="none"/>
      <path d="M7.65 -3.35 Q9.65 -1.3 10.05 1.3 L1.85 0.55 4.1 -0.7 1.0 -3.25 6.0 -1.95 7.65 -3.35 M-1.85 -2.95 L-5.2 -0.6 -2.05 0.8 -10.4 1.4 Q-10.25 -0.35 -7.9 -3.25 L-6.6 -1.6 -1.85 -2.95 M-4.8 -8.2 L-1.95 -4.85 -7.1 -6.25 -8.3 -4.55 Q-9.75 -6.35 -10.45 -9.4 L-2.95 -9.75 -4.8 -8.2" fill="url(#gradient2)" fill-rule="evenodd" stroke="none"/>
      <path d="M3.9 -8.2 L1.05 -4.85 6.2 -6.25 7.4 -4.55 Q8.85 -6.35 9.55 -9.4 L2.05 -9.75 3.9 -8.2 M7.65 -3.35 Q9.65 -1.3 10.05 1.3 L1.85 0.55 4.1 -0.7 1.0 -3.25 6.0 -1.95 7.65 -3.35 M-1.85 -2.95 L-5.2 -0.6 -2.05 0.8 -10.4 1.4 Q-10.25 -0.35 -7.9 -3.25 L-6.6 -1.6 -1.85 -2.95 M-4.8 -8.2 L-1.95 -4.85 -7.1 -6.25 -8.3 -4.55 Q-9.75 -6.35 -10.45 -9.4 L-2.95 -9.75 -4.8 -8.2" fill="none" stroke="#ffffff" stroke-linecap="round" stroke-linejoin="round" stroke-opacity="0.24705882" stroke-width="0.1"/>
    </g>
    <radialGradient cx="0" cy="0" gradientTransform="matrix(1.0E-4, -0.0148, 0.0305, 3.0E-4, 0.0, -0.45)" gradientUnits="userSpaceOnUse" id="gradient0" r="819.2" spreadMethod="pad">
      <stop offset="0.8431372549019608" stop-color="#428415"/>
      <stop offset="1.0" stop-color="#2ccb9a"/>
    </radialGradient>
    <radialGradient cx="0" cy="0" gradientTransform="matrix(-0.0208, 0.0, 0.0, 0.0208, -0.45, -4.25)" gradientUnits="userSpaceOnUse" id="gradient1" r="819.2" spreadMethod="pad">
      <stop offset="0.0" stop-color="#abffa2"/>
      <stop offset="1.0" stop-color="#00cc99"/>
    </radialGradient>
    <radialGradient cx="0" cy="0" gradientTransform="matrix(0.0208, 0.0, 0.0, 0.0208, -0.45, -4.25)" gradientUnits="userSpaceOnUse" id="gradient2" r="819.2" spreadMethod="pad">
      <stop offset="0.0" stop-color="#abffa2"/>
      <stop offset="1.0" stop-color="#00cc99"/>
    </radialGradient>
  </defs>
</svg>
