<?xml version="1.0" encoding="UTF-8" standalone="no"?>
<svg xmlns:xlink="http://www.w3.org/1999/xlink" height="19.9px" width="35.6px" xmlns="http://www.w3.org/2000/svg">
  <g transform="matrix(1.0, 0.0, 0.0, 1.0, 18.1, 8.9)">
    <path d="M8.25 -0.8 Q7.65 -0.5 6.85 -0.5 L5.4 -0.85 Q4.8 -1.15 4.85 -1.5 4.8 -1.95 5.4 -2.25 L8.0 -3.55 Q4.4 -4.9 -0.2 -4.9 -4.85 -4.9 -8.45 -3.55 L-5.85 -2.25 Q-5.25 -1.95 -5.25 -1.55 -5.25 -1.15 -5.85 -0.85 -6.45 -0.55 -7.25 -0.55 L-8.7 -0.8 -11.3 -2.1 Q-14.0 -0.35 -13.95 2.05 L-14.0 2.05 Q-14.0 4.4 -11.25 6.15 L-8.7 4.9 -7.2 4.6 Q-6.45 4.55 -5.85 4.85 -5.25 5.15 -5.2 5.6 -5.25 6.0 -5.85 6.3 L-8.4 7.6 Q-4.85 8.95 -0.2 8.95 4.4 8.95 8.0 7.6 L5.4 6.3 Q4.8 6.0 4.85 5.6 4.8 5.15 5.4 4.85 6.0 4.55 6.85 4.6 7.65 4.6 8.25 4.9 L10.85 6.2 Q13.5 4.4 13.5 2.05 13.5 -0.3 10.85 -2.1 L8.25 -0.8 M12.85 -6.0 L14.3 -6.25 15.65 -6.0 Q16.25 -5.7 16.3 -5.25 16.3 -4.85 15.7 -4.55 L13.65 -3.55 Q17.5 -1.15 17.5 2.05 L17.5 2.1 Q17.45 5.2 13.65 7.6 L15.7 8.65 Q16.3 8.95 16.3 9.35 16.3 9.75 15.7 10.05 L14.3 10.35 12.85 10.05 10.85 9.05 Q6.1 10.95 -0.2 11.0 -6.55 10.95 -11.3 9.05 L-13.3 10.05 -14.65 10.35 -16.15 10.05 Q-16.75 9.75 -16.65 9.35 -16.75 8.95 -16.15 8.65 L-14.1 7.6 Q-17.95 5.25 -18.0 2.05 -17.95 -1.15 -14.1 -3.55 L-16.15 -4.55 Q-16.75 -4.85 -16.7 -5.3 L-16.1 -6.0 -14.7 -6.3 -13.3 -6.0 -11.3 -4.95 Q-6.55 -6.9 -0.2 -6.9 6.1 -6.9 10.85 -4.95 L12.85 -6.0" fill="#000000" fill-opacity="0.3019608" fill-rule="evenodd" stroke="none"/>
    <path d="M-5.3 3.6 Q-5.35 3.15 -5.95 2.85 L-7.3 2.6 -8.8 2.9 -11.35 4.15 Q-14.15 2.4 -14.15 0.05 L-14.1 0.0 Q-14.15 -2.3 -11.4 -4.1 L-8.8 -2.8 -7.35 -2.5 -5.95 -2.8 Q-5.35 -3.1 -5.35 -3.5 -5.35 -3.9 -5.95 -4.2 L-8.55 -5.5 Q-4.95 -6.85 -0.35 -6.9 4.3 -6.85 7.85 -5.5 L5.3 -4.2 Q4.7 -3.9 4.75 -3.5 4.7 -3.1 5.3 -2.8 L6.75 -2.5 Q7.55 -2.5 8.1 -2.8 L10.7 -4.1 Q13.4 -2.3 13.4 0.0 13.4 2.4 10.7 4.2 L8.1 2.9 6.75 2.6 5.3 2.85 Q4.7 3.15 4.75 3.6 4.7 4.0 5.3 4.3 L7.85 5.6 Q4.3 6.95 -0.35 6.95 -4.95 6.95 -8.5 5.6 L-5.95 4.3 Q-5.35 4.0 -5.3 3.6 M-13.45 8.05 L-11.4 7.05 Q-6.65 8.95 -0.35 9.0 6.0 8.95 10.7 7.05 L12.75 8.05 14.2 8.35 15.6 8.05 Q16.2 7.75 16.2 7.35 16.2 6.95 15.6 6.65 L13.55 5.6 Q17.35 3.2 17.4 0.05 L17.4 0.0 Q17.4 -3.15 13.55 -5.5 L15.6 -6.55 Q16.2 -6.85 16.2 -7.25 L15.55 -7.95 14.2 -8.25 12.75 -7.95 10.7 -6.95 Q6.0 -8.85 -0.35 -8.9 -6.65 -8.85 -11.4 -6.95 L-13.45 -7.95 -14.85 -8.25 -16.2 -7.95 Q-16.8 -7.65 -16.8 -7.25 -16.85 -6.85 -16.25 -6.55 L-14.25 -5.5 Q-18.05 -3.15 -18.1 0.05 -18.05 3.25 -14.25 5.6 L-16.25 6.65 Q-16.85 6.95 -16.75 7.35 -16.85 7.75 -16.25 8.05 L-14.8 8.35 -13.45 8.05" fill="#ffffff" fill-rule="evenodd" stroke="none"/>
  </g>
</svg>
