<?xml version="1.0" encoding="UTF-8" standalone="no"?>
<svg xmlns:xlink="http://www.w3.org/1999/xlink" height="112.65px" width="190.45px" xmlns="http://www.w3.org/2000/svg">
  <g transform="matrix(1.0, 0.0, 0.0, 1.0, 96.45, 56.1)">
    <use height="126.15" transform="matrix(1.054, 0.0, 0.0, 0.6234, -67.4589, -39.1607)" width="126.15" xlink:href="#sprite0"/>
    <use height="136.0" transform="matrix(0.4103, 0.0599, -0.1058, 0.2261, -21.5847, -19.2447)" width="136.0" xlink:href="#sprite2"/>
    <use height="136.0" transform="matrix(0.4107, 0.0599, -0.1059, 0.2263, -21.6544, -20.6644)" width="136.0" xlink:href="#sprite2"/>
    <use height="136.0" transform="matrix(0.4081, 0.0596, -0.1052, 0.2249, -21.5728, -22.441)" width="136.0" xlink:href="#sprite2"/>
    <use height="38.05" transform="matrix(0.7276, -0.1491, 0.2844, 0.3976, -20.327, -14.2701)" width="38.05" xlink:href="#sprite3"/>
    <use height="38.05" transform="matrix(0.7276, -0.1491, 0.2844, 0.3976, -20.527, -15.3201)" width="38.05" xlink:href="#sprite3"/>
  </g>
  <defs>
    <g id="sprite0" transform="matrix(1.0, 0.0, 0.0, 1.0, 69.55, 65.55)">
      <use height="189.5" transform="matrix(-0.2209, 0.4171, -0.417, -0.221, 53.9505, -21.0527)" width="189.5" xlink:href="#sprite1"/>
    </g>
    <g id="sprite1" transform="matrix(1.0, 0.0, 0.0, 1.0, 94.65, 94.45)">
      <use height="189.5" transform="matrix(1.0, 0.0, 0.0, 1.0, -94.65, -94.45)" width="189.5" xlink:href="#shape0"/>
    </g>
    <g id="shape0" transform="matrix(1.0, 0.0, 0.0, 1.0, 94.65, 94.45)">
      <path d="M49.35 28.65 Q49.35 30.6 47.95 31.95 46.6 33.3 44.7 33.3 42.8 33.3 41.4 31.95 40.05 30.6 40.05 28.65 40.05 26.75 41.4 25.4 42.8 24.05 44.7 24.05 46.6 24.05 47.95 25.4 49.35 26.75 49.35 28.65" fill="url(#gradient0)" fill-rule="evenodd" stroke="none"/>
      <path d="M49.75 0.1 Q51.15 -1.25 53.05 -1.25 54.95 -1.25 56.3 0.1 57.7 1.45 57.7 3.35 57.7 5.3 56.3 6.65 54.95 8.0 53.05 8.0 51.15 8.0 49.75 6.65 48.4 5.3 48.4 3.35 48.4 1.45 49.75 0.1" fill="url(#gradient1)" fill-rule="evenodd" stroke="none"/>
      <path d="M47.3 -28.8 Q49.2 -28.8 50.55 -27.45 51.95 -26.1 51.95 -24.2 51.95 -22.25 50.55 -20.9 49.2 -19.55 47.3 -19.55 45.4 -19.55 44.0 -20.9 42.65 -22.25 42.65 -24.2 42.65 -26.1 44.0 -27.45 45.4 -28.8 47.3 -28.8" fill="url(#gradient2)" fill-rule="evenodd" stroke="none"/>
      <path d="M30.65 -48.4 Q32.55 -48.4 33.9 -47.05 35.3 -45.7 35.3 -43.8 35.3 -41.85 33.9 -40.5 32.55 -39.15 30.65 -39.15 28.75 -39.15 27.35 -40.5 26.0 -41.85 26.0 -43.8 26.0 -45.7 27.35 -47.05 28.75 -48.4 30.65 -48.4" fill="url(#gradient3)" fill-rule="evenodd" stroke="none"/>
      <path d="M47.75 -64.1 Q46.4 -62.75 44.5 -62.75 42.6 -62.75 41.2 -64.1 39.85 -65.45 39.85 -67.4 39.85 -69.3 41.2 -70.65 42.6 -72.0 44.5 -72.0 46.4 -72.0 47.75 -70.65 49.15 -69.3 49.15 -67.4 49.15 -65.45 47.75 -64.1" fill="url(#gradient4)" fill-rule="evenodd" stroke="none"/>
      <path d="M67.15 -35.35 Q65.8 -36.7 65.8 -38.65 65.8 -40.55 67.15 -41.9 68.55 -43.25 70.45 -43.25 72.35 -43.25 73.7 -41.9 75.1 -40.55 75.1 -38.65 75.1 -36.7 73.7 -35.35 72.35 -34.0 70.45 -34.0 68.55 -34.0 67.15 -35.35" fill="url(#gradient5)" fill-rule="evenodd" stroke="none"/>
      <path d="M72.65 45.25 Q71.3 46.6 69.4 46.6 67.5 46.6 66.1 45.25 64.75 43.9 64.75 41.95 64.75 40.05 66.1 38.7 67.5 37.35 69.4 37.35 71.3 37.35 72.65 38.7 74.05 40.05 74.05 41.95 74.05 43.9 72.65 45.25" fill="url(#gradient6)" fill-rule="evenodd" stroke="none"/>
      <path d="M33.35 70.1 Q33.35 68.2 34.7 66.85 36.1 65.5 38.0 65.5 39.9 65.5 41.25 66.85 42.65 68.2 42.65 70.1 42.65 72.05 41.25 73.4 39.9 74.75 38.0 74.75 36.1 74.75 34.7 73.4 33.35 72.05 33.35 70.1" fill="url(#gradient7)" fill-rule="evenodd" stroke="none"/>
      <path d="M27.4 43.8 Q28.8 45.15 28.8 47.05 28.8 49.0 27.4 50.35 26.05 51.7 24.15 51.7 22.25 51.7 20.85 50.35 19.5 49.0 19.5 47.05 19.5 45.15 20.85 43.8 22.25 42.45 24.15 42.45 26.05 42.45 27.4 43.8" fill="url(#gradient8)" fill-rule="evenodd" stroke="none"/>
      <path d="M0.35 55.65 Q-1.0 57.0 -2.9 57.0 -4.8 57.0 -6.2 55.65 -7.55 54.3 -7.55 52.35 -7.55 50.45 -6.2 49.1 -4.8 47.75 -2.9 47.75 -1.0 47.75 0.35 49.1 1.75 50.45 1.75 52.35 1.75 54.3 0.35 55.65" fill="url(#gradient9)" fill-rule="evenodd" stroke="none"/>
      <path d="M-46.45 68.75 Q-46.45 66.85 -45.1 65.5 -43.7 64.15 -41.8 64.15 -39.9 64.15 -38.55 65.5 -37.15 66.85 -37.15 68.75 -37.15 70.7 -38.55 72.05 -39.9 73.4 -41.8 73.4 -43.7 73.4 -45.1 72.05 -46.45 70.7 -46.45 68.75" fill="url(#gradient10)" fill-rule="evenodd" stroke="none"/>
      <path d="M-23.75 44.0 Q-23.75 45.95 -25.15 47.3 -26.5 48.65 -28.4 48.65 -30.3 48.65 -31.7 47.3 -33.05 45.95 -33.05 44.0 -33.05 42.1 -31.7 40.75 -30.3 39.4 -28.4 39.4 -26.5 39.4 -25.15 40.75 -23.75 42.1 -23.75 44.0" fill="url(#gradient11)" fill-rule="evenodd" stroke="none"/>
      <path d="M-46.9 19.8 Q-45.0 19.8 -43.65 21.15 -42.25 22.5 -42.25 24.4 -42.25 26.35 -43.65 27.7 -45.0 29.05 -46.9 29.05 -48.8 29.05 -50.2 27.7 -51.55 26.35 -51.55 24.4 -51.55 22.5 -50.2 21.15 -48.8 19.8 -46.9 19.8" fill="url(#gradient12)" fill-rule="evenodd" stroke="none"/>
      <path d="M-67.6 42.2 Q-68.95 43.55 -70.85 43.55 -72.75 43.55 -74.15 42.2 -75.5 40.85 -75.5 38.9 -75.5 37.0 -74.15 35.65 -72.75 34.3 -70.85 34.3 -68.95 34.3 -67.6 35.65 -66.2 37.0 -66.2 38.9 -66.2 40.85 -67.6 42.2" fill="url(#gradient13)" fill-rule="evenodd" stroke="none"/>
      <path d="M-52.7 -7.1 Q-50.8 -7.1 -49.45 -5.75 -48.05 -4.4 -48.05 -2.5 -48.05 -0.55 -49.45 0.8 -50.8 2.15 -52.7 2.15 -54.6 2.15 -56.0 0.8 -57.35 -0.55 -57.35 -2.5 -57.35 -4.4 -56.0 -5.75 -54.6 -7.1 -52.7 -7.1" fill="url(#gradient14)" fill-rule="evenodd" stroke="none"/>
      <path d="M-44.25 -33.1 Q-42.35 -33.1 -41.0 -31.75 -39.6 -30.4 -39.6 -28.5 -39.6 -26.55 -41.0 -25.2 -42.35 -23.85 -44.25 -23.85 -46.15 -23.85 -47.55 -25.2 -48.9 -26.55 -48.9 -28.5 -48.9 -30.4 -47.55 -31.75 -46.15 -33.1 -44.25 -33.1" fill="url(#gradient15)" fill-rule="evenodd" stroke="none"/>
      <path d="M3.4 -57.3 Q5.3 -57.3 6.65 -55.95 8.05 -54.6 8.05 -52.7 8.05 -50.75 6.65 -49.4 5.3 -48.05 3.4 -48.05 1.5 -48.05 0.1 -49.4 -1.25 -50.75 -1.25 -52.7 -1.25 -54.6 0.1 -55.95 1.5 -57.3 3.4 -57.3" fill="url(#gradient16)" fill-rule="evenodd" stroke="none"/>
      <path d="M-24.45 -51.5 Q-22.55 -51.5 -21.2 -50.15 -19.8 -48.8 -19.8 -46.9 -19.8 -44.95 -21.2 -43.6 -22.55 -42.25 -24.45 -42.25 -26.35 -42.25 -27.75 -43.6 -29.1 -44.95 -29.1 -46.9 -29.1 -48.8 -27.75 -50.15 -26.35 -51.5 -24.45 -51.5" fill="url(#gradient17)" fill-rule="evenodd" stroke="none"/>
      <path d="M-34.0 -70.8 Q-34.0 -68.85 -35.4 -67.5 -36.75 -66.15 -38.65 -66.15 -40.55 -66.15 -41.95 -67.5 -43.3 -68.85 -43.3 -70.8 -43.3 -72.7 -41.95 -74.05 -40.55 -75.4 -38.65 -75.4 -36.75 -75.4 -35.4 -74.05 -34.0 -72.7 -34.0 -70.8" fill="url(#gradient18)" fill-rule="evenodd" stroke="none"/>
      <path d="M-68.95 -46.25 Q-67.05 -46.25 -65.7 -44.9 -64.3 -43.55 -64.3 -41.65 -64.3 -39.7 -65.7 -38.35 -67.05 -37.0 -68.95 -37.0 -70.85 -37.0 -72.25 -38.35 -73.6 -39.7 -73.6 -41.65 -73.6 -43.55 -72.25 -44.9 -70.85 -46.25 -68.95 -46.25" fill="url(#gradient19)" fill-rule="evenodd" stroke="none"/>
      <path d="M-88.1 -6.95 Q-86.4 -8.55 -84.1 -8.55 -81.8 -8.55 -80.2 -6.95 -78.5 -5.3 -78.5 -3.0 -78.5 -0.65 -80.2 0.95 -81.8 2.6 -84.1 2.6 -86.4 2.6 -88.1 0.95 -89.7 -0.65 -89.7 -3.0 -89.7 -5.3 -88.1 -6.95" fill="url(#gradient20)" fill-rule="evenodd" stroke="none"/>
      <path d="M6.6 -79.75 Q5.0 -78.2 2.8 -78.2 0.55 -78.2 -1.1 -79.75 -2.65 -81.35 -2.65 -83.65 -2.65 -85.9 -1.1 -87.45 0.55 -89.05 2.8 -89.05 5.0 -89.05 6.6 -87.45 8.25 -85.9 8.25 -83.65 8.25 -81.35 6.6 -79.75" fill="url(#gradient21)" fill-rule="evenodd" stroke="none"/>
      <path d="M1.75 88.3 Q0.05 90.0 -2.35 90.0 -4.8 90.0 -6.55 88.3 -8.3 86.55 -8.3 84.1 -8.3 81.65 -6.55 79.95 -4.8 78.25 -2.35 78.25 0.05 78.25 1.75 79.95 3.55 81.65 3.55 84.1 3.55 86.55 1.75 88.3" fill="url(#gradient22)" fill-rule="evenodd" stroke="none"/>
      <path d="M88.3 -0.8 Q89.85 0.7 89.85 2.85 89.85 5.1 88.3 6.6 86.75 8.15 84.6 8.15 82.45 8.15 80.9 6.6 79.35 5.1 79.35 2.85 79.35 0.7 80.9 -0.8 82.45 -2.35 84.6 -2.35 86.75 -2.35 88.3 -0.8" fill="url(#gradient23)" fill-rule="evenodd" stroke="none"/>
      <path d="M67.1 -66.7 Q94.85 -38.95 94.85 0.3 94.85 39.55 67.1 67.3 39.35 95.05 0.1 95.05 -39.15 95.05 -66.9 67.3 -94.65 39.55 -94.65 0.3 -94.65 -38.95 -66.9 -66.7 -39.15 -94.45 0.1 -94.45 39.35 -94.45 67.1 -66.7" fill="url(#gradient24)" fill-rule="evenodd" stroke="none"/>
      <path d="M52.35 -51.95 Q73.95 -30.35 73.95 0.3 73.95 30.9 52.35 52.55 30.7 74.2 0.1 74.2 -30.55 74.2 -52.15 52.55 -73.8 30.9 -73.8 0.3 -73.8 -30.35 -52.15 -51.95 -30.55 -73.6 0.1 -73.6 30.7 -73.6 52.35 -51.95" fill="url(#gradient25)" fill-rule="evenodd" stroke="none"/>
      <path d="M55.45 26.45 Q59.75 26.45 62.75 29.5 65.8 32.5 65.8 36.8 65.8 41.1 62.75 44.15 59.75 47.15 55.45 47.15 51.15 47.15 48.15 44.15 45.1 41.1 45.1 36.8 45.1 32.5 48.15 29.5 51.15 26.45 55.45 26.45" fill="url(#gradient26)" fill-rule="evenodd" stroke="none"/>
      <path d="M30.85 68.9 Q26.55 68.9 23.55 65.9 20.5 62.85 20.5 58.55 20.5 54.25 23.55 51.25 26.55 48.2 30.85 48.2 35.15 48.2 38.15 51.25 41.2 54.25 41.2 58.55 41.2 62.85 38.15 65.9 35.15 68.9 30.85 68.9" fill="url(#gradient27)" fill-rule="evenodd" stroke="none"/>
      <path d="M5.0 72.95 Q2.0 75.95 -2.3 75.95 -6.6 75.95 -9.6 72.95 -12.65 69.9 -12.65 65.6 -12.65 61.3 -9.6 58.3 -6.6 55.25 -2.3 55.25 2.0 55.25 5.0 58.3 8.05 61.3 8.05 65.6 8.05 69.9 5.0 72.95" fill="url(#gradient28)" fill-rule="evenodd" stroke="none"/>
      <path d="M-27.6 48.4 Q-24.55 51.4 -24.55 55.7 -24.55 60.0 -27.6 63.05 -30.6 66.05 -34.9 66.05 -39.2 66.05 -42.2 63.05 -45.25 60.0 -45.25 55.7 -45.25 51.4 -42.2 48.4 -39.2 45.35 -34.9 45.35 -30.6 45.35 -27.6 48.4" fill="url(#gradient29)" fill-rule="evenodd" stroke="none"/>
      <path d="M-50.2 22.5 Q-47.15 25.5 -47.15 29.8 -47.15 34.1 -50.2 37.15 -53.2 40.15 -57.5 40.15 -61.8 40.15 -64.8 37.15 -67.85 34.1 -67.85 29.8 -67.85 25.5 -64.8 22.5 -61.8 19.45 -57.5 19.45 -53.2 19.45 -50.2 22.5" fill="url(#gradient30)" fill-rule="evenodd" stroke="none"/>
      <path d="M-64.65 -12.9 Q-60.35 -12.9 -57.35 -9.85 -54.3 -6.85 -54.3 -2.55 -54.3 1.75 -57.35 4.8 -60.35 7.8 -64.65 7.8 -68.95 7.8 -71.95 4.8 -75.0 1.75 -75.0 -2.55 -75.0 -6.85 -71.95 -9.85 -68.95 -12.9 -64.65 -12.9" fill="url(#gradient31)" fill-rule="evenodd" stroke="none"/>
      <path d="M-49.0 -40.2 Q-45.95 -37.2 -45.95 -32.9 -45.95 -28.6 -49.0 -25.55 -52.0 -22.55 -56.3 -22.55 -60.6 -22.55 -63.6 -25.55 -66.65 -28.6 -66.65 -32.9 -66.65 -37.2 -63.6 -40.2 -60.6 -43.25 -56.3 -43.25 -52.0 -43.25 -49.0 -40.2" fill="url(#gradient32)" fill-rule="evenodd" stroke="none"/>
      <path d="M-37.15 -63.7 Q-34.15 -66.75 -29.85 -66.75 -25.55 -66.75 -22.55 -63.7 -19.5 -60.7 -19.5 -56.4 -19.5 -52.1 -22.55 -49.05 -25.55 -46.05 -29.85 -46.05 -34.15 -46.05 -37.15 -49.05 -40.2 -52.1 -40.2 -56.4 -40.2 -60.7 -37.15 -63.7" fill="url(#gradient33)" fill-rule="evenodd" stroke="none"/>
      <path d="M3.9 -53.9 Q-0.4 -53.9 -3.4 -56.9 -6.45 -59.95 -6.45 -64.25 -6.45 -68.55 -3.4 -71.55 -0.4 -74.6 3.9 -74.6 8.2 -74.6 11.2 -71.55 14.25 -68.55 14.25 -64.25 14.25 -59.95 11.2 -56.9 8.2 -53.9 3.9 -53.9" fill="url(#gradient34)" fill-rule="evenodd" stroke="none"/>
      <path d="M46.9 -54.35 Q46.9 -50.05 43.85 -47.0 40.85 -44.0 36.55 -44.0 32.25 -44.0 29.25 -47.0 26.2 -50.05 26.2 -54.35 26.2 -58.65 29.25 -61.65 32.25 -64.7 36.55 -64.7 40.85 -64.7 43.85 -61.65 46.9 -58.65 46.9 -54.35" fill="url(#gradient35)" fill-rule="evenodd" stroke="none"/>
      <path d="M67.95 -29.15 Q67.95 -24.85 64.9 -21.8 61.9 -18.8 57.6 -18.8 53.3 -18.8 50.3 -21.8 47.25 -24.85 47.25 -29.15 47.25 -33.45 50.3 -36.45 53.3 -39.5 57.6 -39.5 61.9 -39.5 64.9 -36.45 67.95 -33.45 67.95 -29.15" fill="url(#gradient36)" fill-rule="evenodd" stroke="none"/>
      <path d="M71.85 -4.55 Q74.9 -1.55 74.9 2.75 74.9 7.05 71.85 10.1 68.85 13.1 64.55 13.1 60.25 13.1 57.25 10.1 54.2 7.05 54.2 2.75 54.2 -1.55 57.25 -4.55 60.25 -7.6 64.55 -7.6 68.85 -7.6 71.85 -4.55" fill="url(#gradient37)" fill-rule="evenodd" stroke="none"/>
      <path d="M26.15 -72.1 Q41.3 -66.6 53.6 -54.2 68.65 -39.0 73.5 -19.45 L73.55 -18.95 Q75.75 -9.95 75.75 0.0 75.75 9.9 73.55 18.95 71.95 25.8 69.1 32.05 63.55 44.05 53.6 54.15 42.2 65.75 28.3 71.35 L22.0 73.55 Q11.6 76.6 0.0 76.6 -11.6 76.6 -21.95 73.55 L-28.25 71.35 Q-42.15 65.75 -53.6 54.15 -61.95 45.65 -67.2 35.85 -75.75 19.7 -75.75 0.0 -75.75 -19.75 -67.2 -35.9 -61.95 -45.7 -53.6 -54.2 -41.25 -66.6 -26.1 -72.1 -14.0 -76.55 0.0 -76.55 14.0 -76.55 26.15 -72.1 M12.75 -71.5 Q34.7 -67.85 51.3 -51.25 65.4 -37.2 70.15 -19.3 72.55 -10.15 72.55 0.0 72.55 17.35 65.45 31.8 60.3 42.35 51.3 51.3 36.4 66.25 17.15 70.7 8.95 72.6 0.0 72.6 -8.95 72.6 -17.1 70.7 -36.4 66.25 -51.3 51.3 -62.05 40.6 -67.3 27.7 -72.55 14.95 -72.55 0.0 -72.55 -14.95 -67.3 -27.65 -62.05 -40.55 -51.3 -51.25 -34.7 -67.85 -12.75 -71.5 L0.0 -72.5 12.75 -71.5 M40.55 40.55 Q23.75 57.4 -0.05 57.4 -23.75 57.4 -40.55 40.55 -57.35 23.8 -57.35 0.0 -57.35 -23.75 -40.55 -40.5 -23.75 -57.3 -0.05 -57.3 23.75 -57.3 40.55 -40.5 57.35 -23.75 57.35 0.0 57.35 23.8 40.55 40.55" fill="none" stroke="url(#gradient38)" stroke-linecap="round" stroke-linejoin="round" stroke-width="0.05"/>
      <path d="M-34.15 50.6 L-32.25 51.75 -36.45 58.0 -36.2 58.85 -38.05 57.3 -34.15 50.6 M-28.0 53.55 L-27.25 53.95 -28.9 63.1 -31.25 61.4 -30.8 61.5 Q-30.1 61.4 -30.05 60.7 L-28.6 55.0 -33.4 60.1 -35.4 59.0 -28.0 53.55 M-8.45 60.6 L-6.2 60.6 -6.2 70.4 -8.45 70.4 -8.45 60.6 M-59.05 35.75 L-59.95 34.0 -51.05 33.15 -50.65 33.9 -56.95 40.7 -57.7 38.35 -52.3 34.0 -59.05 35.75 M-54.75 27.6 L-53.7 29.15 -60.55 32.6 -61.6 30.9 -54.75 27.6 M-58.5 19.8 L-57.7 21.8 -64.45 25.55 -65.5 23.45 -58.5 19.8 M-56.85 24.25 L-56.55 23.55 -55.35 25.45 -62.5 29.3 -63.55 27.2 -56.85 24.25 M-60.1 1.0 L-60.1 3.25 -69.9 3.25 -69.9 1.0 -60.1 1.0 M-37.9 48.15 L-35.8 49.4 -40.1 55.9 -39.85 56.75 -41.75 55.2 -37.7 48.85 -37.9 48.15 M-69.35 -3.55 Q-67.6 -4.15 -65.9 -4.8 L-68.9 -6.4 -69.9 -5.85 -69.5 -8.6 -65.15 -5.25 -60.15 -8.8 -60.1 -5.6 -64.05 -4.45 -60.2 -2.95 -60.15 -0.45 -64.75 -4.0 -69.5 -0.7 -69.35 -3.55 M-52.3 -32.25 L-55.6 -32.85 -53.65 -30.05 -54.55 -28.2 -56.35 -32.85 -61.3 -32.55 -60.0 -34.4 -56.8 -33.95 -58.65 -36.55 -57.85 -38.35 -56.1 -33.95 -50.6 -34.2 -52.3 -32.25 M-2.55 -69.05 L-1.35 -65.55 0.25 -68.55 -0.3 -69.55 2.45 -69.15 -0.9 -64.8 2.65 -59.45 -0.5 -59.8 -1.7 -63.7 -3.15 -59.85 -5.7 -59.8 -2.15 -64.4 -5.45 -69.15 -2.55 -69.05 M-25.25 -56.85 L-24.4 -56.6 -26.8 -55.75 -30.6 -62.5 -28.55 -63.55 -25.25 -56.85 M-33.05 -57.75 L-33.45 -60.95 -31.7 -62.05 -32.4 -57.4 -27.5 -54.9 -29.95 -54.05 -32.5 -56.2 -32.05 -52.8 -33.9 -51.65 -33.15 -56.6 -37.6 -58.75 -35.5 -60.05 -33.05 -57.75 M0.75 70.05 L1.55 69.65 -0.3 62.0 -2.6 69.5 -1.8 70.4 -4.9 70.0 -4.2 69.65 -0.5 60.25 0.5 60.25 4.1 70.45 0.75 70.05 M32.45 60.85 L32.9 60.1 28.4 55.15 29.7 61.8 30.65 62.15 28.15 63.05 27.6 53.9 28.3 53.5 35.0 59.5 32.45 60.85 M49.7 34.9 L50.1 34.2 59.25 36.0 57.6 38.05 51.05 35.55 56.1 40.45 54.95 42.45 54.9 41.5 49.7 34.9 M52.8 30.8 L53.75 28.75 60.6 33.0 59.5 35.1 52.8 30.8 M70.0 6.7 L70.0 8.95 60.2 8.95 60.2 6.7 70.0 6.7 M70.0 1.8 L70.0 4.05 60.2 4.05 60.2 1.8 70.0 1.8 M60.2 -0.85 L60.2 -3.1 70.0 -3.1 70.0 -0.85 60.2 -0.85 M53.35 -30.9 L54.2 -30.55 60.5 -34.35 61.7 -32.25 54.55 -29.2 53.35 -30.9 M62.45 -30.6 L63.4 -28.6 Q60.0 -27.0 56.6 -25.45 L55.3 -27.15 56.15 -26.8 62.45 -30.6 M40.3 -56.2 L39.35 -56.1 35.35 -50.3 35.5 -49.4 34.3 -51.35 38.35 -57.3 40.3 -56.2 M9.0 -59.45 L9.0 -69.55 11.25 -69.55 11.25 -59.45 9.0 -59.45 M4.1 -69.55 L6.35 -69.55 6.35 -59.45 4.1 -59.45 4.1 -69.55" fill="#0099ff" fill-rule="evenodd" stroke="none"/>
      <path d="M47.0 -63.65 L39.9 -68.0 Q43.65 -68.4 46.0 -70.35 45.3 -66.85 47.0 -63.65 M3.0 -50.1 Q2.05 -52.85 -0.25 -54.4 L6.0 -54.4 Q3.75 -52.45 3.0 -50.1 M6.9 -81.85 L-1.45 -81.85 Q1.55 -84.35 2.55 -87.55 3.8 -83.85 6.9 -81.85 M33.2 -42.9 Q30.4 -42.6 28.65 -41.15 29.15 -43.8 27.85 -46.15 L33.2 -42.9 M44.6 -22.8 Q46.2 -24.9 46.2 -27.6 L49.4 -22.2 Q46.75 -23.25 44.6 -22.8 M73.6 -40.45 Q71.35 -37.65 71.3 -34.05 L67.05 -41.2 Q70.6 -39.8 73.6 -40.45 M82.15 7.1 L82.15 -1.25 Q84.7 1.75 87.9 2.75 84.2 4.0 82.15 7.1 M71.8 43.5 Q68.3 43.0 65.2 44.75 L69.25 37.5 Q69.8 41.2 71.8 43.5 M43.95 31.7 Q43.5 28.9 42.05 27.2 44.65 27.55 47.0 26.25 L43.95 31.7 M50.1 3.1 Q52.9 2.15 54.45 -0.15 L54.45 6.1 Q52.5 3.85 50.1 3.1 M22.2 49.4 Q23.25 46.75 22.8 44.6 24.9 46.2 27.6 46.2 L22.2 49.4 M34.05 71.3 L41.2 67.05 Q39.8 70.6 40.45 73.6 37.65 71.35 34.05 71.3 M-82.15 -7.1 L-82.15 1.25 Q-84.7 -1.75 -87.9 -2.75 -84.2 -4.0 -82.15 -7.1 M-34.05 -71.3 L-41.2 -67.05 Q-39.8 -70.6 -40.45 -73.6 -37.65 -71.35 -34.05 -71.3 M-50.1 -3.1 Q-52.9 -2.15 -54.45 0.15 L-54.45 -6.1 Q-52.5 -3.85 -50.1 -3.1 M-71.8 -43.5 Q-68.3 -43.0 -65.2 -44.75 L-69.25 -37.5 Q-69.8 -41.2 -71.8 -43.5 M-47.0 -26.25 L-43.95 -31.7 Q-43.5 -28.9 -42.05 -27.2 -44.65 -27.55 -47.0 -26.25 M-22.2 -49.4 Q-23.25 -46.75 -22.8 -44.6 -24.9 -46.2 -27.6 -46.2 L-22.2 -49.4 M-31.7 43.95 Q-28.9 43.5 -27.2 42.05 -27.55 44.65 -26.25 47.0 L-31.7 43.95 M-73.6 40.45 Q-71.35 37.65 -71.3 34.05 L-67.05 41.2 Q-70.6 39.8 -73.6 40.45 M-44.6 22.8 Q-46.2 24.9 -46.2 27.6 L-49.4 22.2 Q-46.75 23.25 -44.6 22.8 M-44.75 65.2 L-37.5 69.25 Q-41.2 69.8 -43.5 71.8 -43.0 68.3 -44.75 65.2 M-2.8 50.1 Q-1.85 52.9 0.45 54.45 L-5.8 54.45 Q-3.55 52.5 -2.8 50.1 M-6.6 82.4 L1.75 82.4 Q-1.25 85.0 -2.25 88.25 -3.5 84.5 -6.6 82.4" fill="url(#gradient39)" fill-rule="evenodd" stroke="none"/>
    </g>
    <radialGradient cx="0" cy="0" gradientTransform="matrix(0.0057, 0.0, 0.0, 0.0057, 44.7, 28.65)" gradientUnits="userSpaceOnUse" id="gradient0" r="819.2" spreadMethod="pad">
      <stop offset="0.2980392156862745" stop-color="#0099ff" stop-opacity="0.2509804"/>
      <stop offset="1.0" stop-color="#0099ff" stop-opacity="0.0"/>
    </radialGradient>
    <radialGradient cx="0" cy="0" gradientTransform="matrix(0.0057, 0.0, 0.0, 0.0057, 53.05, 3.35)" gradientUnits="userSpaceOnUse" id="gradient1" r="819.2" spreadMethod="pad">
      <stop offset="0.2980392156862745" stop-color="#0099ff" stop-opacity="0.2509804"/>
      <stop offset="1.0" stop-color="#0099ff" stop-opacity="0.0"/>
    </radialGradient>
    <radialGradient cx="0" cy="0" gradientTransform="matrix(0.0057, 0.0, 0.0, 0.0057, 47.3, -24.2)" gradientUnits="userSpaceOnUse" id="gradient2" r="819.2" spreadMethod="pad">
      <stop offset="0.2980392156862745" stop-color="#0099ff" stop-opacity="0.2509804"/>
      <stop offset="1.0" stop-color="#0099ff" stop-opacity="0.0"/>
    </radialGradient>
    <radialGradient cx="0" cy="0" gradientTransform="matrix(0.0057, 0.0, 0.0, 0.0057, 30.65, -43.8)" gradientUnits="userSpaceOnUse" id="gradient3" r="819.2" spreadMethod="pad">
      <stop offset="0.2980392156862745" stop-color="#0099ff" stop-opacity="0.2509804"/>
      <stop offset="1.0" stop-color="#0099ff" stop-opacity="0.0"/>
    </radialGradient>
    <radialGradient cx="0" cy="0" gradientTransform="matrix(0.0057, 0.0, 0.0, 0.0057, 44.5, -67.4)" gradientUnits="userSpaceOnUse" id="gradient4" r="819.2" spreadMethod="pad">
      <stop offset="0.2980392156862745" stop-color="#0099ff" stop-opacity="0.2509804"/>
      <stop offset="1.0" stop-color="#0099ff" stop-opacity="0.0"/>
    </radialGradient>
    <radialGradient cx="0" cy="0" gradientTransform="matrix(0.0057, 0.0, 0.0, 0.0057, 70.45, -38.65)" gradientUnits="userSpaceOnUse" id="gradient5" r="819.2" spreadMethod="pad">
      <stop offset="0.2980392156862745" stop-color="#0099ff" stop-opacity="0.2509804"/>
      <stop offset="1.0" stop-color="#0099ff" stop-opacity="0.0"/>
    </radialGradient>
    <radialGradient cx="0" cy="0" gradientTransform="matrix(0.0057, 0.0, 0.0, 0.0057, 69.4, 41.95)" gradientUnits="userSpaceOnUse" id="gradient6" r="819.2" spreadMethod="pad">
      <stop offset="0.2980392156862745" stop-color="#0099ff" stop-opacity="0.2509804"/>
      <stop offset="1.0" stop-color="#0099ff" stop-opacity="0.0"/>
    </radialGradient>
    <radialGradient cx="0" cy="0" gradientTransform="matrix(0.0057, 0.0, 0.0, 0.0057, 38.0, 70.1)" gradientUnits="userSpaceOnUse" id="gradient7" r="819.2" spreadMethod="pad">
      <stop offset="0.2980392156862745" stop-color="#0099ff" stop-opacity="0.2509804"/>
      <stop offset="1.0" stop-color="#0099ff" stop-opacity="0.0"/>
    </radialGradient>
    <radialGradient cx="0" cy="0" gradientTransform="matrix(0.0057, 0.0, 0.0, 0.0057, 24.15, 47.05)" gradientUnits="userSpaceOnUse" id="gradient8" r="819.2" spreadMethod="pad">
      <stop offset="0.2980392156862745" stop-color="#0099ff" stop-opacity="0.2509804"/>
      <stop offset="1.0" stop-color="#0099ff" stop-opacity="0.0"/>
    </radialGradient>
    <radialGradient cx="0" cy="0" gradientTransform="matrix(0.0057, 0.0, 0.0, 0.0057, -2.9, 52.35)" gradientUnits="userSpaceOnUse" id="gradient9" r="819.2" spreadMethod="pad">
      <stop offset="0.2980392156862745" stop-color="#0099ff" stop-opacity="0.2509804"/>
      <stop offset="1.0" stop-color="#0099ff" stop-opacity="0.0"/>
    </radialGradient>
    <radialGradient cx="0" cy="0" gradientTransform="matrix(0.0057, 0.0, 0.0, 0.0057, -41.8, 68.75)" gradientUnits="userSpaceOnUse" id="gradient10" r="819.2" spreadMethod="pad">
      <stop offset="0.2980392156862745" stop-color="#0099ff" stop-opacity="0.2509804"/>
      <stop offset="1.0" stop-color="#0099ff" stop-opacity="0.0"/>
    </radialGradient>
    <radialGradient cx="0" cy="0" gradientTransform="matrix(0.0057, 0.0, 0.0, 0.0057, -28.4, 44.0)" gradientUnits="userSpaceOnUse" id="gradient11" r="819.2" spreadMethod="pad">
      <stop offset="0.2980392156862745" stop-color="#0099ff" stop-opacity="0.2509804"/>
      <stop offset="1.0" stop-color="#0099ff" stop-opacity="0.0"/>
    </radialGradient>
    <radialGradient cx="0" cy="0" gradientTransform="matrix(0.0057, 0.0, 0.0, 0.0057, -46.9, 24.4)" gradientUnits="userSpaceOnUse" id="gradient12" r="819.2" spreadMethod="pad">
      <stop offset="0.2980392156862745" stop-color="#0099ff" stop-opacity="0.2509804"/>
      <stop offset="1.0" stop-color="#0099ff" stop-opacity="0.0"/>
    </radialGradient>
    <radialGradient cx="0" cy="0" gradientTransform="matrix(0.0057, 0.0, 0.0, 0.0057, -70.85, 38.9)" gradientUnits="userSpaceOnUse" id="gradient13" r="819.2" spreadMethod="pad">
      <stop offset="0.2980392156862745" stop-color="#0099ff" stop-opacity="0.2509804"/>
      <stop offset="1.0" stop-color="#0099ff" stop-opacity="0.0"/>
    </radialGradient>
    <radialGradient cx="0" cy="0" gradientTransform="matrix(0.0057, 0.0, 0.0, 0.0057, -52.7, -2.5)" gradientUnits="userSpaceOnUse" id="gradient14" r="819.2" spreadMethod="pad">
      <stop offset="0.2980392156862745" stop-color="#0099ff" stop-opacity="0.2509804"/>
      <stop offset="1.0" stop-color="#0099ff" stop-opacity="0.0"/>
    </radialGradient>
    <radialGradient cx="0" cy="0" gradientTransform="matrix(0.0057, 0.0, 0.0, 0.0057, -44.25, -28.5)" gradientUnits="userSpaceOnUse" id="gradient15" r="819.2" spreadMethod="pad">
      <stop offset="0.2980392156862745" stop-color="#0099ff" stop-opacity="0.2509804"/>
      <stop offset="1.0" stop-color="#0099ff" stop-opacity="0.0"/>
    </radialGradient>
    <radialGradient cx="0" cy="0" gradientTransform="matrix(0.0057, 0.0, 0.0, 0.0057, 3.4, -52.7)" gradientUnits="userSpaceOnUse" id="gradient16" r="819.2" spreadMethod="pad">
      <stop offset="0.2980392156862745" stop-color="#0099ff" stop-opacity="0.2509804"/>
      <stop offset="1.0" stop-color="#0099ff" stop-opacity="0.0"/>
    </radialGradient>
    <radialGradient cx="0" cy="0" gradientTransform="matrix(0.0057, 0.0, 0.0, 0.0057, -24.45, -46.9)" gradientUnits="userSpaceOnUse" id="gradient17" r="819.2" spreadMethod="pad">
      <stop offset="0.2980392156862745" stop-color="#0099ff" stop-opacity="0.2509804"/>
      <stop offset="1.0" stop-color="#0099ff" stop-opacity="0.0"/>
    </radialGradient>
    <radialGradient cx="0" cy="0" gradientTransform="matrix(0.0057, 0.0, 0.0, 0.0057, -38.65, -70.8)" gradientUnits="userSpaceOnUse" id="gradient18" r="819.2" spreadMethod="pad">
      <stop offset="0.2980392156862745" stop-color="#0099ff" stop-opacity="0.2509804"/>
      <stop offset="1.0" stop-color="#0099ff" stop-opacity="0.0"/>
    </radialGradient>
    <radialGradient cx="0" cy="0" gradientTransform="matrix(0.0057, 0.0, 0.0, 0.0057, -68.95, -41.65)" gradientUnits="userSpaceOnUse" id="gradient19" r="819.2" spreadMethod="pad">
      <stop offset="0.2980392156862745" stop-color="#0099ff" stop-opacity="0.2509804"/>
      <stop offset="1.0" stop-color="#0099ff" stop-opacity="0.0"/>
    </radialGradient>
    <radialGradient cx="0" cy="0" gradientTransform="matrix(0.0069, 0.0, 0.0, 0.0069, -84.1, -3.0)" gradientUnits="userSpaceOnUse" id="gradient20" r="819.2" spreadMethod="pad">
      <stop offset="0.2980392156862745" stop-color="#0099ff" stop-opacity="0.2509804"/>
      <stop offset="1.0" stop-color="#0099ff" stop-opacity="0.0"/>
    </radialGradient>
    <radialGradient cx="0" cy="0" gradientTransform="matrix(0.0067, 0.0, 0.0, 0.0067, 2.8, -83.65)" gradientUnits="userSpaceOnUse" id="gradient21" r="819.2" spreadMethod="pad">
      <stop offset="0.2980392156862745" stop-color="#0099ff" stop-opacity="0.2509804"/>
      <stop offset="1.0" stop-color="#0099ff" stop-opacity="0.0"/>
    </radialGradient>
    <radialGradient cx="0" cy="0" gradientTransform="matrix(0.0072, 0.0, 0.0, 0.0072, -2.35, 84.1)" gradientUnits="userSpaceOnUse" id="gradient22" r="819.2" spreadMethod="pad">
      <stop offset="0.2980392156862745" stop-color="#0099ff" stop-opacity="0.2509804"/>
      <stop offset="1.0" stop-color="#0099ff" stop-opacity="0.0"/>
    </radialGradient>
    <radialGradient cx="0" cy="0" gradientTransform="matrix(0.0064, 0.0, 0.0, 0.0064, 84.6, 2.85)" gradientUnits="userSpaceOnUse" id="gradient23" r="819.2" spreadMethod="pad">
      <stop offset="0.2980392156862745" stop-color="#0099ff" stop-opacity="0.2509804"/>
      <stop offset="1.0" stop-color="#0099ff" stop-opacity="0.0"/>
    </radialGradient>
    <radialGradient cx="0" cy="0" gradientTransform="matrix(0.1171, 0.0, 0.0, 0.1171, 0.1, 0.3)" gradientUnits="userSpaceOnUse" id="gradient24" r="819.2" spreadMethod="pad">
      <stop offset="0.6784313725490196" stop-color="#0099ff" stop-opacity="0.0"/>
      <stop offset="0.7686274509803922" stop-color="#0099ff" stop-opacity="0.2509804"/>
      <stop offset="0.8509803921568627" stop-color="#0099ff" stop-opacity="0.0"/>
    </radialGradient>
    <radialGradient cx="0" cy="0" gradientTransform="matrix(0.0913, 0.0, 0.0, 0.0913, 0.1, 0.3)" gradientUnits="userSpaceOnUse" id="gradient25" r="819.2" spreadMethod="pad">
      <stop offset="0.7137254901960784" stop-color="#0099ff" stop-opacity="0.0"/>
      <stop offset="0.7686274509803922" stop-color="#0099ff" stop-opacity="0.2509804"/>
      <stop offset="0.8156862745098039" stop-color="#0099ff" stop-opacity="0.0"/>
    </radialGradient>
    <radialGradient cx="0" cy="0" gradientTransform="matrix(0.0127, 0.0, 0.0, 0.0127, 55.45, 36.8)" gradientUnits="userSpaceOnUse" id="gradient26" r="819.2" spreadMethod="pad">
      <stop offset="0.0" stop-color="#0099ff" stop-opacity="0.3019608"/>
      <stop offset="1.0" stop-color="#0099ff" stop-opacity="0.0"/>
    </radialGradient>
    <radialGradient cx="0" cy="0" gradientTransform="matrix(0.0127, 0.0, 0.0, 0.0127, 30.85, 58.55)" gradientUnits="userSpaceOnUse" id="gradient27" r="819.2" spreadMethod="pad">
      <stop offset="0.0" stop-color="#0099ff" stop-opacity="0.3019608"/>
      <stop offset="1.0" stop-color="#0099ff" stop-opacity="0.0"/>
    </radialGradient>
    <radialGradient cx="0" cy="0" gradientTransform="matrix(0.0127, 0.0, 0.0, 0.0127, -2.3, 65.6)" gradientUnits="userSpaceOnUse" id="gradient28" r="819.2" spreadMethod="pad">
      <stop offset="0.0" stop-color="#0099ff" stop-opacity="0.3019608"/>
      <stop offset="1.0" stop-color="#0099ff" stop-opacity="0.0"/>
    </radialGradient>
    <radialGradient cx="0" cy="0" gradientTransform="matrix(0.0127, 0.0, 0.0, 0.0127, -34.9, 55.7)" gradientUnits="userSpaceOnUse" id="gradient29" r="819.2" spreadMethod="pad">
      <stop offset="0.0" stop-color="#0099ff" stop-opacity="0.3019608"/>
      <stop offset="1.0" stop-color="#0099ff" stop-opacity="0.0"/>
    </radialGradient>
    <radialGradient cx="0" cy="0" gradientTransform="matrix(0.0127, 0.0, 0.0, 0.0127, -57.5, 29.8)" gradientUnits="userSpaceOnUse" id="gradient30" r="819.2" spreadMethod="pad">
      <stop offset="0.0" stop-color="#0099ff" stop-opacity="0.3019608"/>
      <stop offset="1.0" stop-color="#0099ff" stop-opacity="0.0"/>
    </radialGradient>
    <radialGradient cx="0" cy="0" gradientTransform="matrix(0.0127, 0.0, 0.0, 0.0127, -64.65, -2.55)" gradientUnits="userSpaceOnUse" id="gradient31" r="819.2" spreadMethod="pad">
      <stop offset="0.0" stop-color="#0099ff" stop-opacity="0.3019608"/>
      <stop offset="1.0" stop-color="#0099ff" stop-opacity="0.0"/>
    </radialGradient>
    <radialGradient cx="0" cy="0" gradientTransform="matrix(0.0127, 0.0, 0.0, 0.0127, -56.3, -32.9)" gradientUnits="userSpaceOnUse" id="gradient32" r="819.2" spreadMethod="pad">
      <stop offset="0.0" stop-color="#0099ff" stop-opacity="0.3019608"/>
      <stop offset="1.0" stop-color="#0099ff" stop-opacity="0.0"/>
    </radialGradient>
    <radialGradient cx="0" cy="0" gradientTransform="matrix(0.0127, 0.0, 0.0, 0.0127, -29.85, -56.4)" gradientUnits="userSpaceOnUse" id="gradient33" r="819.2" spreadMethod="pad">
      <stop offset="0.0" stop-color="#0099ff" stop-opacity="0.3019608"/>
      <stop offset="1.0" stop-color="#0099ff" stop-opacity="0.0"/>
    </radialGradient>
    <radialGradient cx="0" cy="0" gradientTransform="matrix(0.0127, 0.0, 0.0, 0.0127, 3.9, -64.25)" gradientUnits="userSpaceOnUse" id="gradient34" r="819.2" spreadMethod="pad">
      <stop offset="0.0" stop-color="#0099ff" stop-opacity="0.3019608"/>
      <stop offset="1.0" stop-color="#0099ff" stop-opacity="0.0"/>
    </radialGradient>
    <radialGradient cx="0" cy="0" gradientTransform="matrix(0.0127, 0.0, 0.0, 0.0127, 36.55, -54.35)" gradientUnits="userSpaceOnUse" id="gradient35" r="819.2" spreadMethod="pad">
      <stop offset="0.0" stop-color="#0099ff" stop-opacity="0.3019608"/>
      <stop offset="1.0" stop-color="#0099ff" stop-opacity="0.0"/>
    </radialGradient>
    <radialGradient cx="0" cy="0" gradientTransform="matrix(0.0127, 0.0, 0.0, 0.0127, 57.6, -29.15)" gradientUnits="userSpaceOnUse" id="gradient36" r="819.2" spreadMethod="pad">
      <stop offset="0.0" stop-color="#0099ff" stop-opacity="0.3019608"/>
      <stop offset="1.0" stop-color="#0099ff" stop-opacity="0.0"/>
    </radialGradient>
    <radialGradient cx="0" cy="0" gradientTransform="matrix(0.0127, 0.0, 0.0, 0.0127, 64.55, 2.75)" gradientUnits="userSpaceOnUse" id="gradient37" r="819.2" spreadMethod="pad">
      <stop offset="0.0" stop-color="#0099ff" stop-opacity="0.3019608"/>
      <stop offset="1.0" stop-color="#0099ff" stop-opacity="0.0"/>
    </radialGradient>
    <radialGradient cx="0" cy="0" gradientTransform="matrix(0.0952, 0.0, 0.0, 0.0952, 0.0, 0.05)" gradientUnits="userSpaceOnUse" id="gradient38" r="819.2" spreadMethod="pad">
      <stop offset="0.6941176470588235" stop-color="#ffffff"/>
      <stop offset="1.0" stop-color="#ffccf5"/>
    </radialGradient>
    <radialGradient cx="0" cy="0" fx="35.2" fy="0" gradientTransform="matrix(0.0, 0.1086, -0.1155, 0.0, -0.3, 0.25)" gradientUnits="userSpaceOnUse" id="gradient39" r="819.2" spreadMethod="pad">
      <stop offset="0.6941176470588235" stop-color="#0099ff"/>
      <stop offset="0.8980392156862745" stop-color="#0099ff"/>
    </radialGradient>
    <g id="sprite2" transform="matrix(1.0, 0.0, 0.0, 1.0, 67.95, 68.0)">
      <use height="136.0" transform="matrix(1.0, 0.0, 0.0, 1.0, -67.95, -68.0)" width="136.0" xlink:href="#shape1"/>
    </g>
    <g id="shape1" transform="matrix(1.0, 0.0, 0.0, 1.0, 67.95, 68.0)">
      <path d="M13.3 -49.8 L19.5 -47.8 27.15 -59.3 Q32.8 -56.75 37.85 -53.15 L31.55 -41.05 Q36.7 -37.1 40.8 -31.7 L53.2 -37.85 Q56.75 -32.8 59.35 -27.15 L47.75 -19.75 Q50.4 -13.55 51.3 -7.05 L65.0 -6.2 Q65.6 -0.05 65.0 6.1 L51.2 6.7 Q50.7 10.0 49.8 13.35 L47.85 19.45 59.45 27.15 Q56.85 32.8 53.3 37.85 L41.1 31.5 Q37.15 36.65 31.8 40.75 L37.95 53.2 Q32.9 56.75 27.25 59.35 L19.85 47.7 Q13.6 50.4 7.15 51.3 L6.25 64.95 Q0.1 65.55 -6.05 64.95 L-6.65 51.25 -13.4 49.85 -19.3 47.9 -26.95 59.45 Q-32.6 56.85 -37.65 53.3 L-31.35 41.2 Q-36.55 37.2 -40.7 31.85 L-53.05 37.95 Q-56.65 32.9 -59.2 27.25 L-47.65 19.9 Q-50.4 13.6 -51.3 7.05 L-64.9 6.2 Q-65.5 0.05 -64.9 -6.1 L-51.25 -6.65 -49.9 -13.3 Q-49.05 -16.5 -47.85 -19.45 L-59.25 -27.0 Q-56.7 -32.65 -53.1 -37.7 L-41.1 -31.4 Q-37.15 -36.65 -31.7 -40.75 L-37.8 -53.1 Q-32.75 -56.7 -27.1 -59.25 L-19.75 -47.7 Q-13.5 -50.4 -7.0 -51.25 L-6.15 -64.95 Q0.0 -65.55 6.15 -64.95 L6.75 -51.15 13.3 -49.8 M34.85 -20.2 Q43.25 -5.55 38.9 10.55 34.55 26.55 20.25 34.95 17.95 36.25 14.65 37.65 2.55 42.55 -10.45 38.95 L-14.7 37.65 Q-19.3 36.0 -23.55 32.95 -30.15 28.35 -34.95 20.25 -39.6 12.2 -40.25 3.35 -40.45 0.55 -40.25 -2.65 -40.1 -6.4 -38.9 -10.45 -35.25 -24.4 -23.55 -32.7 L-20.2 -34.85 Q-5.6 -43.25 10.45 -38.9 26.5 -34.65 34.85 -20.2" fill="none" stroke="#4969ff" stroke-linecap="round" stroke-linejoin="round" stroke-opacity="0.7019608" stroke-width="0.05"/>
      <path d="M13.3 -49.8 L19.5 -47.8 27.15 -59.3 Q32.8 -56.75 37.85 -53.15 L31.55 -41.05 Q36.7 -37.1 40.8 -31.7 L53.2 -37.85 Q56.75 -32.8 59.35 -27.15 L47.75 -19.75 Q50.4 -13.55 51.3 -7.05 L65.0 -6.2 Q65.6 -0.05 65.0 6.1 L51.2 6.7 Q50.7 10.0 49.8 13.35 L47.85 19.45 59.45 27.15 Q56.85 32.8 53.3 37.85 L41.1 31.5 Q37.15 36.65 31.8 40.75 L37.95 53.2 Q32.9 56.75 27.25 59.35 L19.85 47.7 Q13.6 50.4 7.15 51.3 L6.25 64.95 Q0.1 65.55 -6.05 64.95 L-6.65 51.25 -13.4 49.85 -19.3 47.9 -26.95 59.45 Q-32.6 56.85 -37.65 53.3 L-31.35 41.2 Q-36.55 37.2 -40.7 31.85 L-53.05 37.95 Q-56.65 32.9 -59.2 27.25 L-47.65 19.9 Q-50.4 13.6 -51.3 7.05 L-64.9 6.2 Q-65.5 0.05 -64.9 -6.1 L-51.25 -6.65 -49.9 -13.3 Q-49.05 -16.5 -47.85 -19.45 L-59.25 -27.0 Q-56.7 -32.65 -53.1 -37.7 L-41.1 -31.4 Q-37.15 -36.65 -31.7 -40.75 L-37.8 -53.1 Q-32.75 -56.7 -27.1 -59.25 L-19.75 -47.7 Q-13.5 -50.4 -7.0 -51.25 L-6.15 -64.95 Q0.0 -65.55 6.15 -64.95 L6.75 -51.15 13.3 -49.8 M34.85 -20.2 Q26.5 -34.65 10.45 -38.9 -5.6 -43.25 -20.2 -34.85 L-23.55 -32.7 Q-35.25 -24.4 -38.9 -10.45 -40.1 -6.4 -40.25 -2.65 -40.45 0.55 -40.25 3.35 -39.6 12.2 -34.95 20.25 -30.15 28.35 -23.55 32.95 -19.3 36.0 -14.7 37.65 L-10.45 38.95 Q2.55 42.55 14.65 37.65 17.95 36.25 20.25 34.95 34.55 26.55 38.9 10.55 43.25 -5.55 34.85 -20.2" fill="#4969ff" fill-opacity="0.15294118" fill-rule="evenodd" stroke="none"/>
      <path d="M13.3 -49.8 L19.5 -47.8 27.15 -59.3 Q32.8 -56.75 37.85 -53.15 L31.55 -41.05 Q36.7 -37.1 40.8 -31.7 L53.2 -37.85 Q56.75 -32.8 59.35 -27.15 L47.75 -19.75 Q50.4 -13.55 51.3 -7.05 L65.0 -6.2 Q65.6 -0.05 65.0 6.1 L51.2 6.7 Q50.7 10.0 49.8 13.35 L47.85 19.45 59.45 27.15 Q56.85 32.8 53.3 37.85 L41.1 31.5 Q37.15 36.65 31.8 40.75 L37.95 53.2 Q32.9 56.75 27.25 59.35 L19.85 47.7 Q13.6 50.4 7.15 51.3 L6.25 64.95 Q0.1 65.55 -6.05 64.95 L-6.65 51.25 -13.4 49.85 -19.3 47.9 -26.95 59.45 Q-32.6 56.85 -37.65 53.3 L-31.35 41.2 Q-36.55 37.2 -40.7 31.85 L-53.05 37.95 Q-56.65 32.9 -59.2 27.25 L-47.65 19.9 Q-50.4 13.6 -51.3 7.05 L-64.9 6.2 Q-65.5 0.05 -64.9 -6.1 L-51.25 -6.65 -49.9 -13.3 Q-49.05 -16.5 -47.85 -19.45 L-59.25 -27.0 Q-56.7 -32.65 -53.1 -37.7 L-41.1 -31.4 Q-37.15 -36.65 -31.7 -40.75 L-37.8 -53.1 Q-32.75 -56.7 -27.1 -59.25 L-19.75 -47.7 Q-13.5 -50.4 -7.0 -51.25 L-6.15 -64.95 Q0.0 -65.55 6.15 -64.95 L6.75 -51.15 13.3 -49.8 M34.85 -20.2 Q43.25 -5.55 38.9 10.55 34.55 26.55 20.25 34.95 17.95 36.25 14.65 37.65 2.55 42.55 -10.45 38.95 L-14.7 37.65 Q-19.3 36.0 -23.55 32.95 -30.15 28.35 -34.95 20.25 -39.6 12.2 -40.25 3.35 -40.45 0.55 -40.25 -2.65 -40.1 -6.4 -38.9 -10.45 -35.25 -24.4 -23.55 -32.7 L-20.2 -34.85 Q-5.6 -43.25 10.45 -38.9 26.5 -34.65 34.85 -20.2" fill="none" stroke="#4969ff" stroke-linecap="round" stroke-linejoin="round" stroke-opacity="0.101960786" stroke-width="5.5"/>
    </g>
    <g id="sprite3" transform="matrix(1.0, 0.0, 0.0, 1.0, 19.0, 19.0)">
      <use height="38.05" transform="matrix(1.0, 0.0, 0.0, 1.0, -19.0, -19.0)" width="38.05" xlink:href="#shape2"/>
    </g>
    <g id="shape2" transform="matrix(1.0, 0.0, 0.0, 1.0, 19.0, 19.0)">
      <path d="M-10.7 -4.35 Q-11.55 -2.4 -11.55 0.0 L-11.55 0.1 -15.75 0.1 Q-15.75 3.35 -14.55 6.15 L-10.65 4.5 Q-9.85 6.5 -8.2 8.15 L-8.1 8.2 -11.05 11.2 Q-8.75 13.5 -5.9 14.65 L-4.35 10.75 Q-2.35 11.55 0.0 11.55 L0.0 15.75 Q3.4 15.75 6.25 14.5 L4.6 10.65 Q6.5 9.8 8.15 8.15 L8.2 8.1 11.15 11.05 Q13.45 8.7 14.6 5.9 L10.8 4.35 Q11.5 2.4 11.5 0.1 L15.65 0.1 15.65 0.0 Q15.65 -3.25 14.5 -6.0 L10.7 -4.4 Q9.85 -6.4 8.2 -8.1 L11.15 -11.05 11.1 -11.1 Q8.75 -13.5 5.9 -14.65 L4.35 -10.75 Q2.35 -11.55 0.0 -11.55 L0.0 -15.75 Q-3.35 -15.75 -6.15 -14.5 L-4.5 -10.65 Q-6.5 -9.85 -8.1 -8.2 L-11.05 -11.15 -11.15 -11.1 Q-13.45 -8.8 -14.6 -5.95 L-10.7 -4.35 M12.9 -12.9 Q18.3 -7.5 18.3 0.0 18.3 6.9 13.85 11.9 L12.9 12.9 Q7.55 18.3 0.0 18.3 -7.5 18.3 -12.9 12.9 L-13.85 11.9 Q-18.25 6.9 -18.25 0.0 -18.25 -7.5 -12.9 -12.9 -7.5 -18.25 0.0 -18.25 7.55 -18.25 12.9 -12.9" fill="url(#gradient40)" fill-rule="evenodd" stroke="none"/>
      <path d="M-10.7 -4.35 L-14.6 -5.95 Q-13.45 -8.8 -11.15 -11.1 L-11.05 -11.15 -8.1 -8.2 Q-6.5 -9.85 -4.5 -10.65 L-6.15 -14.5 Q-3.35 -15.75 0.0 -15.75 L0.0 -11.55 Q2.35 -11.55 4.35 -10.75 L5.9 -14.65 Q8.75 -13.5 11.1 -11.1 L11.15 -11.05 8.2 -8.1 Q9.85 -6.4 10.7 -4.4 L14.5 -6.0 Q15.65 -3.25 15.65 0.0 L15.65 0.1 11.5 0.1 Q11.5 2.4 10.8 4.35 L14.6 5.9 Q13.45 8.7 11.15 11.05 L8.2 8.1 8.15 8.15 Q6.5 9.8 4.6 10.65 L6.25 14.5 Q3.4 15.75 0.0 15.75 L0.0 11.55 Q-2.35 11.55 -4.35 10.75 L-5.9 14.65 Q-8.75 13.5 -11.05 11.2 L-8.1 8.2 -8.2 8.15 Q-9.85 6.5 -10.65 4.5 L-14.55 6.15 Q-15.75 3.35 -15.75 0.1 L-11.55 0.1 -11.55 0.0 Q-11.55 -2.4 -10.7 -4.35 L-10.65 -4.35 -10.7 -4.35 M12.9 -12.9 Q18.3 -7.5 18.3 0.0 18.3 6.9 13.85 11.9 L12.9 12.9 Q7.55 18.3 0.0 18.3 -7.5 18.3 -12.9 12.9 L-13.85 11.9 Q-18.25 6.9 -18.25 0.0 -18.25 -7.5 -12.9 -12.9 -7.5 -18.25 0.0 -18.25 7.55 -18.25 12.9 -12.9" fill="none" stroke="#71aeff" stroke-linecap="round" stroke-linejoin="round" stroke-opacity="0.12941177" stroke-width="1.5"/>
    </g>
    <radialGradient cx="0" cy="0" gradientTransform="matrix(0.0209, 0.0, 0.0, 0.0209, 0.05, 0.05)" gradientUnits="userSpaceOnUse" id="gradient40" r="819.2" spreadMethod="pad">
      <stop offset="0.7254901960784313" stop-color="#71aeff" stop-opacity="0.4392157"/>
      <stop offset="1.0" stop-color="#71aeff" stop-opacity="0.4392157"/>
    </radialGradient>
  </defs>
</svg>
