<?xml version="1.0" encoding="UTF-8" standalone="no"?>
<svg xmlns:xlink="http://www.w3.org/1999/xlink" height="29.75px" width="54.15px" xmlns="http://www.w3.org/2000/svg">
  <g transform="matrix(1.0, 0.0, 0.0, 1.0, 27.1, 13.85)">
    <path d="M18.75 -1.05 L11.1 -2.45 12.9 -6.75 5.25 -5.35 2.1 -9.45 -2.65 -5.85 -9.6 -8.15 -9.55 -3.75 -17.6 -3.35 -12.8 0.25 -19.0 3.15 -11.2 4.5 -13.05 8.85 -5.45 7.4 -2.25 11.55 2.5 7.95 9.4 10.25 9.3 5.8 17.4 5.4 12.6 1.85 18.75 -1.05 M15.1 -11.3 L14.6 -7.55 21.3 -8.15 18.7 -4.65 25.4 -4.05 20.95 -1.2 27.05 0.55 21.15 2.5 26.0 5.15 19.35 6.05 22.4 9.4 15.6 9.1 16.6 12.8 10.3 11.35 9.2 15.05 4.0 12.6 0.9 15.9 -2.65 12.7 -7.55 15.35 -9.1 11.7 -15.2 13.35 -14.7 9.6 -21.45 10.15 -18.75 6.75 -25.45 6.15 -21.05 3.3 -27.1 1.55 -21.3 -0.4 -26.05 -3.1 -19.4 -3.95 -22.45 -7.3 -15.65 -7.0 -16.7 -10.7 -10.35 -9.25 -9.25 -12.95 -4.1 -10.5 -0.95 -13.85 2.6 -10.65 7.45 -13.3 9.05 -9.65 15.1 -11.3" fill="url(#gradient0)" fill-rule="evenodd" stroke="none"/>
    <path d="M-15.85 -3.5 L-15.9 -4.1 Q-15.9 -5.8 -14.65 -7.25 -13.5 -8.5 -11.4 -9.6 L-11.3 -9.65 Q-6.7 -11.95 -0.2 -11.95 6.3 -11.95 10.9 -9.65 L11.05 -9.55 Q13.2 -8.5 14.3 -7.2 L14.75 -6.6 Q15.6 -5.35 15.6 -3.95 L15.55 -3.35 15.5 -3.75 14.8 -5.3 Q13.7 -6.95 11.0 -8.3 L9.0 -9.2 Q5.05 -10.6 -0.1 -10.6 -5.2 -10.6 -9.1 -9.25 L-11.2 -8.3 Q-15.4 -6.2 -15.75 -3.35 L-15.8 -3.8 -15.85 -3.5" fill="#898c72" fill-rule="evenodd" stroke="none"/>
    <path d="M14.75 -6.6 L14.3 -7.2 Q13.2 -8.5 11.05 -9.55 L10.9 -9.65 Q6.3 -11.95 -0.2 -11.95 -6.7 -11.95 -11.3 -9.65 L-11.4 -9.6 Q-13.5 -8.5 -14.65 -7.25 -15.9 -5.8 -15.9 -4.1 L-15.85 -3.5 -15.9 -2.9 Q-15.9 -1.5 -15.05 -0.3 -13.95 1.4 -11.2 2.75 -6.6 5.1 -0.1 5.1 6.4 5.1 11.0 2.75 15.6 0.5 15.6 -2.75 L15.55 -3.35 15.6 -3.95 Q15.6 -5.35 14.75 -6.6 M19.7 -4.55 L19.9 -2.9 19.8 -1.85 19.75 -1.4 Q18.85 2.0 14.0 4.55 8.1 7.65 -0.2 7.65 -8.55 7.65 -14.45 4.55 -19.25 2.0 -20.1 -1.35 L-20.2 -1.85 -20.3 -2.9 -19.95 -5.05 -20.3 -2.9 -20.2 -1.85 -20.1 -1.35 Q-19.25 2.0 -14.45 4.55 -8.55 7.65 -0.2 7.65 8.1 7.65 14.0 4.55 18.85 2.0 19.75 -1.4 L19.8 -1.85 19.9 -2.9 19.7 -4.55 Q20.5 -3.35 21.0 -1.4 L21.1 -0.9 Q20.45 3.1 14.9 6.0 8.65 9.35 -0.2 9.35 -9.1 9.35 -15.35 6.0 -20.8 3.1 -21.5 -0.8 L-21.1 -2.2 -19.95 -5.05 -19.9 -5.1 Q-18.8 -8.1 -14.45 -10.4 -8.55 -13.5 -0.2 -13.5 8.1 -13.5 14.0 -10.4 18.5 -8.05 19.6 -4.95 L19.7 -4.55" fill="#c9cca7" fill-rule="evenodd" stroke="none"/>
    <path d="M-15.75 -3.35 Q-15.4 -6.2 -11.2 -8.3 L-9.1 -9.25 Q-5.2 -10.6 -0.1 -10.6 5.05 -10.6 9.0 -9.2 L11.0 -8.3 Q13.7 -6.95 14.8 -5.3 L15.5 -3.75 15.55 -3.35 15.6 -2.75 Q15.6 0.5 11.0 2.75 6.4 5.1 -0.1 5.1 -6.6 5.1 -11.2 2.75 -13.95 1.4 -15.05 -0.3 -15.8 -1.45 -15.8 -2.75 L-15.75 -3.35" fill="#585857" fill-rule="evenodd" stroke="none"/>
    <path d="M-21.5 -0.8 Q-20.8 3.1 -15.35 6.0 -9.1 9.35 -0.2 9.35 8.65 9.35 14.9 6.0 20.45 3.1 21.1 -0.9 L21.2 0.25 Q21.2 4.95 14.9 8.25 8.65 11.6 -0.2 11.6 -9.1 11.6 -15.35 8.25 -21.6 4.95 -21.6 0.25 L-21.5 -0.7 -21.5 -0.8" fill="#8e9176" fill-rule="evenodd" stroke="none"/>
    <path d="M-15.85 -3.5 L-15.8 -3.8 -15.75 -3.35 -15.8 -2.75 Q-15.8 -1.45 -15.05 -0.3 -15.9 -1.5 -15.9 -2.9 L-15.85 -3.5" fill="#5a5b4b" fill-rule="evenodd" stroke="none"/>
    <path d="M14.75 -6.6 L14.3 -7.2 Q13.2 -8.5 11.05 -9.55 L10.9 -9.65 Q6.3 -11.95 -0.2 -11.95 -6.7 -11.95 -11.3 -9.65 L-11.4 -9.6 Q-13.5 -8.5 -14.65 -7.25 -15.9 -5.8 -15.9 -4.1 L-15.85 -3.5 -15.9 -2.9 Q-15.9 -1.5 -15.05 -0.3 -15.8 -1.45 -15.8 -2.75 L-15.75 -3.35 M15.55 -3.35 L15.6 -2.75 Q15.6 0.5 11.0 2.75 6.4 5.1 -0.1 5.1 -6.6 5.1 -11.2 2.75 -13.95 1.4 -15.05 -0.3" fill="none" stroke="#000000" stroke-linecap="round" stroke-linejoin="round" stroke-opacity="0.24705882" stroke-width="0.1"/>
    <path d="M-19.95 -5.05 L-20.3 -2.9 -20.2 -1.85 -20.1 -1.35 Q-19.25 2.0 -14.45 4.55 -8.55 7.65 -0.2 7.65 8.1 7.65 14.0 4.55 18.85 2.0 19.75 -1.4 L19.8 -1.85 19.9 -2.9 19.7 -4.55" fill="none" stroke="#ffffff" stroke-linecap="round" stroke-linejoin="round" stroke-opacity="0.5019608" stroke-width="0.05"/>
    <path d="M19.7 -4.55 L19.6 -4.95 Q18.5 -8.05 14.0 -10.4 8.1 -13.5 -0.2 -13.5 -8.55 -13.5 -14.45 -10.4 -18.8 -8.1 -19.9 -5.1 L-19.95 -5.05 -21.1 -2.2 -21.5 -0.8 -21.5 -0.7 -21.6 0.25 Q-21.6 4.95 -15.35 8.25 -9.1 11.6 -0.2 11.6 8.65 11.6 14.9 8.25 21.2 4.95 21.2 0.25 L21.1 -0.9 21.0 -1.4 Q20.5 -3.35 19.7 -4.55" fill="none" stroke="#000000" stroke-linecap="round" stroke-linejoin="round" stroke-opacity="0.5019608" stroke-width="0.05"/>
    <path d="M1.3 -5.35 L0.65 -4.4 -1.3 -8.4 1.2 -8.65 1.3 -5.35" fill="url(#gradient1)" fill-rule="evenodd" stroke="none"/>
    <path d="M9.95 -7.45 Q14.9 -3.2 12.85 -0.3 L3.25 -1.85 7.1 -2.75 3.35 -3.6 9.75 -7.6 9.95 -7.45 M1.05 4.0 L-5.5 3.15 Q-2.25 0.3 1.3 -1.85 L1.05 4.0 M-4.3 -7.9 Q-1.55 -5.8 1.1 -2.65 L-10.15 -3.45 Q-7.4 -6.55 -4.3 -7.9" fill="url(#gradient2)" fill-rule="evenodd" stroke="none"/>
    <path d="M-12.8 -1.7 L-6.15 -1.2 -11.3 1.0 Q-12.9 -0.05 -12.8 -1.7" fill="url(#gradient3)" fill-rule="evenodd" stroke="none"/>
    <path d="M9.95 -7.45 Q14.9 -3.2 12.85 -0.3 L3.25 -1.85 7.1 -2.75 3.35 -3.6 9.75 -7.6 9.95 -7.45 M1.3 -5.35 L1.2 -8.65 -1.3 -8.4 0.65 -4.4 1.3 -5.35 M1.05 4.0 L-5.5 3.15 Q-2.25 0.3 1.3 -1.85 L1.05 4.0 M-12.8 -1.7 Q-12.9 -0.05 -11.3 1.0 L-6.15 -1.2 -12.8 -1.7 M-4.3 -7.9 Q-1.55 -5.8 1.1 -2.65 L-10.15 -3.45 Q-7.4 -6.55 -4.3 -7.9" fill="none" stroke="#ffffff" stroke-linecap="round" stroke-linejoin="round" stroke-opacity="0.32941177" stroke-width="0.2"/>
  </g>
  <defs>
    <radialGradient cx="0" cy="0" gradientTransform="matrix(0.0, -0.017, 0.0329, 0.0, -0.35, 1.35)" gradientUnits="userSpaceOnUse" id="gradient0" r="819.2" spreadMethod="pad">
      <stop offset="0.00784313725490196" stop-color="#4d2673"/>
      <stop offset="1.0" stop-color="#cd61da"/>
    </radialGradient>
    <radialGradient cx="0" cy="0" gradientTransform="matrix(-2.0E-4, 0.0071, -0.0146, -4.0E-4, -0.1, -2.75)" gradientUnits="userSpaceOnUse" id="gradient1" r="819.2" spreadMethod="pad">
      <stop offset="0.01568627450980392" stop-color="#f1aef2"/>
      <stop offset="1.0" stop-color="#cc61da"/>
    </radialGradient>
    <radialGradient cx="0" cy="0" gradientTransform="matrix(-2.0E-4, 0.0083, -0.0146, -4.0E-4, 0.3, -2.5)" gradientUnits="userSpaceOnUse" id="gradient2" r="819.2" spreadMethod="pad">
      <stop offset="0.01568627450980392" stop-color="#f1aef2"/>
      <stop offset="1.0" stop-color="#cc61da"/>
    </radialGradient>
    <radialGradient cx="0" cy="0" gradientTransform="matrix(-2.0E-4, 0.0083, -0.0146, -0.0011, 1.2, -1.75)" gradientUnits="userSpaceOnUse" id="gradient3" r="819.2" spreadMethod="pad">
      <stop offset="0.01568627450980392" stop-color="#f1aef2"/>
      <stop offset="1.0" stop-color="#cc61da"/>
    </radialGradient>
  </defs>
</svg>
