<?xml version="1.0" encoding="UTF-8" standalone="no"?>
<svg xmlns:xlink="http://www.w3.org/1999/xlink" height="29.75px" width="54.15px" xmlns="http://www.w3.org/2000/svg">
  <g transform="matrix(1.0, 0.0, 0.0, 1.0, 27.05, 15.8)">
    <path d="M-4.05 -12.45 L-0.9 -15.8 2.65 -12.6 7.5 -15.25 9.1 -11.6 15.15 -13.25 14.65 -9.5 21.35 -10.1 18.75 -6.6 25.45 -6.0 21.0 -3.15 27.1 -1.4 21.2 0.55 26.05 3.2 19.4 4.1 22.45 7.45 15.65 7.15 16.65 10.85 10.35 9.4 9.25 13.1 4.05 10.65 0.95 13.95 -2.6 10.75 -7.5 13.4 -9.05 9.75 -15.15 11.4 -14.65 7.65 -21.4 8.2 -18.7 4.8 -25.4 4.2 -21.0 1.35 -27.05 -0.4 -21.25 -2.35 -26.0 -5.05 -19.35 -5.9 -22.4 -9.25 -15.6 -8.95 -16.65 -12.65 -10.3 -11.2 -9.2 -14.9 -4.05 -12.45 M-17.55 -5.3 L-12.75 -1.7 -18.95 1.2 -11.15 2.55 -13.0 6.9 -5.4 5.45 -2.2 9.6 2.55 6.0 9.45 8.3 9.35 3.85 17.45 3.45 12.65 -0.1 18.8 -3.0 11.15 -4.4 12.95 -8.7 5.3 -7.3 2.15 -11.4 -2.6 -7.8 -9.55 -10.1 -9.5 -5.7 -17.55 -5.3" fill="url(#gradient0)" fill-rule="evenodd" stroke="none"/>
    <path d="M-15.85 -5.45 L-15.9 -6.05 Q-15.9 -7.75 -14.65 -9.2 -13.5 -10.45 -11.4 -11.55 L-11.3 -11.6 Q-6.7 -13.9 -0.2 -13.9 6.3 -13.9 10.9 -11.6 L11.05 -11.5 Q13.2 -10.45 14.3 -9.15 L14.75 -8.55 Q15.6 -7.3 15.6 -5.9 L15.55 -5.3 15.5 -5.7 14.8 -7.25 Q13.7 -8.9 11.0 -10.25 L9.0 -11.15 Q5.05 -12.55 -0.1 -12.55 -5.2 -12.55 -9.1 -11.2 L-11.2 -10.25 Q-15.4 -8.15 -15.75 -5.3 L-15.8 -5.75 -15.85 -5.45" fill="#898c72" fill-rule="evenodd" stroke="none"/>
    <path d="M14.75 -8.55 L14.3 -9.15 Q13.2 -10.45 11.05 -11.5 L10.9 -11.6 Q6.3 -13.9 -0.2 -13.9 -6.7 -13.9 -11.3 -11.6 L-11.4 -11.55 Q-13.5 -10.45 -14.65 -9.2 -15.9 -7.75 -15.9 -6.05 L-15.85 -5.45 -15.9 -4.85 Q-15.9 -3.45 -15.05 -2.25 -13.95 -0.55 -11.2 0.8 -6.6 3.15 -0.1 3.15 6.4 3.15 11.0 0.8 15.6 -1.45 15.6 -4.7 L15.55 -5.3 15.6 -5.9 Q15.6 -7.3 14.75 -8.55 M-19.95 -7.0 L-19.9 -7.05 Q-18.8 -10.05 -14.45 -12.35 -8.55 -15.45 -0.2 -15.45 8.1 -15.45 14.0 -12.35 18.5 -10.0 19.6 -6.9 L19.7 -6.5 19.9 -4.85 19.8 -3.8 19.75 -3.35 Q18.85 0.05 14.0 2.6 8.1 5.7 -0.2 5.7 -8.55 5.7 -14.45 2.6 -19.25 0.05 -20.1 -3.3 L-20.2 -3.8 -20.3 -4.85 -19.95 -7.0 -20.3 -4.85 -20.2 -3.8 -20.1 -3.3 Q-19.25 0.05 -14.45 2.6 -8.55 5.7 -0.2 5.7 8.1 5.7 14.0 2.6 18.85 0.05 19.75 -3.35 L19.8 -3.8 19.9 -4.85 19.7 -6.5 Q20.5 -5.3 21.0 -3.35 L21.1 -2.85 Q20.45 1.15 14.9 4.05 8.65 7.4 -0.2 7.4 -9.1 7.4 -15.35 4.05 -20.8 1.15 -21.5 -2.75 L-21.1 -4.15 -19.95 -7.0" fill="#c9cca7" fill-rule="evenodd" stroke="none"/>
    <path d="M-15.75 -5.3 Q-15.4 -8.15 -11.2 -10.25 L-9.1 -11.2 Q-5.2 -12.55 -0.1 -12.55 5.05 -12.55 9.0 -11.15 L11.0 -10.25 Q13.7 -8.9 14.8 -7.25 L15.5 -5.7 15.55 -5.3 15.6 -4.7 Q15.6 -1.45 11.0 0.8 6.4 3.15 -0.1 3.15 -6.6 3.15 -11.2 0.8 -13.95 -0.55 -15.05 -2.25 -15.8 -3.4 -15.8 -4.7 L-15.75 -5.3" fill="#afb292" fill-rule="evenodd" stroke="none"/>
    <path d="M21.1 -2.85 L21.2 -1.7 Q21.2 3.0 14.9 6.3 8.65 9.65 -0.2 9.65 -9.1 9.65 -15.35 6.3 -21.6 3.0 -21.6 -1.7 L-21.5 -2.65 -21.5 -2.75 Q-20.8 1.15 -15.35 4.05 -9.1 7.4 -0.2 7.4 8.65 7.4 14.9 4.05 20.45 1.15 21.1 -2.85" fill="#8e9176" fill-rule="evenodd" stroke="none"/>
    <path d="M-15.85 -5.45 L-15.8 -5.75 -15.75 -5.3 -15.8 -4.7 Q-15.8 -3.4 -15.05 -2.25 -15.9 -3.45 -15.9 -4.85 L-15.85 -5.45" fill="#5a5b4b" fill-rule="evenodd" stroke="none"/>
    <path d="M14.75 -8.55 L14.3 -9.15 Q13.2 -10.45 11.05 -11.5 L10.9 -11.6 Q6.3 -13.9 -0.2 -13.9 -6.7 -13.9 -11.3 -11.6 L-11.4 -11.55 Q-13.5 -10.45 -14.65 -9.2 -15.9 -7.75 -15.9 -6.05 L-15.85 -5.45 -15.9 -4.85 Q-15.9 -3.45 -15.05 -2.25 -15.8 -3.4 -15.8 -4.7 L-15.75 -5.3 M15.55 -5.3 L15.6 -4.7 Q15.6 -1.45 11.0 0.8 6.4 3.15 -0.1 3.15 -6.6 3.15 -11.2 0.8 -13.95 -0.55 -15.05 -2.25" fill="none" stroke="#000000" stroke-linecap="round" stroke-linejoin="round" stroke-opacity="0.24705882" stroke-width="0.1"/>
    <path d="M19.7 -6.5 L19.6 -6.9 Q18.5 -10.0 14.0 -12.35 8.1 -15.45 -0.2 -15.45 -8.55 -15.45 -14.45 -12.35 -18.8 -10.05 -19.9 -7.05 L-19.95 -7.0 -21.1 -4.15 -21.5 -2.75 -21.5 -2.65 -21.6 -1.7 Q-21.6 3.0 -15.35 6.3 -9.1 9.65 -0.2 9.65 8.65 9.65 14.9 6.3 21.2 3.0 21.2 -1.7 L21.1 -2.85 21.0 -3.35 Q20.5 -5.3 19.7 -6.5" fill="none" stroke="#000000" stroke-linecap="round" stroke-linejoin="round" stroke-opacity="0.5019608" stroke-width="0.05"/>
    <path d="M-19.95 -7.0 L-20.3 -4.85 -20.2 -3.8 -20.1 -3.3 Q-19.25 0.05 -14.45 2.6 -8.55 5.7 -0.2 5.7 8.1 5.7 14.0 2.6 18.85 0.05 19.75 -3.35 L19.8 -3.8 19.9 -4.85 19.7 -6.5" fill="none" stroke="#ffffff" stroke-linecap="round" stroke-linejoin="round" stroke-opacity="0.5019608" stroke-width="0.05"/>
    <path d="M6.75 -8.8 Q12.85 -8.6 12.85 -5.05 12.85 -1.55 6.75 -1.35 10.95 -2.5 10.95 -5.0 10.95 -7.65 6.75 -8.8 M6.85 -5.0 Q6.85 -7.4 3.05 -8.35 8.45 -8.2 8.45 -5.05 8.45 -1.95 3.05 -1.75 6.85 -2.75 6.85 -5.0 M-3.75 -7.8 L-1.15 -7.25 1.7 -8.0 0.4 -6.5 1.4 -5.25 4.4 -4.65 1.4 -4.0 Q1.1 -3.3 0.4 -2.7 L1.65 -1.25 -1.25 -1.95 -3.7 -1.45 -4.8 0.15 -5.95 -1.45 Q-7.2 -1.55 -8.3 -1.95 L-11.25 -1.25 -9.9 -2.7 Q-10.75 -3.3 -10.95 -4.0 L-13.9 -4.65 -10.95 -5.1 Q-10.75 -5.9 -10.0 -6.5 L-11.25 -8.0 -8.45 -7.25 -5.9 -7.8 -4.8 -9.35 -3.75 -7.8" fill="url(#gradient1)" fill-rule="evenodd" stroke="none"/>
    <path d="M-3.75 -7.8 L-4.8 -9.35 -5.9 -7.8 -8.45 -7.25 -11.25 -8.0 -10.0 -6.5 Q-10.75 -5.9 -10.95 -5.1 L-13.9 -4.65 -10.95 -4.0 Q-10.75 -3.3 -9.9 -2.7 L-11.25 -1.25 -8.3 -1.95 Q-7.2 -1.55 -5.95 -1.45 L-4.8 0.15 -3.7 -1.45 -1.25 -1.95 1.65 -1.25 0.4 -2.7 Q1.1 -3.3 1.4 -4.0 L4.4 -4.65 1.4 -5.25 0.4 -6.5 1.7 -8.0 -1.15 -7.25 -3.75 -7.8 M6.85 -5.0 Q6.85 -2.75 3.05 -1.75 8.45 -1.95 8.45 -5.05 8.45 -8.2 3.05 -8.35 6.85 -7.4 6.85 -5.0 M6.75 -8.8 Q10.95 -7.65 10.95 -5.0 10.95 -2.5 6.75 -1.35 12.85 -1.55 12.85 -5.05 12.85 -8.6 6.75 -8.8" fill="none" stroke="#ffffff" stroke-linecap="round" stroke-linejoin="round" stroke-opacity="0.24705882" stroke-width="0.1"/>
  </g>
  <defs>
    <radialGradient cx="0" cy="0" gradientTransform="matrix(0.0267, 0.0, 0.0, 0.0148, -0.1, -2.35)" gradientUnits="userSpaceOnUse" id="gradient0" r="819.2" spreadMethod="pad">
      <stop offset="0.00784313725490196" stop-color="#856dbf"/>
      <stop offset="0.9882352941176471" stop-color="#5b30af"/>
    </radialGradient>
    <radialGradient cx="0" cy="0" gradientTransform="matrix(0.0253, 0.0, 0.0, 0.0253, 6.8, -4.15)" gradientUnits="userSpaceOnUse" id="gradient1" r="819.2" spreadMethod="pad">
      <stop offset="0.027450980392156862" stop-color="#8652d7"/>
      <stop offset="1.0" stop-color="#3900a8"/>
    </radialGradient>
  </defs>
</svg>
