<?xml version="1.0" encoding="UTF-8" standalone="no"?>
<svg xmlns:xlink="http://www.w3.org/1999/xlink" height="29.75px" width="54.15px" xmlns="http://www.w3.org/2000/svg">
  <g transform="matrix(1.0, 0.0, 0.0, 1.0, 27.0, 13.7)">
    <path d="M18.85 -0.9 L11.2 -2.3 13.0 -6.6 5.35 -5.2 2.2 -9.3 -2.55 -5.7 -9.5 -8.0 -9.45 -3.6 -17.5 -3.2 -12.7 0.4 -18.9 3.3 -11.1 4.65 -12.95 9.0 -5.35 7.55 -2.15 11.7 2.6 8.1 9.5 10.4 9.4 5.95 17.5 5.55 12.7 2.0 18.85 -0.9 M15.2 -11.15 L14.7 -7.4 21.4 -8.0 18.8 -4.5 25.5 -3.9 21.05 -1.05 27.15 0.7 21.25 2.65 26.1 5.3 19.45 6.2 22.5 9.55 15.7 9.25 16.7 12.95 10.4 11.5 9.3 15.2 4.1 12.75 1.0 16.05 -2.55 12.85 -7.45 15.5 -9.0 11.85 -15.1 13.5 -14.6 9.75 -21.35 10.3 -18.65 6.9 -25.35 6.3 -20.95 3.45 -27.0 1.7 -21.2 -0.25 -25.95 -2.95 -19.3 -3.8 -22.35 -7.15 -15.55 -6.85 -16.6 -10.55 -10.25 -9.1 -9.15 -12.8 -4.0 -10.35 -0.85 -13.7 2.7 -10.5 7.55 -13.15 9.15 -9.5 15.2 -11.15" fill="url(#gradient0)" fill-rule="evenodd" stroke="none"/>
    <path d="M-15.75 -3.35 L-15.8 -3.95 Q-15.8 -5.65 -14.55 -7.1 -13.4 -8.35 -11.3 -9.45 L-11.2 -9.5 Q-6.6 -11.8 -0.1 -11.8 6.4 -11.8 11.0 -9.5 L11.15 -9.4 Q13.3 -8.35 14.4 -7.05 15.6 -5.6 15.6 -3.95 L15.55 -3.35 Q15.2 -6.2 11.0 -8.3 L9.0 -9.2 Q5.05 -10.6 -0.1 -10.6 -5.2 -10.6 -9.1 -9.25 L-11.2 -8.3 Q-15.4 -6.2 -15.75 -3.35" fill="#898c72" fill-rule="evenodd" stroke="none"/>
    <path d="M15.55 -3.35 L15.6 -3.95 Q15.6 -5.6 14.4 -7.05 13.3 -8.35 11.15 -9.4 L11.0 -9.5 Q6.4 -11.8 -0.1 -11.8 -6.6 -11.8 -11.2 -9.5 L-11.3 -9.45 Q-13.4 -8.35 -14.55 -7.1 -15.8 -5.65 -15.8 -3.95 L-15.75 -3.35 -15.8 -2.75 Q-15.8 0.5 -11.2 2.75 -6.6 5.1 -0.1 5.1 6.4 5.1 11.0 2.75 15.6 0.5 15.6 -2.75 L15.55 -3.35 M19.8 -4.4 L20.0 -2.75 19.9 -1.7 19.85 -1.25 Q18.95 2.15 14.1 4.7 8.2 7.8 -0.1 7.8 -8.45 7.8 -14.35 4.7 -19.15 2.15 -20.0 -1.2 L-20.1 -1.7 -20.2 -2.75 -19.85 -4.9 -20.2 -2.75 -20.1 -1.7 -20.0 -1.2 Q-19.15 2.15 -14.35 4.7 -8.45 7.8 -0.1 7.8 8.2 7.8 14.1 4.7 18.95 2.15 19.85 -1.25 L19.9 -1.7 20.0 -2.75 19.8 -4.4 Q20.6 -3.2 21.1 -1.25 L21.2 -0.75 Q20.55 3.25 15.0 6.15 8.75 9.5 -0.1 9.5 -9.0 9.5 -15.25 6.15 -20.7 3.25 -21.4 -0.65 L-21.0 -2.05 -19.85 -4.9 -19.8 -4.95 Q-18.7 -7.95 -14.35 -10.25 -8.45 -13.35 -0.1 -13.35 8.2 -13.35 14.1 -10.25 18.6 -7.9 19.7 -4.8 L19.8 -4.4" fill="#c9cca7" fill-rule="evenodd" stroke="none"/>
    <path d="M-21.4 -0.65 Q-20.7 3.25 -15.25 6.15 -9.0 9.5 -0.1 9.5 8.75 9.5 15.0 6.15 20.55 3.25 21.2 -0.75 L21.3 0.4 Q21.3 5.1 15.0 8.4 8.75 11.75 -0.1 11.75 -9.0 11.75 -15.25 8.4 -21.5 5.1 -21.5 0.4 L-21.4 -0.55 -21.4 -0.65" fill="#8e9176" fill-rule="evenodd" stroke="none"/>
    <path d="M-15.75 -3.35 Q-15.4 -6.2 -11.2 -8.3 L-9.1 -9.25 Q-5.2 -10.6 -0.1 -10.6 5.05 -10.6 9.0 -9.2 L11.0 -8.3 Q15.2 -6.2 15.55 -3.35 L15.6 -2.75 Q15.6 0.5 11.0 2.75 6.4 5.1 -0.1 5.1 -6.6 5.1 -11.2 2.75 -15.8 0.5 -15.8 -2.75 L-15.75 -3.35" fill="#585857" fill-rule="evenodd" stroke="none"/>
    <path d="M15.55 -3.35 L15.6 -3.95 Q15.6 -5.6 14.4 -7.05 13.3 -8.35 11.15 -9.4 L11.0 -9.5 Q6.4 -11.8 -0.1 -11.8 -6.6 -11.8 -11.2 -9.5 L-11.3 -9.45 Q-13.4 -8.35 -14.55 -7.1 -15.8 -5.65 -15.8 -3.95 L-15.75 -3.35" fill="none" stroke="#000000" stroke-linecap="round" stroke-linejoin="round" stroke-opacity="0.24705882" stroke-width="0.05"/>
    <path d="M15.55 -3.35 L15.6 -2.75 Q15.6 0.5 11.0 2.75 6.4 5.1 -0.1 5.1 -6.6 5.1 -11.2 2.75 -15.8 0.5 -15.8 -2.75 L-15.75 -3.35" fill="none" stroke="#000000" stroke-linecap="round" stroke-linejoin="round" stroke-opacity="0.24705882" stroke-width="0.1"/>
    <path d="M-19.85 -4.9 L-20.2 -2.75 -20.1 -1.7 -20.0 -1.2 Q-19.15 2.15 -14.35 4.7 -8.45 7.8 -0.1 7.8 8.2 7.8 14.1 4.7 18.95 2.15 19.85 -1.25 L19.9 -1.7 20.0 -2.75 19.8 -4.4" fill="none" stroke="#ffffff" stroke-linecap="round" stroke-linejoin="round" stroke-opacity="0.5019608" stroke-width="0.05"/>
    <path d="M19.8 -4.4 L19.7 -4.8 Q18.6 -7.9 14.1 -10.25 8.2 -13.35 -0.1 -13.35 -8.45 -13.35 -14.35 -10.25 -18.7 -7.95 -19.8 -4.95 L-19.85 -4.9 -21.0 -2.05 -21.4 -0.65 -21.4 -0.55 -21.5 0.4 Q-21.5 5.1 -15.25 8.4 -9.0 11.75 -0.1 11.75 8.75 11.75 15.0 8.4 21.3 5.1 21.3 0.4 L21.2 -0.75 21.1 -1.25 Q20.6 -3.2 19.8 -4.4" fill="none" stroke="#000000" stroke-linecap="round" stroke-linejoin="round" stroke-opacity="0.5019608" stroke-width="0.05"/>
    <path d="M-2.85 -3.95 L-2.85 -1.5 -0.2 -1.0 2.35 -1.5 2.35 -3.95 5.75 -4.7 5.75 -7.5 9.4 -6.8 9.9 -6.95 10.55 -6.9 10.9 -6.55 9.4 -4.35 Q7.8 -2.5 5.35 -0.75 L2.55 1.0 1.1 2.35 0.1 2.7 -0.2 2.7 -0.55 2.7 -1.5 2.35 -3.0 1.0 -3.55 0.8 Q-8.1 -2.2 -11.15 -6.1 -11.4 -6.35 -11.3 -6.55 L-10.95 -6.9 -10.25 -6.95 -9.85 -6.8 -6.2 -7.5 -6.2 -4.7 -2.85 -3.95 M5.2 2.2 Q9.95 -0.75 12.65 -4.25 L12.85 -4.35 13.1 -4.3 13.25 -4.15 13.2 -3.95 Q10.8 -0.15 5.85 2.5 L5.55 2.55 5.3 2.55 5.15 2.4 5.2 2.2 M2.9 2.5 L2.7 2.65 2.35 2.55 2.15 2.4 2.25 2.15 Q8.55 -1.9 11.5 -5.9 L11.8 -6.05 12.05 -6.0 12.3 -5.75 12.15 -5.65 11.0 -3.95 Q9.05 -1.45 6.0 0.65 L5.55 0.95 4.65 1.5 2.9 2.5 M0.75 1.0 L0.5 1.35 0.45 1.35 0.25 1.5 -0.1 1.5 -0.75 1.35 -0.95 1.0 -0.9 0.8 -0.75 0.65 -0.65 0.6 -0.1 0.45 0.45 0.6 0.75 1.0 M1.1 1.8 L1.55 1.0 Q1.55 0.55 1.1 0.25 0.6 -0.1 -0.1 -0.1 L-1.3 0.25 -1.35 0.25 -1.45 0.3 Q-1.8 0.6 -1.8 1.0 L-1.35 1.8 -0.1 2.15 0.75 2.0 Q0.95 1.85 1.1 1.8 M-2.7 2.15 L-2.65 2.4 -2.75 2.55 -3.05 2.65 -3.4 2.5 Q-9.65 -0.85 -12.65 -5.65 L-12.7 -5.75 -12.55 -6.0 -12.2 -6.05 -11.95 -5.9 Q-8.65 -1.5 -2.7 2.15 M-5.65 2.2 L-5.55 2.4 -5.7 2.55 -6.0 2.55 -6.2 2.5 Q-11.15 -0.15 -13.6 -3.95 L-13.7 -4.15 -13.55 -4.3 -13.25 -4.35 -13.0 -4.25 Q-10.4 -0.75 -5.65 2.2" fill="url(#gradient1)" fill-rule="evenodd" stroke="none"/>
    <path d="M-2.85 -3.95 L-2.85 -1.5 -0.2 -1.0 2.35 -1.5 2.35 -3.95 5.75 -4.7 5.75 -7.5 9.4 -6.8 9.9 -6.95 10.55 -6.9 10.9 -6.55 9.4 -4.35 Q7.8 -2.5 5.35 -0.75 L2.55 1.0 1.1 2.35 0.1 2.7 -0.2 2.7 -0.55 2.7 -1.5 2.35 -3.0 1.0 -3.55 0.8 Q-8.1 -2.2 -11.15 -6.1 -11.4 -6.35 -11.3 -6.55 L-10.95 -6.9 -10.25 -6.95 -9.85 -6.8 -6.2 -7.5 -6.2 -4.7 -2.85 -3.95 M5.2 2.2 Q9.95 -0.75 12.65 -4.25 L12.85 -4.35 13.1 -4.3 13.25 -4.15 13.2 -3.95 Q10.8 -0.15 5.85 2.5 L5.55 2.55 5.3 2.55 5.15 2.4 5.2 2.2 M2.9 2.5 L4.65 1.5 5.55 0.95 6.0 0.65 Q9.05 -1.45 11.0 -3.95 L12.15 -5.65 12.3 -5.75 12.05 -6.0 11.8 -6.05 11.5 -5.9 Q8.55 -1.9 2.25 2.15 L2.15 2.4 2.35 2.55 2.7 2.65 2.9 2.5 M0.75 1.0 L0.5 1.35 0.45 1.35 0.25 1.5 -0.1 1.5 -0.75 1.35 -0.95 1.0 -0.9 0.8 -0.75 0.65 -0.65 0.6 -0.1 0.45 0.45 0.6 0.75 1.0 M1.1 1.8 L1.55 1.0 Q1.55 0.55 1.1 0.25 0.6 -0.1 -0.1 -0.1 L-1.3 0.25 -1.35 0.25 -1.45 0.3 Q-1.8 0.6 -1.8 1.0 L-1.35 1.8 -0.1 2.15 0.75 2.0 Q0.95 1.85 1.1 1.8 M-5.65 2.2 Q-10.4 -0.75 -13.0 -4.25 L-13.25 -4.35 -13.55 -4.3 -13.7 -4.15 -13.6 -3.95 Q-11.15 -0.15 -6.2 2.5 L-6.0 2.55 -5.7 2.55 -5.55 2.4 -5.65 2.2 M-2.7 2.15 Q-8.65 -1.5 -11.95 -5.9 L-12.2 -6.05 -12.55 -6.0 -12.7 -5.75 -12.65 -5.65 Q-9.65 -0.85 -3.4 2.5 L-3.05 2.65 -2.75 2.55 -2.65 2.4 -2.7 2.15" fill="none" stroke="#ffffff" stroke-linecap="round" stroke-linejoin="round" stroke-opacity="0.32941177" stroke-width="0.2"/>
  </g>
  <defs>
    <radialGradient cx="0" cy="0" gradientTransform="matrix(0.0331, 0.0, 0.0, 0.0331, 0.1, 1.2)" gradientUnits="userSpaceOnUse" id="gradient0" r="819.2" spreadMethod="pad">
      <stop offset="0.0" stop-color="#ffffff"/>
      <stop offset="0.7725490196078432" stop-color="#00a8a8"/>
    </radialGradient>
    <radialGradient cx="0" cy="0" fx="339.20000000000005" fy="0" gradientTransform="matrix(-1.0E-4, -0.0108, 0.0236, -2.0E-4, -0.05, -2.8)" gradientUnits="userSpaceOnUse" id="gradient1" r="819.2" spreadMethod="pad">
      <stop offset="0.34509803921568627" stop-color="#00ffcc"/>
      <stop offset="0.9921568627450981" stop-color="#00ccff"/>
    </radialGradient>
  </defs>
</svg>
